<svg width="60" height="60" viewBox="0 0 60 60" fill="none" xmlns="http://www.w3.org/2000/svg">
<path fill-rule="evenodd" clip-rule="evenodd" d="M30.0307 11.1998C31.7332 11.1998 32.5922 13.2682 31.3867 14.4737C30.1813 15.6792 28.1128 14.8201 28.1128 13.1177C28.1128 12.0586 28.9717 11.1998 30.0307 11.1998ZM18.2041 32.7134C18.6291 32.7134 18.8302 32.8268 18.8957 32.7115C18.9189 32.6707 18.914 32.6221 18.8833 32.5867C17.8215 31.3664 18.1545 29.3167 19.402 28.357C20.5396 27.4819 22.9178 27.648 23.8184 28.5545C24.3493 29.0888 25.2586 28.6682 25.2033 27.9217L25.2047 27.9216C25.069 26.0957 27.2839 25.0814 28.5754 26.373C28.9331 26.7307 29.1544 27.2251 29.1544 27.7711V36.2461C29.1544 36.3059 29.1057 36.3546 29.0459 36.3546H25.5014C25.4521 36.3546 25.4103 36.3229 25.397 36.2755C25.0839 35.163 24.1985 34.2788 23.0711 33.977C22.6373 33.8611 22.1918 34.1189 22.0759 34.5526C21.9599 34.9864 22.2177 35.4319 22.6514 35.5478C23.8073 35.8572 24.2686 37.249 23.5474 38.1898C23.3265 38.478 23.0132 38.6926 22.6514 38.7895C22.2176 38.9054 21.9599 39.351 22.0759 39.7848C22.1918 40.2186 22.6373 40.4762 23.0711 40.3603C24.1985 40.0586 25.0839 39.1744 25.397 38.0618C25.4104 38.0143 25.4521 37.9828 25.5014 37.9828H29.0459C29.1057 37.9828 29.1544 38.0315 29.1544 38.0912V52.0051C29.1544 53.7618 27.0209 54.6453 25.7791 53.4033C25.3783 53.0025 25.1611 52.4418 25.2047 51.8546C25.2555 51.1717 24.4384 50.6365 23.7904 51.2493C23.338 51.6823 22.5218 51.9481 21.6563 51.9902C20.4566 52.0487 19.4474 51.7199 18.8065 50.7857C18.0355 49.6618 18.0248 48.0429 18.9993 47.0656C19.0801 46.9846 18.9947 46.8489 18.8867 46.8867C16.8689 47.5923 14.5645 46.1283 14.5645 43.807C14.5645 42.6313 15.1876 41.6012 16.1216 41.0289L17.1683 40.4959C17.6954 40.2278 17.7286 39.4897 17.2277 39.1753L16.162 38.5054C15.4217 37.9085 14.9479 36.9943 14.9479 35.9693C14.948 34.1713 16.4057 32.7134 18.2041 32.7134ZM41.7953 47.0632C41.3703 47.0632 41.1692 46.9498 41.1037 47.0651C41.0805 47.1059 41.0854 47.1545 41.1161 47.1899C42.1779 48.4102 41.8449 50.4599 40.5974 51.4195C39.4598 52.2946 37.0816 52.1285 36.1809 51.222C35.65 50.6877 34.7407 51.1082 34.796 51.8546L34.7945 51.8548C34.9303 53.6807 32.7154 54.6949 31.4239 53.4034C31.0661 53.0457 30.8449 52.5513 30.8449 52.0052V43.5303C30.8449 43.4705 30.8936 43.4218 30.9533 43.4218H34.4979C34.5472 43.4218 34.589 43.4534 34.6023 43.5009C34.9154 44.6134 35.8007 45.4975 36.9281 45.7993C37.3619 45.9153 37.8075 45.6575 37.9234 45.2238C38.0393 44.79 37.7816 44.3445 37.3479 44.2285C36.1919 43.9192 35.7307 42.5274 36.4519 41.5866C36.6728 41.2984 36.9861 41.0838 37.3479 40.9869C37.7817 40.8709 38.0393 40.4254 37.9234 39.9916C37.8075 39.5578 37.3619 39.3001 36.9281 39.416C35.8007 39.7177 34.9154 40.602 34.6023 41.7145C34.5889 41.762 34.5472 41.7936 34.4979 41.7936H30.9533C30.8936 41.7936 30.8449 41.7449 30.8449 41.6851V27.7714C30.8449 26.0147 32.9783 25.1312 34.2202 26.3732C34.621 26.774 34.8382 27.3347 34.7945 27.9218C34.7438 28.6048 35.5609 29.14 36.2089 28.5272C36.6613 28.0942 37.4775 27.8284 38.3429 27.7862C39.5427 27.7278 40.5519 28.0566 41.1928 28.9908C41.9638 30.1147 41.9745 31.7336 41 32.7109C40.9192 32.7919 41.0045 32.9276 41.1125 32.8898C43.1302 32.1842 45.4348 33.6482 45.4348 35.9695C45.4348 37.1452 44.8117 38.1753 43.8777 38.7477L42.8309 39.2806C42.3039 39.5487 42.2707 40.2868 42.7715 40.6012L43.8373 41.2711C44.5775 41.868 45.0514 42.7822 45.0514 43.8072C45.0514 45.6054 43.5937 47.0632 41.7953 47.0632ZM34.1779 14.3676C35.2071 14.4 36.1755 13.8175 36.6309 12.837C37.2141 11.5812 36.7215 10.1137 35.5166 9.44293C34.3545 8.79517 32.9097 9.11437 32.1277 10.1908C32.9097 9.11437 32.7657 7.64305 31.7917 6.73669C30.7703 5.78569 29.2289 5.78569 28.2076 6.73669C27.2336 7.64305 27.0896 9.11449 27.8716 10.1908C27.0863 9.10993 25.6471 8.79469 24.4688 9.45073C23.2589 10.1243 22.7944 11.6009 23.3752 12.8516C23.9349 14.0586 25.291 14.6497 26.5564 14.2386C25.2857 14.6515 24.5397 15.924 24.8011 17.2463C25.0673 18.5934 26.3183 19.504 27.6817 19.3392C28.2417 19.2713 28.7315 19.0466 29.1224 18.6996C29.1925 18.6373 29.303 18.687 29.303 18.7807V22.4724C29.303 22.5695 29.1854 22.6177 29.1172 22.5486C28.1225 21.5378 24.6452 19.3754 23.5537 19.0664C23.5211 19.0572 23.4969 19.036 23.4836 19.0048C22.1407 15.8713 18.5551 14.3957 15.4087 15.6248C15.0261 15.7742 14.852 16.1508 14.9773 16.5108C16.1303 19.8245 19.7405 21.5356 23.0156 20.3838C23.0361 20.3766 23.0554 20.3755 23.0765 20.3806C24.7346 20.774 28.3682 23.5478 29.1154 25.0099C29.2294 25.2329 29.444 25.3643 29.6944 25.3643H30.305C30.5553 25.3643 30.77 25.233 30.884 25.01C31.6313 23.548 35.2648 20.7742 36.923 20.3807C36.9441 20.3756 36.9635 20.3767 36.9839 20.3839C40.2591 21.5357 43.8692 19.8246 45.0223 16.5109C45.1475 16.1509 44.9734 15.7744 44.5909 15.625C41.4435 14.3954 37.8604 15.8714 36.5159 19.0049C36.5026 19.036 36.4784 19.0573 36.4457 19.0666C35.3541 19.3756 31.877 21.5378 30.8822 22.5487C30.814 22.618 30.6964 22.5697 30.6964 22.4725V18.7808C30.6964 18.6871 30.8069 18.6374 30.877 18.6997C31.2679 19.0468 31.7577 19.2714 32.3177 19.3393C33.6811 19.5041 34.9343 18.594 35.1983 17.2464C35.4076 16.1777 34.9624 15.1422 34.1135 14.5661C34.0239 14.505 34.0696 14.3642 34.1779 14.3676Z" fill="white"/>
</svg>
