<svg width="57" height="41" viewBox="0 0 57 41" fill="none" xmlns="http://www.w3.org/2000/svg">
<path d="M37.9778 40.5596C37.9778 38.4396 39.7085 35.2739 41.4605 32.6167C43.7129 29.1881 46.4046 26.1967 49.4906 23.9139C51.8045 22.2024 54.6095 20.5596 56.8667 20.5596M56.8667 20.5596C54.6095 20.5596 51.8021 18.9167 49.4906 17.2053C46.4046 14.9196 43.7129 11.9281 41.4605 8.50529C39.7085 5.84529 37.9778 2.67386 37.9778 0.559574M56.8667 20.5596L0.200035 20.5596L56.8667 20.5596Z" fill="white"/>
<path d="M37.9778 40.5596C37.9778 38.4396 39.7085 35.2739 41.4605 32.6167C43.713 29.1881 46.4046 26.1967 49.4906 23.9139C51.8045 22.2024 54.6095 20.5596 56.8667 20.5596M56.8667 20.5596C54.6095 20.5596 51.8021 18.9167 49.4906 17.2053C46.4046 14.9196 43.713 11.9281 41.4605 8.50529C39.7085 5.84529 37.9778 2.67386 37.9778 0.559574M56.8667 20.5596L0.200034 20.5596" stroke="white" stroke-width="1.5"/>
</svg>
