<svg width="54" height="54" viewBox="0 0 54 54" fill="none" xmlns="http://www.w3.org/2000/svg">
<path d="M15.2433 31.0359H15.2264C14.5646 31.0289 13.9265 30.7889 13.4242 30.358C12.9218 29.9272 12.5873 29.3331 12.4795 28.6802C12.4019 28.2855 12.4077 27.8789 12.4964 27.4866C12.5852 27.0943 12.7551 26.7249 12.9951 26.4021C13.2708 26.0376 13.6196 25.7347 14.0192 25.5129C14.4188 25.291 14.8602 25.155 15.3154 25.1136C15.801 25.0592 16.2927 25.1091 16.7575 25.2599C17.2223 25.4107 17.6496 25.659 18.0108 25.9882C18.3719 26.3174 18.6587 26.7199 18.8518 27.1687C19.045 27.6176 19.1401 28.1026 19.1308 28.5912C19.1308 28.731 19.0753 28.8652 18.9764 28.9641C18.8775 29.0629 18.7433 29.1185 18.6035 29.1185C18.4636 29.1185 18.3295 29.0629 18.2306 28.9641C18.1317 28.8652 18.0761 28.731 18.0761 28.5912C18.0823 28.2472 18.0153 27.9059 17.8795 27.5898C17.7438 27.2738 17.5425 26.9901 17.2889 26.7577C17.0377 26.5322 16.7414 26.3626 16.4198 26.2601C16.0981 26.1575 15.7584 26.1244 15.423 26.1629C15.1139 26.1873 14.8135 26.2769 14.5415 26.4258C14.2694 26.5746 14.032 26.7793 13.8447 27.0264C13.6908 27.2298 13.5817 27.4635 13.5245 27.7121C13.4674 27.9607 13.4635 28.2186 13.5131 28.4688C13.5766 28.8826 13.7837 29.2608 14.0981 29.5371C14.4125 29.8135 14.8142 29.9702 15.2327 29.98C15.4477 29.9873 15.6614 29.9444 15.8569 29.8546C16.0524 29.7648 16.2242 29.6306 16.3587 29.4628C16.4676 29.3263 16.543 29.1662 16.5786 28.9953C16.6143 28.8244 16.6094 28.6476 16.5641 28.4789C16.5148 28.2541 16.3911 28.0525 16.213 27.9066C16.035 27.7607 15.813 27.6791 15.5829 27.6748C15.5161 27.6807 15.4511 27.6996 15.3916 27.7306C15.3322 27.7615 15.2794 27.8039 15.2363 27.8553C15.1932 27.9066 15.1606 27.966 15.1405 28.0299C15.1203 28.0939 15.1129 28.1611 15.1188 28.2279C15.1208 28.3085 15.1506 28.3858 15.2032 28.4469C15.2238 28.465 15.2482 28.4783 15.2747 28.4856C15.3011 28.4929 15.3289 28.4941 15.3559 28.4891C15.4948 28.4783 15.6325 28.5225 15.7393 28.612C15.8462 28.7014 15.9137 28.8292 15.9275 28.9679C15.9337 29.0369 15.9262 29.1064 15.9054 29.1725C15.8847 29.2386 15.8511 29.3 15.8066 29.3531C15.7622 29.4063 15.7077 29.4501 15.6463 29.4822C15.5848 29.5142 15.5177 29.5339 15.4487 29.54C15.2731 29.5589 15.0956 29.5398 14.9281 29.4838C14.7606 29.4278 14.6072 29.3363 14.4784 29.2155C14.2363 28.9784 14.0895 28.6609 14.0658 28.3229C14.0477 28.1181 14.07 27.9118 14.1317 27.7157C14.1933 27.5196 14.2929 27.3376 14.4249 27.18C14.5569 27.0224 14.7186 26.8924 14.9009 26.7974C15.0831 26.7023 15.2823 26.6441 15.4871 26.6261C15.9663 26.6054 16.4378 26.7526 16.8201 27.0424C17.2024 27.3321 17.4716 27.7462 17.5813 28.2132C17.6671 28.5384 17.6762 28.8791 17.6081 29.2086C17.5399 29.538 17.3963 29.8471 17.1885 30.1116C16.9568 30.4044 16.6609 30.6401 16.3236 30.8004C15.9863 30.9607 15.6167 31.0412 15.2433 31.0359Z" fill="#A81874"/>
<path d="M39.4702 53.2615H24.6223C24.2833 53.2622 23.9551 53.1431 23.6954 52.9252C23.4357 52.7074 23.2614 52.4048 23.2031 52.071C22.6787 49.0723 22.0286 46.9081 21.5067 46.4225C20.6258 45.6036 18.5574 45.8221 16.8956 45.9972C16.3354 46.0563 15.8063 46.1124 15.3347 46.1314C11.2619 46.3423 11.0181 43.7123 10.7843 41.1697C10.7251 40.1811 10.5707 39.2005 10.3232 38.2415C10.1961 37.7792 9.97633 37.3477 9.67715 36.9731C9.37798 36.5985 9.00571 36.2886 8.583 36.0625C7.90209 35.614 7.13048 35.1057 7.19798 33.8185C7.23047 33.1958 7.72111 32.6525 8.34211 31.9657C9.29934 30.9059 10.6101 29.4547 10.6156 27.1605C10.6185 26.5652 10.5565 25.7708 10.4966 25.0026C10.4485 24.3825 10.403 23.7961 10.3874 23.2928C10.1954 17.1161 14.388 11.6878 21.0684 9.46369C21.1346 9.4397 21.2049 9.4292 21.2752 9.43283C21.3455 9.43645 21.4144 9.45412 21.4778 9.48479C21.5412 9.51546 21.5978 9.55852 21.6443 9.61141C21.6907 9.66431 21.7261 9.72598 21.7484 9.79278C21.7706 9.85958 21.7793 9.93016 21.7738 10.0004C21.7684 10.0706 21.7489 10.1389 21.7166 10.2015C21.6843 10.2641 21.6398 10.3195 21.5857 10.3646C21.5316 10.4097 21.469 10.4435 21.4017 10.464C15.1723 12.5379 11.264 17.5603 11.4399 23.2598C11.4547 23.7391 11.4994 24.3145 11.5467 24.9208C11.6083 25.7101 11.6732 26.5268 11.6686 27.1643C11.6623 29.8618 10.1342 31.5518 9.123 32.6723C8.70112 33.1406 8.26237 33.6249 8.24972 33.8738C8.21512 34.5315 8.48723 34.7378 9.16139 35.1816C9.68764 35.4762 10.1505 35.8719 10.5233 36.346C10.896 36.8201 11.1714 37.3632 11.3336 37.944C11.6004 38.9683 11.7676 40.0159 11.8327 41.0723C12.0715 43.6685 12.2175 45.2362 15.2845 45.0771C15.7296 45.059 16.2421 45.005 16.7847 44.9476C18.7561 44.74 20.992 44.5034 22.2243 45.6496C23.1385 46.4997 23.8275 49.5114 24.2417 51.8883C24.2574 51.9775 24.304 52.0584 24.3735 52.1165C24.443 52.1746 24.5308 52.2063 24.6214 52.206H39.4714C39.5318 52.2064 39.5914 52.1926 39.6454 52.1657C39.6994 52.1388 39.7463 52.0995 39.7823 52.0511C39.8187 52.0038 39.8433 51.9485 39.854 51.8898C39.8647 51.8311 39.8613 51.7707 39.8439 51.7136C39.3436 49.9936 38.4796 46.7026 38.307 43.9904C38.2007 42.3176 38.6867 39.8513 39.8258 38.3756C44.0728 32.8655 45.4882 28.5244 44.7115 23.3915C44.6809 23.1856 44.6471 22.9817 44.6103 22.7798C44.5866 22.6426 44.618 22.5017 44.6978 22.3877C44.7775 22.2736 44.8991 22.1958 45.036 22.171C45.173 22.1462 45.3141 22.1766 45.4288 22.2554C45.5434 22.3343 45.6223 22.4553 45.6481 22.592C45.6865 22.803 45.7219 23.0173 45.7544 23.2341C46.5682 28.6113 45.0452 33.3321 40.6615 39.019C39.6912 40.2749 39.2693 42.4834 39.36 43.9237C39.5258 46.5351 40.3692 49.7405 40.8569 51.4196C40.9192 51.6342 40.9306 51.8604 40.8903 52.0803C40.85 52.3001 40.7591 52.5076 40.6247 52.6861C40.4903 52.8647 40.3161 53.0095 40.116 53.1091C39.9159 53.2087 39.6954 53.2603 39.4718 53.2598L39.4702 53.2615Z" fill="#A81874"/>
<path d="M14.0555 39.0972H10.9521C10.8123 39.0972 10.6782 39.0416 10.5793 38.9427C10.4804 38.8438 10.4248 38.7097 10.4248 38.5698C10.4248 38.43 10.4804 38.2958 10.5793 38.1969C10.6782 38.098 10.8123 38.0425 10.9521 38.0425H14.0555C14.1953 38.0425 14.3295 38.098 14.4283 38.1969C14.5272 38.2958 14.5828 38.43 14.5828 38.5698C14.5828 38.7097 14.5272 38.8438 14.4283 38.9427C14.3295 39.0416 14.1953 39.0972 14.0555 39.0972Z" fill="#A81874"/>
<path d="M38.5202 32.5607C38.3809 32.3242 38.1963 32.1175 37.977 31.9524C37.7577 31.7873 37.508 31.667 37.2422 31.5984C36.9764 31.5299 36.6997 31.5144 36.4279 31.5528C36.1561 31.5912 35.8946 31.6828 35.6582 31.8224L32.5047 33.6829C32.2684 33.8223 32.0618 34.007 31.8968 34.2263C31.7319 34.4456 31.6117 34.6952 31.5432 34.961C31.4747 35.2267 31.4592 35.5034 31.4976 35.7751C31.536 36.0468 31.6276 36.3083 31.7671 36.5446C31.9065 36.781 32.0912 36.9875 32.3105 37.1525C32.5298 37.3175 32.7794 37.4377 33.0452 37.5062C33.3109 37.5747 33.5876 37.5902 33.8593 37.5517C34.131 37.5133 34.3925 37.4218 34.6289 37.2823L36.3126 36.2888C36.3189 36.2854 36.3251 36.2818 36.3311 36.2778L37.7819 35.4223C38.0183 35.2828 38.2249 35.0982 38.39 34.879C38.555 34.6597 38.6752 34.4101 38.7438 34.1444C38.8124 33.8787 38.8279 33.602 38.7895 33.3303C38.7512 33.0586 38.6597 32.797 38.5202 32.5607ZM34.0931 36.374C33.976 36.4433 33.8465 36.4888 33.7118 36.508C33.5771 36.5271 33.44 36.5196 33.3083 36.4858C33.1765 36.452 33.0527 36.3926 32.944 36.3109C32.8352 36.2293 32.7436 36.127 32.6743 36.0099C32.5344 35.7735 32.4942 35.4912 32.5625 35.2251C32.6308 34.9591 32.802 34.731 33.0384 34.5912L34.6694 33.6293C35.0634 33.856 35.3667 34.2123 35.5274 34.6376C35.6532 34.8898 35.6974 35.175 35.654 35.4535L34.0931 36.374ZM37.7212 33.8807C37.6875 34.0124 37.6281 34.1362 37.5464 34.2448C37.4646 34.3534 37.3622 34.4447 37.2449 34.5135L36.6872 34.8422C36.6466 34.6316 36.5841 34.4259 36.5007 34.2283C36.3117 33.7767 36.0266 33.3716 35.6654 33.0412L36.1927 32.7303C36.3514 32.6358 36.5325 32.586 36.7171 32.586C36.8049 32.5863 36.8924 32.5975 36.9774 32.6193C37.2433 32.6879 37.471 32.8593 37.6104 33.0958C37.7499 33.3323 37.7898 33.6149 37.7212 33.8807Z" fill="#A81874"/>
<path d="M29.0698 1.81693C29.0592 1.80343 29.047 1.79162 29.0364 1.77854C28.7374 1.41104 28.3528 1.12256 27.9163 0.938436C27.4797 0.754312 27.0047 0.680172 26.5328 0.722526C26.0609 0.76488 25.6067 0.922432 25.2099 1.18135C24.8131 1.44027 24.486 1.79263 24.2572 2.2075C24.0285 2.62238 23.905 3.08707 23.8978 3.56079C23.8906 4.0345 23.9997 4.50275 24.2157 4.92442C24.4317 5.34609 24.7479 5.70828 25.1366 5.9792C25.5253 6.25012 25.9745 6.42147 26.4449 6.47823C26.5622 6.49251 26.6802 6.4997 26.7984 6.49974C27.3409 6.49856 27.8722 6.34497 28.3317 6.0565C28.7912 5.76802 29.1605 5.35626 29.3973 4.86813C29.6342 4.38001 29.7291 3.83516 29.6714 3.2957C29.6136 2.75623 29.4054 2.24384 29.0706 1.81693H29.0698ZM25.656 2.15443C25.9074 1.95849 26.2056 1.83148 26.5211 1.78591C26.8367 1.74034 27.1586 1.77778 27.4552 1.89455C26.438 2.36462 25.5887 3.13451 25.0215 4.10096C24.9229 3.75019 24.9305 3.37806 25.0435 3.03165C25.1564 2.68524 25.3696 2.37968 25.656 2.15443ZM27.9282 5.05187C27.6151 5.29991 27.229 5.43788 26.8296 5.44444C26.4303 5.451 26.0399 5.32578 25.7188 5.08815C25.9561 4.51539 26.3189 4.00311 26.7803 3.58901C27.2417 3.17491 27.7901 2.86951 28.3851 2.69527C28.604 3.07763 28.6783 3.52591 28.5944 3.95845C28.5106 4.39099 28.2741 4.77903 27.9282 5.05187Z" fill="#A81874"/>
<path d="M19.0379 17.924C18.5419 17.9182 18.0561 17.783 17.6284 17.5316C16.4721 16.8638 15.9684 15.5632 16.5058 14.6317C17.0433 13.7006 18.422 13.4867 19.5783 14.1541C20.0969 14.4439 20.5083 14.893 20.7516 15.4349C20.8773 15.688 20.9385 15.9683 20.9297 16.2507C20.9209 16.5332 20.8423 16.8091 20.701 17.0538C20.5597 17.2985 20.3601 17.5045 20.1199 17.6534C19.8797 17.8023 19.6064 17.8894 19.3244 17.9071C19.2293 17.9187 19.1337 17.9243 19.0379 17.924ZM17.4192 15.159C17.1766 15.5809 17.5141 16.2475 18.1558 16.6183C18.4689 16.8069 18.8336 16.8917 19.1978 16.8604C19.3171 16.8626 19.4348 16.8327 19.5386 16.774C19.6425 16.7152 19.7287 16.6297 19.7883 16.5263C19.8479 16.423 19.8787 16.3055 19.8775 16.1862C19.8764 16.0669 19.8433 15.9501 19.7817 15.8479C19.6263 15.5174 19.3706 15.2442 19.051 15.0675C18.4089 14.6971 17.6618 14.7388 17.4192 15.159Z" fill="#A81874"/>
<path d="M41.4753 7.25619C41.2453 7.26459 41.0165 7.21941 40.807 7.12424C40.5974 7.02906 40.4129 6.88648 40.2679 6.70775C40.1237 6.50649 40.0312 6.27286 39.9986 6.02745C39.9659 5.78203 39.9941 5.53235 40.0806 5.30038C40.2584 4.81622 40.57 4.39245 40.9791 4.07829C41.3882 3.76412 41.878 3.57246 42.3916 3.52555C42.6381 3.50083 42.887 3.53756 43.1158 3.63245C43.3447 3.72734 43.5465 3.87744 43.7032 4.06935C44.2677 4.8051 43.9563 5.96019 42.9924 6.69974C42.5871 7.02079 42.095 7.21326 41.5795 7.25239C41.5445 7.25619 41.5095 7.25619 41.4753 7.25619ZM42.4945 4.57813C42.4768 4.57813 42.4608 4.57813 42.4477 4.57813C42.147 4.61359 41.8615 4.72971 41.6214 4.91419C41.3813 5.09867 41.1955 5.34464 41.0838 5.62607C41.0547 5.69627 41.0414 5.77204 41.045 5.84796C41.0486 5.92388 41.0689 5.99808 41.1045 6.06524C41.1602 6.11682 41.2267 6.15546 41.2991 6.17843C41.3715 6.2014 41.4481 6.20813 41.5234 6.19813C41.826 6.16911 42.1134 6.05174 42.3498 5.86063C42.8561 5.47335 43.0388 4.9325 42.8666 4.70933C42.8175 4.66233 42.7589 4.62641 42.6947 4.60399C42.6305 4.58158 42.5623 4.57319 42.4945 4.57939V4.57813Z" fill="#A81874"/>
<path d="M47.5316 18.367C47.2598 18.367 46.9922 18.3 46.7525 18.1719C46.5127 18.0438 46.3083 17.8585 46.1573 17.6325C46.0063 17.4065 45.9134 17.1467 45.8868 16.8762C45.8602 16.6057 45.9008 16.3328 46.0049 16.0817C46.1089 15.8306 46.2733 15.6091 46.4835 15.4367C46.6937 15.2644 46.9431 15.1465 47.2097 15.0936C47.4763 15.0407 47.7519 15.0544 48.0119 15.1334C48.272 15.2125 48.5085 15.3544 48.7006 15.5467C48.9319 15.7778 49.0894 16.0722 49.1533 16.3928C49.2171 16.7134 49.1844 17.0458 49.0592 17.3478C48.934 17.6498 48.722 17.9078 48.4501 18.0893C48.1782 18.2707 47.8585 18.3673 47.5316 18.367ZM47.5316 16.1171C47.4133 16.1172 47.2978 16.1523 47.1995 16.2181C47.1012 16.2839 47.0247 16.3773 46.9795 16.4866C46.9343 16.5959 46.9226 16.7161 46.9458 16.8321C46.969 16.9481 47.026 17.0545 47.1097 17.1381C47.2236 17.2462 47.3746 17.3065 47.5316 17.3065C47.6886 17.3065 47.8396 17.2462 47.9535 17.1381C48.0656 17.0259 48.1286 16.8737 48.1286 16.7151C48.1286 16.5565 48.0656 16.4044 47.9535 16.2922C47.8983 16.2364 47.8327 16.1921 47.7604 16.1618C47.688 16.1315 47.6104 16.1157 47.532 16.1154L47.5316 16.1171Z" fill="#A81874"/>
<path d="M30.684 25.3789H30.6701C30.3579 25.3798 30.0554 25.2711 29.8152 25.0717C29.575 24.8723 29.4125 24.5949 29.3559 24.2879C29.2628 23.7815 29.2767 23.2611 29.3966 22.7603C29.5166 22.2595 29.74 21.7893 30.0525 21.38C27.9376 21.9284 24.8587 22.3802 22.7025 21.2112C22.5324 21.1183 22.3846 20.9893 22.2695 20.8333C22.1545 20.6772 22.0749 20.4979 22.0364 20.3079C21.9979 20.1179 22.0014 19.9218 22.0467 19.7333C22.0919 19.5448 22.1778 19.3684 22.2984 19.2166C23.8846 17.2338 26.8694 16.9933 29.1492 17.1528C26.4695 15.5142 22.6334 12.6252 21.7095 9.06754C21.6571 8.86974 21.6504 8.66263 21.6899 8.46186C21.7294 8.26109 21.814 8.07193 21.9373 7.90865C22.0563 7.75014 22.2098 7.62076 22.3861 7.53028C22.5625 7.4398 22.7571 7.39059 22.9552 7.38637C26.5686 7.31718 29.8428 10.8652 31.7897 13.539C31.0202 9.92479 30.4359 4.2396 33.3553 1.18649C33.4774 1.05974 33.6239 0.95895 33.7859 0.890156C33.9479 0.821362 34.1222 0.785981 34.2982 0.786134C34.4744 0.785922 34.6488 0.821314 34.811 0.890185C34.9732 0.959056 35.1197 1.05999 35.2419 1.18692C38.1613 4.2396 37.577 9.92479 36.8071 13.539C38.754 10.8652 42.0324 7.3041 45.6416 7.38637C45.8397 7.39059 46.0344 7.4398 46.2107 7.53028C46.3871 7.62076 46.5406 7.75014 46.6596 7.90865C46.783 8.07186 46.8678 8.26099 46.9074 8.46176C46.947 8.66253 46.9404 8.86967 46.8882 9.06754C45.9643 12.6252 42.1278 15.5146 39.4476 17.1511C41.7283 16.9916 44.7126 17.2304 46.2989 19.2149C46.4195 19.3667 46.5054 19.5431 46.5507 19.7316C46.596 19.9202 46.5994 20.1164 46.5609 20.3064C46.5224 20.4964 46.4427 20.6757 46.3276 20.8317C46.2124 20.9878 46.0645 21.1167 45.8943 21.2095C43.7389 22.3794 40.6597 21.9267 38.5444 21.3804C38.857 21.7896 39.0804 22.2597 39.2004 22.7604C39.3203 23.2612 39.3341 23.7815 39.2409 24.2879C39.1838 24.5972 39.0192 24.8762 38.7763 25.0759C38.5334 25.2755 38.2277 25.3829 37.9133 25.3789C36.2321 25.3789 34.8677 23.3961 34.2121 22.4448C34.1873 22.4085 34.1653 22.3794 34.1463 22.3558C34.1273 22.3794 34.1041 22.4085 34.0797 22.4452C33.9822 22.5857 33.8827 22.735 33.781 22.8873C33.0406 23.9977 32.1184 25.3789 30.684 25.3789ZM32.2285 19.5992C32.3453 19.5993 32.4588 19.6381 32.5512 19.7097C32.6436 19.7812 32.7096 19.8814 32.7388 19.9945C32.7681 20.1076 32.7589 20.2273 32.7128 20.3346C32.6667 20.442 32.5863 20.531 32.4841 20.5877C32.4601 20.6008 29.9951 21.9917 30.3946 24.0892C30.406 24.156 30.4411 24.2165 30.4935 24.2594C30.5459 24.3024 30.6121 24.3249 30.6798 24.323H30.6861C31.5564 24.323 32.2736 23.2484 32.9069 22.3001C33.0123 22.1423 33.1153 21.9883 33.2161 21.8423C33.3124 21.6739 33.4471 21.5306 33.6094 21.4242C33.7717 21.3178 33.9568 21.2513 34.1497 21.2302C34.3427 21.2517 34.5278 21.3186 34.6899 21.4255C34.852 21.5325 34.9864 21.6763 35.082 21.8453C35.5925 22.5865 36.7877 24.3225 37.9149 24.323C37.9836 24.3261 38.0511 24.304 38.1047 24.261C38.1584 24.218 38.1945 24.157 38.2065 24.0892C38.6072 21.9913 36.1393 20.6003 36.1156 20.5877C35.9977 20.5228 35.9091 20.4152 35.8679 20.287C35.8268 20.1589 35.8362 20.0198 35.8942 19.8984C35.9522 19.7769 36.0545 19.6823 36.1801 19.6338C36.3056 19.5853 36.445 19.5867 36.5696 19.6376C36.6265 19.6612 42.3202 21.9512 45.3927 20.2827C45.4278 20.2635 45.4582 20.2368 45.4817 20.2045C45.5053 20.1722 45.5214 20.135 45.5289 20.0958C45.5372 20.0571 45.5368 20.017 45.5278 19.9785C45.5188 19.94 45.5013 19.904 45.4766 19.873C43.1728 16.9912 36.7354 18.6298 36.6704 18.6462C36.543 18.6791 36.408 18.6632 36.2917 18.6016C36.1755 18.54 36.0864 18.4372 36.0421 18.3133C35.9978 18.1895 36.0013 18.0535 36.0521 17.9321C36.1029 17.8108 36.1971 17.7128 36.3165 17.6573C36.4008 17.6194 44.5696 13.8052 45.869 8.80218C45.8808 8.75828 45.8825 8.71227 45.8739 8.66762C45.8654 8.62297 45.8468 8.58084 45.8196 8.54442C45.7965 8.51287 45.7663 8.48712 45.7316 8.46919C45.6968 8.45126 45.6583 8.44163 45.6192 8.44106C45.5859 8.44106 45.5521 8.44106 45.5188 8.44106C40.558 8.44106 35.9385 16.8233 35.892 16.9085C35.8288 17.0243 35.7244 17.1122 35.5996 17.1548C35.4747 17.1974 35.3384 17.1916 35.2175 17.1386C35.0967 17.0857 35.0001 16.9893 34.9468 16.8686C34.8935 16.7479 34.8875 16.6116 34.9297 16.4866C34.9652 16.3829 38.441 6.05831 34.4809 1.91802C34.4327 1.87036 34.3677 1.84363 34.2999 1.84363C34.2321 1.84363 34.1671 1.87036 34.1189 1.91802C30.1588 6.05873 33.6342 16.3833 33.67 16.4871C33.7123 16.612 33.7062 16.7483 33.653 16.869C33.5997 16.9897 33.5031 17.0861 33.3822 17.1391C33.2614 17.192 33.1251 17.1978 33.0002 17.1552C32.8754 17.1126 32.771 17.0247 32.7077 16.9089C32.6609 16.8246 27.9688 8.32673 22.9806 8.44274C22.9414 8.44308 22.9029 8.45262 22.8681 8.47057C22.8333 8.48852 22.8032 8.51439 22.7802 8.5461C22.7529 8.58249 22.7343 8.62462 22.7257 8.66928C22.7172 8.71395 22.7189 8.75998 22.7308 8.80387C24.031 13.8119 32.2006 17.6211 32.2829 17.659C32.4032 17.7137 32.4985 17.8116 32.55 17.9333C32.6015 18.055 32.6054 18.1916 32.5609 18.316C32.5164 18.4405 32.4268 18.5436 32.3099 18.6051C32.1929 18.6666 32.0571 18.6818 31.9294 18.6479C31.8648 18.6319 25.427 16.9933 23.1232 19.8747C23.0987 19.9061 23.0813 19.9424 23.0723 19.9811C23.0632 20.0198 23.0627 20.0601 23.0707 20.099C23.0787 20.138 23.0951 20.1747 23.1188 20.2067C23.1424 20.2387 23.1727 20.2652 23.2075 20.2844C26.2834 21.955 31.9728 19.6629 32.0298 19.6393C32.0927 19.6128 32.1602 19.5989 32.2285 19.5984V19.5992Z" fill="#A81874"/>
<path d="M35.7693 27.4542C35.6918 27.4543 35.6153 27.4371 35.5453 27.404C33.2756 26.3363 33.5836 22.1816 33.6262 21.7113C33.6317 21.6421 33.651 21.5747 33.6829 21.513C33.7149 21.4514 33.7588 21.3968 33.8121 21.3523C33.8654 21.3079 33.9271 21.2745 33.9935 21.2542C34.0598 21.2339 34.1296 21.2271 34.1987 21.2341C34.2677 21.2402 34.3349 21.2598 34.3964 21.2918C34.4579 21.3238 34.5125 21.3676 34.557 21.4208C34.6015 21.4739 34.6352 21.5353 34.656 21.6014C34.6768 21.6675 34.6844 21.7371 34.6783 21.8062C34.5826 22.8799 34.6319 25.8081 35.9958 26.4498C36.1043 26.5008 36.1922 26.5873 36.2449 26.695C36.2976 26.8027 36.3121 26.9251 36.2859 27.0421C36.2597 27.1591 36.1944 27.2637 36.1008 27.3386C36.0072 27.4135 35.8909 27.4543 35.771 27.4542H35.7693Z" fill="#A81874"/>
</svg>
