<svg width="54" height="54" viewBox="0 0 54 54" fill="none" xmlns="http://www.w3.org/2000/svg">
<path d="M13.0748 23.2015C13.3096 23.0173 13.3504 22.6776 13.1669 22.4428C12.9819 22.2087 12.6437 22.1665 12.4082 22.3507C10.3626 23.9551 10.8006 26.8537 13.2119 27.8984C13.2815 27.9286 13.3546 27.9426 13.4263 27.9426C14.0101 27.9426 14.1763 27.1396 13.6408 26.9069C12.809 26.5469 12.2676 25.8649 12.1916 25.0858C12.1276 24.3891 12.4581 23.6845 13.0748 23.2015Z" fill="#A81874"/>
<path d="M38.4889 25.7288C38.3553 25.996 38.4643 26.3201 38.7308 26.453C38.9977 26.5864 39.3225 26.4772 39.455 26.2111C40.1427 24.8295 39.6388 23.1359 38.2421 22.2019C37.9946 22.036 37.6592 22.1035 37.4933 22.3503C37.3273 22.5978 37.3934 22.9332 37.6416 23.0991C38.601 23.7409 38.9262 24.8511 38.4889 25.7288Z" fill="#A81874"/>
<path d="M36.4406 10.8737C36.7317 10.9377 37.0185 10.7493 37.0804 10.4575C37.2984 9.42668 37.2217 8.43316 36.8519 7.50222C36.1734 5.81391 34.8198 5.0985 34.3818 4.11457C34.2416 3.80015 33.8474 3.69477 33.569 3.89871C32.4763 4.70027 31.229 4.73472 29.8234 4.70097C28.7751 4.67285 27.6909 4.64332 26.6313 4.56527C23.5371 4.35287 19.8235 5.04868 18.3344 7.75394C17.6354 8.06378 16.9481 8.32052 16.3649 8.93308C16.0281 9.29308 15.7701 9.70652 15.5746 10.1959C15.4328 10.5518 15.6958 10.9363 16.0759 10.9363C16.2904 10.9363 16.4929 10.8076 16.5773 10.5967C16.9973 9.54247 17.6249 9.23662 18.5559 8.83535C18.9048 8.685 19.098 8.63064 19.2077 8.41418C19.8278 7.18441 20.8734 6.44894 22.6973 5.95816C23.8968 5.65089 25.161 5.54613 26.5546 5.64246C27.6367 5.72261 28.7336 5.75214 29.8073 5.78097C31.1545 5.81402 32.4742 5.78238 33.6984 5.09683C34.4681 6.23268 36.6124 7.44472 36.0243 10.2339C35.9624 10.5257 36.1488 10.8125 36.4406 10.8737Z" fill="#A81874"/>
<path d="M36.8681 20.4581C36.7915 20.7947 37.0485 21.1169 37.3954 21.1169C37.6422 21.1169 37.8644 20.9468 37.9214 20.6957C38.5078 18.1036 38.5829 15.938 38.4135 14.4745C38.3798 14.1792 38.1182 13.9732 37.8152 13.9999C37.5192 14.0343 37.3061 14.3022 37.3406 14.5982C37.495 15.9381 37.4294 17.9746 36.8681 20.4581Z" fill="#A81874"/>
<path d="M14.3736 20.4729C14.0299 18.7323 13.7757 16.2942 14.1683 14.5539C14.2344 14.2636 14.0516 13.9739 13.7605 13.9085C13.4694 13.841 13.1811 14.0252 13.115 14.3163C12.6856 16.2161 12.9363 18.7641 13.3133 20.681C13.369 20.9602 13.6363 21.1631 13.9475 21.1071C14.2407 21.0494 14.4306 20.7654 14.3736 20.4729Z" fill="#A81874"/>
<path d="M24.8771 43.8292C25.1873 43.9149 25.6966 43.9145 26.0183 43.8313C28.1043 43.2886 30.1239 42.2528 31.8887 40.9576C32.1291 40.7811 32.1805 40.4429 32.004 40.2025C31.8275 39.9627 31.49 39.9086 31.2488 40.0871C29.4007 41.4452 27.4774 42.3359 25.749 42.7857C25.6139 42.8202 25.3086 42.825 25.1548 42.7857C23.1283 42.2706 21.1101 41.199 19.4391 39.9367C19.1994 39.7574 18.8619 39.8038 18.6826 40.0421C18.5033 40.2798 18.5504 40.6187 18.788 40.7987C20.8402 42.3483 23.0169 43.3573 24.8771 43.8292Z" fill="#A81874"/>
<path d="M19.8924 36.4128C19.9613 36.1224 19.7821 35.8313 19.4924 35.7624C19.2006 35.6949 18.9109 35.8721 18.842 36.1625C18.5839 37.2467 17.8801 38.191 16.9098 38.7549C14.9403 39.9003 8.19174 41.9154 8.08205 41.9499C5.66189 42.8914 4.09814 45.1779 4.09814 47.7746V49.5401C4.09814 49.8382 4.34002 50.0801 4.63814 50.0801C4.93627 50.0801 5.17814 49.8382 5.17814 49.5401V47.7746C5.17814 45.6265 6.47189 43.7351 8.4315 42.9708C8.71416 42.8871 15.3728 40.898 17.4526 39.6886C18.6774 38.9771 19.5669 37.7825 19.8924 36.4128Z" fill="#A81874"/>
<path d="M11.2734 47.8686V49.5399C11.2734 49.8381 11.5153 50.0799 11.8134 50.0799C12.1116 50.0799 12.3534 49.8381 12.3534 49.5399V47.8686C12.3534 47.5705 12.1116 47.3286 11.8134 47.3286C11.5153 47.3286 11.2734 47.5705 11.2734 47.8686Z" fill="#A81874"/>
<path d="M35.1191 23.5364C35.1191 23.6081 35.1198 23.6869 35.1142 23.7579C35.0882 24.0718 35.3356 24.3422 35.6528 24.3422C35.9312 24.3422 36.1675 24.1284 36.19 23.8465C36.1985 23.7443 36.1992 23.6588 36.2026 23.2699C36.2251 22.1281 36.2722 19.7536 34.1516 15.2881C34.0328 15.042 33.8922 14.8261 33.7199 14.6278C33.5237 14.4028 33.1827 14.3796 32.9577 14.5744C32.7327 14.7699 32.7088 15.1109 32.9043 15.3366C33.0125 15.461 33.1025 15.5981 33.1771 15.7535C34.9736 19.5369 35.1565 21.5901 35.1191 23.5364Z" fill="#A81874"/>
<path d="M19.3468 14.5131C19.0782 14.3901 18.7562 14.5075 18.6303 14.7782C18.4053 15.2669 18.1093 15.6318 17.6973 15.9264C16.817 16.5599 14.7702 18.5681 14.7793 23.5385C14.8098 32.4631 22.6258 39.1606 29.6518 35.3728C29.9148 35.2314 30.0125 34.9038 29.8712 34.6415C29.7299 34.3792 29.4036 34.2794 29.14 34.4221C22.6473 37.9179 15.8851 31.229 15.8593 23.5357C15.8509 19.0673 17.5827 17.339 18.3266 16.8046C18.8884 16.4017 19.3089 15.8871 19.6119 15.2296C19.7364 14.9589 19.6175 14.6383 19.3468 14.5131Z" fill="#A81874"/>
<path d="M27.0122 25.997C26.7309 25.8993 26.4229 26.0505 26.3259 26.3317C26.2057 26.6805 25.9061 26.89 25.5061 26.8928C25.1039 26.8773 24.7622 26.8295 24.5189 26.7536C24.2355 26.6622 23.9311 26.8232 23.8425 27.108C23.7539 27.3927 23.9121 27.6958 24.1968 27.7844C24.5357 27.8898 24.9625 27.9531 25.4667 27.9714C26.2493 28.0174 27.0583 27.5245 27.3468 26.6833C27.4439 26.4006 27.2941 26.0934 27.0122 25.997Z" fill="#A81874"/>
<path d="M32.5503 20.623C32.6979 20.3636 32.6079 20.0338 32.3492 19.8861C31.2383 19.2519 29.9537 19.0712 28.418 19.3321C28.1241 19.382 27.9265 19.6611 27.9765 19.955C28.0271 20.2489 28.3055 20.4521 28.5994 20.3966C29.877 20.1786 30.9282 20.3193 31.8134 20.8241C32.0673 20.9701 32.4001 20.8853 32.5503 20.623Z" fill="#A81874"/>
<path d="M35.241 42.9437L42.7047 49.8646C43.2134 50.3316 43.9972 50.3179 44.4836 49.8302L49.5271 44.7873C50.0158 44.2973 50.027 43.4957 49.558 43.007L42.6393 35.5455C42.6393 35.5448 42.6386 35.5448 42.6379 35.5441C41.8342 34.682 40.6143 34.2953 39.4555 34.5273L37.6351 34.8733C36.7176 33.8383 35.5989 32.8785 34.3937 32.091C34.3893 32.0836 34.2956 31.9288 34.2689 31.9017C33.8735 31.2864 33.3535 30.6905 32.6739 30.0899C32.3863 29.8382 31.9701 29.7883 31.6347 29.9683C30.7867 30.426 30.1236 31.0891 29.6645 31.9384C29.4838 32.2724 29.5323 32.6901 29.7861 32.9791C30.4478 33.7286 31.1031 34.2918 31.7865 34.6982C32.5761 35.9055 33.5366 37.0255 34.5906 37.9923L34.2222 39.7628C33.988 40.9195 34.3776 42.138 35.241 42.9437ZM30.6714 32.3498C31.0096 31.7641 31.4603 31.3134 32.0446 30.9759C32.4827 31.3704 32.8369 31.7589 33.1284 32.1499C32.6596 32.5092 32.2357 32.943 31.8575 33.4424C31.4621 33.1491 31.0697 32.7916 30.6714 32.3498ZM32.701 34.1157C33.0285 33.6798 33.3949 33.3046 33.799 32.997C34.9261 33.733 35.9717 34.625 36.8265 35.5891C37.0986 35.8956 37.5177 36.0334 37.9072 35.9526L39.6721 35.5855C40.4638 35.4245 41.2977 35.691 41.8483 36.2802L48.7726 43.7474C48.8443 43.8227 48.8401 43.9471 48.7628 44.0244L43.72 49.0666C43.6412 49.146 43.5196 49.1453 43.4366 49.0708L35.9765 42.1534C35.3872 41.6029 35.1208 40.769 35.2804 39.9794L35.6481 38.2117C35.7304 37.8166 35.5911 37.4024 35.2846 37.131C34.3261 36.2813 33.4369 35.2394 32.701 34.1157Z" fill="#A81874"/>
<path d="M42.1388 45.9351C42.566 46.3623 43.2526 46.3556 43.6702 45.9351L45.5321 44.0739C45.9526 43.652 45.9526 42.9651 45.5314 42.5425L41.4807 38.4918C41.0588 38.0713 40.3726 38.0706 39.9493 38.4925L38.0888 40.3537C37.8835 40.5583 37.771 40.8311 37.771 41.1208C37.7717 41.4098 37.8842 41.6812 38.0888 41.8851L42.1388 45.9351ZM38.8524 41.1173L40.7178 39.2561L44.7678 43.311L42.9024 45.1715L38.8524 41.1215V41.1173Z" fill="#A81874"/>
<path d="M31.0623 21.3525C30.8521 21.1423 30.5104 21.1409 30.2988 21.3525L30.0618 21.5894L29.8248 21.3525C29.6132 21.1409 29.2715 21.1423 29.0613 21.3525C28.8503 21.5635 28.8503 21.9052 29.0613 22.1161L29.298 22.3527L29.0613 22.5893C28.7194 22.9312 28.9672 23.5111 29.4431 23.5111C29.7689 23.5111 29.8905 23.2568 30.0618 23.1161C30.2008 23.2303 30.3552 23.5111 30.6806 23.5111C31.1564 23.5111 31.4043 22.9313 31.0623 22.5893L30.8256 22.3527L31.0623 22.1161C31.2733 21.9052 31.2733 21.5635 31.0623 21.3525Z" fill="#A81874"/>
<path d="M23.0447 19.9553C23.0947 19.6614 22.8971 19.3823 22.6032 19.3324C21.069 19.0722 19.7829 19.2515 18.672 19.8864C18.1945 20.159 18.3859 20.8954 18.9406 20.8954C19.0313 20.8954 19.1234 20.8729 19.2078 20.8244C20.0923 20.3182 21.1456 20.1782 22.4218 20.3969C22.7171 20.4518 22.9941 20.2493 23.0447 19.9553Z" fill="#A81874"/>
<path d="M21.9598 21.3525C21.7496 21.1423 21.4079 21.1409 21.1962 21.3525L20.9593 21.5894L20.7223 21.3525C20.5114 21.1409 20.1697 21.1423 19.9587 21.3525C19.7478 21.5635 19.7478 21.9052 19.9587 22.1161L20.1954 22.3527L19.9587 22.5893C19.6168 22.9312 19.8646 23.5111 20.3405 23.5111C20.6664 23.5111 20.788 23.2568 20.9593 23.1161C21.0983 23.2303 21.2527 23.5111 21.578 23.5111C22.0538 23.5111 22.3017 22.9313 21.9598 22.5893L21.7231 22.3527L21.9598 22.1161C22.1707 21.9052 22.1707 21.5635 21.9598 21.3525Z" fill="#A81874"/>
<path d="M35.6685 29.3829C36.7604 29.3829 37.6485 28.4948 37.6485 27.4029C37.6485 26.3109 36.7604 25.4229 35.6685 25.4229C34.5765 25.4229 33.6885 26.3109 33.6885 27.4029C33.6885 28.4948 34.5765 29.3829 35.6685 29.3829ZM35.6685 26.5029C36.1649 26.5029 36.5685 26.9064 36.5685 27.4029C36.5685 27.8993 36.1649 28.3029 35.6685 28.3029C35.1721 28.3029 34.7685 27.8993 34.7685 27.4029C34.7685 26.9064 35.1721 26.5029 35.6685 26.5029Z" fill="#A81874"/>
<path d="M42.8003 21.812C41.7084 21.812 40.8203 22.7001 40.8203 23.792C40.8203 24.884 41.7084 25.772 42.8003 25.772C43.8923 25.772 44.7803 24.884 44.7803 23.792C44.7803 22.7001 43.8923 21.812 42.8003 21.812ZM42.8003 24.692C42.3039 24.692 41.9003 24.2884 41.9003 23.792C41.9003 23.2956 42.3039 22.892 42.8003 22.892C43.2967 22.892 43.7003 23.2956 43.7003 23.792C43.7003 24.2884 43.2967 24.692 42.8003 24.692Z" fill="#A81874"/>
<path d="M46.6485 19.1763C47.7404 19.1763 48.6285 18.2883 48.6285 17.1963C48.6285 16.1044 47.7404 15.2163 46.6485 15.2163C45.5565 15.2163 44.6685 16.1044 44.6685 17.1963C44.6685 18.2883 45.5565 19.1763 46.6485 19.1763ZM46.6485 16.2963C47.1449 16.2963 47.5485 16.6999 47.5485 17.1963C47.5485 17.6927 47.1449 18.0963 46.6485 18.0963C46.1521 18.0963 45.7485 17.6927 45.7485 17.1963C45.7485 16.6999 46.1521 16.2963 46.6485 16.2963Z" fill="#A81874"/>
<path d="M25.487 29.5073C24.6011 29.5073 23.8804 30.228 23.8804 31.1147V32.7058C23.8804 33.5918 24.6011 34.3125 25.487 34.3125H25.5004C26.3863 34.3125 27.107 33.5918 27.107 32.7058V31.1147C27.107 30.228 26.3863 29.5073 25.487 29.5073ZM26.027 32.7058C26.027 32.9962 25.7908 33.2325 25.5004 33.2325H25.487C25.1966 33.2325 24.9604 32.9962 24.9604 32.7058V31.1147C24.9604 30.8236 25.1966 30.5873 25.5004 30.5873C25.7908 30.5873 26.027 30.8236 26.027 31.1147V32.7058Z" fill="#A81874"/>
<path d="M5.20121 9.00743C5.2216 10.6478 7.96871 11.9071 13.361 12.7502C21.1034 14.0282 34.2613 13.9526 42.6215 12.1019C46.8199 11.1667 48.9384 9.96579 48.918 8.53563C48.9018 6.30602 43.7086 5.15993 39.3548 4.59039C39.0546 4.55243 38.7881 4.76125 38.7487 5.05586C38.71 5.35188 38.9189 5.62329 39.2142 5.66196C46.0253 6.55211 47.8338 7.93657 47.838 8.54758C47.845 9.0236 46.7039 10.086 42.3874 11.0472C34.1309 12.8711 21.0632 12.9358 13.5332 11.6835C7.81191 10.7898 6.28754 9.53336 6.28121 8.99688C6.27629 8.34579 8.23098 6.83969 15.6616 5.79907C15.9569 5.75758 16.1622 5.48407 16.1214 5.18875C16.08 4.89485 15.817 4.68743 15.5111 4.72891C10.7988 5.38985 5.18433 6.66743 5.20121 9.00743Z" fill="#A81874"/>
</svg>
