<svg width="54" height="50" viewBox="0 0 54 50" fill="none" xmlns="http://www.w3.org/2000/svg">
<path d="M11.3526 14.6702L20.3483 20.2946C20.8382 20.6006 21.495 20.4569 21.8116 19.971L26.1081 13.3663L29.1763 18.4721L28.9074 18.6358C28.0507 19.1572 28.3186 20.4675 29.3136 20.6081L38.3492 21.8863C38.8634 21.9588 39.3513 21.6532 39.5139 21.1647L42.3356 12.6741C42.6501 11.7281 41.613 10.9061 40.7652 11.4231L40.7468 11.4343L36.2231 3.86789C34.8493 1.5654 32.3323 0.136719 29.6512 0.136719C29.6463 0.136719 29.6411 0.136719 29.6361 0.136719L23.0536 0.151801C20.6418 0.151801 18.3548 1.23792 16.7081 3.71664C16.7015 3.72719 16.6937 3.73595 16.687 3.74649C16.6861 3.74807 16.6863 3.75008 16.6852 3.75177C15.585 5.41606 14.1628 8.21172 11.0184 13.1884C10.7012 13.6898 10.8492 14.355 11.3526 14.6702ZM23.0549 1.27715L29.6385 1.26207H29.651C31.9378 1.26207 34.0848 2.48066 35.2567 4.44491L40.0714 12.4984C40.2343 12.7706 40.5842 12.8497 40.8466 12.6903L41.2197 12.4635L38.4606 20.7659L29.6251 19.516L30.2388 19.1421C30.5036 18.9811 30.5879 18.6361 30.4278 18.3708L26.9922 12.6532C26.8984 12.491 23.5068 6.83145 23.4379 6.732C21.8151 4.41949 19.6083 3.74027 18.2196 3.55106C19.4079 2.08789 21.2397 1.27715 23.0549 1.27715ZM17.4699 4.60986C19.3831 4.66808 21.1472 5.53577 22.5244 7.38991C22.7509 7.76633 24.5334 10.7341 25.4655 12.2904L20.8983 19.3114L11.9971 13.7458C14.9668 9.04271 16.4362 6.22385 17.4699 4.60986Z" fill="#A81874"/>
<path d="M22.1168 36.7163L14.2487 36.2976L17.1366 31.0875L17.4129 31.2386C18.2946 31.7217 19.2922 30.8301 18.918 29.9007L15.5068 21.4356C15.313 20.9568 14.8054 20.6861 14.2998 20.7887L5.53568 22.5901H5.53537C4.56179 22.7906 4.36382 24.0979 5.23752 24.5759L5.2563 24.586L0.965618 32.287C-0.343882 34.6323 -0.319941 37.5328 1.02795 39.8568L4.33218 45.5499C6.65049 49.5653 10.5829 49.3189 13.8231 49.3167C15.6531 49.3164 18.1557 49.3154 21.6398 49.4543C22.2001 49.4854 22.7341 49.0385 22.7554 48.4239L23.1286 37.8213C23.149 37.2427 22.6948 36.7469 22.1168 36.7163ZM5.30618 44.9863L2.00143 39.2921C0.851817 37.3103 0.831145 34.8361 1.94827 32.8351L6.51528 24.6385C6.66757 24.3654 6.56738 24.0207 6.2939 23.871L5.91105 23.6617L14.481 21.9001L17.8164 30.1767L17.186 29.832C16.9146 29.6839 16.5731 29.7828 16.4231 30.0539C10.0552 41.5288 9.8733 41.8523 9.8387 41.9271C8.64765 44.4872 9.16233 46.738 9.69252 48.0351C7.883 47.7479 6.23811 46.6006 5.30618 44.9863ZM21.633 48.3282C18.1531 48.1903 15.652 48.1903 13.8231 48.1917C12.6496 48.1905 11.7405 48.1894 10.9862 48.1548C10.0899 46.4612 9.94248 44.4653 10.8649 42.39C11.1038 41.9577 12.7637 38.9647 13.6384 37.392L22.0024 37.8372L21.633 48.3282Z" fill="#A81874"/>
<path d="M53.0957 31.7885C53.0895 31.7767 53.0856 31.7648 53.0793 31.753C53.0784 31.7512 53.0764 31.7504 53.0754 31.7486C52.1814 29.9578 50.4795 27.3441 47.7365 22.1225C47.4633 21.6035 46.8162 21.3903 46.2864 21.6717L36.9182 26.6497C36.4064 26.9214 36.204 27.5625 36.4663 28.0789L40.0378 35.1022L34.0819 35.2064L34.0745 34.8913C34.051 33.8862 32.7807 33.4684 32.1632 34.2573L26.5387 41.4431C26.2199 41.8502 26.2376 42.4262 26.581 42.8124L32.5232 49.5014C33.1865 50.2476 34.4151 49.7585 34.3917 48.7666L34.3914 48.7452L43.2061 48.6109C45.8923 48.5722 48.3921 47.1012 49.7306 44.7721L53.0089 39.0639C54.2394 36.9326 54.3876 34.3919 53.0957 31.7885ZM46.7646 22.6919C49.3526 27.6153 51.0581 30.2954 51.9391 31.9975C51.41 32.841 49.9214 34.721 47.0404 34.9842C47.0284 34.9847 47.0162 34.9855 47.0041 34.9869C46.5393 34.9953 43.0979 35.0548 41.2909 35.0836L37.4942 27.6176L46.7646 22.6919ZM52.0339 38.5026L48.7551 44.2119C47.6135 46.1985 45.4813 47.453 43.1897 47.486L33.8075 47.6291C33.493 47.6343 33.2463 47.8943 33.2537 48.2047L33.2635 48.6409L27.4532 42.1003L32.9533 35.0734L32.9701 35.7919C32.977 36.102 33.2445 36.332 33.5438 36.3413C46.9778 36.1176 47.0602 36.1122 47.118 36.107C49.9319 35.8582 51.6236 34.2861 52.4817 33.1781C53.1532 34.9326 52.9448 36.925 52.0339 38.5026Z" fill="#A81874"/>
</svg>
