<svg width="120" height="118" viewBox="0 0 120 118" fill="none" xmlns="http://www.w3.org/2000/svg">
<path d="M115.629 57.9723C114.209 57.6943 112.768 57.985 111.568 58.7912C110.574 59.4591 109.844 60.4147 109.465 61.5293L103.298 58.8363C103.311 58.4143 103.317 57.9984 103.317 57.5933C103.317 53.9675 102.863 50.3673 101.968 46.8796L104.734 45.0032C106.487 46.5389 109.036 46.998 111.267 46.0288C114.269 44.7242 115.707 41.2501 114.54 38.1197L113.238 34.6249C112.057 31.4561 108.661 29.7866 105.507 30.8218C103.91 31.346 102.626 32.4643 101.89 33.9706C101.471 34.8273 101.26 35.7463 101.26 36.6697L98.1213 37.1079C97.6913 36.3198 97.2216 35.5211 96.72 34.7254C96.2012 33.9025 95.1132 33.6562 94.2907 34.1747C93.4676 34.6935 93.221 35.7811 93.7398 36.604C94.3318 37.5431 94.8743 38.4841 95.3522 39.4014C95.832 40.3211 96.8438 40.8427 97.8677 40.6999L103.527 39.9099C104.052 39.8366 104.516 39.5306 104.791 39.0769C105.065 38.6232 105.12 38.0699 104.941 37.5708C104.698 36.8935 104.739 36.1643 105.055 35.5176C105.37 34.8727 105.921 34.3938 106.606 34.1688C107.934 33.733 109.428 34.4894 109.937 35.8553L111.239 39.35C111.743 40.7025 111.125 42.2494 109.862 42.7985C108.653 43.3236 107.23 42.8734 106.549 41.7515C106.299 41.3389 105.89 41.047 105.419 40.9441C104.948 40.841 104.454 40.9366 104.055 41.2074L99.3611 44.3912C98.4902 44.9816 98.0938 46.0612 98.3747 47.0776C99.3169 50.4892 99.7946 54.0274 99.7946 57.5935C99.7946 58.1778 99.7798 58.7884 99.7511 59.4086C99.7044 60.4189 100.295 61.3691 101.219 61.7728L110.02 65.6158C110.509 65.8298 111.069 65.8098 111.542 65.5621C112.015 65.3143 112.35 64.8653 112.453 64.3411L112.732 62.9203C112.829 62.425 113.113 61.9971 113.532 61.7155C113.951 61.4339 114.455 61.3323 114.95 61.4297C115.973 61.6303 116.642 62.6256 116.441 63.6481L114.998 71.0027C114.898 71.5147 114.6 71.9513 114.16 72.2322C113.72 72.5128 113.197 72.5978 112.688 72.4733C111.725 72.2369 111.106 71.2056 111.309 70.1742L111.347 69.9776C111.451 69.4471 111.306 68.8983 110.953 68.4889C110.6 68.0791 110.074 67.8527 109.538 67.8793L100.019 68.3135C99.0114 68.3593 98.1201 69.0352 97.8017 69.9962C96.9198 72.6589 95.7494 75.2316 94.3224 77.6425C93.791 78.5401 93.8842 79.6782 94.5542 80.4743L98.7655 85.4772C99.0783 85.849 99.5309 86.0747 100.016 86.1017C100.501 86.128 100.975 85.9537 101.327 85.6191C102.271 84.7212 103.706 84.6444 104.739 85.4352C105.299 85.8631 105.658 86.4831 105.751 87.181C105.844 87.879 105.659 88.5713 105.231 89.1305L104.011 90.7253C103.134 91.8706 101.497 92.1651 100.361 91.3824C99.3953 90.7171 98.9825 89.4771 99.3568 88.367C99.6485 87.5025 99.2317 86.5584 98.3961 86.1916L92.3295 83.5271C91.3648 83.1027 90.2387 83.3425 89.5267 84.1238C86.8217 87.0941 83.698 89.6248 80.2423 91.6457C79.3694 92.1553 78.8929 93.1665 79.0558 94.1616L80.6089 103.631C80.6953 104.158 81.0161 104.618 81.4813 104.88C81.9466 105.143 82.5052 105.18 83.0015 104.982L84.3453 104.444C84.8298 104.25 85.3582 104.263 85.833 104.48C86.3076 104.697 86.6632 105.089 86.8351 105.585C87.1597 106.522 86.6296 107.602 85.6536 107.992L78.7909 110.737C78.3064 110.931 77.7783 110.919 77.3032 110.702C76.8288 110.485 76.473 110.093 76.3011 109.597C75.9765 108.66 76.5064 107.58 77.4817 107.19L77.6674 107.116C78.1695 106.915 78.5514 106.495 78.7036 105.976C78.8555 105.457 78.7611 104.897 78.4469 104.457L72.9104 96.6998C72.3247 95.8785 71.2728 95.4974 70.2949 95.751C67.067 96.5878 63.73 97.0121 60.3765 97.0121C57.7211 97.0121 55.0591 96.7439 52.465 96.2151C51.4746 96.0133 50.4455 96.4485 49.9023 97.2989L44.3607 105.99C44.0735 106.44 44.0063 106.997 44.178 107.503C44.3492 108.009 44.7409 108.409 45.2428 108.592L45.4389 108.664C46.1117 108.909 46.6488 109.402 46.951 110.051C47.2533 110.7 47.2845 111.428 47.0393 112.101C46.9686 112.294 46.9327 112.499 46.9327 112.705C46.9327 113.371 46.7361 113.875 46.3792 114.125C46.0225 114.375 45.4814 114.387 44.855 114.158L38.0473 111.676C36.6841 111.179 35.9584 109.659 36.4292 108.288C36.654 107.634 37.1378 107.102 37.7916 106.79C38.4823 106.461 39.2852 106.42 39.9937 106.678L40.1497 106.735C40.6572 106.92 41.2222 106.862 41.6816 106.577C42.1412 106.292 42.4441 105.812 42.5035 105.274L43.6317 95.0883C43.7428 94.0859 43.2139 93.1012 42.3159 92.6377C38.1979 90.5109 34.5134 87.6979 31.3657 84.2779C30.6729 83.5245 29.5729 83.2786 28.6284 83.6663L20.3207 87.0732C19.8597 87.2623 19.5004 87.6376 19.3318 88.1063C19.1629 88.5751 19.2007 89.0934 19.4353 89.5328C19.9626 90.5191 19.6538 91.7274 18.7172 92.3432C17.7517 92.9784 16.4 92.6813 15.7048 91.6809L13.5769 88.6178C12.8944 87.6354 13.0569 86.3168 13.9468 85.6155C14.4068 85.2529 14.9777 85.0942 15.5531 85.1682C16.1329 85.2428 16.6459 85.5401 16.9979 86.0056C17.3163 86.4269 17.8072 86.6831 18.3351 86.7036C18.8611 86.7238 19.3719 86.5063 19.7219 86.1106L25.5733 79.4969C26.26 78.7207 26.383 77.5887 25.8793 76.679C25.2501 75.5442 24.6649 74.3493 24.1402 73.1271C23.756 72.2336 22.7206 71.82 21.8265 72.204C20.9327 72.5879 20.5194 73.6236 20.9031 74.5174C21.3735 75.6121 21.8885 76.6876 22.4386 77.7235L18.2475 82.4611C17.5735 82.0478 16.8131 81.7782 16.0031 81.6739C14.4796 81.4783 12.9762 81.8953 11.7665 82.8484C9.4159 84.7008 8.94057 88.1178 10.6843 90.6274L12.8122 93.6902C14.5879 96.2463 18.1049 96.9619 20.6533 95.286C22.559 94.0326 23.4775 91.8465 23.1569 89.7169L29.2817 87.205C32.4272 90.5078 36.0439 93.2684 40.0503 95.4246L39.2124 102.991C38.2068 102.962 37.1951 103.171 36.275 103.61C34.7607 104.332 33.6322 105.587 33.0977 107.142C32.0076 110.317 33.6867 113.835 36.8407 114.985L43.6484 117.467C44.3316 117.717 45.018 117.84 45.6791 117.84C46.6749 117.84 47.6135 117.56 48.3991 117.011C49.6316 116.148 50.3685 114.703 50.4484 113.013C50.9051 111.54 50.8004 109.971 50.1447 108.563C49.7246 107.66 49.1081 106.889 48.3453 106.293L52.4812 99.8063C58.4204 100.911 64.6135 100.749 70.4664 99.3383L74.4855 104.97C72.9036 106.401 72.2465 108.654 72.9724 110.75C73.4628 112.164 74.481 113.285 75.8399 113.906C77.1799 114.518 78.7318 114.555 80.0993 114.008L86.9622 111.263C89.7042 110.166 91.1107 107.165 90.1638 104.432C89.6737 103.017 88.6554 101.896 87.2966 101.276C86.1818 100.766 84.9192 100.655 83.7389 100.947L82.6504 94.3109C85.9472 92.307 88.9558 89.8716 91.6097 87.0584L95.7083 88.8585C95.5937 90.9639 96.5699 93.0482 98.362 94.2832C101.065 96.1458 104.775 95.523 106.808 92.8662L108.029 91.2713C109.028 89.9649 109.46 88.3473 109.243 86.7165C109.026 85.0857 108.187 83.637 106.88 82.6372C104.974 81.1786 102.485 80.9823 100.436 81.9919L97.7338 78.7811C98.997 76.5571 100.062 74.2145 100.909 71.7991L107.817 71.4839C108.16 73.5898 109.695 75.3652 111.849 75.8941C113.302 76.2513 114.797 76.0047 116.056 75.2011C117.297 74.4085 118.171 73.1255 118.455 71.6805L119.898 64.3258C120.473 61.3971 118.557 58.547 115.629 57.9723Z" fill="white"/>
<path d="M11.3482 62.7324L17.9502 64.2572C18.0939 65.1753 18.2717 66.1074 18.4807 67.0371C18.6646 67.8562 19.3917 68.4131 20.1977 68.4128C20.3254 68.4128 20.4553 68.3987 20.5852 68.3696C21.5342 68.1564 22.1309 67.2144 21.9177 66.2652C21.6751 65.1839 21.478 64.1011 21.3324 63.0466C21.1936 62.0431 20.4388 61.216 19.4546 60.9889L10.1042 58.8295C9.58452 58.7095 9.03686 58.8318 8.61766 59.1623C8.19822 59.4929 7.9514 59.996 7.9467 60.53L7.93708 61.6246C7.92604 62.85 6.92019 63.8472 5.69453 63.8472C5.11094 63.8472 4.56305 63.6189 4.1523 63.2044C3.74132 62.7897 3.51798 62.2402 3.52315 61.6566L3.58421 54.8639C3.58961 54.2411 3.85428 53.6316 4.31012 53.192C4.73848 52.7787 5.2798 52.557 5.85165 52.5739C7.04137 52.6054 8.00424 53.6002 7.99767 54.7916C7.99461 55.331 8.23909 55.8423 8.66111 56.1785C9.08312 56.5151 9.63642 56.6395 10.1611 56.516L19.4457 54.339C20.4292 54.1084 21.1807 53.2791 21.3162 52.2754C22.0013 47.195 23.6497 42.3654 26.2153 37.9202C26.7329 37.0227 26.631 35.8902 25.9605 35.1021L21.533 29.9021C21.1868 29.4959 20.6779 29.2676 20.1411 29.2833C19.6073 29.2988 19.1092 29.5555 18.7869 29.9813L18.4032 30.4886C18.1165 30.8676 17.6984 31.106 17.2259 31.1602C16.7551 31.2142 16.2922 31.0757 15.9251 30.7699C15.2314 30.1919 15.1379 29.099 15.7168 28.3336L18.666 24.4342C19.2386 23.6773 20.3203 23.527 21.0772 24.0998C21.7859 24.6357 21.9675 25.6425 21.4907 26.3919C21.2141 26.8271 21.142 27.3614 21.2935 27.8543C21.4449 28.3472 21.8047 28.7491 22.2777 28.9536L28.4689 31.6313C29.4287 32.0468 30.5492 31.8058 31.257 31.0308C34.0756 27.9433 37.3428 25.3356 40.9688 23.2802C41.8471 22.7819 42.3368 21.7777 42.1874 20.7805L40.7612 11.2909C40.6818 10.7627 40.3669 10.2991 39.9054 10.0304C39.4435 9.76155 38.8846 9.71693 38.3869 9.90856L37.0359 10.4283C36.5488 10.6152 36.0209 10.5957 35.549 10.3726C35.0775 10.1498 34.7271 9.75263 34.562 9.25452C34.2499 8.31326 34.794 7.24072 35.7754 6.86332L42.6743 4.2098C43.1613 4.02239 43.6893 4.04236 44.1611 4.26546C44.6326 4.48833 44.9833 4.88545 45.1484 5.38356C45.4602 6.32482 44.9161 7.39736 43.9347 7.77499L43.7482 7.84686C43.2438 8.04107 42.8563 8.45604 42.6973 8.9727C42.5385 9.48936 42.6254 10.0504 42.9338 10.4945L48.3648 18.3238C48.9392 19.1519 49.9845 19.5471 50.966 19.3069C54.0269 18.5572 57.1931 18.177 60.3805 18.177H60.3814C61.4206 18.177 62.3522 17.522 62.6996 16.5481L64.4978 11.5163C64.6591 11.0649 64.6295 10.5671 64.4156 10.1382C64.2019 9.70918 63.8226 9.38556 63.3649 9.24254C62.0554 8.83297 61.2224 7.54696 61.384 6.18485C61.4701 5.46012 61.8508 4.80044 62.4558 4.32722C63.091 3.83029 63.9038 3.60179 64.6871 3.70066L67.1567 4.01159C68.7574 4.21309 69.9234 5.62897 69.756 7.16768C69.6266 8.35553 68.795 9.31887 67.6374 9.62182C66.7896 9.84375 66.2337 10.6554 66.3336 11.5262L66.9585 16.9788C67.0776 18.0194 67.8464 18.87 68.8725 19.0957C72.8066 19.96 76.5766 21.4247 80.0765 23.4486C80.9532 23.9559 82.0687 23.8685 82.8528 23.2321L90.3043 17.1836C90.719 16.8471 90.9583 16.3405 90.9555 15.8065C90.9524 15.2727 90.7075 14.7687 90.2895 14.4366L89.1559 13.5365C88.7472 13.2121 88.4959 12.7471 88.4485 12.227C88.4013 11.7077 88.5652 11.2042 88.9107 10.809C89.5629 10.0619 90.7631 9.9863 91.587 10.6399L97.3759 15.236C97.7846 15.5604 98.0358 16.0254 98.0833 16.5453C98.1305 17.0645 97.9666 17.5681 97.6211 17.9635C96.9687 18.7101 95.7677 18.7857 94.9453 18.1329L94.7891 18.0089C94.3654 17.6723 93.8107 17.5493 93.2854 17.6747C92.7593 17.8001 92.3202 18.1601 92.094 18.6512L88.1028 27.3151C87.6808 28.2315 87.8722 29.3333 88.5784 30.0569C88.8287 30.3134 89.076 30.5787 89.3703 30.8984C90.029 31.6142 91.1434 31.6602 91.8592 31.0012C92.5747 30.3422 92.6208 29.2281 91.962 28.5123C91.8376 28.3768 91.7204 28.25 91.6067 28.1286L94.5054 21.8361C96.5333 22.4993 98.8151 21.9519 100.274 20.2815C101.259 19.154 101.727 17.7137 101.591 16.2259C101.458 14.7591 100.719 13.393 99.5661 12.4775L93.7772 7.88161C91.4642 6.04535 88.1613 6.31284 86.2576 8.49198C85.2727 9.61947 84.8049 11.0598 84.9406 12.5475C85.0519 13.7683 85.5815 14.9195 86.4213 15.799L81.2016 20.0368C77.7917 18.1418 74.1553 16.7278 70.3734 15.8257L69.9864 12.447C71.7766 11.4569 73.0323 9.63356 73.2594 7.54931C73.6335 4.11164 71.0936 0.956955 67.598 0.516619L65.1283 0.205684C63.4219 -0.00896531 61.6566 0.481862 60.2872 1.55252C58.9373 2.60815 58.0848 4.10576 57.8873 5.76965C57.5999 8.18856 58.7159 10.4999 60.6541 11.8071L59.6341 14.6607C56.6661 14.7114 53.7162 15.0658 50.8443 15.7165L46.9027 10.0342C48.5031 8.62419 49.1905 6.38024 48.4928 4.27509C48.0215 2.85404 47.0182 1.71973 45.6678 1.08095C44.3363 0.451332 42.7849 0.393325 41.4103 0.921963L34.5117 3.57525C31.7549 4.63534 30.3085 7.61694 31.219 10.363C31.6901 11.784 32.6931 12.9183 34.0437 13.5571C35.1517 14.0811 36.4116 14.2095 37.5967 13.9326L38.5962 20.583C35.1183 22.6334 31.9545 25.1571 29.1744 28.0978L25.1978 26.3781C25.5209 24.4953 24.8016 22.4993 23.2027 21.2899C22.0856 20.4449 20.7068 20.0849 19.3189 20.2782C17.9314 20.4705 16.702 21.192 15.8572 22.3091L12.9078 26.2085C11.1819 28.4898 11.5171 31.6823 13.6706 33.4763C14.7849 34.4046 16.19 34.8252 17.6282 34.6599C18.535 34.5558 19.3964 34.2132 20.1249 33.6818L22.7929 36.8158C20.3275 41.263 18.6937 46.0539 17.9295 51.0763L11.1141 52.6744C10.2867 50.6097 8.28488 49.1142 5.94488 49.0524C4.42144 49.0141 2.97784 49.5822 1.86373 50.6571C0.732716 51.7487 0.0756177 53.2702 0.0612921 54.8319L0.000232245 61.6251C-0.0133888 63.1556 0.572551 64.5973 1.64979 65.6844C2.72703 66.7715 4.16358 67.3701 5.6943 67.3701C8.47722 67.3704 10.8198 65.3706 11.3482 62.7324Z" fill="white"/>
<path d="M51.6573 53.1214C52.5166 52.666 52.8442 51.5998 52.3886 50.7403C51.9333 49.8812 50.8675 49.5529 50.0073 50.009C45.7982 52.24 41.0005 51.6503 38.6011 48.6058C37.2547 46.898 36.7916 44.6348 37.297 42.2335C37.8268 39.7154 39.342 37.3644 41.5634 35.6136C43.7844 33.8626 46.4245 32.9397 48.9963 33.0111C51.4492 33.0803 53.5415 34.0592 54.8881 35.7672C56.9096 38.332 56.884 42.1602 54.8226 45.5201C54.3139 46.3494 54.5734 47.4339 55.4029 47.9426C56.2319 48.4512 57.3164 48.1915 57.8251 47.3625C60.6672 42.7304 60.6 37.3231 57.6543 33.5864C55.6504 31.044 52.6108 29.5891 49.0959 29.49C45.6991 29.3914 42.2506 30.5863 39.3826 32.8471C36.5142 35.108 34.5495 38.184 33.8497 41.508C33.1254 44.949 33.8304 48.2443 35.8344 50.7865C37.9445 53.4633 41.2485 54.8714 44.8031 54.8712C47.0677 54.8712 49.4338 54.3001 51.6573 53.1214Z" fill="white"/>
<path d="M85.8342 37.3177C85.8342 33.6661 82.436 30.6953 78.259 30.6953C74.082 30.6953 70.6836 33.6661 70.6836 37.3177C70.6836 40.9693 74.082 43.9401 78.259 43.9401C82.436 43.9401 85.8342 40.9693 85.8342 37.3177ZM74.2065 37.3177C74.2065 35.6085 76.0245 34.218 78.2592 34.218C80.4938 34.218 82.3117 35.6085 82.3117 37.3177C82.3117 39.0269 80.4938 40.4175 78.2592 40.4175C76.0245 40.4175 74.2065 39.0269 74.2065 37.3177Z" fill="white"/>
<path d="M65.3944 67.5926C65.3944 63.1174 61.7536 59.4766 57.2784 59.4766C52.8029 59.4766 49.1621 63.1174 49.1621 67.5926C49.1621 72.0678 52.8029 75.7086 57.2784 75.7086C61.7536 75.7086 65.3944 72.0678 65.3944 67.5926ZM52.685 67.5926C52.685 65.0598 54.7456 62.9992 57.2786 62.9992C59.8112 62.9992 61.872 65.0598 61.872 67.5926C61.872 70.1254 59.8114 72.1859 57.2786 72.1859C54.7456 72.1859 52.685 70.1254 52.685 67.5926Z" fill="white"/>
<path d="M88.3551 64.2802C88.3551 60.8 85.5238 57.9688 82.0437 57.9688C78.5637 57.9688 75.7324 60.8 75.7324 64.2802C75.7324 67.7604 78.5637 70.5917 82.0437 70.5917C85.5238 70.5915 88.3551 67.7604 88.3551 64.2802ZM79.2549 64.2802C79.2549 62.7425 80.5059 61.4914 82.0434 61.4914C83.5812 61.4914 84.8322 62.7425 84.8322 64.2802C84.8322 65.818 83.5812 67.069 82.0434 67.069C80.5061 67.0688 79.2549 65.818 79.2549 64.2802Z" fill="white"/>
<path d="M65.2398 92.6745C68.65 92.6745 71.4247 89.9 71.4247 86.4896C71.4247 83.0794 68.6502 80.3047 65.2398 80.3047C61.8294 80.3047 59.0547 83.0792 59.0547 86.4896C59.0547 89.9 61.8292 92.6745 65.2398 92.6745ZM65.2398 83.8274C66.7078 83.8274 67.902 85.0216 67.902 86.4896C67.902 87.9576 66.7078 89.1518 65.2398 89.1518C63.7718 89.1518 62.5774 87.9576 62.5774 86.4896C62.5774 85.0216 63.7718 83.8274 65.2398 83.8274Z" fill="white"/>
<path d="M37.5609 82.278C41.073 82.278 43.9304 79.4207 43.9304 75.9085C43.9304 72.3964 41.073 69.5391 37.5609 69.5391C34.0488 69.5391 31.1914 72.3964 31.1914 75.9085C31.1914 79.4207 34.0488 82.278 37.5609 82.278ZM37.5609 73.0617C39.1308 73.0617 40.4077 74.3388 40.4077 75.9085C40.4077 77.4783 39.1306 78.7553 37.5609 78.7553C35.9912 78.7553 34.7141 77.4783 34.7141 75.9085C34.7141 74.3388 35.9912 73.0617 37.5609 73.0617Z" fill="white"/>
<path d="M73.4274 53.8629C73.4274 52.8902 72.639 52.1016 71.666 52.1016H70.109C69.136 52.1016 68.3477 52.8902 68.3477 53.8629C68.3477 54.8356 69.136 55.6242 70.109 55.6242H71.666C72.639 55.6242 73.4274 54.8356 73.4274 53.8629Z" fill="white"/>
<path d="M49.3238 86.4133H50.9236C51.8966 86.4133 52.685 85.6247 52.685 84.652C52.685 83.6792 51.8966 82.8906 50.9236 82.8906H49.3238C48.3509 82.8906 47.5625 83.6792 47.5625 84.652C47.5625 85.6247 48.3511 86.4133 49.3238 86.4133Z" fill="white"/>
<path d="M34.4938 60.7649C35.4668 60.7649 36.2551 59.9763 36.2551 59.0035C36.2551 58.0308 35.4668 57.2422 34.4938 57.2422H32.9527C31.9798 57.2422 31.1914 58.0308 31.1914 59.0035C31.1914 59.9763 31.9798 60.7649 32.9527 60.7649H34.4938Z" fill="white"/>
<path d="M65.7771 29.9446C66.75 29.9446 67.5384 29.1559 67.5384 28.1832C67.5384 27.2105 66.75 26.4219 65.7771 26.4219H63.6324C62.6595 26.4219 61.8711 27.2105 61.8711 28.1832C61.8711 29.1559 62.6595 29.9446 63.6324 29.9446H65.7771Z" fill="white"/>
<path d="M77.4938 77.1562C76.5208 77.1562 75.7324 77.9449 75.7324 78.9176C75.7324 79.8903 76.5208 80.6789 77.4938 80.6789H79.8619C80.8349 80.6789 81.6233 79.8903 81.6233 78.9176C81.6233 77.9449 80.8349 77.1562 79.8619 77.1562H77.4938Z" fill="white"/>
</svg>
