<svg width="60" height="60" viewBox="0 0 60 60" fill="none" xmlns="http://www.w3.org/2000/svg">
<path fill-rule="evenodd" clip-rule="evenodd" d="M48.2597 22.0177C48.2605 20.3599 47.9376 18.718 47.3092 17.1839C46.7388 18.0331 45.8608 18.6274 44.8606 18.8415C43.8603 19.0555 42.816 18.8726 41.948 18.3313C41.0801 17.79 40.4564 16.9326 40.2086 15.9402C39.9608 14.9477 40.1083 13.8978 40.6199 13.0121L41.8883 10.815C39.5643 9.36269 36.884 8.58098 34.1436 8.55624V12.6423C34.1441 12.8187 34.0967 12.9919 34.0066 13.1435C33.9166 13.2951 33.7871 13.4195 33.632 13.5035C33.4769 13.5874 33.3019 13.6278 33.1257 13.6203C32.9495 13.6128 32.7786 13.5577 32.6312 13.4609C32.3023 13.2465 31.9216 13.125 31.5293 13.1091C31.1371 13.0932 30.7478 13.1836 30.4026 13.3706C30.0575 13.5577 29.7692 13.8345 29.5683 14.1718C29.3675 14.5091 29.2614 14.8944 29.2614 15.287C29.2614 15.6796 29.3675 16.0649 29.5683 16.4022C29.7692 16.7395 30.0575 17.0163 30.4026 17.2034C30.7478 17.3905 31.1371 17.4808 31.5293 17.4649C31.9216 17.449 32.3023 17.3275 32.6312 17.1132C32.7786 17.0164 32.9495 16.9613 33.1257 16.9538C33.3019 16.9464 33.4769 16.9868 33.632 17.0707C33.7871 17.1547 33.9165 17.2791 34.0066 17.4307C34.0967 17.5823 34.1441 17.7555 34.1436 17.9318V22.0178H38.5569C38.7332 22.0175 38.9063 22.0649 39.0579 22.155C39.2094 22.2452 39.3337 22.3746 39.4176 22.5297C39.5015 22.6848 39.5418 22.8597 39.5343 23.0358C39.5268 23.212 39.4718 23.3828 39.375 23.5302C39.1607 23.8591 39.0392 24.2398 39.0233 24.6321C39.0074 25.0244 39.0978 25.4136 39.2848 25.7588C39.4719 26.1039 39.7487 26.3922 40.086 26.593C40.4233 26.7939 40.8086 26.8999 41.2012 26.8999C41.5938 26.8999 41.9791 26.7939 42.3164 26.593C42.6537 26.3922 42.9305 26.1039 43.1175 25.7588C43.3046 25.4136 43.395 25.0244 43.3791 24.6321C43.3632 24.2398 43.2417 23.8591 43.0274 23.5302C42.9306 23.3828 42.8755 23.2119 42.868 23.0357C42.8605 22.8595 42.9009 22.6845 42.9848 22.5294C43.0688 22.3743 43.1931 22.2448 43.3448 22.1547C43.4964 22.0646 43.6696 22.0173 43.8459 22.0177H48.2597ZM39.847 7.866L40.1761 6.82304C40.2915 6.44366 40.5244 6.11077 40.8414 5.87247C41.1583 5.63416 41.5428 5.50278 41.9393 5.49729C44.1786 5.44304 46.3703 5.18651 49.0125 4.06339L54.1124 12.8965C54.2122 13.0696 54.3324 13.23 54.4706 13.3743C53.9991 13.9477 53.4281 14.4313 52.7849 14.802L49.1064 16.9258C48.6668 15.7496 48.078 14.6348 47.3544 13.6087L45.9292 16.0773C45.6392 16.5795 45.1617 16.946 44.6016 17.0961C44.0415 17.2462 43.4447 17.1676 42.9425 16.8777C42.4403 16.5877 42.0738 16.1102 41.9237 15.5501C41.7737 14.99 41.8522 14.3932 42.1421 13.891L44.2093 10.3104C42.888 9.27857 41.417 8.45421 39.847 7.866ZM32.6614 54.6269H21.1454C21.9279 56.9962 24.2098 58.7107 26.9033 58.7107C29.5969 58.7107 31.8789 56.9963 32.6614 54.6269ZM12.7852 29.7787C12.7852 22.4028 19.0879 16.4131 26.9011 16.3171V20.4053C26.9011 20.5814 26.8534 20.7542 26.7632 20.9054C26.673 21.0566 26.5436 21.1806 26.3887 21.2643C26.2338 21.348 26.0591 21.3882 25.8832 21.3807C25.7072 21.3732 25.5366 21.3183 25.3894 21.2217C25.0605 21.0074 24.6798 20.8859 24.2875 20.87C23.8952 20.8541 23.5059 20.9444 23.1608 21.1315C22.8156 21.3186 22.5274 21.5954 22.3265 21.9327C22.1256 22.27 22.0196 22.6553 22.0196 23.0479C22.0196 23.4405 22.1256 23.8258 22.3265 24.1631C22.5274 24.5004 22.8156 24.7772 23.1608 24.9643C23.5059 25.1513 23.8952 25.2417 24.2875 25.2258C24.6798 25.2099 25.0605 25.0884 25.3894 24.874C25.5366 24.7773 25.7073 24.7223 25.8833 24.7147C26.0593 24.7071 26.2341 24.7473 26.3891 24.831C26.5441 24.9147 26.6736 25.0388 26.7639 25.1901C26.8541 25.3414 26.9017 25.5143 26.9017 25.6905V29.7787H31.3172C31.4934 29.7786 31.6663 29.8263 31.8176 29.9165C31.9688 30.0068 32.0929 30.1363 32.1766 30.2913C32.2603 30.4463 32.3005 30.6211 32.2929 30.7971C32.2854 30.9731 32.2303 31.1438 32.1336 31.2911C31.9193 31.62 31.7977 32.0007 31.7819 32.393C31.766 32.7852 31.8563 33.1745 32.0434 33.5197C32.2304 33.8648 32.5072 34.1531 32.8446 34.3539C33.1819 34.5548 33.5672 34.6608 33.9598 34.6608C34.3524 34.6608 34.7377 34.5548 35.075 34.3539C35.4123 34.1531 35.6891 33.8648 35.8761 33.5197C36.0632 33.1745 36.1535 32.7852 36.1377 32.393C36.1218 32.0007 36.0002 31.62 35.7859 31.2911C35.6892 31.1438 35.6342 30.9731 35.6266 30.7971C35.619 30.6211 35.6592 30.4463 35.7429 30.2913C35.8266 30.1363 35.9507 30.0068 36.102 29.9165C36.2533 29.8263 36.4262 29.7786 36.6023 29.7787H41.0177C41.0177 36.9799 36.8827 39.9532 34.6574 43.7699C34.5949 43.7662 34.532 43.7643 34.4687 43.7643H19.3343C19.2709 43.7643 19.208 43.7662 19.1456 43.7699C16.9202 39.9532 12.7852 36.9799 12.7852 29.7787ZM55.6346 12.0175C55.7331 12.1868 55.8945 12.3103 56.0837 12.361C56.2729 12.4117 56.4745 12.3855 56.6445 12.2881L57.8174 11.6108C57.9867 11.5124 58.1103 11.351 58.161 11.1618C58.2117 10.9726 58.1855 10.771 58.0881 10.601L52.9247 1.65788C52.8262 1.48854 52.6648 1.36503 52.4756 1.31433C52.2864 1.26363 52.0848 1.28986 51.9149 1.38729L50.7422 2.06452C50.5728 2.16294 50.4493 2.32439 50.3986 2.51361C50.3479 2.70282 50.3741 2.9044 50.4716 3.07432L55.6349 12.0175H55.6346ZM51.1977 29.5545C51.4308 29.5545 51.6544 29.6471 51.8192 29.8119C51.984 29.9767 52.0766 30.2003 52.0766 30.4334C52.0766 30.6665 51.984 30.89 51.8192 31.0549C51.6544 31.2197 51.4308 31.3123 51.1977 31.3123H46.9548C46.7217 31.3123 46.4981 31.2197 46.3333 31.0549C46.1685 30.89 46.0759 30.6665 46.0759 30.4334C46.0759 30.2003 46.1685 29.9767 46.3333 29.8119C46.4981 29.6471 46.7217 29.5545 46.9548 29.5545H51.1977ZM6.38109 43.3185C6.17987 43.4351 5.94058 43.4669 5.71588 43.407C5.49117 43.3471 5.29946 43.2005 5.18291 42.9992C5.06636 42.798 5.03452 42.5587 5.0944 42.334C5.15427 42.1093 5.30096 41.9176 5.50219 41.801L9.17648 39.68C9.27612 39.6222 9.38615 39.5847 9.50029 39.5695C9.61443 39.5543 9.73044 39.5618 9.8417 39.5914C9.95296 39.6211 10.0573 39.6724 10.1487 39.7423C10.2402 39.8123 10.317 39.8996 10.3747 39.9992C10.4324 40.0989 10.4699 40.2089 10.4851 40.323C10.5003 40.4372 10.4928 40.5532 10.4632 40.6644C10.4335 40.7757 10.3823 40.88 10.3123 40.9715C10.2423 41.0629 10.155 41.1397 10.0554 41.1974L6.38109 43.3185ZM2.69238 31.3123C2.45928 31.3123 2.23573 31.2197 2.0709 31.0549C1.90608 30.89 1.81348 30.6665 1.81348 30.4334C1.81348 30.2003 1.90608 29.9767 2.0709 29.8119C2.23573 29.6471 2.45928 29.5545 2.69238 29.5545H6.93527C7.16837 29.5545 7.39193 29.6471 7.55675 29.8119C7.72158 29.9767 7.81418 30.2003 7.81418 30.4334C7.81418 30.6665 7.72158 30.89 7.55675 31.0549C7.39193 31.2197 7.16837 31.3123 6.93527 31.3123H2.69238ZM5.50559 19.0662C5.30692 18.9493 5.16242 18.7587 5.10347 18.5358C5.04452 18.3129 5.07589 18.0758 5.19076 17.8759C5.30563 17.6761 5.49472 17.5296 5.71696 17.4683C5.9392 17.4071 6.17664 17.436 6.3777 17.5487L10.0521 19.6698C10.2533 19.7855 10.4004 19.9763 10.4609 20.2004C10.5214 20.4244 10.4905 20.6633 10.3748 20.8646C10.2592 21.0658 10.0684 21.2128 9.84432 21.2734C9.62027 21.3339 9.38134 21.3029 9.18012 21.1873L5.50559 19.0662ZM14.0603 9.86639C13.9475 9.66534 13.9186 9.4279 13.9799 9.20566C14.0411 8.98342 14.1876 8.79433 14.3875 8.67946C14.5873 8.56459 14.8245 8.53322 15.0473 8.59217C15.2702 8.65112 15.4608 8.79562 15.5777 8.99428L17.6988 12.6688C17.7561 12.7685 17.7932 12.8784 17.8079 12.9924C17.8227 13.1063 17.8149 13.2221 17.7849 13.333C17.7549 13.444 17.7034 13.5479 17.6333 13.6389C17.5631 13.73 17.4757 13.8063 17.3761 13.8635C17.2765 13.9208 17.1665 13.9579 17.0526 13.9726C16.9386 13.9874 16.8228 13.9796 16.7119 13.9496C16.6009 13.9196 16.497 13.8681 16.406 13.798C16.3149 13.7278 16.2386 13.6404 16.1814 13.5408L14.0603 9.86639ZM26.0661 6.18073C26.0661 5.94763 26.1587 5.72408 26.3236 5.55925C26.4884 5.39442 26.7119 5.30182 26.945 5.30182C27.1781 5.30182 27.4017 5.39442 27.5665 5.55925C27.7313 5.72408 27.8239 5.94763 27.8239 6.18073V10.4236C27.8239 10.6567 27.7313 10.8803 27.5665 11.0451C27.4017 11.2099 27.1781 11.3025 26.945 11.3025C26.7119 11.3025 26.4884 11.2099 26.3236 11.0451C26.1587 10.8803 26.0661 10.6567 26.0661 10.4236V6.18073ZM48.3879 41.8006C48.4875 41.8583 48.5748 41.9351 48.6448 42.0265C48.7148 42.1179 48.766 42.2223 48.7957 42.3335C48.8253 42.4448 48.8328 42.5608 48.8176 42.675C48.8024 42.7891 48.7649 42.8991 48.7072 42.9988C48.6495 43.0984 48.5727 43.1857 48.4812 43.2557C48.3898 43.3256 48.2855 43.3769 48.1742 43.4066C48.0629 43.4362 47.9469 43.4436 47.8328 43.4285C47.7187 43.4133 47.6086 43.3757 47.509 43.318L43.8347 41.1969C43.6335 41.0804 43.4868 40.8887 43.4269 40.664C43.367 40.4393 43.3989 40.2 43.5154 39.9988C43.632 39.7975 43.8237 39.6508 44.0484 39.591C44.2731 39.5311 44.5124 39.5629 44.7136 39.6795L48.3879 41.8006ZM34.4681 45.5221H19.3343C18.9659 45.5246 18.6133 45.6725 18.3534 45.9336C18.0935 46.1948 17.9472 46.548 17.9464 46.9164C17.9456 47.2849 18.0904 47.6387 18.3492 47.9009C18.608 48.1632 18.9599 48.3126 19.3283 48.3167H34.4741C34.8425 48.3126 35.1944 48.1632 35.4532 47.9009C35.712 47.6387 35.8568 47.2849 35.856 46.9164C35.8552 46.548 35.709 46.1948 35.449 45.9336C35.1891 45.6725 34.8366 45.5246 34.4681 45.5221ZM19.3343 50.074C19.1497 50.0723 18.9667 50.1072 18.7956 50.1767C18.6246 50.2461 18.4691 50.3488 18.338 50.4787C18.2069 50.6086 18.1028 50.7632 18.0317 50.9336C17.9607 51.104 17.9242 51.2867 17.9242 51.4713C17.9242 51.6559 17.9607 51.8386 18.0317 52.009C18.1028 52.1794 18.2069 52.334 18.338 52.4639C18.4691 52.5938 18.6246 52.6965 18.7956 52.7659C18.9667 52.8354 19.1497 52.8703 19.3343 52.8686H34.4681C34.6527 52.8703 34.8358 52.8354 35.0068 52.7659C35.1778 52.6965 35.3333 52.5938 35.4645 52.4639C35.5956 52.334 35.6996 52.1794 35.7707 52.009C35.8417 51.8386 35.8783 51.6559 35.8783 51.4713C35.8783 51.2867 35.8417 51.104 35.7707 50.9336C35.6996 50.7632 35.5956 50.6086 35.4645 50.4787C35.3333 50.3488 35.1778 50.2461 35.0068 50.1767C34.8358 50.1072 34.6527 50.0723 34.4681 50.074H19.3343Z" fill="white"/>
</svg>
