<svg width="60" height="60" viewBox="0 0 60 60" fill="none" xmlns="http://www.w3.org/2000/svg">
<path d="M10.2727 16.182H17.6364C18.1818 16.182 18.7273 15.6365 18.7273 15.0002C18.7273 14.3638 18.2727 13.8184 17.6364 13.8184H10.2727C10.1818 13.8184 10 13.9093 10 14.0911C10 14.2729 10.0909 14.3638 10.2727 14.3638H17.6364C18 14.3638 18.2727 14.7275 18.2727 15.0911C18.2727 15.4547 18 15.8184 17.6364 15.8184H10.4545V15.2729H17.5455C17.6364 15.2729 17.8182 15.182 17.8182 15.0002C17.8182 14.8184 17.7273 14.7275 17.5455 14.7275H10.2727C10.1818 14.7275 10 14.8184 10 15.0002V16.0002C10.0909 16.0002 10.1818 16.182 10.2727 16.182Z" fill="white"/>
<path d="M11.0908 13.2728H18.4545C18.5454 13.2728 18.7272 13.1819 18.7272 13.0001V12.0001C18.7272 11.9092 18.6363 11.7274 18.4545 11.7274H11.1817C11.0908 11.7274 10.909 11.8183 10.909 12.0001C10.909 12.1819 10.9999 12.2728 11.1817 12.2728H18.2726V12.8183H11.0908C10.7272 12.8183 10.4545 12.4546 10.4545 12.091C10.4545 11.7274 10.7272 11.3637 11.0908 11.3637H18.4545C18.5454 11.3637 18.7272 11.2728 18.7272 11.091C18.7272 10.9092 18.6363 10.9092 18.5454 10.9092H11.1817C10.6363 10.9092 10.0908 11.4546 10.0908 12.091C10.0908 12.7274 10.5454 13.2728 11.0908 13.2728Z" fill="white"/>
<path d="M2.72727 16.9997H4.72727C5.18182 16.9997 5.45455 16.727 5.45455 16.4543V11.3634C5.45455 11.1816 5.36364 10.9088 5.09091 10.727L4.36364 10.1816V8.54519C4.36364 8.45428 4.18182 8.27246 4 8.27246H3.45455C3.27273 8.27246 3.09091 8.36337 3.09091 8.54519V10.2725L2.36364 10.8179C2.18182 10.9997 2 11.1816 2 11.4543V16.5452C2 16.727 2.27273 16.9997 2.72727 16.9997ZM2.36364 12.6361H5.09091V14.9088H2.36364V12.6361Z" fill="white"/>
<path d="M6.99986 17.0002H8.72713C9.09077 17.0002 9.36349 16.7275 9.36349 16.3638V10.2729C9.36349 10.0002 9.27259 9.72748 9.09077 9.54567L8.4544 8.81839V6.81839C8.4544 6.63657 8.27259 6.54566 8.18168 6.54566H7.54531C7.4544 6.45476 7.27259 6.63657 7.27259 6.81839V8.9093L6.63622 9.54567C6.4544 9.72748 6.36349 10.0002 6.36349 10.2729V16.3638C6.27259 16.7275 6.63622 17.0002 6.99986 17.0002ZM6.63622 11.6366H9.09077V14.3638H6.63622V11.6366Z" fill="white"/>
<path d="M26.6362 49.5449L26.909 57.0904C26.9999 58.5449 28.1817 59.7267 29.6362 59.7267H29.7271C31.2726 59.6358 32.4544 58.3631 32.3635 56.9086L32.0908 49.6358H26.6362V49.5449Z" fill="white"/>
<path d="M33.909 56.8177C33.8181 58.2723 34.9999 59.545 36.5453 59.6359H36.6362C38.0908 59.6359 39.2726 58.4541 39.3635 56.9996L39.6362 49.4541H34.1817L33.909 56.8177Z" fill="white"/>
<path d="M36.3635 43.7271H39.909L39.9999 42.2725L38.8181 42.1816C38.0908 42.9089 37.2726 43.4544 36.3635 43.7271Z" fill="white"/>
<path d="M24.7273 31.1816H26.6364L25.2727 29.2725L24.7273 31.1816Z" fill="white"/>
<path d="M39.0908 31.6363C39.0908 31.7272 39.0908 31.7272 39.0908 31.6363C38.7272 32.0908 38.2727 32.3635 37.8181 32.5454C38.0908 32.7272 38.3636 32.9999 38.5454 33.1817C39.0908 33.7272 39.4545 34.2726 39.8181 34.909H40.0908L41.0908 34.9999C41.5454 34.8181 41.9999 34.7272 42.4545 34.5454L42.0908 33.1817L40.909 29.0908L39.0908 31.6363Z" fill="white"/>
<path d="M8.18184 42.9091C11.1943 42.9091 13.6364 40.467 13.6364 37.4545C13.6364 34.4421 11.1943 32 8.18184 32C5.16938 32 2.72729 34.4421 2.72729 37.4545C2.72729 40.467 5.16938 42.9091 8.18184 42.9091Z" fill="white"/>
<path d="M57.8181 44.7266C35.6363 44.7266 33.7272 44.7266 3.27262 44.7266C2.72716 44.7266 2.36353 45.1811 2.36353 45.6357C2.36353 46.1811 2.81807 46.5447 3.27262 46.5447H8.18171L3.81807 57.4538H5.45443L7.0908 54.0902L14.7272 48.5447H45.4544H46.0908L54.0908 54.3629L55.6363 57.4538H57.2726L52.909 46.5447H57.7272C58.2726 46.5447 58.6363 46.0902 58.6363 45.6357C58.7272 45.0902 58.2726 44.7266 57.8181 44.7266ZM7.99989 52.0902L9.72716 48.5447H12.8181L7.99989 52.0902ZM53.0908 52.3629L47.909 48.5447H51.2726L53.0908 52.3629Z" fill="white"/>
<path d="M14.5455 38.2728C14.8182 41.2728 17.4546 43.4546 20.4546 43.1819C20.7273 43.091 28 42.5455 33.4545 43.1819C35.5455 43.3637 37.1818 42.6365 38.2727 41.2728C41.4545 41.4546 44.1818 41.6365 55.3636 42.3637H55.5455C57 42.3637 58.1818 41.2728 58.2727 39.8183C58.3636 38.2728 57.2727 37.0001 55.7273 36.9092L41.4545 36.0001L40.1818 35.9092H40.0909L39.2727 35.8183C39.2727 35.7274 39.1818 35.6365 39.1818 35.5455C39.0909 35.2728 39 35.091 38.8182 34.8183C38.4546 34.1819 37.9091 33.5455 37.1818 33.1819C36.5455 32.8183 35.9091 32.4546 35.1818 32.3637C35.0909 32.3637 34.9091 32.3637 34.8182 32.2728C33.6364 32.091 32.3636 32.0001 31.0909 32.0001C31 32.091 30.9091 32.091 30.9091 32.1819C29.8182 33.0001 28.2727 32.8183 27.3636 31.9092C21.7273 32.0001 20.6364 32.1819 19.5455 32.2728C16.4546 32.6365 14.2727 35.2728 14.5455 38.2728ZM17.3636 36.8183C17.6364 35.6365 18.8182 34.8183 20.0909 35.091C23 35.8183 31.6364 37.091 35.6364 37.091C36.8182 37.091 37.9091 38.091 37.9091 39.3637C37.9091 40.6365 36.8182 41.6365 35.6364 41.6365C30.3636 41.4546 24 40.5455 19.1818 39.5455C17.8182 39.2728 17.0909 38.0001 17.3636 36.8183Z" fill="white"/>
<path d="M19.2726 38.6361C23.5453 39.5452 31.2726 40.727 35.5453 40.727C36.2726 40.727 36.909 40.1816 36.909 39.3634C36.909 38.6361 36.2726 37.9998 35.5453 37.9998C30.9999 37.9998 24.2726 36.9088 19.8181 35.9998C19.0908 35.8179 18.3635 36.2725 18.1817 37.0907C18.0908 37.727 18.5453 38.4543 19.2726 38.6361Z" fill="white"/>
<path d="M25.5455 28.0907L27.7273 31.0907V31.1816C28.2728 31.9089 29.2728 32.1816 30.2728 31.5453C31.0909 30.9089 31.2728 29.818 30.6364 28.9998L26.8182 23.6362L24.8182 20.9089C24.8182 20.818 27.7273 14.4544 27.5455 14.818L28 19.5453L27.1819 22.5453L31.5455 28.4544C32.1819 29.2725 32.1819 30.3635 31.8182 31.1816C32.7273 31.2726 33.7273 31.2725 34.6364 31.4544C34.0909 30.5453 34.0909 29.3635 34.8182 28.4544L39.1819 22.4544L38.3637 19.5453L38.7273 14.9998C38.7273 15.0907 41.5455 21.2726 41.3637 20.9089L39.4546 23.5453L35.4546 28.9998C34.8182 29.818 35 30.9089 35.8182 31.5453C35.9091 31.6362 35.9091 31.6362 36 31.6362C36.2728 31.818 36.5455 31.9089 36.9091 31.9089C37.3637 31.9089 37.8182 31.7271 38.1819 31.3635C38.2728 31.2726 38.2728 31.2726 38.3637 31.1816L40.6364 28.0907L44.9091 22.2726C45.2728 21.7271 45.3637 21.0907 45.0909 20.4544C38.2728 5.27255 40.6364 10.5453 40.0909 9.36346C39.7273 8.54528 39.091 8.45437 38.3637 8.18164C37.5455 9.90891 35.4546 11.2725 33.1819 11.2725C31.0909 11.2725 29.0909 10.1816 28 8.18164C27.6364 8.27255 27.0909 8.45437 27 8.54528C26 8.90891 26.4546 8.54528 21.0909 20.4544C20.8182 21.0907 20.9091 21.7271 21.2728 22.2726L25.5455 28.0907Z" fill="white"/>
<path d="M33.0908 10.2725C35.909 10.2725 38.0908 7.90882 38.0908 5.27246C38.0908 2.54519 35.8181 0.272461 33.0908 0.272461C30.3635 0.272461 28.0908 2.45428 28.0908 5.27246C28.1817 7.99973 30.3635 10.2725 33.0908 10.2725Z" fill="white"/>
<path d="M1.27271 17H18.3636V18.1818H1.27271V17Z" fill="white"/>
</svg>
