<svg width="60" height="60" viewBox="0 0 60 60" fill="none" xmlns="http://www.w3.org/2000/svg">
<g clip-path="url(#clip0_165_735)">
<path d="M10.3578 37.6086H10.3747C10.4706 37.6086 10.5642 37.5998 10.6566 37.5869C10.8861 37.9792 11.0918 38.5386 11.2739 39.2253C11.3181 38.6576 11.368 38.0791 11.423 37.492C11.3993 37.4456 11.3756 37.4002 11.3511 37.3561C11.3819 37.3389 11.4114 37.3202 11.4412 37.3018C12.2405 28.9312 14.0242 19.1069 14.0242 19.1069H14.6284C14.1508 22.0971 12.0321 35.7903 12.0321 43.3271C14.2184 44.3363 17.9191 45.3454 21.6581 45.3454C25.3971 45.3454 29.0972 44.3363 31.2841 43.3271C31.2841 36.8648 29.6936 24.6034 28.9327 19.1069C28.8058 18.1901 28.7019 17.4614 28.6325 16.9793L32.7701 17.277C32.8057 17.1791 32.841 17.081 32.8776 16.9859C33.558 15.2153 34.3661 14.1014 35.1238 13.399L26.6651 12.7905C26.5783 12.7842 26.493 12.7854 26.4083 12.79H24.8567C24.8317 14.5436 23.9242 16.9866 23.0813 18.8864L22.6738 15.8841C22.3471 16.0067 22.0032 16.0708 21.6593 16.0708H21.6578H21.6573C21.3129 16.071 20.9688 16.007 20.6413 15.8843L20.2341 18.8859C19.3912 16.9864 18.484 14.5436 18.459 12.79H16.7843C16.6397 12.79 16.4994 12.8069 16.3637 12.8366C15.9911 12.8954 15.4491 13.0412 14.8265 13.3927C13.4371 14.1677 11.8148 15.8707 10.5857 19.2245C9.34791 22.5906 8.42325 27.6609 8.35564 35.5733C8.3521 36.0189 8.49465 36.4304 8.73635 36.7664C7.84096 37.9517 8.00646 40.6205 8.1591 41.9551C8.0274 42.0129 7.90226 42.0964 7.79125 42.2084C6.76467 43.2423 6.64458 46.452 6.66779 49.7669C6.66905 49.9498 6.67031 50.1103 6.67031 50.2445H7.42719C7.42719 50.109 7.42619 49.9463 7.42467 49.7616C7.41307 48.1025 7.38229 43.6947 8.32839 42.742C8.44369 42.626 8.53527 42.6126 8.59405 42.6126C8.65284 42.6126 8.74467 42.626 8.85972 42.742C9.80582 43.6947 9.77479 48.1025 9.76343 49.7616C9.76217 49.9463 9.76091 50.109 9.76091 50.2445H10.5178C10.5178 50.1105 10.5188 49.9498 10.5203 49.7669C10.5435 46.452 10.4234 43.2423 9.39685 42.2084C9.25506 42.0656 9.09032 41.9723 8.918 41.918C8.66747 39.7867 8.81027 38.0193 9.28736 37.2887C9.59717 37.4872 9.96325 37.6053 10.3578 37.6086ZM28.6953 36.0002L28.8333 36.9996L24.3344 37.6194L24.1964 36.6196L28.6953 36.0002ZM19.12 36.6199L18.982 37.6197L14.4831 36.9998L14.6211 36.0005L19.12 36.6199Z" fill="white"/>
<path d="M13.0465 49.6508C13.0359 48.2463 12.9887 46.4169 12.8459 44.5608C12.5709 44.474 12.303 44.3862 12.0504 44.2969C12.193 45.9663 12.273 47.7906 12.2889 49.6266C11.5423 49.78 10.9807 50.441 10.9807 51.2334C10.9807 52.1392 11.7149 52.8734 12.6206 52.8734C13.5264 52.8734 14.2605 52.1392 14.2605 51.2334C14.2608 50.4748 13.7453 49.8388 13.0465 49.6508Z" fill="white"/>
<path d="M21.0737 56.7203V45.9259C18.8762 45.8759 16.7153 45.552 14.8347 45.1064V56.7203C14.8347 58.4434 16.2317 59.8396 17.9538 59.8396C19.6765 59.8399 21.0737 58.4434 21.0737 56.7203Z" fill="white"/>
<path d="M28.4819 56.7203V45.1064C26.6013 45.552 24.4407 45.8759 22.2429 45.9261V56.7205C22.2429 58.4437 23.6399 59.8399 25.362 59.8399C27.0849 59.8399 28.4819 58.4434 28.4819 56.7203Z" fill="white"/>
<path d="M20.6991 12.8125L20.2197 14.7047L20.2934 14.8208C20.6882 15.1495 21.1714 15.3142 21.6578 15.3147C22.1442 15.3145 22.6281 15.1492 23.0232 14.8197L23.0961 14.7047L22.6168 12.8125H21.6583H20.6991Z" fill="white"/>
<path d="M24.1652 0.583303C23.4091 0.210413 22.5584 0 21.6582 0C20.0725 0 18.6392 0.650918 17.6094 1.6992H23.3458C23.4828 1.23876 23.7772 0.84695 24.1652 0.583303Z" fill="white"/>
<path d="M25.3199 4.34858C24.3864 4.34858 23.599 3.72794 23.3457 2.87695H16.7204C16.2509 3.70322 15.9812 4.65815 15.9812 5.67666C15.9812 8.81191 18.5228 11.3533 21.6578 11.3533C24.7933 11.3533 27.3344 8.81191 27.3344 5.67666C27.3344 4.93264 27.1899 4.22269 26.9297 3.57152C26.5523 4.04457 25.972 4.34858 25.3199 4.34858ZM20.2523 8.28083C20.2523 8.28083 23.8079 8.45744 25.7795 6.78473C25.7795 6.78473 24.1936 11.7206 20.2523 8.28083Z" fill="white"/>
<path d="M48.4012 13.2108C48.1154 13.0465 47.7851 12.9512 47.4316 12.9512H46.671C45.5702 13.9137 44.1316 14.499 42.5581 14.499C40.9845 14.499 39.546 13.9137 38.4452 12.9512H37.6845C37.3321 12.9512 37.0023 13.046 36.717 13.2095C35.8514 13.6059 34.5947 14.6287 33.5845 17.2578C32.0501 21.2514 31.4915 27.8224 31.9239 36.7884C31.9761 37.8687 32.8682 38.7096 33.9382 38.7096C33.971 38.7096 34.0041 38.7089 34.0371 38.7073C35.1505 38.6536 36.0096 37.7075 35.9558 36.5941C35.5574 28.3376 36.09 23.4794 36.7639 20.6497H37.3576C36.693 23.3603 36.1304 28.1693 36.5353 36.5661C36.5686 37.2594 36.3302 37.9242 35.8635 38.4381C35.8223 38.4836 35.7782 38.5249 35.7346 38.5671V38.805V56.8808C35.7346 58.604 37.1315 59.9999 38.8537 59.9999C40.5763 59.9999 41.9733 58.604 41.9733 56.8808V34.106H43.1427V56.8808C43.1427 58.604 44.5396 59.9999 46.2618 59.9999C47.9844 59.9999 49.3814 58.604 49.3814 56.8808V38.8027V38.5656C48.8571 38.063 48.543 37.3467 48.5806 36.5661C48.9855 28.169 48.4229 23.3601 47.7581 20.6497H48.352C49.0259 23.4794 49.5585 28.3378 49.1604 36.5941C49.1066 37.7075 49.9657 38.6536 51.0791 38.7073C51.1121 38.7089 51.1452 38.7096 51.178 38.7096C52.2479 38.7096 53.1403 37.8687 53.1923 36.7884C53.6247 27.8224 53.0659 21.2514 51.5314 17.2578C50.522 14.6312 49.2668 13.6079 48.4012 13.2108ZM47.1047 28.7533L46.5544 29.3614C46.3682 29.567 46.0476 29.5829 45.8417 29.3969L44.9534 28.5926L44.1491 29.481C43.9629 29.6866 43.6419 29.7027 43.4363 29.5165L42.8285 28.9663C42.6227 28.7801 42.6068 28.4594 42.793 28.2535L43.5973 27.3652L42.709 26.5609C42.5033 26.3747 42.4872 26.0541 42.6736 25.8482L43.2239 25.2402C43.4101 25.0345 43.7307 25.0186 43.9366 25.2046L44.8249 26.0089L45.6293 25.1206C45.8155 24.9149 46.1364 24.8988 46.342 25.085L46.9498 25.6352C47.1556 25.8214 47.1715 26.1421 46.9853 26.348L46.181 27.2363L47.0694 28.0406C47.275 28.2271 47.2909 28.5477 47.1047 28.7533Z" fill="white"/>
<path d="M36.8813 8.24204C36.8813 11.3773 39.423 13.9186 42.558 13.9186C45.6935 13.9186 48.2346 11.3773 48.2346 8.24204C48.2346 5.10678 45.6935 2.56543 42.558 2.56543C39.423 2.56543 36.8813 5.10704 36.8813 8.24204ZM42.1687 4.89738L42.7189 4.28961C42.9051 4.08399 43.2258 4.06784 43.4317 4.25403L46.5646 7.09007C46.7703 7.27626 46.7864 7.59692 46.6002 7.8028L46.05 8.41057C45.8638 8.61619 45.5431 8.63234 45.3372 8.44615L42.2042 5.61011C41.9984 5.42367 41.9825 5.103 42.1687 4.89738ZM44.2332 9.46743C44.2332 9.46743 42.1275 14.205 38.5775 10.3628C38.5773 10.3631 42.0935 10.9194 44.2332 9.46743Z" fill="white"/>
<path d="M43.9084 27.5107L44.977 26.3307L45.8416 27.1137L44.7731 28.2937L43.9084 27.5107Z" fill="white"/>
<path d="M43.3965 6.26074L44.1794 5.3961L45.3595 6.46465L44.5765 7.3293L43.3965 6.26074Z" fill="white"/>
</g>
<defs>
<clipPath id="clip0_165_735">
<rect width="60" height="60" fill="white"/>
</clipPath>
</defs>
</svg>
