<svg width="25" height="25" viewBox="0 0 25 25" fill="none" xmlns="http://www.w3.org/2000/svg">
<path d="M16.0165 16.2715C15.4067 16.0662 14.6499 15.8853 13.856 15.7294C13.8448 15.594 13.8337 15.4586 13.822 15.3233C13.8119 15.207 13.8456 15.0935 13.9158 15.0049C13.9161 15.0046 13.9187 15.0014 13.9189 15.001C15.5959 12.8887 16.1654 10.9874 15.7111 9.01738C15.6252 8.64487 15.5137 8.28633 15.3797 7.95176C14.7102 6.28042 13.2848 5.24219 11.6598 5.24219C10.8362 5.24219 10.0502 5.49795 9.38672 5.98184C8.7855 6.42022 7.97764 6.42026 7.37642 5.98184C6.71289 5.49795 5.92686 5.24219 5.10327 5.24219C4.39224 5.24219 3.72861 5.42974 3.13086 5.79966C2.95928 5.90581 2.90625 6.13101 3.01245 6.30259C3.11855 6.47417 3.3437 6.5272 3.51538 6.421C3.99585 6.12368 4.53008 5.9729 5.10327 5.9729C5.77104 5.9729 6.4082 6.18013 6.9458 6.57222C7.80464 7.19854 8.9585 7.19849 9.81724 6.57222C10.3548 6.18013 10.992 5.9729 11.6598 5.9729C12.9998 5.9729 14.1368 6.81426 14.7013 8.22349C14.8214 8.52324 14.9216 8.84565 14.9991 9.18164C15.3994 10.9176 14.8743 12.6224 13.3475 14.5457C13.3471 14.546 13.3446 14.5493 13.3442 14.5497C13.1566 14.7863 13.0677 15.0834 13.094 15.3864C13.109 15.56 13.1233 15.7336 13.1376 15.9074C13.1888 16.5304 13.2418 17.1747 13.3297 17.8059C13.4336 18.5522 13.5139 19.517 13.2103 20.3602C13.0022 20.9378 12.4456 21.6799 11.9089 21.8716C11.6934 21.9485 11.505 21.9318 11.3162 21.8189C10.8162 21.5199 10.859 20.6388 10.8935 19.9308C10.9014 19.7681 10.9088 19.6145 10.9096 19.4731C10.9127 18.9052 10.8354 18.3812 10.6797 17.9155C10.3417 16.9045 9.43965 16.2513 8.3814 16.2513C7.32314 16.2513 6.421 16.9047 6.08315 17.9159C5.92764 18.3814 5.85029 18.9053 5.85332 19.4731C5.8541 19.6146 5.86157 19.7682 5.86948 19.9309C5.90391 20.6389 5.94678 21.52 5.44673 21.819C5.25791 21.9319 5.06953 21.9486 4.854 21.8716C4.31738 21.6799 3.76069 20.9378 3.55269 20.3602C3.24902 19.517 3.32935 18.5522 3.43325 17.8059C3.52114 17.1745 3.57417 16.5299 3.62544 15.9065C3.6397 15.7331 3.65395 15.5597 3.66895 15.3865C3.69517 15.0834 3.6063 14.7863 3.42124 14.553C3.42036 14.5519 3.41724 14.5479 3.41636 14.5467C1.88862 12.6225 1.36357 10.9177 1.76392 9.18164C1.89204 8.62612 2.11514 7.99849 2.4251 7.51499C2.53413 7.34502 2.48472 7.11904 2.31489 7.01011C2.14497 6.90112 1.91899 6.95054 1.81011 7.12036C1.64448 7.37861 1.50088 7.65835 1.38335 7.95181C1.24927 8.28643 1.13779 8.64492 1.0519 9.01743C0.597607 10.9874 1.16704 12.8888 2.84619 15.0038C2.91738 15.0935 2.95103 15.207 2.94092 15.3234C2.9292 15.4589 2.91807 15.5946 2.90688 15.7302C2.11274 15.886 1.35605 16.0665 0.746826 16.2716C0.300146 16.4219 0 16.8395 0 17.3106V23.8861C0 24.4905 0.491699 24.9822 1.09604 24.9822H15.667C16.2714 24.9822 16.763 24.4905 16.763 23.8861V21.8751C16.763 21.6733 16.5995 21.5098 16.3977 21.5098C16.1959 21.5098 16.0324 21.6733 16.0324 21.8751V23.8861C16.0324 24.0876 15.8685 24.2515 15.667 24.2515H1.09604C0.89458 24.2515 0.730713 24.0876 0.730713 23.8861V17.3106C0.730713 17.1535 0.830859 17.0143 0.97998 16.9641C1.50703 16.7867 2.15464 16.6277 2.84302 16.4876C2.80679 16.8951 2.76528 17.305 2.70962 17.705C2.59414 18.5346 2.50747 19.6141 2.86528 20.6077C3.07769 21.1975 3.73872 22.249 4.6083 22.5596C5.02759 22.7094 5.44717 22.6701 5.82183 22.446C6.698 21.922 6.64102 20.7506 6.59941 19.8952C6.59189 19.7407 6.58477 19.5946 6.58413 19.469C6.58149 18.9814 6.64614 18.5367 6.77627 18.1473C7.06338 17.2881 7.7937 16.9819 8.38154 16.9819C8.96929 16.9818 9.69961 17.2879 9.98677 18.147C10.117 18.5366 10.1816 18.9813 10.179 19.469C10.1783 19.5946 10.1712 19.7406 10.1637 19.8952C10.1221 20.7506 10.0651 21.922 10.9413 22.446C11.1669 22.5809 11.4088 22.6488 11.6571 22.6488C11.8211 22.6488 11.988 22.6192 12.1548 22.5596C13.0243 22.249 13.6854 21.1975 13.8979 20.6077C14.2557 19.6141 14.169 18.5345 14.0535 17.705C13.9978 17.3047 13.9563 16.8946 13.92 16.4869C14.6081 16.6271 15.2558 16.7864 15.7832 16.964C15.9322 17.0142 16.0324 17.1535 16.0324 17.3106V20.1546C16.0324 20.3563 16.1959 20.5199 16.3977 20.5199C16.5995 20.5199 16.763 20.3563 16.763 20.1546V17.3106C16.7631 16.8396 16.463 16.422 16.0165 16.2715Z" fill="#09BBAF"/>
<path d="M23.7881 0.338428H10.1216C9.99238 0.144092 9.77163 0.015625 9.52124 0.015625H7.32822C6.93076 0.015625 6.60742 0.338965 6.60742 0.736426V2.35977C6.60742 2.71802 6.78672 3.04854 7.08706 3.24385L8.05938 3.87622V4.60977C8.05938 4.81152 8.22295 4.9751 8.42471 4.9751C8.62646 4.9751 8.79004 4.81152 8.79004 4.60977V3.87622L9.76235 3.24385C9.94507 3.125 10.0827 2.95596 10.1626 2.76123H23.7881C24.4561 2.76123 24.9996 2.21777 24.9996 1.5498C24.9996 0.881885 24.4561 0.338428 23.7881 0.338428ZM9.51133 2.35977C9.51133 2.46978 9.45625 2.57134 9.36401 2.6313L8.42471 3.24219L7.4854 2.6313C7.39316 2.57129 7.33814 2.46978 7.33814 2.35977V0.746338H9.51133V2.35977ZM11.6491 2.03057H10.242V1.06914H11.6491V2.03057ZM14.1868 2.03057H12.3798V1.06914H14.1868V2.03057ZM23.7881 2.03057H14.9175V1.06914H23.7881C24.0532 1.06914 24.2688 1.28477 24.2688 1.54985C24.2688 1.81489 24.0532 2.03057 23.7881 2.03057Z" fill="#09BBAF"/>
</svg>
