<svg width="40" height="40" viewBox="0 0 40 40" fill="none" xmlns="http://www.w3.org/2000/svg">
<path fill-rule="evenodd" clip-rule="evenodd" d="M28.9844 1.40625C30.0091 1.40629 31.0071 1.73373 31.8327 2.3408C32.6583 2.94787 33.2683 3.80283 33.5739 4.78098C33.8794 5.75913 33.8645 6.80932 33.5312 7.77839C33.198 8.74745 32.5639 9.58471 31.7213 10.168C33.7065 10.7587 35.4478 11.9747 36.6861 13.6349C37.9244 15.2951 38.5935 17.3109 38.5938 19.382V22.7465C38.5938 22.9122 38.5279 23.0712 38.4107 23.1884C38.2935 23.3056 38.1345 23.3715 37.9688 23.3715H29.0541C28.966 24.9812 28.4492 26.5381 27.5572 27.8809L29.0684 29.3923C29.259 29.2339 29.5018 29.1523 29.7493 29.1637C29.9968 29.1751 30.2312 29.2785 30.4064 29.4537L35.441 34.4771L35.4422 34.4759C35.6274 34.6631 35.7312 34.9158 35.7311 35.1792C35.7309 35.4425 35.6268 35.6951 35.4413 35.8821L35.4425 35.8834L33.0234 38.3027C32.8371 38.489 32.5843 38.5937 32.3208 38.5937C32.0572 38.5937 31.8045 38.489 31.6181 38.3027L26.5836 33.2792L26.5823 33.2804C26.4073 33.1033 26.3046 32.8673 26.2944 32.6185C26.2842 32.3697 26.3672 32.126 26.5271 31.9352L25.0152 30.4231C23.6845 31.3059 22.1443 31.8216 20.5503 31.9183C18.9564 32.0149 17.3652 31.689 15.9376 30.9735C14.51 30.2579 13.2966 29.1782 12.4202 27.8433C11.5437 26.5085 11.0352 24.9659 10.9461 23.3715H2.03125C1.86549 23.3715 1.70652 23.3056 1.58931 23.1884C1.4721 23.0712 1.40625 22.9122 1.40625 22.7465V19.382C1.40651 17.3109 2.07558 15.2952 3.31389 13.635C4.5522 11.9747 6.29353 10.7588 8.27867 10.1681C7.43604 9.58476 6.80185 8.74742 6.46861 7.77825C6.13536 6.80908 6.1205 5.75879 6.42618 4.78058C6.73186 3.80237 7.3421 2.94741 8.16788 2.34043C8.99366 1.73345 9.99177 1.40619 11.0166 1.40639C12.0415 1.4066 13.0395 1.73426 13.865 2.34157C14.6906 2.94888 15.3004 3.80408 15.6057 4.78241C15.911 5.76075 15.8957 6.81103 15.5621 7.78007C15.2285 8.7491 14.594 9.58619 13.7511 10.1692C14.6364 10.4326 15.4791 10.8225 16.2529 11.3269C16.2497 10.8328 16.3443 10.3429 16.5311 9.88547C16.718 9.42805 16.9935 9.01211 17.3418 8.66158C17.6901 8.31106 18.1042 8.03288 18.5604 7.84305C19.0166 7.65322 19.5059 7.55549 20 7.55549C20.4941 7.55549 20.9834 7.65322 21.4396 7.84305C21.8958 8.03288 22.3099 8.31106 22.6582 8.66158C23.0065 9.01211 23.282 9.42805 23.4689 9.88547C23.6557 10.3429 23.7503 10.8328 23.7471 11.3269C24.5209 10.8225 25.3636 10.4326 26.2489 10.1692C25.406 9.58613 24.7714 8.74895 24.4378 7.7798C24.1042 6.81065 24.0889 5.76026 24.3944 4.78186C24.6998 3.80346 25.3099 2.94826 26.1356 2.34101C26.9613 1.73376 27.9594 1.40625 28.9844 1.40625ZM15.6132 23.9116H18.3294C18.4951 23.9116 18.6541 23.9774 18.7713 24.0946C18.8885 24.2118 18.9544 24.3708 18.9544 24.5366V27.2527H21.0455V24.5366C21.0455 24.3708 21.1114 24.2118 21.2286 24.0946C21.3458 23.9774 21.5048 23.9116 21.6705 23.9116H24.3866V21.8203H21.6705C21.5048 21.8203 21.3458 21.7545 21.2286 21.6373C21.1114 21.52 21.0455 21.3611 21.0455 21.1953V18.4792H18.9544V21.1953C18.9544 21.3611 18.8885 21.52 18.7713 21.6373C18.6541 21.7545 18.4951 21.8203 18.3294 21.8203H15.6132V23.9115V23.9116ZM17.7044 25.1616V27.8777C17.7044 28.0434 17.7702 28.2024 17.8874 28.3196C18.0046 28.4368 18.1636 28.5027 18.3294 28.5027H21.6705C21.8363 28.5027 21.9953 28.4368 22.1125 28.3196C22.2297 28.2024 22.2955 28.0434 22.2955 27.8777V25.1616H25.0116C25.1774 25.1616 25.3364 25.0957 25.4536 24.9785C25.5708 24.8613 25.6366 24.7023 25.6366 24.5366V21.1953C25.6366 21.0296 25.5708 20.8706 25.4536 20.7534C25.3364 20.6362 25.1774 20.5703 25.0116 20.5703H22.2955V17.8542C22.2955 17.6885 22.2297 17.5295 22.1125 17.4123C21.9953 17.2951 21.8363 17.2292 21.6705 17.2292H18.3294C18.1636 17.2292 18.0046 17.2951 17.8874 17.4123C17.7702 17.5295 17.7044 17.6885 17.7044 17.8542V20.5703H14.9882C14.8224 20.5703 14.6635 20.6362 14.5463 20.7534C14.4291 20.8706 14.3632 21.0296 14.3632 21.1953V24.5365C14.3632 24.7022 14.4291 24.8612 14.5463 24.9784C14.6635 25.0956 14.8224 25.1615 14.9882 25.1615L17.7044 25.1616ZM29.0377 22.1215H37.3438V19.382C37.3456 17.7202 36.8518 16.0956 35.9257 14.7158C34.9996 13.336 33.6831 12.2636 32.1444 11.6357C30.6058 11.0079 28.9149 10.853 27.2878 11.1909C25.6607 11.5289 24.1713 12.3443 23.0099 13.5329C22.9002 13.6806 22.7798 13.8201 22.6497 13.9502L22.4712 14.1394C24.2483 14.643 25.8293 15.6771 27.0028 17.1035C28.1762 18.53 28.8862 20.2806 29.0377 22.1215ZM17.5287 14.1394L17.3503 13.9502C17.2202 13.8201 17.0998 13.6806 16.9901 13.5329C15.828 12.3462 14.3387 11.5325 12.7122 11.1956C11.0858 10.8588 9.39584 11.014 7.85797 11.6416C6.32011 12.2691 5.00402 13.3405 4.07758 14.7191C3.15113 16.0977 2.65632 17.7211 2.65625 19.382V22.1215H10.9623C11.1138 20.2806 11.8238 18.5299 12.9972 17.1035C14.1707 15.6771 15.7516 14.6429 17.5287 14.1394ZM26.7878 28.8792L26.0132 29.6538L27.4071 31.0477L28.1817 30.273L26.7878 28.8792ZM20 15.0478C18.4537 15.0478 16.9421 15.5063 15.6564 16.3654C14.3707 17.2245 13.3687 18.4455 12.7769 19.8741C12.1852 21.3027 12.0304 22.8747 12.332 24.3913C12.6337 25.9079 13.3783 27.301 14.4717 28.3943C15.5651 29.4877 16.9582 30.2323 18.4748 30.534C19.9914 30.8357 21.5634 30.6808 22.992 30.0891C24.4205 29.4973 25.6416 28.4952 26.5006 27.2095C27.3597 25.9238 27.8182 24.4122 27.8182 22.8659C27.8182 21.8392 27.616 20.8226 27.2231 19.874C26.8302 18.9255 26.2543 18.0636 25.5283 17.3376C24.8024 16.6116 23.9405 16.0358 22.9919 15.6429C22.0434 15.25 21.0267 15.0478 20 15.0478ZM29.7064 30.516L27.6448 32.5775L32.318 37.2404L34.3795 35.1788L29.7064 30.516ZM21.651 13.1743C21.7753 13.0276 21.904 12.8848 22.0369 12.7459C22.302 12.3722 22.4592 11.9328 22.4913 11.4757C22.5234 11.0187 22.4291 10.5616 22.2188 10.1545C22.0085 9.74746 21.6903 9.4061 21.2989 9.1678C20.9076 8.92951 20.4583 8.80346 20.0001 8.80346C19.5419 8.80346 19.0926 8.92951 18.7012 9.1678C18.3099 9.4061 17.9917 9.74746 17.7813 10.1545C17.571 10.5616 17.4768 11.0187 17.5089 11.4757C17.541 11.9328 17.6982 12.3722 17.9633 12.7459C18.096 12.8848 18.2246 13.0276 18.3491 13.1742C18.8052 13.5761 19.3922 13.7977 20 13.7977C20.6079 13.7977 21.1949 13.5761 21.651 13.1743ZM11.0156 2.65625C10.3119 2.65625 9.62394 2.86493 9.03879 3.25592C8.45365 3.6469 7.99759 4.20261 7.72827 4.85279C7.45896 5.50296 7.3885 6.2184 7.52579 6.90862C7.66309 7.59885 8.00197 8.23286 8.4996 8.73048C8.99722 9.22811 9.63123 9.56699 10.3215 9.70429C11.0117 9.84158 11.7271 9.77112 12.3773 9.5018C13.0275 9.23249 13.5832 8.77643 13.9742 8.19129C14.3651 7.60614 14.5738 6.9182 14.5738 6.21445C14.5738 5.74718 14.4818 5.28447 14.303 4.85276C14.1242 4.42105 13.8621 4.02879 13.5317 3.69838C13.2013 3.36796 12.809 3.10587 12.3773 2.92706C11.9456 2.74825 11.4829 2.65623 11.0156 2.65625ZM31.5005 3.69844C31.0028 3.20081 30.3688 2.86191 29.6786 2.72462C28.9883 2.58732 28.2729 2.65779 27.6227 2.92711C26.9725 3.19643 26.4168 3.6525 26.0258 4.23766C25.6348 4.82281 25.4261 5.51077 25.4261 6.21453C25.4261 6.91829 25.6348 7.60625 26.0258 8.1914C26.4168 8.77656 26.9725 9.23263 27.6227 9.50195C28.2729 9.77127 28.9883 9.84174 29.6786 9.70444C30.3688 9.56715 31.0028 9.22826 31.5005 8.73063C32.1677 8.0633 32.5426 7.15824 32.5426 6.21453C32.5426 5.27082 32.1677 4.36577 31.5005 3.69844Z" fill="#A81874"/>
</svg>
