<svg width="30" height="30" viewBox="0 0 30 30" fill="none" xmlns="http://www.w3.org/2000/svg">
<path d="M22.4957 21.0992C22.3982 21.0992 22.2988 21.0683 22.2144 21.0045C22.0072 20.8489 21.966 20.5555 22.1216 20.3483C23.2888 18.7967 23.9057 16.947 23.9057 14.9998C23.9057 14.3886 23.8429 13.7764 23.7191 13.1811C23.6666 12.927 23.8297 12.6795 24.0829 12.627C24.335 12.5745 24.5844 12.7376 24.6369 12.9908C24.7738 13.6489 24.8432 14.3248 24.8432 14.9998C24.8432 17.1514 24.1607 19.197 22.8707 20.9126C22.7779 21.0355 22.6372 21.0992 22.4957 21.0992Z" fill="#00001B"/>
<path d="M5.8275 17.4227C5.61094 17.4227 5.41594 17.2708 5.36906 17.0505C5.22844 16.3783 5.15625 15.6883 5.15625 15.0002C5.15625 12.858 5.83219 10.8208 7.11187 9.11083C7.26656 8.90271 7.56094 8.85958 7.76813 9.01614C7.97531 9.17177 8.01844 9.46521 7.86281 9.67239C6.705 11.2193 6.09375 13.0615 6.09375 15.0002C6.09375 15.6236 6.15844 16.249 6.28687 16.8574C6.34031 17.1105 6.17813 17.359 5.925 17.4124C5.89219 17.4199 5.85938 17.4227 5.8275 17.4227Z" fill="#00001B"/>
<path d="M16.4062 19.6875H13.5938C13.335 19.6875 13.125 19.4775 13.125 19.2188V16.875H10.7812C10.5225 16.875 10.3125 16.665 10.3125 16.4062V13.5938C10.3125 13.335 10.5225 13.125 10.7812 13.125H13.125V10.7812C13.125 10.5225 13.335 10.3125 13.5938 10.3125H16.4062C16.665 10.3125 16.875 10.5225 16.875 10.7812V13.125H19.2188C19.4775 13.125 19.6875 13.335 19.6875 13.5938V16.4062C19.6875 16.665 19.4775 16.875 19.2188 16.875H16.875V19.2188C16.875 19.4775 16.665 19.6875 16.4062 19.6875ZM14.0625 18.75H15.9375V16.4062C15.9375 16.1475 16.1475 15.9375 16.4062 15.9375H18.75V14.0625H16.4062C16.1475 14.0625 15.9375 13.8525 15.9375 13.5938V11.25H14.0625V13.5938C14.0625 13.8525 13.8525 14.0625 13.5938 14.0625H11.25V15.9375H13.5938C13.8525 15.9375 14.0625 16.1475 14.0625 16.4062V18.75Z" fill="#00001B"/>
<path d="M17.0072 28.1214H12.0938C11.1778 28.1214 10.2834 27.9171 9.435 27.5139L6.15094 25.9183C5.30906 25.5142 4.41188 25.3089 3.48844 25.3089H1.40625C1.1475 25.3089 0.9375 25.0989 0.9375 24.8402C0.9375 24.5814 1.1475 24.3714 1.40625 24.3714H3.48844C4.55344 24.3714 5.58656 24.6077 6.55875 25.0746L9.84188 26.6692C10.56 27.0096 11.3184 27.1839 12.0938 27.1839H16.9134L21.0075 25.4946C21.0075 25.4552 21.0628 25.0924 20.8828 24.7839C20.6081 24.3114 19.9734 24.2964 19.4925 24.3667C18.7941 24.4746 18.2166 24.6686 17.7075 24.8402L17.5144 24.9049C17.2678 24.9846 17.0034 24.8542 16.9219 24.6077C16.8403 24.3621 16.9734 24.0967 17.2191 24.0152L17.4084 23.9524C17.9541 23.7686 18.5719 23.5605 19.3538 23.4405C21.2869 23.1592 21.7697 24.3667 21.8738 24.7427C22.0453 25.3624 21.9028 26.1377 21.3675 26.3617L17.1853 28.0877C17.1291 28.1092 17.0681 28.1214 17.0072 28.1214Z" fill="#00001B"/>
<path d="M10.9078 21.4437C10.7316 21.4437 10.5619 21.3434 10.4822 21.1728C9.56344 19.1956 7.17656 18.9125 5.40188 19.6484C5.34469 19.6718 5.28375 19.684 5.22187 19.684H1.40625C1.1475 19.684 0.9375 19.474 0.9375 19.2153C0.9375 18.9565 1.1475 18.7465 1.40625 18.7465H5.13094C7.66875 17.7387 10.3209 18.604 11.3334 20.7781C11.4422 21.0125 11.3409 21.2918 11.1056 21.4015C11.0409 21.4296 10.9744 21.4437 10.9078 21.4437Z" fill="#00001B"/>
<path d="M15.35 25.8923C15.289 25.8923 15.2281 25.8801 15.1709 25.8566L9.8028 23.6282C9.56374 23.5288 9.4503 23.2551 9.54967 23.0151C9.64905 22.776 9.92373 22.6635 10.1628 22.7619L15.0594 24.7944C15.2647 23.8279 14.7359 23.076 13.4797 22.5557L10.7206 21.4101C10.4815 21.3107 10.3681 21.036 10.4675 20.7969C10.5669 20.5579 10.8415 20.4444 11.0806 20.5438L13.8387 21.6894C15.7709 22.4901 16.4797 23.916 15.7831 25.6007C15.7353 25.716 15.6444 25.8079 15.529 25.8548C15.4719 25.8801 15.4109 25.8923 15.35 25.8923Z" fill="#00001B"/>
<path d="M10.097 6.59906C8.62228 6.59906 8.21915 5.59219 8.1254 5.25469C7.95384 4.635 8.09634 3.85969 8.63165 3.63563L12.8138 1.90969C12.8701 1.88719 12.931 1.875 12.992 1.875H17.9045C18.8204 1.875 19.7148 2.07937 20.5632 2.4825L23.8473 4.07812C24.6901 4.48219 25.5873 4.6875 26.5107 4.6875H28.5929C28.8517 4.6875 29.0617 4.8975 29.0617 5.15625C29.0617 5.415 28.8517 5.625 28.5929 5.625H26.5107C25.4457 5.625 24.4126 5.38875 23.4404 4.92188L20.1573 3.32812C19.4392 2.98687 18.6807 2.8125 17.9054 2.8125H13.0857L8.99071 4.50187C8.99071 4.54125 8.9354 4.90406 9.1154 5.2125C9.39103 5.685 10.0238 5.7 10.5057 5.62969C11.2042 5.52188 11.7817 5.32781 12.2907 5.15625L12.4838 5.09156C12.7304 5.01094 12.9948 5.14219 13.0763 5.38875C13.1579 5.63438 13.0248 5.89969 12.7792 5.98125L12.5898 6.04406C12.0442 6.22781 11.4263 6.43594 10.6445 6.55594C10.4476 6.58594 10.2648 6.59906 10.097 6.59906Z" fill="#00001B"/>
<path d="M22.741 11.6704C20.9691 11.6704 19.3923 10.7854 18.6648 9.22163C18.556 8.98726 18.6573 8.70788 18.8926 8.59819C19.1279 8.48944 19.4063 8.59163 19.516 8.82601C20.4338 10.8023 22.8198 11.0844 24.5963 10.3504C24.6535 10.3279 24.7144 10.3157 24.7763 10.3157H28.5919C28.8507 10.3157 29.0607 10.5257 29.0607 10.7844C29.0607 11.0432 28.8507 11.2532 28.5919 11.2532H24.8673C24.1548 11.5354 23.4329 11.6704 22.741 11.6704Z" fill="#00001B"/>
<path d="M19.0974 9.48363C19.0374 9.48363 18.9765 9.47238 18.9174 9.44801L16.1593 8.30238C14.2271 7.50176 13.5183 6.07582 14.2149 4.39113C14.2627 4.27582 14.3537 4.18395 14.469 4.13707C14.5843 4.0902 14.7127 4.08926 14.828 4.13707L20.1962 6.36551C20.4352 6.46488 20.5487 6.73863 20.4493 6.97863C20.3499 7.21863 20.0771 7.3302 19.8362 7.23176L14.9396 5.19926C14.7343 6.16582 15.263 6.9177 16.5193 7.43801L19.2783 8.58363C19.5174 8.68301 19.6308 8.9577 19.5315 9.19676C19.4555 9.37488 19.2812 9.48363 19.0974 9.48363Z" fill="#00001B"/>
<path d="M21.1077 22.5324C20.9877 22.5324 20.8677 22.4865 20.7758 22.3956C20.593 22.2127 20.593 21.9156 20.7758 21.7327C20.9595 21.5499 21.2886 21.5171 21.4714 21.6999C21.6542 21.8827 21.687 22.1471 21.5042 22.3299L21.4386 22.3956C21.3477 22.4865 21.2277 22.5324 21.1077 22.5324Z" fill="#00001B"/>
<path d="M8.92005 8.472C8.79911 8.472 8.67818 8.42513 8.5863 8.33232C8.40443 8.14763 8.4063 7.85138 8.59099 7.6695L8.65755 7.60388C8.8413 7.422 9.13849 7.42388 9.32036 7.60857C9.50224 7.79325 9.50036 8.0895 9.31568 8.27138L9.24911 8.337C9.15818 8.427 9.03911 8.472 8.92005 8.472Z" fill="#00001B"/>
</svg>
