<svg width="40" height="40" viewBox="0 0 40 40" fill="none" xmlns="http://www.w3.org/2000/svg">
<g clip-path="url(#clip0_47_6035)">
<path d="M32.5276 23.0204C32.8276 23.0224 33.1182 22.9151 33.3449 22.7186C33.5716 22.522 33.719 22.2497 33.7596 21.9524C33.9409 20.6587 33.9409 19.3461 33.7596 18.0524C33.7197 17.7545 33.5726 17.4815 33.3458 17.2843C33.119 17.0871 32.8281 16.9794 32.5276 16.9813H31.1635C30.9048 16.0247 30.5232 15.1056 30.0284 14.2469L30.9932 13.2805C31.2071 13.0693 31.3366 12.7874 31.3576 12.4876C31.3786 12.1878 31.2896 11.8906 31.1073 11.6516C30.3215 10.608 29.3931 9.67966 28.3495 8.89381C28.1107 8.7104 27.8131 8.62054 27.5127 8.64111C27.2123 8.66168 26.9298 8.79128 26.7182 9.00553L25.7534 9.97037C24.8949 9.47544 23.9757 9.09413 23.019 8.836V7.47115C23.0211 7.17135 22.914 6.88103 22.7178 6.65434C22.5216 6.42766 22.2496 6.28008 21.9526 6.23912C20.6589 6.05865 19.3463 6.05865 18.0526 6.23912C17.7548 6.27903 17.4817 6.42616 17.2845 6.65296C17.0873 6.87975 16.9796 7.17064 16.9815 7.47115V8.836C16.0248 9.09427 15.1057 9.47558 14.2471 9.97037L13.2807 9.00553C13.0695 8.79171 12.7876 8.66218 12.4878 8.64119C12.188 8.62019 11.8908 8.70917 11.6518 8.89146C10.6082 9.67731 9.67986 10.6056 8.89402 11.6493C8.71061 11.8881 8.62075 12.1856 8.64132 12.486C8.66189 12.7864 8.79149 13.069 9.00574 13.2805L9.97058 14.2454C9.47573 15.104 9.09417 16.0231 8.83542 16.9797H7.47136C7.17156 16.9777 6.88124 17.0848 6.65455 17.281C6.42787 17.4772 6.28028 17.7492 6.23933 18.0462C6.05808 19.3398 6.05808 20.6525 6.23933 21.9462C6.27924 22.244 6.42637 22.5171 6.65316 22.7143C6.87996 22.9114 7.17085 23.0191 7.47136 23.0172H8.83542C9.09417 23.9739 9.47573 24.893 9.97058 25.7516L9.00574 26.718C8.79192 26.9292 8.66239 27.2111 8.6414 27.511C8.6204 27.8108 8.70938 28.108 8.89167 28.3469C9.67752 29.3906 10.6058 30.3189 11.6495 31.1047C11.8883 31.288 12.1859 31.3778 12.4862 31.3572C12.7866 31.3366 13.0691 31.2071 13.2807 30.993L14.2448 30.0282C15.1035 30.5228 16.0226 30.9041 16.9792 31.1626V32.5274C16.9771 32.8273 17.0843 33.1177 17.2807 33.3444C17.4771 33.5711 17.7492 33.7187 18.0464 33.7594C19.34 33.9407 20.6527 33.9407 21.9464 33.7594C22.2442 33.7195 22.5173 33.5724 22.7145 33.3456C22.9116 33.1188 23.0194 32.8279 23.0175 32.5274V31.1626C23.9742 30.9044 24.8933 30.5231 25.7518 30.0282L26.7182 30.993C26.9295 31.2068 27.2114 31.3364 27.5112 31.3574C27.811 31.3784 28.1082 31.2894 28.3471 31.1071C29.391 30.3215 30.3193 29.3931 31.105 28.3493C31.2884 28.1105 31.3782 27.8129 31.3577 27.5125C31.3371 27.2121 31.2075 26.9296 30.9932 26.718L30.0284 25.7532C30.523 24.8945 30.9043 23.9754 31.1628 23.0188L32.5276 23.0204ZM30.0635 22.2587C29.8052 23.4148 29.3481 24.5174 28.7128 25.5172C28.6366 25.6371 28.6036 25.7793 28.6191 25.9205C28.6345 26.0616 28.6976 26.1933 28.7979 26.2938L30.1057 27.6016C29.3919 28.5492 28.5488 29.392 27.601 30.1055L26.294 28.7985C26.1936 28.6981 26.062 28.6348 25.9208 28.6192C25.7797 28.6036 25.6374 28.6365 25.5175 28.7126C24.5177 29.3482 23.4151 29.8052 22.2589 30.0633C22.1202 30.0944 21.9964 30.1718 21.9076 30.2827C21.8188 30.3936 21.7705 30.5314 21.7706 30.6735V32.5227C20.5955 32.6864 19.4035 32.6864 18.2284 32.5227V30.6735C18.2285 30.5314 18.1801 30.3936 18.0914 30.2827C18.0026 30.1718 17.8787 30.0944 17.7401 30.0633C16.584 29.805 15.4814 29.3479 14.4815 28.7126C14.3617 28.6364 14.2194 28.6034 14.0783 28.6189C13.9371 28.6343 13.8055 28.6974 13.705 28.7977L12.3971 30.1055C11.451 29.3914 10.6095 28.5483 9.89714 27.6008L11.2042 26.2938C11.3046 26.1934 11.3678 26.0618 11.3834 25.9206C11.3991 25.7795 11.3661 25.6372 11.2901 25.5172C10.6545 24.5175 10.1974 23.4149 9.93933 22.2587C9.90826 22.12 9.83089 21.9961 9.71998 21.9074C9.60907 21.8186 9.47123 21.7703 9.32917 21.7704H7.47605C7.31199 20.5953 7.31199 19.4032 7.47605 18.2282H9.32449C9.46654 18.2283 9.60438 18.1799 9.71529 18.0912C9.8262 18.0024 9.90357 17.8785 9.93464 17.7399C10.1929 16.5837 10.65 15.4811 11.2854 14.4813C11.3615 14.3614 11.3944 14.2191 11.3788 14.0779C11.3631 13.9368 11.2999 13.8052 11.1995 13.7047L9.89245 12.3969C10.6066 11.4508 11.4496 10.6093 12.3971 9.89693L13.7042 11.2047C13.8047 11.305 13.9364 11.3681 14.0775 11.3836C14.2187 11.3991 14.3609 11.366 14.4807 11.2899C15.4806 10.6545 16.5832 10.1975 17.7393 9.93912C17.8779 9.90805 18.0018 9.83068 18.0906 9.71977C18.1794 9.60886 18.2277 9.47102 18.2276 9.32896V7.47584C19.4027 7.31217 20.5947 7.31217 21.7698 7.47584V9.32428C21.7697 9.46633 21.8181 9.60417 21.9068 9.71508C21.9956 9.82599 22.1195 9.90336 22.2581 9.93443C23.4142 10.1928 24.5168 10.6499 25.5167 11.2852C25.6365 11.3613 25.7787 11.3944 25.9199 11.3789C26.061 11.3634 26.1927 11.3004 26.2932 11.2001L27.601 9.89225C28.5486 10.6061 29.3914 11.4492 30.105 12.3969L28.7979 13.704C28.6975 13.8044 28.6343 13.936 28.6187 14.0772C28.603 14.2183 28.636 14.3606 28.712 14.4805C29.3476 15.4803 29.8047 16.5829 30.0628 17.7391C30.0938 17.8777 30.1712 18.0016 30.2821 18.0904C30.393 18.1791 30.5309 18.2275 30.6729 18.2274H32.5229C32.687 19.4024 32.687 20.5946 32.5229 21.7696H30.6737C30.5315 21.7696 30.3936 21.818 30.2827 21.9069C30.1718 21.9958 30.0945 22.1199 30.0635 22.2587ZM19.9995 12.6157C18.5391 12.6157 17.1116 13.0487 15.8974 13.86C14.6832 14.6714 13.7368 15.8245 13.1779 17.1737C12.6191 18.5229 12.4729 20.0075 12.7578 21.4397C13.0427 22.872 13.7459 24.1877 14.7785 25.2203C15.8111 26.2529 17.1267 26.9561 18.559 27.241C19.9913 27.5259 21.4759 27.3797 22.8251 26.8208C24.1742 26.262 25.3274 25.3156 26.1387 24.1014C26.95 22.8872 27.3831 21.4596 27.3831 19.9993C27.3808 18.0417 26.6022 16.165 25.218 14.7808C23.8338 13.3966 21.957 12.618 19.9995 12.6157ZM19.9995 26.1313C18.7863 26.1313 17.6004 25.7715 16.5917 25.0975C15.583 24.4235 14.7968 23.4654 14.3326 22.3446C13.8684 21.2237 13.7471 19.9904 13.9839 18.8005C14.2207 17.6107 14.805 16.5178 15.6629 15.6601C16.5209 14.8023 17.6139 14.2183 18.8038 13.9818C19.9937 13.7453 21.2271 13.867 22.3478 14.3315C23.4685 14.7959 24.4264 15.5823 25.1001 16.5912C25.7739 17.6001 26.1334 18.7861 26.1331 19.9993C26.1312 21.6254 25.4844 23.1845 24.3345 24.3343C23.1847 25.4842 21.6256 26.131 19.9995 26.1329V26.1313ZM6.6573 7.7274C6.03172 8.40674 5.4592 9.13309 4.9448 9.90006C4.89904 9.96828 4.84029 10.0268 4.77191 10.0724C4.70353 10.1179 4.62685 10.1495 4.54625 10.1654C4.46565 10.1813 4.38271 10.1811 4.30217 10.1649C4.22163 10.1488 4.14506 10.1169 4.07683 10.0712C4.0086 10.0254 3.95006 9.96665 3.90454 9.89826C3.85902 9.82988 3.82741 9.7532 3.81152 9.6726C3.79563 9.592 3.79578 9.50907 3.81194 9.42852C3.82811 9.34798 3.85998 9.27141 3.90574 9.20318C4.45646 8.38329 5.06919 7.6068 5.73855 6.88053C5.85214 6.76396 6.00672 6.6963 6.16942 6.69193C6.33212 6.68757 6.4901 6.74684 6.60978 6.85715C6.72945 6.96747 6.80137 7.12011 6.81025 7.28263C6.81912 7.44515 6.76425 7.60471 6.6573 7.7274ZM8.79402 4.95396C8.69951 4.81791 8.66288 4.64991 8.69218 4.48686C8.72148 4.32382 8.81431 4.17907 8.95027 4.08443C12.2951 1.76266 16.2862 0.553393 20.3571 0.62828C24.4281 0.703166 28.372 2.0584 31.6292 4.50162L31.419 3.91881C31.3641 3.76321 31.373 3.59222 31.4436 3.44312C31.5143 3.29402 31.6411 3.17892 31.7963 3.12292C31.9515 3.06692 32.1225 3.07457 32.2721 3.1442C32.4217 3.21382 32.5377 3.33978 32.5948 3.49459L33.6034 6.28912C33.6375 6.38354 33.6484 6.4848 33.6351 6.58433C33.6218 6.68385 33.5848 6.77871 33.5271 6.86087C33.4693 6.94303 33.3927 7.01008 33.3036 7.05634C33.2145 7.10259 33.1155 7.1267 33.0151 7.12662C32.9782 7.12673 32.9413 7.12333 32.905 7.11646L29.9807 6.59225C29.8999 6.57778 29.8228 6.54754 29.7537 6.50326C29.6846 6.45898 29.6249 6.40151 29.578 6.33416C29.5311 6.2668 29.4979 6.19086 29.4803 6.11068C29.4628 6.0305 29.4612 5.94765 29.4757 5.86686C29.4901 5.78606 29.5204 5.70891 29.5646 5.6398C29.6089 5.57069 29.6664 5.51098 29.7337 5.46408C29.8011 5.41718 29.877 5.38401 29.9572 5.36645C30.0374 5.3489 30.1203 5.34731 30.201 5.36178L30.8479 5.47818C27.8011 3.20343 24.1163 1.94406 20.3146 1.87817C16.5128 1.81228 12.7866 2.9432 9.66277 5.111C9.52668 5.20518 9.35879 5.24154 9.19592 5.2121C9.03306 5.18266 8.88853 5.08983 8.79402 4.95396ZM2.40808 24.3743C2.44752 24.5348 2.42174 24.7045 2.33637 24.8461C2.25101 24.9877 2.11302 25.0897 1.95261 25.1297C1.90313 25.1427 1.8522 25.1493 1.80105 25.1493C1.66157 25.1492 1.52612 25.1025 1.41627 25.0166C1.30641 24.9306 1.22845 24.8104 1.1948 24.6751C0.994907 23.8731 0.846428 23.0592 0.750267 22.2383C0.733412 22.0749 0.781567 21.9115 0.884316 21.7833C0.987065 21.6551 1.13615 21.5725 1.29931 21.5534C1.46246 21.5344 1.62658 21.5803 1.75616 21.6812C1.88573 21.7822 1.97034 21.9301 1.99167 22.093C2.08156 22.8616 2.22065 23.6235 2.40808 24.3743ZM0.629174 19.4415C0.652124 18.6635 0.722043 17.8876 0.838548 17.118C0.85086 17.0369 0.879035 16.9589 0.921465 16.8887C0.963895 16.8184 1.01975 16.7572 1.08584 16.7085C1.15193 16.6598 1.22696 16.6247 1.30664 16.605C1.38633 16.5853 1.46911 16.5815 1.55027 16.5938C1.63142 16.6061 1.70935 16.6343 1.77962 16.6767C1.84988 16.7192 1.9111 16.775 1.95978 16.8411C2.00846 16.9072 2.04364 16.9822 2.06332 17.0619C2.083 17.1416 2.0868 17.2244 2.07449 17.3055C1.9655 18.0251 1.90002 18.7507 1.87839 19.4782C1.87352 19.6407 1.80552 19.7949 1.68883 19.9081C1.57215 20.0212 1.41595 20.0845 1.25339 20.0844H1.23464C1.06913 20.0793 0.912415 20.0088 0.798895 19.8882C0.685376 19.7677 0.624334 19.607 0.629174 19.4415ZM3.49089 12.5157C3.17173 13.2212 2.898 13.9464 2.67136 14.6868C2.62219 14.8445 2.5126 14.9763 2.36654 15.0534C2.22048 15.1305 2.04983 15.1467 1.89189 15.0984C1.73394 15.0501 1.60154 14.9412 1.52362 14.7956C1.4457 14.6499 1.4286 14.4794 1.47605 14.3212C1.71823 13.5293 2.01075 12.7538 2.35183 11.9993C2.38563 11.9245 2.43384 11.8571 2.49369 11.8009C2.55355 11.7448 2.62388 11.7009 2.70067 11.672C2.77746 11.643 2.8592 11.6294 2.94124 11.632C3.02327 11.6346 3.10399 11.6534 3.17878 11.6872C3.25357 11.721 3.32098 11.7692 3.37714 11.829C3.4333 11.8889 3.47712 11.9592 3.5061 12.036C3.53509 12.1128 3.54866 12.1945 3.54605 12.2766C3.54344 12.3586 3.5247 12.4393 3.49089 12.5141V12.5157ZM37.5909 15.6243C37.5508 15.4634 37.5763 15.2932 37.6617 15.151C37.7471 15.0089 37.8855 14.9066 38.0464 14.8665C38.2073 14.8264 38.3775 14.8518 38.5196 14.9373C38.6617 15.0227 38.7641 15.161 38.8042 15.3219C39.004 16.1239 39.1525 16.9378 39.2487 17.7587C39.2679 17.923 39.2211 18.0883 39.1185 18.2182C39.016 18.3481 38.8662 18.432 38.7018 18.4516C38.6775 18.4547 38.6529 18.4563 38.6284 18.4563C38.4754 18.456 38.3279 18.3996 38.2137 18.2978C38.0995 18.196 38.0266 18.0559 38.0089 17.904C37.9187 17.1359 37.7791 16.3744 37.5909 15.6243ZM39.3698 20.5555C39.3468 21.3335 39.2769 22.1094 39.1604 22.879C39.138 23.0267 39.0634 23.1614 38.9502 23.2589C38.837 23.3564 38.6926 23.41 38.5432 23.4102C38.5116 23.4102 38.48 23.4078 38.4487 23.4032C38.3675 23.3909 38.2896 23.3627 38.2193 23.3203C38.1491 23.2778 38.0879 23.222 38.0392 23.1559C37.9905 23.0898 37.9553 23.0148 37.9356 22.9351C37.916 22.8554 37.9122 22.7726 37.9245 22.6915C38.0347 21.9724 38.1015 21.2474 38.1245 20.5204C38.1294 20.3546 38.1999 20.1976 38.3205 20.0838C38.4412 19.97 38.6021 19.9089 38.7678 19.9137C38.9336 19.9186 39.0906 19.9891 39.2044 20.1098C39.3182 20.2304 39.3794 20.3913 39.3745 20.5571L39.3698 20.5555ZM36.0932 30.7954C35.5428 31.6152 34.9303 32.3917 34.2612 33.118C34.2063 33.181 34.1394 33.2323 34.0643 33.269C33.9892 33.3056 33.9076 33.3268 33.8242 33.3314C33.7407 33.336 33.6573 33.3237 33.5787 33.2955C33.5001 33.2672 33.4279 33.2235 33.3665 33.1669C33.3051 33.1103 33.2556 33.0419 33.2211 32.9659C33.1865 32.8898 33.1675 32.8076 33.1653 32.7241C33.1631 32.6406 33.1776 32.5575 33.208 32.4797C33.2384 32.4019 33.2842 32.331 33.3425 32.2712C33.968 31.5918 34.5406 30.8655 35.055 30.0985C35.1007 30.0303 35.1595 29.9718 35.2278 29.9264C35.2962 29.8809 35.3728 29.8493 35.4534 29.8335C35.534 29.8176 35.6168 29.8178 35.6973 29.834C35.7778 29.8502 35.8544 29.882 35.9225 29.9278C35.9907 29.9736 36.0492 30.0323 36.0947 30.1007C36.1402 30.169 36.1717 30.2457 36.1876 30.3262C36.2034 30.4068 36.2032 30.4897 36.1871 30.5702C36.1709 30.6507 36.139 30.7272 36.0932 30.7954ZM38.5237 25.6758C38.2815 26.4677 37.989 27.2432 37.6479 27.9977C37.5797 28.1488 37.4542 28.2665 37.2991 28.325C37.144 28.3836 36.972 28.3781 36.821 28.3098C36.6699 28.2416 36.5522 28.1161 36.4936 27.961C36.4351 27.8059 36.4406 27.6339 36.5089 27.4829C36.8278 26.7774 37.1012 26.0522 37.3276 25.3118C37.3768 25.1541 37.4864 25.0223 37.6324 24.9452C37.7785 24.868 37.9491 24.8519 38.1071 24.9002C38.265 24.9485 38.3974 25.0574 38.4754 25.203C38.5533 25.3486 38.5704 25.5192 38.5229 25.6774L38.5237 25.6758ZM31.205 35.0446C31.2995 35.1806 31.3361 35.3486 31.3068 35.5117C31.2775 35.6747 31.1847 35.8195 31.0487 35.9141C27.7038 38.2356 23.7128 39.4447 19.642 39.3699C15.5711 39.2952 11.6272 37.9404 8.3698 35.4977L8.57996 36.0797C8.622 36.2315 8.60523 36.3935 8.53301 36.5334C8.46078 36.6733 8.33843 36.7807 8.19039 36.8343C8.04236 36.8879 7.87955 36.8837 7.73451 36.8224C7.58948 36.7612 7.4729 36.6474 7.40808 36.504L6.39402 33.7094C6.35676 33.6062 6.34733 33.495 6.36669 33.387C6.38606 33.2789 6.43352 33.1779 6.50431 33.0941C6.57511 33.0102 6.66673 32.9465 6.76998 32.9093C6.87322 32.872 6.98444 32.8627 7.09245 32.8821L10.0167 33.4063C10.0975 33.4208 10.1746 33.451 10.2437 33.4953C10.3128 33.5396 10.3725 33.597 10.4194 33.6644C10.4663 33.7318 10.4995 33.8077 10.5171 33.8879C10.5346 33.9681 10.5362 34.0509 10.5218 34.1317C10.5073 34.2125 10.477 34.2896 10.4328 34.3588C10.3885 34.4279 10.331 34.4876 10.2637 34.5345C10.1963 34.5814 10.1204 34.6145 10.0402 34.6321C9.96001 34.6497 9.87715 34.6512 9.79636 34.6368L9.14949 34.5212C12.1965 36.7955 15.8813 38.0545 19.683 38.1202C23.4846 38.186 27.2108 37.0551 30.3346 34.8876C30.4021 34.8407 30.4781 34.8076 30.5584 34.7901C30.6386 34.7726 30.7215 34.7711 30.8023 34.7857C30.8832 34.8003 30.9603 34.8306 31.0294 34.8751C31.0985 34.9195 31.1581 34.9771 31.205 35.0446Z" fill="#A81874"/>
</g>
<defs>
<clipPath id="clip0_47_6035">
<rect width="40" height="40" fill="white"/>
</clipPath>
</defs>
</svg>
