<svg width="40" height="40" viewBox="0 0 40 40" fill="none" xmlns="http://www.w3.org/2000/svg">
<path d="M36.7363 24.0164C36.5591 23.412 36.0794 22.7648 35.5238 22.0153C34.7547 20.9779 33.8831 19.8021 33.8248 18.7275C33.7826 17.9485 33.9398 17.225 34.0784 16.5869C34.1471 16.2711 34.1896 15.9693 34.2433 15.7017C34.5335 14.255 34.4269 13.1898 34.1268 11.9439C34.0088 11.3571 33.8522 10.7836 33.6584 10.2261C33.6577 10.2237 33.6571 10.2214 33.6563 10.219C33.6563 10.219 33.6561 10.2193 33.656 10.2193C31.7839 4.84374 26.5138 0.960938 20.3214 0.960938C12.5781 0.960938 6.19626 7.03246 6.17786 14.5019C6.14866 14.8454 6.04306 18.5557 7.4437 21.7662C8.02226 23.3097 9.22834 27.6452 9.0757 29.4324C8.91946 31.2622 6.82978 35.5413 5.91442 37.6523C5.76314 38.0011 5.92338 38.4064 6.2721 38.5576C6.3613 38.5963 6.45418 38.6145 6.54562 38.6145C6.81162 38.6145 7.0649 38.4594 7.17746 38.1999C7.31546 37.8816 10.24 31.977 10.4474 29.5495C10.6583 27.0795 8.81482 21.5014 8.72602 21.2652C8.72178 21.2538 8.71722 21.2426 8.71234 21.2315C7.63546 18.7696 7.48138 15.2701 7.54986 14.6134C7.5529 14.5872 7.55442 14.55 7.55442 14.5236C7.55442 14.5121 7.55482 14.4786 7.5549 14.4786H12.6105C13.2929 14.4786 13.8482 13.9341 13.8482 13.2517C13.8482 13.2178 13.8528 13.1467 13.8571 13.0727C13.8915 12.4974 13.9271 11.9053 13.462 11.6563C12.9547 11.3846 12.6397 10.8675 12.6397 10.3045C12.6397 9.45486 13.3423 8.73774 14.1741 8.73774C15.0127 8.73774 15.7485 9.47054 15.7485 10.3055C15.7485 10.8719 15.438 11.3907 14.9383 11.6593C14.4736 11.9089 14.5111 12.5013 14.5473 13.0742C14.5519 13.1464 14.557 13.2175 14.557 13.2516C14.557 13.9341 15.1122 14.4785 15.7947 14.4785H19.6791V18.3354C19.6791 18.3562 19.6467 18.3732 19.6256 18.3732C19.5521 18.3732 19.4526 18.3762 19.3463 18.3833C19.2515 18.3895 19.0607 18.3986 18.9249 18.3986C18.9236 18.3986 18.9224 18.3986 18.9212 18.3986C18.4182 17.6786 17.5711 17.1884 16.6534 17.1884C15.1585 17.1884 13.8956 18.456 13.8956 19.9545C13.8956 21.457 15.1327 22.6801 16.6534 22.6801C17.5699 22.6801 18.4179 22.2161 18.9229 21.4526C19.0614 21.4525 19.2494 21.4637 19.3464 21.4697C19.4498 21.4762 19.5544 21.4819 19.6259 21.4819C19.6467 21.4819 19.6791 21.4989 19.6791 21.5197V25.9551C19.6791 26.2865 19.9477 26.5551 20.2791 26.5551C20.6106 26.5551 20.8791 26.2865 20.8791 25.9551V21.5197C20.8791 20.8373 20.3085 20.282 19.6259 20.282C19.592 20.282 19.5019 20.2769 19.4291 20.2722C18.8517 20.2361 18.2507 20.1987 18.0019 20.6636C17.7319 21.1677 17.2147 21.4809 16.6553 21.4809C15.8109 21.4809 15.0966 20.7825 15.0966 19.9561C15.0966 19.1226 15.824 18.3914 16.6539 18.3914C17.2167 18.3914 17.7319 18.7 17.9987 19.1965C18.2482 19.661 18.8427 19.6216 19.4177 19.5837C19.4921 19.5788 19.5918 19.5732 19.6259 19.5732C20.3084 19.5732 20.8791 19.018 20.8791 18.3354V14.4786H24.7282C24.7518 14.7186 24.7674 14.9097 24.7705 15.0641C23.984 15.5748 23.5302 16.4436 23.5701 17.388C23.6243 18.6736 24.5923 19.7435 25.8718 19.9282C26.6491 20.0407 27.4327 19.8143 28.0207 19.3052C28.6094 18.7953 28.9471 18.0569 28.9471 17.278C28.9471 16.3863 28.4622 15.5345 27.6902 15.0337C27.6945 14.9122 27.7063 14.7537 27.7128 14.6735C27.7184 14.6036 27.7234 14.5586 27.7263 14.4786H33.0091C33.0087 14.4786 33.0087 14.5122 33.0083 14.5236C32.983 15.1145 32.7971 15.9952 32.7332 16.2891C32.5839 16.9765 32.3979 17.8349 32.4503 18.7993C32.5309 20.2869 33.5772 21.6996 34.4179 22.8337C34.8551 23.4234 35.3071 24.034 35.4153 24.4029C35.4429 24.4973 35.4651 24.6269 35.4139 24.7079C35.3473 24.8133 35.1505 24.9012 34.8876 24.9429C34.6887 24.9745 34.4871 24.9799 34.2921 24.9851C33.7115 25.0005 32.8342 25.0238 32.4066 26.0569C31.9459 27.1699 32.4513 27.8423 32.7533 28.244C32.7805 28.2802 32.8136 28.3242 32.8438 28.3667C32.6585 28.4099 32.3886 28.4439 32.1125 28.4593C31.6233 28.3674 30.8327 28.1769 30.3622 27.8977C30.0352 27.7037 29.613 27.8113 29.419 28.1382C29.225 28.4651 29.3327 28.8874 29.6595 29.0814C30.1642 29.381 30.8278 29.5817 31.3561 29.7065L31.4099 29.7402C31.6465 29.8886 31.8999 30.0985 32.0427 30.2554C31.9602 30.2951 31.8628 30.3362 31.7864 30.3685C31.3368 30.5586 30.7211 30.8189 30.572 31.49C30.4303 32.1275 30.2648 32.7369 30.0007 33.5934C29.8232 34.169 29.0778 34.9699 27.8335 34.6691C27.4663 34.5803 27.1219 34.4508 26.7575 34.3136C25.6262 33.888 24.3439 33.4056 22.4708 34.3485C20.1042 35.5399 19.1386 38.1972 19.0987 38.3097C18.9715 38.6679 19.1588 39.0614 19.517 39.1885C19.5931 39.2156 19.6708 39.2284 19.7472 39.2284C20.0304 39.2284 20.2957 39.0522 20.3959 38.7701C20.4038 38.7478 21.2111 36.5237 23.0898 35.5781C24.4239 34.9064 25.2398 35.2133 26.2727 35.6019C26.6599 35.7477 27.0604 35.8983 27.5099 36.0069C27.8078 36.079 28.0947 36.1123 28.3686 36.1123C29.8659 36.1122 30.9716 35.1158 31.3161 33.9989C31.5811 33.1395 31.7582 32.4901 31.9042 31.8405C31.9847 31.7791 32.1931 31.691 32.3225 31.6364C32.7353 31.4618 33.249 31.2447 33.451 30.7135C33.5935 30.3387 33.5057 29.9809 33.3147 29.6645C33.7343 29.5405 34.1304 29.3114 34.2544 28.8569C34.4359 28.1914 34.0856 27.7253 33.8537 27.4169C33.6096 27.0921 33.5183 26.9706 33.6786 26.5833C33.7562 26.3958 33.7643 26.3762 34.3287 26.3613C34.5568 26.3552 34.8154 26.3483 35.1032 26.3027C35.9583 26.1671 36.3768 25.7611 36.5772 25.4444C36.7573 25.1597 36.9311 24.6809 36.7363 24.0164ZM15.7569 13.2513C15.7569 13.1797 15.7513 13.0962 15.7448 12.9933C15.7388 12.8982 15.7271 12.7163 15.7279 12.581C16.4867 12.0765 16.9484 11.2268 16.9484 10.3046C16.9484 8.80454 15.6779 7.53782 14.174 7.53782C12.6663 7.53782 11.4396 8.77966 11.4396 10.3056C11.4396 11.2265 11.907 12.0787 12.6748 12.5853C12.6763 12.722 12.665 12.91 12.6593 13.0065C12.6533 13.1065 12.6481 13.1821 12.6481 13.2517C12.6481 13.2725 12.6312 13.2786 12.6104 13.2786H7.61986C8.25106 7.35862 13.3591 2.6799 19.5991 2.35582V6.2807C19.5991 7.11942 20.9959 7.71422 21.4362 7.71422C21.8445 7.71422 22.2243 7.49302 22.4151 7.13694C22.685 6.63294 23.2039 6.3199 23.7632 6.3199C24.6074 6.3199 25.3225 7.01798 25.3225 7.8443C25.3225 8.67758 24.5957 9.40854 23.7661 9.40854C23.2035 9.40854 22.6886 9.10006 22.4217 8.60358C22.2308 8.24838 21.8439 8.02774 21.4359 8.02774C20.9955 8.02774 19.599 8.62406 19.599 9.46486V13.2786H15.7944C15.7738 13.2786 15.7569 13.2725 15.7569 13.2513ZM27.6358 13.2786C27.0258 13.2786 26.5295 13.7857 26.5295 14.3953C26.5293 14.4221 26.5221 14.5173 26.5169 14.5828C26.4699 15.1656 26.4256 15.7187 26.886 15.9511C27.4091 16.2153 27.7472 16.7366 27.7472 17.2773C27.7472 17.7077 27.5606 18.1169 27.2353 18.3987C26.906 18.6838 26.483 18.8063 26.0435 18.7429C25.3464 18.6423 24.7986 18.0404 24.7691 17.3426C24.7451 16.7736 25.0545 16.2568 25.5766 15.9937C25.9607 15.8002 26.0455 15.3917 25.9205 14.3525C25.8978 13.7625 25.4107 13.2786 24.8151 13.2786H20.7991V9.58382C20.9591 9.47054 21.2195 9.3103 21.3926 9.24838C21.8799 10.0897 22.7835 10.6085 23.7594 10.6085C25.254 10.6085 26.5206 9.3427 26.5206 7.8443C26.5206 6.34206 25.2855 5.1199 23.7651 5.1199C22.7915 5.1199 21.8809 5.64406 21.3911 6.49382C21.2184 6.43262 20.9591 6.27366 20.7991 6.16102V2.3479C27.1191 2.58862 32.2771 7.28078 32.924 13.2507C32.9255 13.2639 32.9422 13.2786 32.9435 13.2786H27.6358Z" fill="#132573"/>
</svg>
