<svg width="40" height="40" viewBox="0 0 40 40" fill="none" xmlns="http://www.w3.org/2000/svg">
<g clip-path="url(#clip0_47_661)">
<path d="M33.17 17.7961C32.5278 17.6703 31.702 18.0102 31.3121 19.3398L30.034 23.7055C29.7067 23.7453 29.359 23.8984 29.0254 24.2094C28.6457 24.5641 28.2637 24.9063 27.8934 25.2383C25.4754 27.407 23.1918 29.4555 23.1285 33.5289V33.5391V35.8297H22.9746C22.4621 35.8297 22.0457 36.2477 22.0457 36.7609V39.0711C22.0457 39.5844 22.4621 40.0023 22.9746 40.0023H29.1559C29.6684 40.0023 30.0848 39.5844 30.0848 39.0711V36.7609C30.0848 36.2477 29.6684 35.8297 29.1559 35.8297H29.0262L29.0325 35.3586C29.0371 35.0359 29.1473 34.782 29.3809 34.5594L31.6567 32.3742C32.7614 31.3164 33.3739 30.0625 33.5293 28.5406L34.4285 19.7797C34.5254 18.8242 33.9731 17.9531 33.17 17.7961ZM28.8332 38.7508H23.2965V37.0813H28.8332V38.7508ZM33.1832 19.6516L32.284 28.4125C32.1598 29.6266 31.6715 30.6266 30.7903 31.4703L28.5145 33.6555C28.0434 34.1055 27.7895 34.6891 27.7809 35.3414L27.7739 35.8297H24.3793V33.5438C24.4364 30.0203 26.3309 28.3211 28.7285 26.1695C29.1028 25.8344 29.4895 25.4867 29.8778 25.1242C30.0223 24.9898 30.216 24.8844 30.3262 24.993C30.4356 25.1016 30.4254 25.3445 30.1926 25.6008L27.0676 29.0445C26.8356 29.3 26.8543 29.6961 27.1106 29.9281C27.366 30.1602 27.7621 30.1414 27.9942 29.8852L31.1192 26.4414C31.8754 25.6078 31.741 24.6438 31.2168 24.1141L32.5121 19.6906C32.6692 19.1562 32.877 19.0125 32.9293 19.0227C33.0356 19.0445 33.2207 19.2852 33.1832 19.6516ZM17.0215 35.8297H16.8676V33.5391C16.8676 33.5359 16.8676 33.5328 16.8676 33.5289C16.8035 29.4531 14.5184 27.4039 12.0989 25.2344C11.7301 24.9039 11.3496 24.5625 10.9707 24.2094C10.6371 23.8984 10.2895 23.7453 9.96214 23.7055L8.68402 19.3406C8.29573 18.0094 7.46995 17.6703 6.82698 17.7961C6.02308 17.9539 5.47152 18.825 5.56995 19.7789L6.46917 28.5398C6.62464 30.0609 7.23636 31.3148 8.33949 32.3734L10.6176 34.5586C10.8496 34.782 10.9598 35.0359 10.9637 35.3602L10.9715 35.8297H10.8434C10.3301 35.8297 9.91214 36.2477 9.91214 36.7609V39.0711C9.91214 39.5844 10.3301 40.0023 10.8434 40.0023H17.0223C17.5356 40.0023 17.9535 39.5844 17.9535 39.0711V36.7609C17.9528 36.2469 17.5348 35.8297 17.0215 35.8297ZM12.2145 35.3414C12.2059 34.6898 11.9535 34.1078 11.484 33.6562L9.20511 31.4703C8.32542 30.6258 7.83714 29.6258 7.7137 28.4117L6.81448 19.6508C6.7762 19.2844 6.96136 19.0445 7.06761 19.0242C7.12074 19.0125 7.32699 19.157 7.48324 19.6922L8.77855 24.1156C8.25433 24.6453 8.11995 25.6102 8.8762 26.443L12.0035 29.8867C12.2364 30.143 12.6317 30.1617 12.8871 29.9297C13.1426 29.6977 13.1621 29.3016 12.9293 29.0461L9.80277 25.6023C9.56995 25.3461 9.5598 25.1023 9.66917 24.9945C9.77933 24.8859 9.97308 24.9906 10.1176 25.125C10.5051 25.4867 10.891 25.832 11.2637 26.1664C13.6637 28.3188 15.5598 30.0188 15.6168 33.5438V35.8297H12.2231L12.2145 35.3414ZM16.7012 38.7508H11.1629V37.0813H16.7012V38.7508ZM19.9981 6.42656C17.2426 6.42656 15.0012 8.66797 15.0012 11.4234V14.325C14.6262 14.4766 14.3614 14.8437 14.3614 15.2719V15.975C13.8246 16.1852 13.4426 16.7062 13.4426 17.3156V17.8625C13.4426 18.3562 13.8442 18.7586 14.3387 18.7586H20.0004H25.6621C26.1551 18.7586 26.5559 18.357 26.5559 17.8625V17.3156C26.5559 16.6898 26.1535 16.157 25.595 15.9586V15.2711C25.595 14.8586 25.3489 14.5039 24.9973 14.3422V11.4219C24.995 8.66797 22.7535 6.42656 19.9981 6.42656ZM15.6121 15.8766V15.5023H24.3418V15.8766H15.6121ZM19.9981 7.67812C22.0637 7.67812 23.7442 9.35859 23.7442 11.4242V14.2508H16.252V11.4242C16.252 9.35859 17.9325 7.67812 19.9981 7.67812ZM25.3028 17.5086H14.6926V17.3172C14.6926 17.2148 14.7801 17.1281 14.884 17.1281H25.1129C25.2153 17.1281 25.302 17.2148 25.302 17.3172L25.3028 17.5086ZM17.0028 11.4234C17.0028 9.77187 18.3465 8.42813 19.9981 8.42813C20.3434 8.42813 20.6239 8.70781 20.6239 9.05391C20.6239 9.4 20.3442 9.67969 19.9981 9.67969C19.0364 9.67969 18.2543 10.4617 18.2543 11.4234C18.2543 11.7687 17.9746 12.0492 17.6285 12.0492C17.2825 12.0492 17.0028 11.7695 17.0028 11.4234ZM19.3723 4.62266V0.625781C19.3723 0.280469 19.652 0 19.9981 0C20.3442 0 20.6239 0.279688 20.6239 0.625781V4.62344C20.6239 4.96875 20.3442 5.24922 19.9981 5.24922C19.652 5.24922 19.3723 4.96797 19.3723 4.62266ZM22.8684 5.23125L24.8707 1.76328C25.0434 1.46406 25.4262 1.36172 25.7254 1.53437C26.0246 1.70703 26.127 2.08984 25.9543 2.38906L23.952 5.85703C23.8364 6.05781 23.6254 6.16953 23.4098 6.16953C23.3035 6.16953 23.1965 6.14219 23.0973 6.08594C22.7989 5.91328 22.6957 5.53047 22.8684 5.23125ZM25.5848 7.50469L29.0614 5.49844C29.3606 5.32578 29.7434 5.42813 29.916 5.72734C30.0887 6.02656 29.9864 6.40938 29.6871 6.58203L26.2106 8.58828C26.1121 8.64531 26.0043 8.67188 25.8981 8.67188C25.6817 8.67188 25.4715 8.55937 25.3559 8.35859C25.1832 8.06016 25.2856 7.67734 25.5848 7.50469ZM26.7989 10.8273H30.8246C31.17 10.8273 31.4504 11.107 31.4504 11.4531C31.4504 11.7992 31.1707 12.0789 30.8246 12.0789H26.7989C26.4536 12.0789 26.1731 11.7992 26.1731 11.4531C26.1731 11.107 26.4536 10.8273 26.7989 10.8273ZM14.0434 2.38906C13.8707 2.08984 13.9731 1.70703 14.2723 1.53437C14.5715 1.36172 14.9543 1.46406 15.127 1.76328L17.1293 5.23125C17.302 5.53047 17.1996 5.91328 16.9004 6.08594C16.802 6.14297 16.6942 6.16953 16.5879 6.16953C16.3715 6.16953 16.1614 6.05703 16.0457 5.85703L14.0434 2.38906ZM10.0793 5.72734C10.252 5.42813 10.6348 5.32578 10.934 5.49844L14.4106 7.50469C14.7098 7.67734 14.8121 8.06016 14.6395 8.35938C14.5239 8.56016 14.3137 8.67266 14.0973 8.67266C13.991 8.67266 13.884 8.64531 13.7848 8.58906L10.3082 6.58281C10.0098 6.40938 9.90667 6.02656 10.0793 5.72734ZM8.54495 11.4523C8.54495 11.107 8.82464 10.8266 9.17074 10.8266H13.1965C13.5418 10.8266 13.8223 11.1062 13.8223 11.4523C13.8223 11.7984 13.5426 12.0781 13.1965 12.0781H9.17074C8.82542 12.0781 8.54495 11.7984 8.54495 11.4523Z" fill="#132573"/>
</g>
<defs>
<clipPath id="clip0_47_661">
<rect width="40" height="40" fill="white"/>
</clipPath>
</defs>
</svg>
