<svg width="40" height="40" viewBox="0 0 40 40" fill="none" xmlns="http://www.w3.org/2000/svg">
<path d="M34.3513 11.8687C34.3513 11.8681 34.3513 11.8669 34.3507 11.8663C34.2438 11.125 30.7288 8.125 27.5313 8.125C24.0507 8.125 20.827 12.41 19.9238 12.5C19.0988 12.5031 19.102 13.75 19.927 13.75C22.4651 13.75 25.437 5.9975 32.0845 11.2738C31.2976 11.47 30.7445 11.9725 30.457 12.75C28.4695 11.0369 25.2713 12.005 24.3995 14.1412C24.0945 14.8994 25.2382 15.3712 25.557 14.6125C26.2688 12.9862 29.1145 12.285 30.3907 14.6394C31.4407 16.5738 34.8138 15.035 34.3513 11.8687ZM31.492 14.0469C31.512 12.8731 31.972 12.3194 33.1301 12.4456C33.0907 14.0156 31.792 14.5869 31.492 14.0469Z" fill="#132573"/>
<path d="M26.8503 14.8888C26.8691 14.9106 28.7291 17.09 28.7291 20C28.7291 26.2262 23.7172 36.25 20.6041 36.25C18.3909 36.25 7.98219 27.7719 6.95656 21.0381C19.0403 26.1781 14.5228 5.74438 25.7734 5.63C26.2184 5.62875 27.4778 5.625 28.1559 5.625C28.6422 5.625 29.4584 5.86875 29.4584 7.5C29.4584 8.32687 30.7084 8.32687 30.7084 7.5C30.7084 5.19375 29.3334 4.375 28.1559 4.375C27.4078 4.375 26.3084 4.37875 25.6072 4.38062V4.38937C22.7884 4.46187 20.8222 5.68063 19.3541 7.40625V5.63625C19.3703 4.74125 18.5841 3.75 16.8541 3.75C16.1309 3.75 15.5559 3.92437 15.1266 4.2575C14.7322 3.54687 13.6903 2.5 12.7597 2.5C10.7091 2.5 8.71156 4.91625 9.92281 6.54187C10.8634 7.80562 11.1259 9.07438 11.1997 9.6625C9.90844 10.4788 5.61719 13.6669 5.61719 20C5.61719 27.4925 17.4859 37.5 20.6041 37.5C25.0128 37.5 29.9791 26.0837 29.9791 20C29.9791 16.6287 27.8841 14.1731 27.7953 14.07C27.2522 13.4444 26.3097 14.2644 26.8503 14.8888ZM15.9322 13.7725C15.3372 12.1119 14.2172 9.85437 12.4334 9.4425C12.3553 8.85437 12.1378 7.865 11.5516 6.78062C12.7466 6.51875 13.5047 5.75 13.8797 4.62125C14.4572 5.38313 14.3741 6.30813 14.3541 8.75C14.3541 9.57687 15.6041 9.57687 15.6041 8.75V6.88438C16.4941 7.12125 17.3316 7.05188 18.1041 6.725V9.1475C17.2172 10.6144 16.5428 12.2431 15.9322 13.7725ZM18.0003 5.37125C17.0353 5.9575 16.1234 5.76938 15.6409 5.58875C15.9247 4.77438 17.6259 4.87937 18.0003 5.37125ZM12.8147 3.75875C12.6241 4.88687 11.9997 5.56687 10.8334 5.61875C10.6241 5.00625 11.6966 3.64687 12.8147 3.75875ZM12.0041 10.6337C13.6484 10.8294 14.8284 14.1831 15.1878 15.6181C13.3184 20.1338 11.7184 22.0144 6.88406 19.6294C7.05844 13.8944 11.1566 11.14 12.0041 10.6337Z" fill="#132573"/>
<path d="M21.2297 15.628V19.2123L18.8934 23.3011L16.2478 24.8886L14.7015 23.858C14.5409 23.7511 14.3397 23.7242 14.1572 23.7848L12.2822 24.4098C11.4953 24.6723 11.8965 25.8586 12.6778 25.5955L14.2628 25.0673L15.5172 25.9036L14.999 27.9761C14.799 28.7767 16.0103 29.0836 16.2122 28.2798L16.7747 26.0311L18.7309 24.8573V31.253C18.7309 32.0798 19.9809 32.0798 19.9809 31.253V27.7617L22.039 29.8198C22.6178 30.4048 23.5084 29.523 22.9215 28.9361L19.9797 25.9942V23.9192L22.104 20.2017L23.6484 20.9736L23.1172 23.6305C22.9553 24.4442 24.1803 24.6936 24.3422 23.8761L24.7384 21.8961L25.7878 22.9455C26.374 23.5292 27.2559 22.6455 26.6715 22.0611L24.7965 20.1861C24.5297 19.988 23.4872 19.5105 22.4797 18.9917V15.628C22.4797 14.8011 21.2297 14.8011 21.2297 15.628Z" fill="#132573"/>
</svg>
