<svg width="40" height="40" viewBox="0 0 40 40" fill="none" xmlns="http://www.w3.org/2000/svg">
<path d="M24.3219 12.893C23.0328 12.893 21.825 13.5422 20.9234 14.7203C20.6813 15.0367 20.3813 15.2352 20.0109 15.3219C19.632 15.2367 19.3273 15.0383 19.0805 14.7164C18.1781 13.5383 16.9711 12.8891 15.682 12.8891C13.4844 12.8891 11.5781 14.807 11.0469 17.5539C10.8102 18.7758 10.8781 19.8969 11.2602 21.082L13.9148 29.3156C14.218 30.2547 15.0773 30.8797 16.0609 30.8797H16.0953C17.093 30.8648 17.9508 30.2109 18.2289 29.2531L19.1758 25.9937C19.2844 25.6203 19.6055 25.3789 19.9945 25.3789C20.3836 25.3789 20.7047 25.6203 20.8133 25.9937L21.7602 29.2531C22.0383 30.2117 22.8961 30.8656 23.8937 30.8797H23.9281C24.9117 30.8797 25.7719 30.2547 26.075 29.3156L28.7383 21.0547C29.1773 19.693 29.2086 18.4156 28.8375 17.0344C28.1719 14.557 26.357 12.893 24.3219 12.893ZM27.8445 20.7664L25.1813 29.0273C25.0016 29.5844 24.5109 29.9414 23.9281 29.9414C23.9211 29.9414 23.9141 29.9414 23.907 29.9414C23.3148 29.9328 22.825 29.5594 22.6602 28.9906L21.7133 25.7312C21.4891 24.9594 20.7984 24.4406 19.9945 24.4406C19.1906 24.4406 18.5 24.9594 18.2758 25.7312L17.3289 28.9906C17.1633 29.5594 16.6742 29.9328 16.0812 29.9414C15.4898 29.9484 14.9883 29.5914 14.807 29.0273L12.1523 20.7938C11.8164 19.7516 11.7594 18.807 11.9672 17.7313C12.4125 15.432 13.9398 13.8258 15.682 13.8258C16.6727 13.8258 17.6156 14.3445 18.3367 15.2859C18.3461 15.2984 18.3563 15.3109 18.3656 15.3234C17.8875 15.2484 17.393 15.1133 16.8844 14.9172C16.643 14.8242 16.3719 14.9445 16.2781 15.1859C16.1844 15.4273 16.3055 15.6984 16.5469 15.7922C17.732 16.2484 18.8672 16.4156 19.9195 16.2883C19.9797 16.2812 20.0383 16.2719 20.0961 16.2617H20.0977C20.7359 16.1437 21.2633 15.818 21.6672 15.2906C22.3883 14.3492 23.3305 13.8305 24.3219 13.8305C25.9273 13.8305 27.3773 15.2156 27.9312 17.2773C28.2531 18.4766 28.2258 19.5852 27.8445 20.7664ZM28.0273 12.168C27.8445 11.9852 27.8445 11.6883 28.0273 11.5047L30.2742 9.25781C30.457 9.075 30.7539 9.075 30.9367 9.25781C31.1195 9.44063 31.1195 9.7375 30.9367 9.92109L28.6898 12.168C28.5984 12.2594 28.4781 12.3055 28.3586 12.3055C28.2391 12.3055 28.1187 12.2594 28.0273 12.168ZM33.2234 13.1016L30.4719 14.6906C30.3984 14.7336 30.3172 14.7531 30.2383 14.7531C30.0766 14.7531 29.9188 14.6687 29.832 14.5187C29.7023 14.2945 29.7797 14.0078 30.0039 13.8781L32.7555 12.2891C32.9797 12.1594 33.2664 12.2367 33.3961 12.4609C33.525 12.6852 33.4477 12.9719 33.2234 13.1016ZM34.6094 16.7656L31.5398 17.5883C31.4992 17.5992 31.4586 17.6047 31.418 17.6047C31.2109 17.6047 31.0219 17.4664 30.9656 17.257C30.8984 17.007 31.0469 16.75 31.2969 16.6828L34.3664 15.8602C34.6164 15.793 34.8734 15.9414 34.9406 16.1914C35.0078 16.4414 34.8594 16.6984 34.6094 16.7656ZM9.0625 9.92109C8.87969 9.73828 8.87969 9.44141 9.0625 9.25781C9.24531 9.075 9.54219 9.075 9.72578 9.25781L11.9727 11.5047C12.1555 11.6875 12.1555 11.9844 11.9727 12.168C11.8813 12.2594 11.7609 12.3055 11.6414 12.3055C11.5219 12.3055 11.4016 12.2594 11.3102 12.168L9.0625 9.92109ZM10.1688 14.5187C10.082 14.6687 9.92422 14.7531 9.7625 14.7531C9.68281 14.7531 9.60234 14.7328 9.52891 14.6906L6.77656 13.1016C6.55234 12.9719 6.47578 12.6852 6.60469 12.4609C6.73438 12.2367 7.02109 12.1602 7.24531 12.2891L9.99687 13.8781C10.2211 14.0078 10.2977 14.2945 10.1688 14.5187ZM9.03438 17.257C8.97813 17.4664 8.78906 17.6047 8.58203 17.6047C8.54219 17.6047 8.50078 17.5992 8.46016 17.5883L5.39141 16.7656C5.14141 16.6984 4.99297 16.4414 5.06016 16.1914C5.12734 15.9414 5.38438 15.793 5.63438 15.8602L8.70391 16.6828C8.95313 16.75 9.10156 17.007 9.03438 17.257ZM20 1.17188C9.61797 1.17188 1.17188 9.61797 1.17188 20C1.17188 30.382 9.61797 38.8281 20 38.8281C30.382 38.8281 38.8281 30.382 38.8281 20C38.8281 9.61797 30.382 1.17188 20 1.17188ZM20 37.8906C10.1352 37.8906 2.10938 29.8648 2.10938 20C2.10938 10.1352 10.1352 2.10938 20 2.10938C29.8648 2.10938 37.8906 10.1352 37.8906 20C37.8906 29.8648 29.8648 37.8906 20 37.8906Z" fill="#132573"/>
</svg>
