<svg width="40" height="40" viewBox="0 0 40 40" fill="none" xmlns="http://www.w3.org/2000/svg">
<g clip-path="url(#clip0_47_693)">
<path d="M7.33747 18.3428L8.67878 18.961C8.79445 19.0148 8.9277 19.0148 9.04337 18.961L10.3837 18.3401C11.8518 17.6603 13.1265 16.6234 14.0917 15.3247C14.1986 15.2019 14.2277 15.0298 14.1671 14.8789C14.1066 14.7281 13.9663 14.6236 13.8043 14.609C13.6423 14.5945 13.4857 14.6719 13.3991 14.8096C12.5208 15.9936 11.3601 16.9393 10.0225 17.5592L8.8604 18.0952L7.70205 17.5585C4.59531 16.112 2.60566 12.9985 2.59822 9.5715V3.17844H5.63529C6.93906 3.17911 8.15423 2.51725 8.8604 1.42181C9.56724 2.51725 10.7821 3.17911 12.0855 3.17844H15.1229V9.56981C15.1216 10.9453 14.7993 12.3015 14.1817 13.5308C14.0738 13.7443 14.1597 14.0047 14.3731 14.1126C14.5865 14.2204 14.8469 14.1349 14.9548 13.9211C15.6329 12.5707 15.987 11.0809 15.9887 9.56981V2.74554C15.9887 2.50643 15.7949 2.31264 15.5558 2.31264H12.0855C10.8115 2.31331 9.67919 1.50129 9.27098 0.294237C9.21145 0.118371 9.04641 0 8.8604 0C8.67506 0.000338203 8.51036 0.118709 8.45117 0.294237C8.04195 1.50095 6.90964 2.31297 5.63529 2.31264H2.16532C1.92621 2.31264 1.73242 2.50643 1.73242 2.74554V9.56981C1.73952 13.334 3.92466 16.7543 7.33747 18.3428Z" fill="#132573"/>
<path d="M3.63603 5.14883C3.39725 5.14883 3.20312 5.34262 3.20312 5.58173V9.56441C3.20854 12.7567 5.06054 15.6575 7.95387 17.0059L8.67695 17.34C8.79228 17.3945 8.92587 17.3945 9.04153 17.34L9.76427 17.0059C12.6576 15.6585 14.5099 12.7587 14.5167 9.56712V4.21369C14.5167 3.97458 14.3229 3.78079 14.0838 3.78079H12.0837C11.0018 3.78113 9.95705 3.38645 9.14536 2.67081C8.98167 2.5264 8.7358 2.5264 8.57211 2.67081C7.76109 3.38611 6.71672 3.78079 5.63515 3.78079H3.63603C3.39725 3.78079 3.20312 3.97458 3.20312 4.21369C3.20312 4.4528 3.39725 4.64659 3.63603 4.64659H5.63515C6.80093 4.64693 7.93459 4.26307 8.86025 3.55487C9.78626 4.26341 10.9196 4.64727 12.0854 4.64659H13.6526V9.56712C13.6468 12.4219 11.9897 15.0152 9.40138 16.2199L8.86025 16.4709L8.31913 16.2199C5.73153 15.0149 4.07468 12.4216 4.06893 9.56712V5.58443C4.0696 5.46911 4.02462 5.35817 3.94311 5.27667C3.86195 5.19482 3.75135 5.14883 3.63603 5.14883Z" fill="#132573"/>
<path d="M8.75036 5.75782C6.56253 5.75917 4.79 7.53373 4.79102 9.72123C4.79203 11.9091 6.56591 13.6819 8.75375 13.6816C10.9416 13.6809 12.7148 11.9074 12.7148 9.71954C12.7144 9.57512 12.7063 9.43037 12.6904 9.28663C12.6644 9.04922 12.4503 8.87775 12.2126 8.90413C11.9751 8.93051 11.8037 9.14425 11.83 9.38201C11.8429 9.49531 11.8493 9.60928 11.849 9.72326C11.849 11.1975 10.8097 12.4671 9.3642 12.7583C7.91906 13.0495 6.46918 12.2811 5.89829 10.9218C5.32741 9.56261 5.79447 7.98929 7.01403 7.16136C8.23393 6.33344 9.86846 6.48056 10.921 7.51276C11.0921 7.67611 11.363 7.67138 11.5287 7.50227C11.6944 7.33351 11.6934 7.06261 11.527 6.89452C10.7877 6.16434 9.78966 5.75579 8.75036 5.75782Z" fill="#132573"/>
<path d="M6.95789 9.43062C6.78879 9.26186 6.51451 9.26186 6.34541 9.4313C6.17631 9.6004 6.17664 9.87469 6.34575 10.0438L8.1734 11.8714C8.3425 12.0405 8.61644 12.0405 8.78555 11.8714L13.1484 7.50523C13.2897 7.33376 13.2782 7.08315 13.122 6.92521C12.9657 6.76727 12.7151 6.75341 12.5423 6.89308L8.48184 10.9529L6.95789 9.43062Z" fill="#132573"/>
<path d="M38.1042 17.3766C38.3064 17.2832 38.4048 17.0519 38.3318 16.8415L33.441 2.73947C33.3913 2.59235 33.2665 2.48311 33.114 2.45335C32.9615 2.42359 32.8045 2.4777 32.7031 2.5954C32.6016 2.71309 32.5712 2.8761 32.6229 3.02255L37.3899 16.755L22.6307 23.5742C22.5532 23.6097 22.4883 23.6675 22.4437 23.7402L21.4291 25.393C21.1791 25.8029 20.7756 26.0958 20.3086 26.2061L20.2886 26.2111L16.9726 27.173C16.8034 27.2224 16.6235 27.1432 16.5451 26.9853C16.4669 26.8277 16.5133 26.6362 16.655 26.5317L18.4644 25.1982C18.4718 25.1935 18.4789 25.1881 18.4853 25.1816L21.1128 22.9887C21.1189 22.9843 21.1233 22.9782 21.1294 22.9732C21.1355 22.9681 21.1511 22.9515 21.1605 22.9404C21.17 22.9299 21.1784 22.9187 21.1866 22.9072C21.1943 22.8961 21.2021 22.8849 21.2089 22.8727C21.216 22.8605 21.2228 22.8477 21.2288 22.8345C21.2349 22.8217 21.2393 22.8105 21.2437 22.7973C21.2481 22.7845 21.2522 22.7706 21.2559 22.7567C21.2593 22.7429 21.261 22.73 21.2627 22.7161C21.265 22.7019 21.2664 22.6877 21.2671 22.6735C21.2671 22.6607 21.2671 22.6468 21.2671 22.6329C21.266 22.6174 21.2644 22.6022 21.2616 22.5869C21.2616 22.5792 21.2616 22.5724 21.2616 22.5653C21.26 22.5602 21.2579 22.5551 21.2566 22.5497C21.2522 22.5342 21.2471 22.5193 21.242 22.5048C21.2366 22.4899 21.2322 22.4787 21.2265 22.4665L21.2065 22.432C21.1977 22.4182 21.1889 22.4053 21.1795 22.3921L21.171 22.3793L21.1561 22.3644C21.145 22.3526 21.1331 22.3414 21.1206 22.3306L21.0912 22.3066C21.079 22.2978 21.0665 22.29 21.0533 22.2832C21.0418 22.2761 21.0296 22.27 21.0178 22.264C21.0046 22.2579 20.9914 22.2528 20.9779 22.2484L20.9397 22.2372C20.9258 22.2339 20.9116 22.2311 20.8974 22.2295C20.8835 22.2284 20.8697 22.2284 20.8558 22.2295H20.8152C20.7997 22.2301 20.7844 22.2322 20.7692 22.2345H20.7466L19.4617 22.5125C19.4083 22.5247 19.3518 22.5135 19.3068 22.4821C19.2608 22.4513 19.2294 22.4026 19.2203 22.3482C19.2057 22.246 19.2717 22.15 19.3718 22.1263L22.4886 21.412C22.5201 21.4053 22.5505 21.3944 22.5796 21.3802L33.9805 15.8814C34.182 15.784 34.2764 15.5489 34.1976 15.3392L33.229 12.7418C33.1451 12.5179 32.8958 12.4043 32.6716 12.4878C32.4477 12.5714 32.3341 12.821 32.4176 13.0449L33.2489 15.2682L30.6999 16.4979C30.8808 15.6937 31.1101 14.9009 31.3858 14.1237C31.7321 13.1592 32.0713 12.1456 32.397 11.1083L32.4531 10.9264C32.5049 10.76 32.4521 10.579 32.3189 10.4667C29.6609 8.21566 30.1821 2.99211 30.1892 2.9265C30.2149 2.6884 30.0431 2.47466 29.805 2.44895C29.5672 2.42291 29.3535 2.59506 29.3275 2.83281C29.3034 3.06043 28.7725 8.31002 31.544 10.9341C31.2305 11.9298 30.9035 12.9049 30.571 13.8312C30.2081 14.8563 29.9213 15.9067 29.713 16.9741L22.2472 20.575L19.178 21.2778C18.7674 21.3721 18.4512 21.6998 18.3714 22.1131C18.2915 22.5267 18.463 22.9485 18.809 23.1886C18.9537 23.289 19.1212 23.3516 19.2963 23.3706L17.9364 24.5073L16.1372 25.833C15.7077 26.1479 15.5298 26.7039 15.6968 27.2098C15.8639 27.7155 16.3377 28.0564 16.8704 28.0537C16.9878 28.0537 17.1041 28.0374 17.2167 28.0053L20.524 27.0458C21.2099 26.8801 21.8018 26.4482 22.169 25.8459L23.1147 24.3047L29.2618 21.4624C29.2365 24.3997 29.7932 27.313 30.8998 30.0338C31.0452 30.3913 31.196 30.7549 31.3492 31.1229C32.3682 33.5799 33.5276 36.3653 34.0133 39.6321C34.0447 39.8441 34.2267 40.0014 34.4411 40.0017C34.4621 40.0017 34.4834 40 34.5043 39.9973C34.618 39.9807 34.7205 39.9195 34.7888 39.8272C34.8574 39.7349 34.8865 39.6192 34.8696 39.5056C34.3708 36.134 33.1924 33.2945 32.1528 30.7887C32.0013 30.4224 31.8515 30.0606 31.706 29.7038C30.5913 26.9616 30.0576 24.0179 30.1388 21.0589L38.1042 17.3766Z" fill="#132573"/>
<path d="M15.4398 39.565C15.4371 39.8041 15.6285 40.0003 15.8676 40.003H15.8727C16.1097 40.003 16.3029 39.8123 16.3056 39.5752C16.3231 37.9961 16.4628 36.4204 16.7229 34.8627C18.5472 36.0568 20.711 36.6808 23.0632 36.6808H24.4235C24.6626 36.6808 24.8564 36.487 24.8564 36.2479C24.8564 36.0088 24.6626 35.815 24.4235 35.815H23.0632C17.1162 35.815 13.5577 31.5665 12.6736 27.3555C11.8599 23.4956 12.9482 18.0915 18.697 15.5485C18.7947 15.5052 18.8928 15.4619 18.9933 15.422L19.0105 15.4143L21.175 14.4037C21.3573 14.3188 21.4571 14.1196 21.4158 13.9228C21.3742 13.7259 21.2027 13.5832 21.0019 13.5788C20.9809 13.5788 18.8874 13.4868 18.3757 11.1823C18.232 10.5079 18.5002 9.81259 19.0589 9.40912C19.5888 9.02965 20.1381 8.67758 20.7039 8.3546H24.3785C26.5061 8.36204 28.2881 6.74475 28.4866 4.62624L28.652 2.92339C28.676 2.68529 28.5025 2.47324 28.2644 2.44923C28.0267 2.42555 27.8146 2.59871 27.7906 2.83681L27.6252 4.53966C27.4666 6.21276 26.059 7.48914 24.3785 7.48339H21.6329C22.9837 6.04535 23.8346 4.52952 24.162 2.96567C24.1996 2.81212 24.1505 2.65046 24.0342 2.54359C23.9175 2.43672 23.7521 2.40188 23.6026 2.45261C23.4528 2.50334 23.3426 2.63186 23.3152 2.78743C22.9688 4.43245 21.963 6.04366 20.3231 7.5676C19.7109 7.91527 19.117 8.29508 18.5448 8.70532C17.7081 9.31104 17.309 10.3544 17.5275 11.3639C17.8684 12.9034 18.8184 13.7293 19.7048 14.1267L18.6459 14.6202C18.5431 14.6628 18.4417 14.7067 18.3402 14.751C15.7066 15.9138 13.7169 17.8196 12.587 20.26C11.568 22.4638 11.2944 25.0446 11.8193 27.5328C12.3472 30.0358 13.6547 32.3079 15.4996 33.9312C15.6457 34.0604 15.7952 34.1846 15.9481 34.3036C15.9423 34.3175 15.9376 34.332 15.9342 34.3469C15.9187 34.4402 15.4746 36.5997 15.4398 39.565Z" fill="#132573"/>
<path d="M9.13603 19.5C8.89692 19.5 8.70313 19.6938 8.70313 19.9329V20.7338C8.70043 21.9286 9.30514 23.043 10.3082 23.6924C10.5088 23.8226 10.777 23.7654 10.9072 23.5649C11.0378 23.3643 10.9806 23.0961 10.78 22.9659C10.0228 22.4762 9.56623 21.6354 9.56792 20.7338V19.9329C9.56792 19.6941 9.37447 19.5003 9.13603 19.5Z" fill="#132573"/>
</g>
<defs>
<clipPath id="clip0_47_693">
<rect width="40" height="40" fill="white"/>
</clipPath>
</defs>
</svg>
