<svg width="40" height="40" viewBox="0 0 40 40" fill="none" xmlns="http://www.w3.org/2000/svg">
<path d="M12.2929 13.0134L15.6865 17.7794C16.2075 18.5112 16.0366 19.5268 15.3047 20.0478C15.0866 20.2031 14.8335 20.3022 14.5679 20.3362L9.46982 20.9774C9.15888 20.7385 8.80021 20.4206 8.4456 20.0066C8.19701 19.7165 7.99755 19.4341 7.83834 19.1787C7.95795 18.7289 8.45271 17.4937 9.29482 17.1833C9.53771 17.0938 9.66209 16.8242 9.57256 16.5813C9.48302 16.3384 9.21349 16.2141 8.9706 16.3036C8.0892 16.6285 7.5413 17.4761 7.23818 18.1239C7.02951 17.611 6.88318 17.0749 6.80248 16.527C6.76513 16.2709 6.52709 16.0934 6.27091 16.1309C6.01474 16.1683 5.83732 16.4063 5.87474 16.6624C6.07716 18.0292 6.62904 19.3206 7.47693 20.4116C7.68341 20.6727 7.90521 20.9214 8.14123 21.1563C6.85216 21.3875 5.48318 21.8248 4.81974 22.6541C4.65521 22.8539 4.68388 23.1494 4.88373 23.3139C5.08357 23.4784 5.37904 23.4498 5.54357 23.2499C5.54631 23.2466 5.54904 23.2431 5.55177 23.2397C6.38716 22.1956 9.22334 21.8905 10.6464 21.8426L14.0926 22.2835C15.0718 22.4088 15.764 23.3041 15.6388 24.2834C15.5978 24.6038 15.4708 24.9071 15.2711 25.1611L11.1836 30.3627C10.7011 30.8897 9.07927 32.6859 8.12029 34.0559C7.96849 34.2656 8.01545 34.5587 8.22513 34.7106C8.43482 34.8624 8.72787 34.8154 8.87974 34.6057C8.88263 34.6016 8.88552 34.5976 8.88834 34.5934C9.24326 34.0865 9.70177 33.5088 10.1576 32.9613C10.1569 33.8213 10.2743 34.962 10.7716 35.9566C10.8856 36.1891 11.1665 36.2851 11.3989 36.1711C11.6313 36.0571 11.7273 35.7763 11.6133 35.5438C11.6122 35.5416 11.6111 35.5395 11.6101 35.5373C10.8223 33.9618 11.1751 31.8179 11.1788 31.7964C11.18 31.7896 11.1794 31.783 11.1802 31.7761C11.2356 31.755 11.2865 31.7236 11.3301 31.6836L16.981 26.5057C17.5299 26.0027 18.3826 26.0399 18.8856 26.5888C19.0819 26.803 19.2036 27.0748 19.2329 27.3638L19.7653 32.4973C19.7848 32.7499 19.8151 33.0491 19.862 33.3751C19.5683 33.5227 18.6205 34.114 18.1658 35.7815C18.0977 36.0313 18.245 36.289 18.4947 36.3571C18.7444 36.4252 19.0022 36.278 19.0703 36.0282C19.3344 35.0599 19.773 34.5813 20.0477 34.3643C20.2051 35.1205 20.5011 35.8411 20.9205 36.4897C21.0723 36.6994 21.3654 36.7463 21.5751 36.5945C21.7801 36.4461 21.8303 36.1618 21.6885 35.9522C20.9526 34.9009 20.747 33.1406 20.6895 32.2574L20.9487 29.6977C21.0918 28.2853 22.3528 27.2563 23.7652 27.3994C24.3056 27.4541 24.8147 27.6786 25.2196 28.0406C25.5279 28.3004 25.8477 28.5891 26.1723 28.909C26.6358 29.3656 27.0376 29.8153 27.3841 30.2403C27.9732 31.1157 28.489 32.0383 28.9264 32.9985C28.9129 33.0135 28.9004 33.0293 28.889 33.0459C28.84 33.1231 27.6904 34.9593 28.0321 37.0091C28.0775 37.264 28.3209 37.4338 28.5758 37.3884C28.8266 37.3437 28.9958 37.1068 28.9568 36.855C28.7753 35.7658 29.1245 34.7137 29.3983 34.099C29.6433 34.7139 29.8814 35.3863 30.0996 36.118C30.1736 36.3661 30.4347 36.5072 30.6828 36.4332C30.9309 36.3592 31.072 36.0981 30.998 35.85C30.4172 33.8494 29.5643 31.9381 28.463 30.1697C29.0543 30.0375 29.6599 29.9795 30.2656 29.9969C30.3434 30.6587 30.6381 32.1752 31.7299 32.8303C31.9535 32.9609 32.2405 32.8854 32.3711 32.6619C32.4994 32.4421 32.4289 32.1601 32.2122 32.0265C31.5973 31.6575 31.3246 30.7235 31.2239 30.0909C31.9327 30.2098 32.6171 30.4449 33.2494 30.7865C33.4771 30.9096 33.7615 30.8248 33.8847 30.597C34.0078 30.3693 33.9229 30.0849 33.6952 29.9617C31.2082 28.6173 28.801 29.088 27.9017 29.3441L24.9389 25.2109C24.3685 24.4052 24.5593 23.2896 25.3651 22.7192C25.6169 22.5409 25.9107 22.4309 26.2178 22.3998L31.8933 21.8249C32.5015 22.2831 33.7543 23.3199 34.0739 24.0124C34.18 24.2486 34.4574 24.354 34.6936 24.2479C34.9297 24.1418 35.0351 23.8644 34.929 23.6282C34.9277 23.6253 34.9264 23.6224 34.9251 23.6195C34.563 22.8351 33.5038 21.9048 32.8414 21.3742C33.4361 21.0338 34.3118 20.6447 34.9979 20.726C35.255 20.7563 35.4879 20.5723 35.5182 20.3152C35.5484 20.0581 35.3645 19.8252 35.1074 19.7949C33.8343 19.6447 32.3726 20.5396 31.9015 20.8564L27.0311 20.3632C26.1374 20.2727 25.4862 19.4748 25.5767 18.5811C25.6166 18.187 25.799 17.8209 26.0896 17.5517L30.6329 13.614C32.0738 12.587 34.7232 10.5194 35.336 8.80337C35.4197 8.55837 35.289 8.29196 35.044 8.20829C34.8037 8.12626 34.5419 8.25032 34.4532 8.48813C34.1269 9.40149 32.9836 10.5443 31.8029 11.5302C31.6804 10.8837 31.5914 9.65032 32.1731 8.09915C32.264 7.85673 32.1411 7.58657 31.8987 7.49563C31.6563 7.40477 31.3861 7.52758 31.2952 7.77001C31.1217 8.22954 30.9889 8.70344 30.8982 9.18618C30.6475 9.13305 30.1242 8.91923 29.8961 8.05227C29.8301 7.80188 29.5738 7.65235 29.3234 7.71829C29.073 7.78423 28.9235 8.04055 28.9894 8.29094C29.324 9.56227 30.2074 10.0206 30.7844 10.1195C30.7349 10.8128 30.806 11.5095 30.9947 12.1785L24.3369 16.5048C23.3476 17.0882 22.0726 16.7591 21.4891 15.7697C21.3306 15.5009 21.2346 15.1998 21.2083 14.8888L20.9038 11.0224C20.9041 11.0109 20.9527 9.84993 22.4644 7.90626C22.6233 7.70188 22.5865 7.40743 22.3822 7.24844C22.1778 7.08946 21.8833 7.12633 21.7243 7.33071C21.3617 7.79204 21.0335 8.27946 20.7425 8.78907C20.7391 6.96837 20.8963 5.15094 21.2121 3.35782C21.2629 3.10399 21.0984 2.85696 20.8446 2.8061C20.5908 2.75524 20.3437 2.91977 20.2929 3.1736C20.2919 3.17837 20.291 3.18313 20.2902 3.18798C20.0851 4.32501 19.9457 5.47298 19.8729 6.6261C19.0862 5.55274 18.0686 5.49344 18.0045 5.49087C17.7492 5.48079 17.5335 5.67852 17.5213 5.93376C17.5089 6.1904 17.704 6.40977 17.9604 6.42727C18.02 6.43141 19.3222 6.5511 19.7296 8.74923L19.1747 15.2969C19.1149 16.003 18.494 16.5269 17.7879 16.467C17.4977 16.4424 17.2245 16.3198 17.0133 16.1195C16.241 15.4795 15.4403 14.773 14.6253 13.995C13.9371 13.3381 13.3009 12.6896 12.7143 12.0584C12.1234 11.312 10.9156 9.51454 11.0266 7.40602C11.0402 7.14751 10.8417 6.92688 10.5831 6.91321C10.3246 6.89962 10.104 7.09813 10.0903 7.35673C10.0495 8.31165 10.2077 9.26462 10.5548 10.1552C9.85818 9.84907 9.10693 9.6868 8.34615 9.67813C8.08724 9.67813 7.8774 9.88798 7.8774 10.1469C7.8774 10.4058 8.08724 10.6156 8.34615 10.6156C9.89177 10.6156 11.1247 11.5328 11.1436 11.5469C11.2985 11.7638 11.4628 11.9852 11.637 12.2098C11.8575 12.4939 12.0769 12.7616 12.2929 13.0134ZM26.1232 21.467C24.6258 21.6186 23.5349 22.9555 23.6866 24.4528C23.734 24.9209 23.9018 25.3687 24.1736 25.7526L24.8561 26.7169C23.0925 25.9848 21.0669 26.7947 20.2942 28.5411L20.1654 27.2694C20.0401 26.0141 18.9208 25.0983 17.6656 25.2238C17.1739 25.2729 16.7113 25.4802 16.3474 25.8145L14.9273 27.1158L16.0082 25.7402C16.9381 24.5569 16.7326 22.8438 15.5493 21.9139C15.1622 21.6097 14.6998 21.416 14.2115 21.3535L14.1074 21.3402L14.6869 21.266C16.0915 21.0863 17.0845 19.8018 16.9047 18.3971C16.8511 17.9784 16.695 17.5795 16.4501 17.2356L15.664 16.1316L16.3681 16.7995C17.2579 17.6435 18.6634 17.6063 19.5074 16.7165C19.8542 16.3509 20.0663 15.8781 20.1089 15.376L20.2087 14.1973L20.274 14.9679C20.4147 16.6281 21.8745 17.8601 23.5347 17.7195C23.9911 17.6808 24.4328 17.5388 24.8261 17.304L25.3317 16.983C24.3587 18.0121 24.4043 19.6351 25.4334 20.608C25.8447 20.9969 26.3733 21.2388 26.9365 21.2959L27.3744 21.3402L26.1232 21.467Z" fill="#132573"/>
<path d="M20.4717 18.8203C18.9891 18.8203 17.7871 20.0223 17.7871 21.5049C17.7871 22.9876 18.9891 24.1895 20.4717 24.1895C21.9544 24.1895 23.1563 22.9876 23.1563 21.5049C23.1547 20.023 21.9537 18.822 20.4717 18.8203ZM20.4717 23.252C19.5068 23.252 18.7246 22.4698 18.7246 21.5049C18.7246 20.54 19.5068 19.7578 20.4717 19.7578C21.4366 19.7578 22.2188 20.54 22.2188 21.5049C22.2177 22.4694 21.4362 23.2509 20.4717 23.252Z" fill="#132573"/>
</svg>
