<svg width="40" height="40" viewBox="0 0 40 40" fill="none" xmlns="http://www.w3.org/2000/svg">
<g clip-path="url(#clip0_47_6010)">
<rect width="40" height="40" fill="transparent"/>
<path d="M28.125 21.25V16.25C28.125 15.9185 27.9933 15.6005 27.7589 15.3661C27.5245 15.1317 27.2065 15 26.875 15H23.75V13.125C23.75 12.7935 23.6183 12.4755 23.3839 12.2411C23.1495 12.0067 22.8315 11.875 22.5 11.875H13.75C13.4185 11.875 13.1005 12.0067 12.8661 12.2411C12.6317 12.4755 12.5 12.7935 12.5 13.125V18.125C12.5 18.4565 12.6317 18.7745 12.8661 19.0089C13.1005 19.2433 13.4185 19.375 13.75 19.375H14.2L13.75 21.1C13.7189 21.2265 13.728 21.3595 13.7762 21.4806C13.8244 21.6016 13.9092 21.7045 14.0188 21.775C14.1247 21.8435 14.2489 21.8784 14.375 21.875C14.516 21.8742 14.6525 21.8257 14.7625 21.7375L17.7188 19.375H18.75V21.25C18.75 21.5815 18.8817 21.8995 19.1161 22.1339C19.3505 22.3683 19.6685 22.5 20 22.5H22.9063L25.8625 24.8625C25.9725 24.9507 26.109 24.9992 26.25 25C26.3698 24.9997 26.4869 24.965 26.5875 24.9C26.7005 24.8322 26.7891 24.7304 26.8407 24.6091C26.8923 24.4879 26.9043 24.3535 26.875 24.225L26.425 22.5H26.875C27.2065 22.5 27.5245 22.3683 27.7589 22.1339C27.9933 21.8995 28.125 21.5815 28.125 21.25ZM18.75 16.25V18.125H17.5C17.359 18.1258 17.2225 18.1743 17.1125 18.2625L15.4313 19.6063L15.625 18.9C15.6484 18.8078 15.6504 18.7114 15.6309 18.6182C15.6114 18.5251 15.5709 18.4376 15.5125 18.3625C15.4517 18.2855 15.3736 18.2238 15.2846 18.1825C15.1956 18.1413 15.0981 18.1216 15 18.125H13.75V13.125H22.5V15H20C19.6685 15 19.3505 15.1317 19.1161 15.3661C18.8817 15.6005 18.75 15.9185 18.75 16.25ZM25.625 21.25C25.5301 21.2495 25.4363 21.2706 25.3507 21.3118C25.2652 21.3529 25.1901 21.413 25.1312 21.4875C25.0728 21.5626 25.0323 21.6501 25.0128 21.7432C24.9933 21.8364 24.9953 21.9328 25.0187 22.025L25.1938 22.7312L23.5125 21.3875C23.4025 21.2993 23.266 21.2508 23.125 21.25H20V16.25H26.875V21.25H25.625Z" fill="#A81874"/>
<path d="M5.625 33.125H4.375V39.375H5.625V33.125Z" fill="#A81874"/>
<path d="M35.625 33.125H34.375V39.375H35.625V33.125Z" fill="#A81874"/>
<path d="M38.125 39.3726V33.1226C38.125 32.2938 37.7958 31.4989 37.2097 30.9129C36.6237 30.3268 35.8288 29.9976 35 29.9976H34.4688C35.0683 29.5787 35.5186 28.9795 35.7542 28.2872C35.9898 27.5948 35.9985 26.8453 35.7789 26.1477C35.5594 25.4501 35.123 24.8407 34.5333 24.4081C33.9437 23.9754 33.2314 23.7422 32.5 23.7422C31.7686 23.7422 31.0563 23.9754 30.4667 24.4081C29.877 24.8407 29.4406 25.4501 29.2211 26.1477C29.0015 26.8453 29.0102 27.5948 29.2458 28.2872C29.4814 28.9795 29.9317 29.5787 30.5312 29.9976H28.8812C28.265 29.998 27.6627 30.1807 27.15 30.5226L24.1438 32.4976L20 33.1226L15.8563 32.4976L12.85 30.4976C12.3345 30.1645 11.7324 29.9906 11.1188 29.9976H9.46875C10.0683 29.5787 10.5186 28.9795 10.7542 28.2872C10.9898 27.5948 10.9985 26.8453 10.7789 26.1477C10.5594 25.4501 10.123 24.8407 9.53335 24.4081C8.94366 23.9754 8.23136 23.7422 7.5 23.7422C6.76864 23.7422 6.05634 23.9754 5.46665 24.4081C4.87697 24.8407 4.44063 25.4501 4.22106 26.1477C4.0015 26.8453 4.01016 27.5948 4.24579 28.2872C4.48141 28.9795 4.93172 29.5787 5.53125 29.9976H5C4.1712 29.9976 3.37634 30.3268 2.79029 30.9129C2.20424 31.4989 1.875 32.2938 1.875 33.1226V39.3726H3.125V33.1226C3.125 32.6253 3.32254 32.1484 3.67417 31.7967C4.02581 31.4451 4.50272 31.2476 5 31.2476H11.1188C11.4878 31.2474 11.8487 31.3561 12.1563 31.5601L15.2813 33.6413C15.3565 33.6963 15.4449 33.7308 15.5375 33.7413L19.375 34.2913V34.9976H15.775L12.1563 33.1913C12.0611 33.1434 11.9553 33.1205 11.8488 33.125C11.7424 33.1295 11.6389 33.1611 11.5481 33.2168C11.4573 33.2725 11.3822 33.3505 11.33 33.4434C11.2779 33.5363 11.2503 33.641 11.25 33.7476V39.3726H12.5V34.7601L15.3437 36.1788C15.4308 36.2234 15.5272 36.247 15.625 36.2476H24.375C24.4728 36.247 24.5692 36.2234 24.6563 36.1788L27.5 34.7601V39.3726H28.75V33.7476C28.7497 33.641 28.7221 33.5363 28.67 33.4434C28.6178 33.3505 28.5427 33.2725 28.4519 33.2168C28.3611 33.1611 28.2576 33.1295 28.1512 33.125C28.0447 33.1205 27.9389 33.1434 27.8437 33.1913L24.225 34.9976H20.625V34.2913L24.4625 33.7476C24.5551 33.737 24.6435 33.7026 24.7187 33.6476L27.8437 31.5663C28.1513 31.3623 28.5122 31.2536 28.8812 31.2538H35C35.4973 31.2538 35.9742 31.4514 36.3258 31.803C36.6775 32.1546 36.875 32.6315 36.875 33.1288V39.3726H38.125ZM7.5 29.3726C7.06735 29.3726 6.64442 29.2443 6.28469 29.0039C5.92496 28.7635 5.64458 28.4219 5.47901 28.0222C5.31345 27.6225 5.27013 27.1826 5.35453 26.7583C5.43894 26.334 5.64728 25.9442 5.9532 25.6383C6.25913 25.3323 6.64891 25.124 7.07324 25.0396C7.49757 24.9552 7.93741 24.9985 8.33712 25.1641C8.73683 25.3296 9.07847 25.61 9.31884 25.9698C9.55921 26.3295 9.6875 26.7524 9.6875 27.1851C9.6875 27.7652 9.45703 28.3216 9.0468 28.7319C8.63656 29.1421 8.08016 29.3726 7.5 29.3726ZM32.5 29.3726C32.0674 29.3726 31.6444 29.2443 31.2847 29.0039C30.925 28.7635 30.6446 28.4219 30.479 28.0222C30.3134 27.6225 30.2701 27.1826 30.3545 26.7583C30.4389 26.334 30.6473 25.9442 30.9532 25.6383C31.2591 25.3323 31.6489 25.124 32.0732 25.0396C32.4976 24.9552 32.9374 24.9985 33.3371 25.1641C33.7368 25.3296 34.0785 25.61 34.3188 25.9698C34.5592 26.3295 34.6875 26.7524 34.6875 27.1851C34.6875 27.7652 34.457 28.3216 34.0468 28.7319C33.6366 29.1421 33.0802 29.3726 32.5 29.3726Z" fill="#A81874"/>
<path d="M20.625 27.5H19.375V30H20.625V27.5Z" fill="#A81874"/>
<path d="M23.262 28.386L21.7578 30.3828L22.7562 31.1349L24.2604 29.1381L23.262 28.386Z" fill="#A81874"/>
<path d="M16.7483 28.3805L15.75 29.1328L17.2545 31.1294L18.2528 30.3771L16.7483 28.3805Z" fill="#A81874"/>
<path d="M1.79372 17.3688L3.26247 17.8562C3.16921 18.567 3.12327 19.2832 3.12497 20C3.12309 20.6519 3.16276 21.3032 3.24372 21.95L4.49372 21.8C4.41936 21.2028 4.37971 20.6018 4.37497 20C4.37554 19.3356 4.41729 18.6718 4.49997 18.0125C4.53777 17.7237 4.47353 17.4308 4.31833 17.1843C4.16314 16.9378 3.92675 16.7532 3.64997 16.6625L2.18122 16.1812L3.34372 12.6125L4.81247 13.125C5.09429 13.2133 5.39829 13.199 5.67057 13.0846C5.94285 12.9702 6.16583 12.7631 6.29997 12.5C6.93564 11.3333 7.71919 10.2536 8.63122 9.2875C8.83559 9.07711 8.95946 8.80156 8.98117 8.50907C9.00288 8.21657 8.92104 7.92575 8.74997 7.6875L7.84372 6.4375L10.875 4.2375L11.7875 5.4875C11.9609 5.72179 12.2107 5.88813 12.4937 5.95774C12.7767 6.02736 13.0752 5.99588 13.3375 5.86875C14.5285 5.29253 15.7889 4.87239 17.0875 4.61875C17.3798 4.56682 17.6441 4.41253 17.8331 4.18349C18.022 3.95446 18.1233 3.66564 18.1187 3.36875V1.875H21.8687V3.41875C21.8641 3.71564 21.9654 4.00446 22.1544 4.23349C22.3433 4.46253 22.6076 4.61682 22.9 4.66875C24.2092 4.92 25.4802 5.34018 26.6812 5.91875C26.9442 6.04293 27.2422 6.07155 27.524 5.99968C27.8057 5.92781 28.0536 5.75995 28.225 5.525L29.1312 4.275L32.1625 6.475L31.2625 7.725C31.0873 7.96164 31.0013 8.25251 31.0196 8.54636C31.0379 8.8402 31.1593 9.11816 31.3625 9.33125C32.2758 10.2831 33.0635 11.348 33.7062 12.5C33.8402 12.7618 34.0621 12.9679 34.333 13.0822C34.604 13.1965 34.9065 13.2117 35.1875 13.125L36.6562 12.65L37.8187 16.2125L36.35 16.6937C36.072 16.7847 35.8347 16.9702 35.6794 17.218C35.5241 17.4658 35.4606 17.7602 35.5 18.05C35.5816 18.6968 35.6233 19.3481 35.625 20C35.6244 20.6015 35.5889 21.2026 35.5187 21.8L36.7687 21.95C36.8455 21.3029 36.881 20.6516 36.875 20C36.8765 19.2811 36.8305 18.5629 36.7375 17.85L38.2062 17.3688C38.521 17.2658 38.7821 17.0421 38.9321 16.7468C39.0821 16.4515 39.1088 16.1087 39.0062 15.7938L37.8437 12.2312C37.7935 12.0727 37.7122 11.9257 37.6044 11.799C37.4967 11.6722 37.3647 11.5683 37.2163 11.4932C37.0679 11.4181 36.9059 11.3734 36.74 11.3617C36.5741 11.35 36.4075 11.3715 36.25 11.425L34.8 11.875C34.1188 10.6144 33.2786 9.44655 32.3 8.4L33.2062 7.15C33.3851 6.88644 33.4567 6.56452 33.4062 6.25C33.3809 6.08732 33.3237 5.93125 33.2379 5.79075C33.1521 5.65024 33.0394 5.52807 32.9062 5.43125L29.875 3.225C29.7421 3.12781 29.5914 3.05782 29.4315 3.01903C29.2715 2.98025 29.1054 2.97344 28.9429 2.99899C28.7803 3.02454 28.6243 3.08195 28.4839 3.16793C28.3436 3.2539 28.2216 3.36675 28.125 3.5L27.2125 4.75C25.9143 4.12869 24.54 3.68109 23.125 3.41875V1.875C23.125 1.54348 22.9933 1.22554 22.7589 0.991117C22.5244 0.756696 22.2065 0.625 21.875 0.625H18.125C17.7935 0.625 17.4755 0.756696 17.2411 0.991117C17.0067 1.22554 16.875 1.54348 16.875 1.875V3.41875C15.4583 3.68238 14.082 4.12992 12.7812 4.75L11.875 3.50625C11.7794 3.37262 11.6585 3.25913 11.5191 3.17226C11.3797 3.0854 11.2245 3.02686 11.0625 3C10.8991 2.97357 10.7321 2.97985 10.5712 3.01848C10.4102 3.0571 10.2586 3.1273 10.125 3.225L7.09372 5.425C6.96057 5.52182 6.84786 5.64399 6.76205 5.7845C6.67625 5.925 6.61904 6.08107 6.59372 6.24375C6.56815 6.40614 6.57486 6.57199 6.61346 6.73179C6.65207 6.89158 6.72182 7.0422 6.81872 7.175L7.71872 8.425C6.74029 9.47401 5.90013 10.6439 5.21872 11.9062L3.74997 11.425C3.59362 11.3744 3.42883 11.3551 3.26501 11.3682C3.10119 11.3813 2.94157 11.4266 2.79528 11.5015C2.64899 11.5764 2.5189 11.6794 2.41246 11.8046C2.30602 11.9298 2.22532 12.0748 2.17497 12.2312L1.01247 15.7938C0.90909 16.1063 0.933145 16.4469 1.07941 16.7418C1.22568 17.0367 1.48236 17.262 1.79372 17.3688Z" fill="#A81874"/>
<path d="M33.6063 21.9688C33.7028 21.317 33.7508 20.6589 33.75 20C33.75 16.3533 32.3014 12.8559 29.7227 10.2773C27.1441 7.69866 23.6467 6.25 20 6.25C16.3533 6.25 12.8559 7.69866 10.2773 10.2773C7.69867 12.8559 6.25001 16.3533 6.25001 20C6.24919 20.6589 6.29723 21.317 6.39376 21.9688L7.64376 21.7812C7.55028 21.1921 7.50223 20.5966 7.50001 20C7.50001 16.6848 8.81697 13.5054 11.1612 11.1612C13.5054 8.81696 16.6848 7.5 20 7.5C23.3152 7.5 26.4946 8.81696 28.8388 11.1612C31.183 13.5054 32.5 16.6848 32.5 20C32.5019 20.5962 32.4581 21.1917 32.3688 21.7812L33.6063 21.9688Z" fill="#A81874"/>
</g>
<defs>
<clipPath id="clip0_47_6010">
<rect width="40" height="40" fill="#A81874"/>
</clipPath>
</defs>
</svg>
