<svg width="100" height="100" viewBox="0 0 100 100" fill="none" xmlns="http://www.w3.org/2000/svg">
<g clip-path="url(#clip0_47_5466)">
<path d="M99.9799 38.2286C99.9696 38.1137 99.9466 38.0002 99.9115 37.8903C99.8886 37.7921 99.8568 37.6961 99.8166 37.6036C99.7699 37.5131 99.7141 37.4276 99.65 37.3485C99.5857 37.2546 99.5113 37.1679 99.4283 37.0901C99.4015 37.0668 99.39 37.035 99.3617 37.0117L83.3326 24.5629V11.6607C83.3326 8.89918 81.0938 6.6604 78.3323 6.6604H60.2697L53.0375 1.04507C52.1691 0.367818 51.0994 0 49.9981 0C48.8969 0 47.8272 0.367818 46.9588 1.04507L39.7251 6.6604H21.6624C18.901 6.6604 16.6622 8.89899 16.6622 11.6607V24.5631L0.638118 37.0119C0.609797 37.0354 0.598077 37.067 0.571513 37.0903C0.48843 37.1681 0.414093 37.2547 0.349822 37.3487C0.285701 37.4278 0.229872 37.5133 0.183212 37.6038C0.142842 37.6962 0.111066 37.7922 0.0882857 37.8905C0.0535561 37.9989 0.0306355 38.1106 0.0199229 38.2239C0.0199229 38.2589 0 38.289 0 38.3239V94.9981C0.0023097 96.0582 0.345301 97.0895 0.97837 97.9398C0.988331 97.9549 0.990089 97.9732 1.00161 97.9865C1.01333 97.9998 1.03833 98.0148 1.05494 98.0332C1.51691 98.6411 2.11259 99.1346 2.79586 99.4753C3.47913 99.8161 4.23165 99.9951 4.99518 99.9983H94.9997C95.7662 99.996 96.5217 99.8167 97.2075 99.4744C97.8933 99.1322 98.4907 98.6361 98.9533 98.025C98.9666 98.0084 98.9867 98.0033 98.9982 97.9867C99.0099 97.9701 99.0115 97.9551 99.0216 97.94C99.6547 97.0897 99.9976 96.0584 100 94.9983V38.3286C99.9998 38.2936 99.9816 38.2636 99.9799 38.2286ZM48.9972 3.67509C49.2799 3.45047 49.6303 3.3282 49.9914 3.3282C50.3525 3.3282 50.7029 3.45047 50.9856 3.67509L54.8307 6.6602H45.1636L48.9972 3.67509ZM5.41512 96.665L48.9974 62.8115C49.2803 62.5872 49.6306 62.4652 49.9916 62.4652C50.3526 62.4652 50.7029 62.5872 50.9858 62.8115L94.5796 96.665H5.41512ZM96.6664 94.0664L53.0375 60.1813C52.1688 59.5046 51.0992 59.1371 49.9981 59.1371C48.897 59.1371 47.8274 59.5046 46.9588 60.1813L3.32829 94.0664V40.867L30.6414 62.0765C30.8144 62.2107 31.0122 62.3095 31.2234 62.3672C31.4346 62.425 31.6551 62.4406 31.8724 62.4131C32.0896 62.3856 32.2993 62.3156 32.4895 62.2071C32.6797 62.0985 32.8466 61.9536 32.9808 61.7806C33.115 61.6076 33.2138 61.4098 33.2715 61.1986C33.3293 60.9874 33.3448 60.7668 33.3174 60.5496C33.2899 60.3324 33.2199 60.1227 33.1114 59.9325C33.0028 59.7423 32.8579 59.5754 32.6849 59.4412L4.93677 37.8952L16.6624 28.783V41.662C16.6624 42.104 16.838 42.5279 17.1505 42.8405C17.4631 43.1531 17.887 43.3287 18.3291 43.3287C18.7711 43.3287 19.195 43.1531 19.5076 42.8405C19.8201 42.5279 19.9957 42.104 19.9957 41.662V11.6605C19.9957 11.2184 20.1713 10.7945 20.4839 10.4819C20.7965 10.1694 21.2204 9.99377 21.6624 9.99377H78.3319C78.7739 9.99377 79.1979 10.1694 79.5104 10.4819C79.823 10.7945 79.9986 11.2184 79.9986 11.6605V41.662C79.9986 42.104 80.1742 42.5279 80.4868 42.8405C80.7993 43.1531 81.2232 43.3287 81.6653 43.3287C82.1073 43.3287 82.5312 43.1531 82.8438 42.8405C83.1564 42.5279 83.332 42.104 83.332 41.662V28.783L95.0576 37.8952L67.2612 59.4797C67.0858 59.613 66.9385 59.7797 66.8279 59.9702C66.7174 60.1608 66.6457 60.3714 66.617 60.5898C66.5883 60.8082 66.6032 61.0302 66.6608 61.2428C66.7184 61.4555 66.8177 61.6546 66.9527 61.8286C67.0878 62.0027 67.256 62.1482 67.4477 62.2568C67.6394 62.3655 67.8507 62.435 68.0694 62.4615C68.2881 62.4879 68.5099 62.4707 68.7219 62.4109C68.934 62.3511 69.132 62.2499 69.3047 62.113L96.666 40.867V94.0664H96.6664Z" fill="white"/>
<path d="M69.9981 39.9961V33.3291C69.9981 22.2829 61.0434 13.3281 49.9971 13.3281C38.9508 13.3281 29.9961 22.2829 29.9961 33.3291C29.9961 44.3754 38.9508 53.3302 49.9971 53.3302C50.9177 53.3302 51.6638 52.584 51.6638 51.6635C51.6638 50.7429 50.9177 49.9968 49.9971 49.9968C40.792 49.9968 33.3297 42.5345 33.3297 33.3293C33.3297 24.1242 40.792 16.6619 49.9971 16.6619C59.2023 16.6619 66.6646 24.1242 66.6646 33.3293V39.9963C66.6646 41.8374 65.1721 43.3298 63.331 43.3298C61.4899 43.3298 59.9974 41.8374 59.9974 39.9963V33.3293C59.9974 32.4088 59.2513 31.6626 58.3307 31.6626C57.4102 31.6626 56.664 32.4088 56.664 33.3293C56.664 37.0114 53.6791 39.9963 49.9971 39.9963C46.3151 39.9963 43.3302 37.0114 43.3302 33.3293C43.3302 29.6473 46.3151 26.6624 49.9971 26.6624C50.9177 26.6624 51.6638 25.9163 51.6638 24.9957C51.6638 24.0752 50.9177 23.329 49.9971 23.329C45.5213 23.3191 41.5838 26.2843 40.3572 30.5888C39.1305 34.8933 40.9132 39.4886 44.722 41.8395C48.5308 44.1904 53.4377 43.7244 56.7357 40.6983C57.0986 44.2231 60.1623 46.8439 63.7007 46.6566C67.2394 46.4691 70.0093 43.5396 69.9981 39.9961Z" fill="white"/>
</g>
<defs>
<clipPath id="clip0_47_5466">
<rect width="100" height="100" fill="white"/>
</clipPath>
</defs>
</svg>
