<svg width="40" height="40" viewBox="0 0 40 40" fill="none" xmlns="http://www.w3.org/2000/svg">
<g clip-path="url(#clip0_165_566)">
<path d="M14.0587 17.2612C14.0668 15.8548 14.0724 14.499 14.0727 13.4805C13.4966 14.4643 12.7181 15.834 11.9202 17.2612H14.0587Z" fill="#00001B"/>
<path d="M34.0438 14.4249C31.7828 9.06083 26.1924 5.38419 20.3794 5.44208C19.6501 5.44208 18.9256 5.49567 18.2094 5.60224C18.2049 5.65255 18.1993 5.70286 18.1926 5.75325C17.9872 7.28724 16.7689 8.46958 15.2301 8.62856C14.9694 8.65552 14.7052 8.65146 14.445 8.61669L11.5438 8.22825C9.97407 9.35942 8.63313 10.7875 7.60071 12.4291C7.72774 12.8147 7.79743 13.2261 7.79743 13.6537C7.79188 13.8281 7.74517 14.1638 7.71384 14.3358C7.51907 15.1761 7.07485 16.0957 6.39353 17.0691C6.04806 17.5627 5.73079 18.011 5.43931 18.419C5.35415 19.0656 5.30884 19.7247 5.30884 20.3944C5.30884 20.4686 5.31056 20.5425 5.31165 20.6164C5.88188 20.6122 6.47274 20.6063 7.04524 20.5991C7.05032 20.599 7.0554 20.599 7.06048 20.599C7.71079 20.599 8.24196 21.1221 8.25024 21.7742C8.25853 22.4315 7.73243 22.9709 7.07517 22.9792C6.50595 22.9863 5.99454 22.9919 5.53438 22.9961C6.76618 30.0329 12.906 35.3811 20.2956 35.3811C21.8806 35.3811 23.4073 35.1333 24.8411 34.6771C24.5905 34.3443 24.5216 33.8899 24.7011 33.4815L28.6644 24.4653H24.6094C23.9521 24.4653 23.4193 23.9325 23.4193 23.2752C23.4193 22.6179 23.9521 22.0851 24.6094 22.0851H30.4876C30.8895 22.0851 31.2644 22.2881 31.4841 22.6247C31.7039 22.9614 31.7388 23.3862 31.577 23.7542L27.208 33.6929C27.3153 33.637 28.213 33.0605 28.213 33.0605C30.9656 31.3701 33.0237 28.8256 34.2182 25.812C35.6827 22.1172 35.6208 18.0731 34.0438 14.4249ZM16.4232 19.6412C16.4166 20.5299 16.4106 21.2467 16.4074 21.615C16.4018 22.2687 15.87 22.7948 15.2176 22.7948C15.2141 22.7948 15.2106 22.7948 15.2071 22.7948C14.5499 22.7892 14.0217 22.2518 14.0273 21.5945C14.0324 20.9962 14.0377 20.3327 14.0428 19.6412H9.89759C9.47657 19.6412 9.08681 19.4187 8.87274 19.0561C8.65868 18.6936 8.65212 18.2449 8.85556 17.8762C9.7011 16.3436 12.5071 11.2849 13.114 10.5404C13.6694 9.85888 14.425 9.5831 15.1354 9.80317C15.8513 10.0249 16.3595 10.715 16.4302 11.5612C16.4619 11.9423 16.4541 14.6943 16.4392 17.261H16.6075C17.2648 17.261 17.7976 17.7938 17.7976 18.4511C17.7976 19.1083 17.2648 19.6412 16.6075 19.6412H16.4232ZM23.4722 16.9824L19.2224 27.6676C19.0368 28.1341 18.5893 28.4183 18.1161 28.4183C17.9697 28.4183 17.8209 28.3911 17.6767 28.3337C17.0659 28.0908 16.7677 27.3988 17.0106 26.788L21.2605 16.1028C21.5034 15.492 22.1952 15.1936 22.8063 15.4368C23.4169 15.6797 23.7151 16.3717 23.4722 16.9824Z" fill="#00001B"/>
<path d="M3.82974 20.6236C4.24372 20.0706 4.77357 19.351 5.43927 18.4191C5.72638 16.24 6.48146 14.2087 7.60075 12.4291C7.08497 10.8633 5.60943 9.72949 3.87318 9.72949C2.00216 9.72949 0.382785 11.0605 0.0225502 12.8944C-0.104169 13.5393 0.315988 14.1649 0.960988 14.2916C1.60583 14.4182 2.23146 13.9981 2.35818 13.3532C2.49966 12.6327 3.13685 12.1097 3.87318 12.1097C4.70271 12.1097 5.38161 12.7673 5.41583 13.5886L5.38224 13.8515C5.24841 14.3821 4.93278 15.0052 4.44349 15.7044C2.75068 18.1232 1.74052 19.4458 1.19778 20.1564C0.532941 21.0269 0.229581 21.4243 0.432863 22.0853C0.55216 22.4731 0.84591 22.7707 1.23888 22.9017C1.39966 22.9553 1.55364 23.0068 3.61091 23.0068C4.1238 23.0068 4.75536 23.0036 5.53443 22.9964C5.39888 22.222 5.32341 21.427 5.31161 20.6166C4.79036 20.6204 4.28622 20.6228 3.82974 20.6236Z" fill="#00001B"/>
<path d="M4.25072 26.6095C4.02057 25.9938 3.33463 25.6815 2.71916 25.9116C2.10354 26.1419 1.79104 26.8275 2.02127 27.4432C2.36533 28.3634 2.7819 29.2652 3.2594 30.1234C3.49807 30.5525 3.96283 30.7763 4.42221 30.7289C4.57776 30.7128 4.73268 30.6656 4.87799 30.5848C5.45237 30.2653 5.65893 29.5406 5.3394 28.9662C4.91955 28.2116 4.55322 27.4187 4.25072 26.6095Z" fill="#00001B"/>
<path d="M10.5123 34.7002C9.80487 34.2065 9.12948 33.6543 8.50479 33.059C8.02893 32.6056 7.27565 32.6237 6.82221 33.0996C6.36877 33.5754 6.3869 34.3287 6.86276 34.7822C7.57448 35.4604 8.34401 36.0895 9.15003 36.6521C9.3937 36.8222 9.67878 36.8883 9.95284 36.86C10.285 36.8257 10.601 36.6526 10.8071 36.3573C11.1832 35.8183 11.0513 35.0764 10.5123 34.7002Z" fill="#00001B"/>
<path d="M17.6786 37.5962C16.8283 37.4601 15.9792 37.2572 15.1547 36.9935C14.5286 36.7931 13.8587 37.1383 13.6585 37.7643C13.4582 38.3904 13.8033 39.0602 14.4294 39.2605C15.3676 39.5607 16.3341 39.7915 17.3022 39.9465C17.4076 39.9634 17.5119 39.9659 17.6133 39.9554C18.136 39.9015 18.5784 39.5032 18.6654 38.9596C18.7694 38.3105 18.3276 37.7001 17.6786 37.5962Z" fill="#00001B"/>
<path d="M25.3731 37.0691C24.5495 37.3188 23.701 37.5083 22.851 37.632C22.2006 37.7267 21.7501 38.3308 21.8449 38.9812C21.9371 39.6149 22.5128 40.0588 23.1439 39.9937C23.1606 39.992 23.1774 39.9898 23.1941 39.9874C24.1614 39.8466 25.1269 39.631 26.0639 39.3469C26.6929 39.1561 27.0481 38.4916 26.8574 37.8626C26.6666 37.2336 26.0016 36.8784 25.3731 37.0691Z" fill="#00001B"/>
<path d="M38.3802 12.5505C36.3024 7.74397 32.4774 4.03421 27.6094 2.10476C22.9616 0.26249 17.8877 0.265693 13.3088 2.04601L13.6322 1.49194C13.9084 1.0189 13.7487 0.411552 13.2756 0.135458C12.8026 -0.140792 12.1952 0.018974 11.9191 0.492021L9.73415 4.23538C9.56688 4.52186 9.55399 4.87288 9.69962 5.17093C9.84532 5.4689 10.1302 5.67437 10.459 5.71835L14.7551 6.29351C14.8345 6.30413 14.913 6.30507 14.9893 6.29718C15.4348 6.25116 15.8076 5.90554 15.8696 5.4421C15.9423 4.89921 15.5611 4.40022 15.0182 4.32749L14.2692 4.22718C18.2659 2.70218 22.6831 2.71249 26.7323 4.31741C31.0091 6.01265 34.3698 9.27194 36.1952 13.4948C38.0206 17.7177 38.0924 22.3988 36.3971 26.6756C35.0145 30.1637 32.5988 33.0421 29.4113 34.9996C28.8511 35.3436 28.6759 36.0764 29.0199 36.6366C29.2674 37.0396 29.716 37.2433 30.157 37.1978C30.3289 37.1801 30.4997 37.1244 30.6567 37.028C34.286 34.7993 37.0363 31.5228 38.6099 27.5527C40.5395 22.6849 40.4579 17.3569 38.3802 12.5505Z" fill="#00001B"/>
</g>
<defs>
<clipPath id="clip0_165_566">
<rect width="40" height="40" fill="white"/>
</clipPath>
</defs>
</svg>
