<svg width="60" height="60" viewBox="0 0 60 60" fill="none" xmlns="http://www.w3.org/2000/svg">
<path d="M56.25 21.5625C56.25 21.0062 56.085 20.4625 55.776 20C55.467 19.5374 55.0277 19.177 54.5138 18.9641C53.9999 18.7512 53.4344 18.6955 52.8888 18.804C52.3432 18.9126 51.8421 19.1804 51.4488 19.5738C51.0554 19.9671 50.7876 20.4682 50.679 21.0138C50.5705 21.5594 50.6262 22.1249 50.8391 22.6388C51.052 23.1527 51.4124 23.592 51.875 23.901C52.3375 24.2101 52.8812 24.375 53.4375 24.375C54.1834 24.375 54.8988 24.0787 55.4262 23.5512C55.9537 23.0238 56.25 22.3084 56.25 21.5625ZM53.4375 22.5C53.2521 22.5 53.0708 22.445 52.9167 22.342C52.7625 22.239 52.6423 22.0926 52.5714 21.9213C52.5004 21.75 52.4818 21.5615 52.518 21.3796C52.5542 21.1977 52.6435 21.0307 52.7746 20.8996C52.9057 20.7685 53.0727 20.6792 53.2546 20.643C53.4365 20.6068 53.625 20.6254 53.7963 20.6964C53.9676 20.7673 54.114 20.8875 54.217 21.0417C54.32 21.1958 54.375 21.3771 54.375 21.5625C54.375 21.8111 54.2762 22.0496 54.1004 22.2254C53.9246 22.4012 53.6861 22.5 53.4375 22.5Z" fill="white"/>
<path d="M53.4375 24.375C52.1943 24.375 51.002 24.8689 50.1229 25.7479C49.2439 26.627 48.75 27.8193 48.75 29.0625V34.6875C48.75 34.9361 48.8488 35.1746 49.0246 35.3504C49.2004 35.5262 49.4389 35.625 49.6875 35.625H50.625V40.3125C50.625 40.5611 50.7238 40.7996 50.8996 40.9754C51.0754 41.1512 51.3139 41.25 51.5625 41.25H55.3125C55.5611 41.25 55.7996 41.1512 55.9754 40.9754C56.1512 40.7996 56.25 40.5611 56.25 40.3125V35.625H57.1875C57.4361 35.625 57.6746 35.5262 57.8504 35.3504C58.0262 35.1746 58.125 34.9361 58.125 34.6875V29.0625C58.125 27.8193 57.6311 26.627 56.7521 25.7479C55.873 24.8689 54.6807 24.375 53.4375 24.375ZM56.25 33.75H55.3125C55.0639 33.75 54.8254 33.8488 54.6496 34.0246C54.4738 34.2004 54.375 34.4389 54.375 34.6875V39.375H52.5V34.6875C52.5 34.4389 52.4012 34.2004 52.2254 34.0246C52.0496 33.8488 51.8111 33.75 51.5625 33.75H50.625V29.0625C50.625 28.3166 50.9213 27.6012 51.4488 27.0738C51.9762 26.5463 52.6916 26.25 53.4375 26.25C54.1834 26.25 54.8988 26.5463 55.4262 27.0738C55.9537 27.6012 56.25 28.3166 56.25 29.0625V33.75Z" fill="white"/>
<path d="M47.2025 15.2277L39.8431 21.4621C39.5279 21.1297 39.1929 20.8167 38.84 20.5246C37.4969 18.0992 35.6566 15.9849 33.4397 14.32C31.2228 12.6552 28.6793 11.4773 25.9757 10.8635C23.272 10.2497 20.4692 10.2139 17.7508 10.7584C15.0324 11.3029 12.4596 12.4153 10.2009 14.023C7.94214 15.6307 6.04845 17.6973 4.64375 20.0875C3.23906 22.4778 2.35503 25.1377 2.04956 27.8933C1.74409 30.6488 2.02405 33.4378 2.87112 36.0777C3.71819 38.7175 5.11327 41.1487 6.96502 43.2121L2.02439 51.059L3.59939 52.0715L8.97127 43.634C9.08561 43.455 9.13582 43.2426 9.11368 43.0314C9.09154 42.8202 8.99836 42.6228 8.84939 42.4715C7.06022 40.6486 5.68401 38.4622 4.81411 36.0607C3.94421 33.6591 3.60097 31.0986 3.80767 28.5528C4.01437 26.0069 4.76618 23.5353 6.01209 21.3055C7.25801 19.0758 8.9689 17.1401 11.0287 15.6297C13.0885 14.1193 15.4491 13.0696 17.9502 12.5517C20.4514 12.0338 23.0347 12.0599 25.5249 12.6282C28.0151 13.1965 30.354 14.2937 32.3828 15.8454C34.4117 17.3971 36.0831 19.367 37.2838 21.6215C37.3503 21.7407 37.4395 21.8458 37.5463 21.9308C37.8476 22.1574 38.1327 22.4049 38.3994 22.6715L36.9556 23.8996C36.6569 23.4327 36.248 23.0464 35.765 22.7746C34.1411 19.5834 31.49 17.0321 28.2389 15.5318C24.9878 14.0315 21.3262 13.6696 17.8443 14.5046C14.3625 15.3396 11.2632 17.3227 9.04615 20.1343C6.82907 22.9459 5.62336 26.4221 5.62336 30.0027C5.62336 33.5833 6.82907 37.0595 9.04615 39.8711C11.2632 42.6827 14.3625 44.6658 17.8443 45.5008C21.3262 46.3358 24.9878 45.9739 28.2389 44.4736C31.49 42.9733 34.1411 40.422 35.765 37.2308C36.248 36.959 36.6569 36.5727 36.9556 36.1058L38.4369 37.334C38.1702 37.6005 37.8851 37.848 37.5838 38.0746C37.477 38.1597 37.3878 38.2647 37.3213 38.384C35.7988 41.2391 33.5273 43.6257 30.7508 45.2873C27.9743 46.9489 24.7976 47.8228 21.5619 47.8152C18.8618 47.8256 16.1958 47.2128 13.7713 46.0246C13.6453 45.9646 13.5076 45.9335 13.3681 45.9335C13.2287 45.9335 13.0909 45.9646 12.965 46.0246C12.8374 46.0839 12.7249 46.1711 12.6356 46.2799C12.5463 46.3886 12.4827 46.516 12.4494 46.6527L10.34 55.0902L12.1588 55.5402L14.0338 48.1902C18.5228 50.0589 23.5446 50.2002 28.1317 48.5869C32.7187 46.9737 36.5465 43.72 38.8775 39.4527C39.2304 39.1606 39.5654 38.8476 39.8806 38.5152L47.24 44.7496C47.396 44.8969 47.5979 44.9863 47.8119 45.0027H58.1244V43.1277H48.1588L41.015 37.0808C42.3916 34.9768 43.1248 32.517 43.1248 30.0027C43.1248 27.4884 42.3916 25.0286 41.015 22.9246L48.1588 16.8777H58.1244V15.0027H47.8119C47.5884 15.0027 47.3723 15.0825 47.2025 15.2277ZM34.6869 24.3777C34.9119 24.3777 35.2119 24.6496 35.5025 25.1277L35.1463 25.4277L33.44 26.0652C33.8338 24.9871 34.34 24.3777 34.6869 24.3777ZM21.5619 44.0652C19.1028 44.0663 16.6864 43.4226 14.5538 42.1982C12.4212 40.9739 10.647 39.2117 9.40806 37.0875C8.16916 34.9633 7.50893 32.5514 7.49325 30.0924C7.47757 27.6334 8.10699 25.2132 9.3187 23.0734C10.5304 20.9336 12.2821 19.1489 14.3989 17.8975C16.5157 16.646 18.9237 15.9715 21.3826 15.9413C23.8414 15.911 26.2653 16.5261 28.4122 17.7251C30.5592 18.9242 32.3542 20.6652 33.6181 22.7746C32.4556 23.384 31.6588 24.959 31.2556 26.8715L25.4994 28.9996L10.64 23.4965L9.98376 25.259L22.7994 30.0027L9.98376 34.7465L10.64 36.509L25.4994 31.0058L31.2556 33.134C31.6588 35.009 32.4556 36.6215 33.6181 37.2308C32.3643 39.3091 30.5965 41.0296 28.4849 42.2266C26.3733 43.4236 23.9891 44.0568 21.5619 44.0652ZM30.9369 31.034L28.1244 30.0027L30.9369 28.9715V30.0027C30.9369 30.0027 30.9369 30.6871 30.9369 31.034ZM34.6869 35.6277C34.34 35.6277 33.8338 35.0183 33.44 33.9402L35.1463 34.5777L35.5025 34.8777C35.2119 35.3558 34.9119 35.6277 34.6869 35.6277ZM36.2056 33.0215C36.1282 32.9606 36.0431 32.9102 35.9525 32.8715L32.9338 31.7558C32.7712 30.5927 32.7712 29.4127 32.9338 28.2496L35.9525 27.134C36.0431 27.0953 36.1282 27.0448 36.2056 26.984C36.6807 28.9684 36.6807 31.037 36.2056 33.0215ZM41.2494 30.0027C41.2584 32.0756 40.6763 34.1082 39.5713 35.8621L37.79 34.3527C38.6523 31.5168 38.6523 28.4886 37.79 25.6527L39.5713 24.1433C40.6763 25.8972 41.2584 27.9298 41.2494 30.0027Z" fill="white"/>
<path d="M24.375 25.3125H26.25V27.1875H24.375V25.3125Z" fill="white"/>
<path d="M24.375 21.5625H26.25V23.4375H24.375V21.5625Z" fill="white"/>
<path d="M24.375 17.8125H26.25V19.6875H24.375V17.8125Z" fill="white"/>
<path d="M24.375 7.5H26.25V9.375H24.375V7.5Z" fill="white"/>
<path d="M24.375 3.75H26.25V5.625H24.375V3.75Z" fill="white"/>
<path d="M24.375 50.625H26.25V52.5H24.375V50.625Z" fill="white"/>
<path d="M24.375 54.375H26.25V56.25H24.375V54.375Z" fill="white"/>
<path d="M24.375 40.3125H26.25V42.1875H24.375V40.3125Z" fill="white"/>
<path d="M24.375 36.5625H26.25V38.4375H24.375V36.5625Z" fill="white"/>
<path d="M24.375 32.8125H26.25V34.6875H24.375V32.8125Z" fill="white"/>
</svg>
