<svg width="40" height="40" viewBox="0 0 40 40" fill="none" xmlns="http://www.w3.org/2000/svg">
<g clip-path="url(#clip0_165_539)">
<path d="M18.8282 21.3518C17.4642 20.868 16.4844 19.5655 16.4844 18.0377C16.4844 16.0992 18.0615 14.5221 20 14.5221C21.9386 14.5221 23.5157 16.0992 23.5157 18.0377C23.5157 19.5655 22.5359 20.868 21.1719 21.3518V23.283H28.5279L27.0889 12.4523C26.909 11.0988 25.7437 10.0781 24.3783 10.0781H15.6204C14.2548 10.0781 13.0895 11.0989 12.9098 12.4527L11.4719 23.283H18.8282V21.3518Z" fill="#00001B"/>
<path d="M20 19.2095C20.6472 19.2095 21.1719 18.6848 21.1719 18.0376C21.1719 17.3904 20.6472 16.8657 20 16.8657C19.3528 16.8657 18.8281 17.3904 18.8281 18.0376C18.8281 18.6848 19.3528 19.2095 20 19.2095Z" fill="#00001B"/>
<path d="M20 5.78117C20.6472 5.78117 21.1719 5.25648 21.1719 4.6093V1.17188C21.1719 0.524687 20.6472 0 20 0C19.3528 0 18.8281 0.524687 18.8281 1.17188V4.6093C18.8281 5.25648 19.3528 5.78117 20 5.78117Z" fill="#00001B"/>
<path d="M2.05078 20.2734H5.48828C6.13547 20.2734 6.66016 19.7487 6.66016 19.1016C6.66016 18.4544 6.13547 17.9297 5.48828 17.9297H2.05078C1.40359 17.9297 0.878906 18.4544 0.878906 19.1016C0.878906 19.7487 1.40359 20.2734 2.05078 20.2734Z" fill="#00001B"/>
<path d="M33.3398 19.1016C33.3398 19.7487 33.8645 20.2734 34.5117 20.2734H37.9491C38.5963 20.2734 39.121 19.7487 39.121 19.1016C39.121 18.4544 38.5963 17.9297 37.9491 17.9297H34.5117C33.8645 17.9297 33.3398 18.4544 33.3398 19.1016Z" fill="#00001B"/>
<path d="M8.91018 9.66879C9.139 9.89762 9.43893 10.0121 9.73877 10.0121C10.0386 10.0121 10.3386 9.89762 10.5674 9.66879C11.025 9.21113 11.0249 8.46918 10.5674 8.01152L8.13674 5.58098C7.67916 5.1234 6.93713 5.1234 6.47947 5.58098C6.02182 6.03863 6.02182 6.78059 6.47947 7.23824L8.91018 9.66879Z" fill="#00001B"/>
<path d="M30.2615 10.0121C30.5614 10.0121 30.8614 9.89768 31.0901 9.66885L33.5207 7.2383C33.9783 6.78072 33.9784 6.03877 33.5207 5.58104C33.0632 5.12338 32.3212 5.12338 31.8635 5.58104L29.4328 8.01158C28.9752 8.46916 28.9752 9.21111 29.4328 9.66885C29.6617 9.89775 29.9616 10.0121 30.2615 10.0121Z" fill="#00001B"/>
<path d="M9.76562 26.7988V28.5945C9.99391 28.7849 10.2123 28.9886 10.4189 29.2058H29.581C29.7876 28.9886 30.006 28.7849 30.2343 28.5945V26.7988C30.2343 26.1516 29.7096 25.627 29.0624 25.627H10.9375C10.2903 25.627 9.76562 26.1516 9.76562 26.7988Z" fill="#00001B"/>
<path d="M39.3964 36.3781H36.9046L35.6994 34.5673L36.9046 32.7564H39.3964C39.6122 32.7564 39.8115 32.6412 39.9193 32.4544C40.027 32.2675 40.0269 32.0373 39.9189 31.8505C38.9498 30.1754 37.1469 29.1348 35.2136 29.1348C33.3991 29.1348 31.6993 30.0515 30.6962 31.5492H9.30382C8.30069 30.0515 6.60093 29.1348 4.7864 29.1348C2.85312 29.1348 1.05015 30.1755 0.0810841 31.8505C-0.0268846 32.0373 -0.0270409 32.2675 0.0806935 32.4544C0.188506 32.6412 0.387881 32.7564 0.603584 32.7564H3.09538L4.30062 34.5673L3.09538 36.3781H0.603584C0.387803 36.3781 0.188506 36.4933 0.0806935 36.6802C-0.0270409 36.867 -0.0268846 37.0973 0.0810841 37.284C1.05022 38.9591 2.85312 39.9998 4.7864 39.9998C6.60093 39.9998 8.30069 39.0831 9.30382 37.5854H30.6961C31.6993 39.0831 33.399 39.9998 35.2136 39.9998C37.1469 39.9998 38.9498 38.9591 39.9189 37.284C40.0269 37.0973 40.027 36.867 39.9193 36.6802C39.8115 36.4933 39.6121 36.3781 39.3964 36.3781Z" fill="#00001B"/>
</g>
<defs>
<clipPath id="clip0_165_539">
<rect width="40" height="40" fill="white"/>
</clipPath>
</defs>
</svg>
