<svg width="40" height="40" viewBox="0 0 40 40" fill="none" xmlns="http://www.w3.org/2000/svg">
<path fill-rule="evenodd" clip-rule="evenodd" d="M32.6484 17.0016H33.3891L34.0966 22.1L33.0185 23.3855L31.941 22.1L32.6486 17.0016H32.6484ZM29.5391 11.2624C29.5389 10.5742 29.7429 9.9013 30.1251 9.32896C30.5074 8.75662 31.0508 8.3105 31.6867 8.04702C32.3225 7.78354 33.0222 7.71454 33.6973 7.84875C34.3723 7.98296 34.9924 8.31434 35.4791 8.80099C35.9658 9.28764 36.2973 9.9077 36.4316 10.5827C36.5659 11.2578 36.4969 11.9575 36.2335 12.5934C35.9701 13.2292 35.5241 13.7727 34.9518 14.155C34.3795 14.5374 33.7066 14.7414 33.0184 14.7413C32.096 14.7403 31.2116 14.3735 30.5594 13.7213C29.9071 13.0691 29.5402 12.1848 29.5391 11.2624ZM21.9739 27.6466L20 30.0009L18.0255 27.6463L19.1505 19.5407H20.8491L21.9741 27.6463L21.9739 27.6466ZM14.432 11.746C14.4324 10.6448 14.7593 9.56842 15.3714 8.65298C15.9834 7.73753 16.8532 7.02413 17.8707 6.60298C18.8882 6.18183 20.0078 6.07185 21.0878 6.28693C22.1678 6.50201 23.1598 7.0325 23.9383 7.81132C24.7168 8.59015 25.2469 9.58233 25.4616 10.6624C25.6763 11.7425 25.5659 12.862 25.1443 13.8793C24.7228 14.8967 24.0091 15.7662 23.0934 16.3779C22.1777 16.9897 21.1012 17.3161 20 17.3161C18.5232 17.3149 17.1073 16.7275 16.0633 15.6831C15.0193 14.6387 14.4325 13.2225 14.4318 11.7458L14.432 11.746ZM6.61102 17.0016H7.35156L8.05914 22.1L6.98102 23.3855L5.90289 22.1L6.61047 17.0016H6.61102ZM3.50203 11.2624C3.50195 10.5743 3.70595 9.90154 4.08821 9.32932C4.47047 8.75711 5.01384 8.31109 5.64959 8.04769C6.28534 7.78429 6.98492 7.71534 7.65987 7.84954C8.33481 7.98375 8.9548 8.31509 9.44142 8.80166C9.92805 9.28823 10.2595 9.90818 10.3937 10.5831C10.528 11.258 10.4591 11.9576 10.1958 12.5934C9.93249 13.2292 9.48654 13.7726 8.91436 14.1549C8.34219 14.5373 7.66948 14.7413 6.98133 14.7413C6.05892 14.7404 5.17456 14.3736 4.52228 13.7214C3.87 13.0692 3.50309 12.1848 3.50203 11.2624ZM3.17695 26.0506H8.37836C9.18276 23.5773 10.8108 21.4545 12.9909 20.0363C12.5184 19.2799 11.8943 18.6296 11.158 18.1262C10.4218 17.6229 9.58924 17.2775 8.71289 17.1117L9.42047 22.2102C9.43338 22.3029 9.42675 22.3973 9.40103 22.4874C9.37531 22.5774 9.33105 22.661 9.27109 22.733L7.49219 24.8517C7.42987 24.9267 7.3518 24.9871 7.26351 25.0286C7.17522 25.07 7.07889 25.0915 6.98137 25.0915C6.88384 25.0915 6.78751 25.07 6.69922 25.0286C6.61094 24.9871 6.53286 24.9267 6.47055 24.8517L4.69117 22.733C4.6313 22.661 4.58709 22.5773 4.56137 22.4873C4.53565 22.3973 4.52898 22.3029 4.5418 22.2102L5.24977 17.1078C3.77678 17.3832 2.44619 18.1643 1.48772 19.3162C0.529243 20.468 0.00305427 21.9185 0 23.417L0 26.0506H1.84945C1.84738 26.0325 1.84633 26.0142 1.84633 25.9959V22.6543C1.84633 22.4775 1.91657 22.3079 2.04161 22.1829C2.16664 22.0578 2.33622 21.9876 2.51305 21.9876C2.68987 21.9876 2.85945 22.0578 2.98449 22.1829C3.10952 22.3079 3.17977 22.4775 3.17977 22.6543V25.9956C3.17977 26.0152 3.17852 26.0347 3.17695 26.0503V26.0506ZM30.8342 33.8221V29.5256C30.8342 24.4822 27.0731 20.2997 22.2086 19.6314L23.3356 27.7564C23.3486 27.8492 23.342 27.9437 23.3162 28.0337C23.2904 28.1238 23.246 28.2075 23.1859 28.2793L20.5109 31.4672C20.4485 31.5422 20.3705 31.6026 20.2822 31.6441C20.1939 31.6855 20.0975 31.707 20 31.707C19.9025 31.707 19.8061 31.6855 19.7178 31.6441C19.6295 31.6026 19.5515 31.5422 19.4891 31.4672L16.8138 28.2793C16.7538 28.2073 16.7096 28.1237 16.6839 28.0336C16.6581 27.9436 16.6515 27.8492 16.6644 27.7564L17.7914 19.6314C12.9265 20.2997 9.16539 24.4822 9.16539 29.5256V33.8225H12.7656C12.6671 33.7045 12.6134 33.5556 12.6139 33.4019V28.3784C12.613 28.2903 12.6295 28.2028 12.6626 28.1211C12.6956 28.0394 12.7446 27.965 12.8066 27.9023C12.8686 27.8397 12.9424 27.7899 13.0238 27.7559C13.1051 27.722 13.1924 27.7045 13.2806 27.7045C13.3687 27.7045 13.456 27.722 13.5374 27.7559C13.6188 27.7899 13.6926 27.8397 13.7546 27.9023C13.8166 27.965 13.8655 28.0394 13.8986 28.1211C13.9317 28.2028 13.9482 28.2903 13.9473 28.3784V33.4019C13.9478 33.5554 13.8944 33.7043 13.7963 33.8225H26.2031C26.1052 33.7042 26.0518 33.5554 26.0522 33.4019V28.3784C26.0522 28.2016 26.1224 28.0319 26.2475 27.9069C26.3726 27.7818 26.5422 27.7116 26.7191 27.7116C26.8959 27.7116 27.0655 27.7818 27.1906 27.9069C27.3157 28.0319 27.3859 28.2016 27.3859 28.3784V33.4019C27.3864 33.5556 27.3327 33.7045 27.2342 33.8225L30.8342 33.8221ZM40 26.0506V23.417C39.9969 21.9184 39.4706 20.468 38.5121 19.3162C37.5536 18.1643 36.223 17.3832 34.75 17.1078L35.4584 22.2102C35.4713 22.3029 35.4647 22.3974 35.4389 22.4874C35.4131 22.5775 35.3687 22.6611 35.3086 22.733L33.5295 24.8517C33.4671 24.9267 33.3891 24.9871 33.3008 25.0286C33.2125 25.07 33.1162 25.0915 33.0186 25.0915C32.9211 25.0915 32.8248 25.07 32.7365 25.0286C32.6482 24.9871 32.5701 24.9267 32.5078 24.8517L30.7295 22.733C30.6692 22.6612 30.6247 22.5776 30.5989 22.4875C30.573 22.3974 30.5663 22.303 30.5793 22.2102L31.2869 17.1117C30.4106 17.2774 29.5781 17.6228 28.8418 18.1262C28.1056 18.6295 27.4816 19.2799 27.0092 20.0363C29.1891 21.4548 30.8171 23.5775 31.6218 26.0506H36.8234C36.8219 26.035 36.8198 26.0152 36.8198 25.9959V22.6543C36.8189 22.5661 36.8354 22.4787 36.8685 22.3969C36.9016 22.3152 36.9505 22.2409 37.0125 22.1782C37.0745 22.1155 37.1484 22.0658 37.2297 22.0318C37.3111 21.9978 37.3984 21.9804 37.4865 21.9804C37.5747 21.9804 37.662 21.9978 37.7433 22.0318C37.8247 22.0658 37.8985 22.1155 37.9605 22.1782C38.0225 22.2409 38.0715 22.3152 38.1045 22.3969C38.1376 22.4787 38.1542 22.5661 38.1532 22.6543V25.9956C38.1532 26.0152 38.1525 26.0347 38.1509 26.0503L40 26.0506Z" fill="#2D3928"/>
</svg>
