<svg width="60" height="60" viewBox="0 0 60 60" fill="none" xmlns="http://www.w3.org/2000/svg">
<g opacity="0.8">
<path d="M47.8045 7.5C48.1045 7.5 48.3858 7.36875 48.5733 7.10625C48.6952 6.9375 48.7514 6.75 48.7514 6.5625C48.7514 6.27188 48.6117 5.98125 48.3577 5.80313C48.1889 5.68125 48.0014 5.625 47.8045 5.625C47.5139 5.625 47.2233 5.76563 47.0452 6.01875C46.7452 6.44063 46.8483 7.02188 47.2692 7.33125C47.4305 7.44375 47.617 7.5 47.8045 7.5Z" fill="white"/>
<path d="M46.0304 9.03125C46.3219 9.03125 46.6116 8.9 46.7991 8.64688C46.9116 8.4875 46.9679 8.29063 46.9679 8.10313C46.9679 7.8125 46.8366 7.52188 46.5741 7.33438C46.4148 7.2125 46.2179 7.15625 46.0304 7.15625C45.7397 7.15625 45.4501 7.29688 45.271 7.55C44.971 7.97188 45.0648 8.5625 45.4857 8.8625C45.6554 8.975 45.8429 9.03125 46.0304 9.03125Z" fill="white"/>
<path d="M45.4022 6.5625C45.6938 6.5625 45.9919 6.42188 46.17 6.15938C46.2825 6 46.3388 5.8125 46.3388 5.625C46.3388 5.33438 46.1991 5.04375 45.9357 4.85625C45.7772 4.74375 45.5897 4.6875 45.4116 4.6875C45.1116 4.6875 44.821 4.82812 44.6344 5.09062C44.3344 5.5125 44.4375 6.09375 44.8688 6.39375C45.0272 6.50625 45.2147 6.5625 45.4022 6.5625Z" fill="white"/>
<path d="M43.8369 9.55625C43.5379 9.97812 43.6307 10.5688 44.0526 10.8688C44.2119 10.9906 44.4088 11.0469 44.5963 11.0469C44.8869 11.0469 45.1776 10.9062 45.3557 10.6531C45.4776 10.4844 45.5338 10.2969 45.5338 10.1094C45.5338 9.81875 45.3932 9.52813 45.1401 9.34063C44.9704 9.22813 44.7829 9.17188 44.5963 9.17188C44.3057 9.17188 44.0244 9.30312 43.8369 9.55625Z" fill="white"/>
<path d="M43.988 8.44531C44.288 8.44531 44.5787 8.30469 44.7568 8.04219C44.8693 7.88281 44.9255 7.69531 44.9255 7.50781C44.9255 7.21719 44.7849 6.92656 44.5224 6.73906C44.3631 6.62656 44.1755 6.57031 43.988 6.57031C43.6974 6.57031 43.4068 6.71094 43.2193 6.97344C42.9287 7.39531 43.0327 7.98594 43.4537 8.27656C43.613 8.38906 43.8005 8.44531 43.988 8.44531Z" fill="white"/>
<path d="M42.3936 11.5656C42.0945 11.9875 42.1873 12.5687 42.6092 12.8687C42.778 12.9906 42.9655 13.0469 43.1623 13.0469C43.453 13.0469 43.7342 12.9062 43.9217 12.6531C44.0445 12.4844 44.0998 12.2969 44.0998 12.1094C44.0998 11.8188 43.9592 11.5281 43.7061 11.35C43.5373 11.2281 43.3498 11.1719 43.153 11.1719C42.8623 11.1719 42.5717 11.3125 42.3936 11.5656Z" fill="white"/>
<path d="M42.5723 10.4688C42.8723 10.4688 43.1629 10.3281 43.341 10.0656C43.4526 9.90625 43.5098 9.71875 43.5098 9.53125C43.5098 9.23125 43.3776 8.95 43.116 8.7625C42.9464 8.65 42.7598 8.59375 42.5817 8.59375C42.2817 8.59375 41.991 8.73438 41.8035 8.99688C41.5129 9.41875 41.616 10.0094 42.0379 10.3C42.2067 10.4125 42.3848 10.4688 42.5723 10.4688Z" fill="white"/>
<path d="M40.9588 13.5734C40.6588 13.9953 40.7516 14.5766 41.1735 14.8859C41.3422 14.9984 41.5297 15.0547 41.7172 15.0547C42.0078 15.0547 42.2985 14.9234 42.4766 14.6703C42.5994 14.5016 42.6547 14.3141 42.6547 14.1266C42.6547 13.8266 42.5141 13.5359 42.261 13.3578C42.0922 13.2359 41.9047 13.1797 41.7172 13.1797C41.4275 13.1797 41.1369 13.3203 40.9588 13.5734Z" fill="white"/>
<path d="M41.1567 12.5C41.4557 12.5 41.7473 12.3594 41.9245 12.0969C42.037 11.9375 42.0942 11.75 42.0942 11.5625C42.0942 11.2625 41.962 10.9813 41.7004 10.7938C41.5307 10.6813 41.3432 10.625 41.1661 10.625C40.8661 10.625 40.5754 10.7656 40.3879 11.0281C40.0964 11.45 40.2004 12.0406 40.6223 12.3312C40.7911 12.4437 40.9786 12.5 41.1567 12.5Z" fill="white"/>
<path d="M39.5159 15.5813C39.2159 16.0031 39.319 16.5937 39.7399 16.8937C39.8993 17.0156 40.0962 17.0719 40.2837 17.0719C40.5752 17.0719 40.8649 16.9313 41.044 16.6781C41.1659 16.5094 41.2212 16.3219 41.2212 16.125C41.2212 15.8344 41.0815 15.5437 40.8274 15.3656C40.6587 15.2437 40.4712 15.1875 40.2837 15.1875C39.994 15.1875 39.7034 15.3281 39.5159 15.5813Z" fill="white"/>
<path d="M39.7494 14.5234C40.04 14.5234 40.3297 14.3828 40.5172 14.1297C40.6297 13.9609 40.6869 13.7734 40.6869 13.5953C40.6869 13.2953 40.5463 13.0047 40.2828 12.8172C40.1235 12.7047 39.936 12.6484 39.7494 12.6484C39.4494 12.6484 39.1578 12.7891 38.9807 13.0516C38.6807 13.4734 38.7838 14.0641 39.2057 14.3547C39.3744 14.4672 39.5619 14.5234 39.7494 14.5234Z" fill="white"/>
<path d="M38.0815 17.5969C37.7815 18.0188 37.8753 18.6 38.2962 18.9C38.4659 19.0219 38.6534 19.0781 38.84 19.0781C39.1316 19.0781 39.4212 18.9375 39.6087 18.6844C39.7212 18.5156 39.7775 18.3281 39.7775 18.1406C39.7775 17.85 39.6462 17.5594 39.3931 17.3719C39.2337 17.2594 39.0369 17.2031 38.8503 17.2031C38.5597 17.2031 38.269 17.3344 38.0815 17.5969Z" fill="white"/>
<path d="M38.3345 16.5469C38.626 16.5469 38.9157 16.4062 39.1032 16.1531C39.2157 15.9844 39.272 15.7969 39.272 15.6188C39.272 15.3188 39.1323 15.0281 38.8688 14.8406C38.7095 14.7281 38.522 14.6719 38.3345 14.6719C38.0354 14.6719 37.7438 14.8125 37.5666 15.075C37.2666 15.4969 37.3698 16.0875 37.7907 16.3781C37.9595 16.5 38.147 16.5469 38.3345 16.5469Z" fill="white"/>
<path d="M36.6459 19.6047C36.3459 20.0266 36.4397 20.6078 36.8616 20.9078C37.0209 21.0297 37.2178 21.0859 37.4053 21.0859C37.6959 21.0859 37.9856 20.9547 38.1647 20.6922C38.2866 20.5328 38.3428 20.3453 38.3428 20.1484C38.3428 19.8578 38.2022 19.5672 37.9491 19.3891C37.7794 19.2672 37.5919 19.2109 37.4053 19.2109C37.1147 19.2109 36.8241 19.3516 36.6459 19.6047Z" fill="white"/>
<path d="M36.3844 18.4016C36.5447 18.5234 36.7313 18.5703 36.9188 18.5703C37.2103 18.5703 37.5 18.4391 37.6875 18.1766C37.8 18.0078 37.8563 17.8203 37.8563 17.6422C37.8563 17.3422 37.7166 17.0516 37.4532 16.8641C37.2938 16.7516 37.1063 16.6953 36.9188 16.6953C36.6188 16.6953 36.3282 16.8359 36.15 17.0984C35.85 17.5203 35.9532 18.1109 36.3844 18.4016Z" fill="white"/>
<path d="M35.5024 20.6C35.793 20.6 36.0836 20.4687 36.2711 20.2062C36.3827 20.0375 36.4399 19.8594 36.4399 19.6719C36.4399 19.3719 36.2992 19.0813 36.0367 18.9031C35.8764 18.7906 35.6899 18.7344 35.5024 18.7344C35.2024 18.7344 34.9211 18.8656 34.7336 19.1281C34.4345 19.55 34.5367 20.1406 34.968 20.4406C35.1274 20.5531 35.3149 20.6 35.5024 20.6Z" fill="white"/>
<path d="M5.625 7.5H36.5625V5.625H3.75V14.0625H5.625V7.5Z" fill="white"/>
<path d="M56.25 46.875H54.375V53.4375H23.4375V55.3125H56.25V46.875Z" fill="white"/>
<path d="M44.0625 43.125C42.5063 43.125 41.25 44.3813 41.25 45.9375C41.25 47.4938 42.5063 48.75 44.0625 48.75C45.6188 48.75 46.875 47.4938 46.875 45.9375C46.875 44.3813 45.6188 43.125 44.0625 43.125Z" fill="white"/>
<path d="M15.9375 17.8125C17.4938 17.8125 18.75 16.5563 18.75 15C18.75 13.4438 17.4938 12.1875 15.9375 12.1875C14.3813 12.1875 13.125 13.4438 13.125 15C13.125 16.5563 14.3813 17.8125 15.9375 17.8125Z" fill="white"/>
<path d="M51.5625 42.1875H55.3125V44.0625H51.5625V42.1875Z" fill="white"/>
<path d="M51.5625 38.4375H55.3125V40.3125H51.5625V38.4375Z" fill="white"/>
<path d="M51.5625 34.6875H55.3125V36.5625H51.5625V34.6875Z" fill="white"/>
<path d="M51.5625 30.9375H55.3125V32.8125H51.5625V30.9375Z" fill="white"/>
<path d="M51.5625 27.1875H55.3125V29.0625H51.5625V27.1875Z" fill="white"/>
<path d="M51.5625 23.4375H55.3125V25.3125H51.5625V23.4375Z" fill="white"/>
<path d="M51.5625 19.6875H55.3125V21.5625H51.5625V19.6875Z" fill="white"/>
<path d="M51.5625 15.9375H55.3125V17.8125H51.5625V15.9375Z" fill="white"/>
<path d="M51.5625 12.1875H55.3125V14.0625H51.5625V12.1875Z" fill="white"/>
<path d="M4.6875 39.375H8.4375V41.25H4.6875V39.375Z" fill="white"/>
<path d="M4.6875 43.125H8.4375V45H4.6875V43.125Z" fill="white"/>
<path d="M4.6875 46.875H8.4375V48.75H4.6875V46.875Z" fill="white"/>
<path d="M4.6875 35.625H8.4375V37.5H4.6875V35.625Z" fill="white"/>
<path d="M4.6875 31.875H8.4375V33.75H4.6875V31.875Z" fill="white"/>
<path d="M4.6875 28.125H8.4375V30H4.6875V28.125Z" fill="white"/>
<path d="M4.6875 24.375H8.4375V26.25H4.6875V24.375Z" fill="white"/>
<path d="M4.6875 20.625H8.4375V22.5H4.6875V20.625Z" fill="white"/>
<path d="M4.6875 16.875H8.4375V18.75H4.6875V16.875Z" fill="white"/>
<path d="M12.0273 30.9367L12.3227 31.4233C12.6564 31.9754 13.0277 32.5154 13.4167 33.0207C17.3045 38.1732 23.5033 41.2492 29.9992 41.2492C36.4952 41.2492 42.6939 38.1732 46.5761 33.0273C46.9708 32.5154 47.3411 31.9745 47.6758 31.4233L47.9711 30.9367L47.6758 30.4501C47.342 29.8979 46.9708 29.3579 46.5827 28.8536C43.217 24.3808 38.2408 21.6826 33.3208 20.8886C30.3639 20.4029 27.1408 20.5904 24.2055 21.4342L23.8661 21.5364C19.7261 22.8067 16.0155 25.4054 13.4233 28.8451C13.0286 29.357 12.6583 29.8979 12.3236 30.4492L12.0273 30.9367ZM31.2555 26.6804C31.0783 26.6804 30.8814 26.6242 30.7211 26.5117C30.3002 26.2117 30.1961 25.6304 30.4867 25.1992C30.6742 24.9367 30.9555 24.8054 31.2555 24.8054C31.443 24.8054 31.6305 24.8617 31.7992 24.9742C32.0617 25.1523 32.193 25.4429 32.193 25.7336C32.193 25.9211 32.1367 26.1179 32.0242 26.2773C31.8461 26.5398 31.5555 26.6804 31.2555 26.6804ZM32.2023 27.4211C32.4564 27.5992 32.5961 27.8898 32.5961 28.1804C32.5961 28.3679 32.5398 28.5648 32.4189 28.7242C32.2314 28.9867 31.9502 29.1179 31.6586 29.1179C31.4617 29.1179 31.2752 29.0617 31.1158 28.9492C30.6939 28.6492 30.5898 28.0586 30.8908 27.6367C31.068 27.3836 31.3595 27.2429 31.6502 27.2429C31.8461 27.2429 32.0336 27.2992 32.2023 27.4211ZM32.1367 24.4773C31.7148 24.1867 31.6108 23.6054 31.9023 23.1742C32.0898 22.9117 32.3711 22.7804 32.6702 22.7804C32.8577 22.7804 33.0452 22.8367 33.2045 22.9492C33.467 23.1273 33.6077 23.4179 33.6077 23.7179C33.6077 23.9054 33.5514 24.0929 33.4389 24.2523C33.2617 24.5148 32.9702 24.6554 32.6702 24.6554C32.4836 24.6554 32.2961 24.5992 32.1367 24.4773ZM33.768 23.6242C33.9555 23.3617 34.247 23.2304 34.5367 23.2304C34.7242 23.2304 34.9211 23.2867 35.0805 23.3992C35.3345 23.5867 35.4648 23.8773 35.4648 24.1679C35.4648 24.3554 35.4077 24.5429 35.2961 24.7117C35.1086 24.9648 34.817 25.1054 34.5273 25.1054C34.3398 25.1054 34.1523 25.0492 33.9836 24.9273C33.5617 24.6273 33.468 24.0367 33.768 23.6242ZM29.9992 23.3054V25.1804C28.1242 25.1804 26.282 26.8623 26.282 28.9304C26.282 30.9986 27.9714 32.6804 30.0339 32.6804C32.1067 32.6804 33.7998 30.9986 33.7998 28.9304C33.7998 28.2761 33.6236 27.6358 33.2927 27.0648C33.2242 27.0798 33.1605 27.1117 33.0911 27.1117C32.9036 27.1117 32.7077 27.0554 32.5483 26.9336C32.1264 26.6336 32.0242 26.0523 32.3336 25.6304C32.5108 25.3773 32.8023 25.2367 33.093 25.2367C33.2805 25.2367 33.468 25.2929 33.6367 25.4148C33.8908 25.5929 34.0305 25.8836 34.0305 26.1742C34.0305 26.2829 34.0052 26.3907 33.9658 26.4967L34.8264 25.9595C35.3852 26.8557 35.6805 27.8823 35.6805 28.9304C35.6805 32.0326 33.153 34.5554 30.0461 34.5554C26.9495 34.5554 24.407 32.0326 24.407 28.9304C24.407 25.8283 27.1867 23.3054 29.9992 23.3054ZM14.9139 29.9823C16.982 27.2373 19.8273 25.0848 23.0139 23.8211C24.8167 21.0761 21.5617 24.4164 21.5617 28.5133C21.5617 33.332 25.3398 37.3379 29.9992 37.3379C34.6586 37.3379 38.4367 33.4764 38.4367 28.6576C38.4367 26.8586 37.908 25.2114 37.0014 23.8182C37.1477 23.8773 37.2311 23.9383 37.3764 24.002L37.4992 24.0873V24.0901C40.3117 25.3904 43.0952 27.4258 45.0245 29.9889C45.2589 30.2954 45.5186 30.6132 45.7323 30.9367C45.5177 31.2611 45.3077 31.5808 45.0686 31.892C41.4808 36.6461 35.9908 39.3742 29.9908 39.3742C23.9908 39.3742 18.4961 36.647 14.9027 31.8836C14.6673 31.577 14.4442 31.2601 14.2305 30.9367C14.4452 30.6123 14.6739 30.2936 14.9139 29.9823Z" fill="white"/>
</g>
</svg>
