<svg width="25" height="25" viewBox="0 0 25 25" fill="none" xmlns="http://www.w3.org/2000/svg">
<g clip-path="url(#clip0_47_6808)">
<path d="M24.8927 0.107227C24.7497 -0.0357422 24.5178 -0.0357422 24.3748 0.107227L17.9168 6.56528C17.5508 6.37114 16.946 6.4165 16.5937 6.78203L15.3407 8.03501L15.2309 7.9252C14.9864 7.68076 14.5887 7.68076 14.3442 7.9252L6.59143 15.678C6.44841 15.8211 6.44841 16.0529 6.59143 16.196C6.66296 16.2675 6.75671 16.3032 6.85042 16.3032C6.94412 16.3032 7.03787 16.2675 7.1094 16.196L8.14968 15.1557L9.84436 16.8504L6.52708 20.1677L4.83235 18.473L5.89382 17.4115C6.03684 17.2685 6.03684 17.0366 5.89382 16.8936C5.75076 16.7506 5.51892 16.7506 5.37585 16.8936L4.31433 17.9551L4.07551 17.7163C3.9571 17.5978 3.79963 17.5325 3.63215 17.5325C3.46462 17.5325 3.30715 17.5978 3.18879 17.7162L2.52498 18.38C2.28054 18.6245 2.28054 19.0222 2.52498 19.2666L3.31702 20.0587L2.17551 21.2002L1.73376 20.7584C1.48928 20.5141 1.09158 20.5142 0.847144 20.7585L0.183325 21.4223C-0.0611084 21.6668 -0.0611084 22.0646 0.183325 22.309L2.69094 24.8167C2.81321 24.9389 2.97376 25 3.1343 25C3.29485 25 3.4554 24.9389 3.57761 24.8167L4.24153 24.1528C4.48582 23.9083 4.48582 23.5106 4.24148 23.2662L3.79978 22.8245L4.94128 21.683L5.73333 22.475C5.85559 22.5972 6.01614 22.6583 6.17668 22.6583C6.33718 22.6583 6.49773 22.5972 6.62 22.475L7.28372 21.8112C7.40222 21.6928 7.46746 21.5354 7.46746 21.3678C7.46746 21.2003 7.40222 21.0429 7.28381 20.9245L7.04495 20.6856L12.9747 14.7559C13.1177 14.6128 13.1177 14.381 12.9747 14.2379C12.8317 14.0949 12.5998 14.0949 12.4568 14.2379L11.4685 15.2261L9.77385 13.5314L10.3622 12.9431L10.8961 13.477C10.9677 13.5484 11.0614 13.5842 11.1551 13.5842C11.2488 13.5842 11.3426 13.5484 11.4141 13.477C11.5571 13.3339 11.5571 13.1021 11.4141 12.959L10.8802 12.4251L11.4686 11.8367L12.2975 12.6657C12.369 12.7372 12.4628 12.7729 12.5565 12.7729C12.6502 12.7729 12.7439 12.7372 12.8155 12.6656C12.9585 12.5226 12.9585 12.2907 12.8154 12.1477L11.9865 11.3188L12.5749 10.7304L13.1089 11.2643C13.1803 11.3358 13.2741 11.3715 13.3678 11.3715C13.4615 11.3715 13.5552 11.3358 13.6268 11.2643C13.7698 11.1212 13.7698 10.8894 13.6267 10.7463L13.0928 10.2125L13.6812 9.62407L14.5101 10.453C14.5817 10.5245 14.6754 10.5602 14.7691 10.5602C14.8628 10.5602 14.9566 10.5245 15.0281 10.453C15.1711 10.3099 15.1711 10.0781 15.0281 9.93501L14.1992 9.1061L14.7876 8.51772L16.4823 10.2125L13.663 13.0317C13.52 13.1748 13.52 13.4066 13.663 13.5497C13.8061 13.6926 14.0379 13.6926 14.181 13.5497L17.0748 10.6559C17.3192 10.4114 17.3192 10.0136 17.0748 9.76914L16.965 9.65933L18.2179 8.40635C18.5751 8.04917 18.6465 7.51362 18.4338 7.08413L24.8927 0.625147C25.0358 0.482129 25.0358 0.250293 24.8927 0.107227ZM3.13435 24.2242L0.775854 21.8657L1.2905 21.351L3.64905 23.7095L3.13435 24.2242ZM3.28186 22.3065L2.69348 21.7181L3.83499 20.5766L4.42336 21.165L3.28186 22.3065ZM6.17668 21.8825L3.11755 18.8232L3.63215 18.3086L6.69133 21.3678L6.17668 21.8825ZM10.9507 15.744L10.3623 16.3324L8.6676 14.6377L9.25598 14.0494L10.9507 15.744ZM17.7 7.88833L16.447 9.14131L15.8587 8.55293L17.1116 7.29995C17.2356 7.18213 17.4859 7.1104 17.7 7.29995C17.7786 7.37852 17.8219 7.48301 17.8219 7.59409C17.8219 7.70527 17.7786 7.80977 17.7 7.88833Z" fill="#A81874"/>
<path d="M3.83301 10.0101C5.51577 10.0101 6.88481 8.64113 6.88481 6.95832C6.88481 5.32204 5.60527 3.98293 3.97178 3.90964C3.77065 3.89958 3.59858 4.057 3.58955 4.25905C3.58047 4.4611 3.73696 4.63224 3.93896 4.64128C4.78355 4.67917 5.50322 5.16281 5.87715 5.85964H1.79048C1.96597 5.53346 2.21948 5.24899 2.53647 5.03483C2.7041 4.9216 2.74814 4.69391 2.63496 4.52638C2.52178 4.35876 2.29399 4.31471 2.12651 4.4279C1.28413 4.99699 0.78125 5.94294 0.78125 6.95827C0.781201 8.64113 2.1502 10.0101 3.83301 10.0101ZM3.83301 9.2777C2.95137 9.2777 2.1832 8.78317 1.79092 8.057H5.8751C5.48281 8.78317 4.7146 9.2777 3.83301 9.2777ZM6.12334 6.59211C6.14219 6.71144 6.15234 6.83371 6.15234 6.95832C6.15234 7.08293 6.14219 7.20519 6.12314 7.32453H1.54282C1.52383 7.20519 1.51362 7.08293 1.51362 6.95832C1.51362 6.83449 1.52451 6.71227 1.5437 6.59211H6.12334Z" fill="#A81874"/>
<path d="M23.4273 11.1193C23.2538 11.2234 23.1976 11.4483 23.3016 11.6218C23.4985 11.9498 23.608 12.3148 23.6292 12.6846L19.9251 10.9574C20.5594 10.4829 21.4175 10.3493 22.2001 10.6738C22.387 10.7512 22.6012 10.6625 22.6786 10.4757C22.7561 10.2889 22.6675 10.0746 22.4806 9.99716C20.9679 9.36981 19.2404 10.0422 18.5478 11.5273C18.2033 12.2661 18.1671 13.0948 18.4459 13.8608C18.7247 14.6268 19.2851 15.2384 20.0239 15.5829C20.7216 15.9048 21.5647 15.9745 22.3574 15.6848C23.1235 15.406 23.735 14.8456 24.0795 14.1068C24.5087 13.1866 24.4527 12.1167 23.9298 11.245C23.8257 11.0715 23.6007 11.0153 23.4273 11.1193ZM23.4157 13.7973C23.3634 13.9096 23.3026 14.0161 23.2346 14.1169L19.0831 12.181C19.1167 12.0642 19.1593 11.9492 19.2116 11.8369C19.2643 11.7239 19.3252 11.6174 19.3926 11.5172L23.5432 13.4526C23.5098 13.5697 23.4681 13.685 23.4157 13.7973ZM22.107 14.9966C21.5247 15.2085 20.8948 15.1809 20.3335 14.9191C19.772 14.6573 19.3461 14.1925 19.1342 13.6103C19.0556 13.3945 19.0101 13.1721 18.9971 12.9491L22.7016 14.6765C22.5224 14.8099 22.3228 14.918 22.107 14.9966Z" fill="#A81874"/>
<path d="M9.57928 5.9264C10.1972 6.245 11.1045 5.99403 11.4401 5.28568L12.6432 2.81898C12.9796 2.12938 12.6921 1.29456 12.0025 0.958089C11.3128 0.621712 10.4782 0.909261 10.1417 1.59881L8.93855 4.06556C8.60223 4.75516 8.88963 5.58993 9.57928 5.9264ZM10.7818 4.96458C10.6389 5.25164 10.274 5.43031 9.90037 5.2681C9.57366 5.10872 9.43753 4.71336 9.59685 4.38665L10.0379 3.48245L11.2228 4.06038L10.7818 4.96458ZM10.8 1.91991C10.979 1.63665 11.2441 1.44237 11.6814 1.61639C12.0081 1.77577 12.1442 2.17113 11.9849 2.49784L11.5439 3.40203L10.359 2.82411L10.8 1.91991Z" fill="#A81874"/>
<path d="M17.3986 18.0828L14.7118 17.5232C14.0366 17.3662 13.2062 17.8393 13.0657 18.6019C12.9086 19.2771 13.3818 20.1074 14.1444 20.248L16.8312 20.8076C17.4781 20.9702 18.3505 20.4901 18.4773 19.7289C18.6344 19.0537 18.1612 18.2234 17.3986 18.0828ZM13.8767 19.2469C13.7802 19.0996 13.7469 18.9236 13.7828 18.7512C13.8506 18.4379 14.1604 18.1749 14.5624 18.2403L15.5474 18.4454L15.2786 19.7361L14.2937 19.531C14.1213 19.4951 13.9732 19.3942 13.8767 19.2469ZM17.7602 19.5796C17.6924 19.8929 17.3826 20.156 16.9806 20.0905L15.9956 19.8854L16.2644 18.5947L17.2493 18.7999C17.5626 18.8677 17.8256 19.1775 17.7602 19.5796Z" fill="#A81874"/>
<path d="M5.19111 12.4675L2.50429 11.908C1.829 11.7509 0.998772 12.2241 0.858196 12.9866C0.701067 13.6618 1.17431 14.4922 1.93686 14.6328L4.62367 15.1923C5.2706 15.3549 6.14301 14.8749 6.26977 14.1137C6.4269 13.4385 5.95366 12.6081 5.19111 12.4675ZM1.66918 13.6317C1.57265 13.4844 1.53935 13.3084 1.57524 13.136C1.64306 12.8227 1.95297 12.5596 2.35492 12.6251L3.33984 12.8302L3.07104 14.1209L2.08617 13.9157C1.91381 13.8798 1.76572 13.779 1.66918 13.6317ZM5.55273 13.9643C5.48491 14.2776 5.17504 14.5407 4.77304 14.4753L3.78813 14.2701L4.05693 12.9795L5.04179 13.1846C5.35512 13.2525 5.61811 13.5622 5.55273 13.9643Z" fill="#A81874"/>
<path d="M22.0459 18.2129C21.0093 18.2129 20.166 19.0562 20.166 20.0928C20.166 21.1293 21.0094 21.9727 22.0459 21.9727C23.0825 21.9727 23.9258 21.1293 23.9258 20.0928C23.9258 19.0562 23.0825 18.2129 22.0459 18.2129ZM22.0459 21.2403C21.4132 21.2403 20.8984 20.7255 20.8984 20.0928C20.8984 19.4601 21.4132 18.9454 22.0459 18.9454C22.6786 18.9454 23.1934 19.4601 23.1934 20.0928C23.1934 20.7255 22.6786 21.2403 22.0459 21.2403Z" fill="#A81874"/>
<path d="M17.4072 4.05278C18.4438 4.05278 19.2871 3.20942 19.2871 2.1729C19.2871 1.13638 18.4438 0.292969 17.4072 0.292969C16.3707 0.292969 15.5273 1.13633 15.5273 2.17285C15.5273 3.20938 16.3707 4.05278 17.4072 4.05278ZM17.4072 1.02539C18.0399 1.02539 18.5547 1.54014 18.5547 2.17285C18.5547 2.80557 18.0399 3.32031 17.4072 3.32031C16.7745 3.32031 16.2598 2.80557 16.2598 2.17285C16.2598 1.54014 16.7745 1.02539 17.4072 1.02539Z" fill="#A81874"/>
<path d="M10.9619 20.2148C9.92534 20.2148 9.08203 21.0582 9.08203 22.0947C9.08203 23.1313 9.92539 23.9746 10.9619 23.9746C11.9984 23.9746 12.8418 23.1313 12.8418 22.0947C12.8418 21.0582 11.9985 20.2148 10.9619 20.2148ZM10.9619 23.2422C10.3292 23.2422 9.81445 22.7274 9.81445 22.0947C9.81445 21.462 10.3292 20.9473 10.9619 20.9473C11.5946 20.9473 12.1094 21.462 12.1094 22.0947C12.1094 22.7274 11.5946 23.2422 10.9619 23.2422Z" fill="#A81874"/>
</g>
<defs>
<clipPath id="clip0_47_6808">
<rect width="25" height="25" fill="white"/>
</clipPath>
</defs>
</svg>
