<svg width="60" height="60" viewBox="0 0 60 60" fill="none" xmlns="http://www.w3.org/2000/svg">
<g opacity="0.8">
<path d="M57.4838 32.6813C53.1515 30.9211 48.1251 33.8123 45.3393 35.8523C46.65 31.6108 46.5824 27.1628 45.3382 23.1371C48.8015 25.6771 53.5075 27.9275 57.4838 26.3127C57.9055 26.1413 58.1087 25.661 57.937 25.2391C57.7658 24.8174 57.2853 24.6142 56.8638 24.7858C51.5948 26.9248 44.4121 20.2753 44.3401 20.2078C44.2801 20.1514 44.1971 20.1622 44.1268 20.1274C40.3746 12.3892 32.2052 7.28003 23.0486 7.98707C22.5943 8.02166 22.2552 8.41803 22.2904 8.87191C22.325 9.32579 22.7223 9.66554 23.175 9.62962C32.8162 8.88712 41.2934 15.1509 43.8243 24.1357C43.6284 24.4159 43.3085 24.8105 42.8273 25.1549C41.0924 26.394 39.1106 25.646 37.2382 24.5344C36.1864 22.1868 37.4889 20.7721 37.5586 20.7001C37.8787 20.3812 37.8822 19.8633 37.5654 19.5398C37.247 19.2148 36.7257 19.2093 36.4003 19.5277C36.326 19.6008 34.9959 20.9653 35.1911 23.2189C34.0425 22.5253 32.7102 22.0311 30.0257 22.2095C29.5716 22.2395 29.2281 22.6328 29.2583 23.0864C29.2887 23.5405 29.6807 23.8854 30.135 23.8534C33.7788 23.611 34.1443 24.6735 36.1786 25.8209C38.9669 27.5391 41.8627 28.3005 44.3013 26.0516C44.8832 29.361 44.6078 30.4351 44.3859 32.1063C43.7346 32.1964 41.8869 32.5046 39.5638 33.4091C37.2565 34.3076 35.2738 35.5577 33.6039 37.0372C32.0649 35.8078 32.3542 33.6999 32.3716 33.5928C32.4454 33.1453 32.1435 32.7219 31.6956 32.6461C31.2477 32.5703 30.8218 32.8728 30.7458 33.3214C30.7229 33.4573 30.2868 36.3375 32.3868 38.1761C31.8342 38.7739 31.3186 39.3972 30.874 40.0604C30.6204 40.438 30.7213 40.9498 31.0992 41.2037C31.4768 41.4562 31.9886 41.3568 32.2427 40.9783C33.1249 39.6633 34.1996 38.6278 35.3229 37.7381C35.0691 40.0251 36.2165 41.8785 36.284 41.9836C36.5298 42.3657 37.0373 42.4747 37.4195 42.2304C37.8022 41.9863 37.914 41.478 37.6716 41.0944C37.6053 40.9897 36.1374 38.5776 37.5553 36.22C40.2948 34.6738 42.9353 34.0383 44.1464 33.8222C40.5905 49.778 20.1938 55.106 9.44369 42.1319C10.648 41.684 11.7492 40.5872 12.6259 38.9334C12.9121 38.394 12.5219 37.7236 11.8918 37.7236C11.5507 37.7236 11.2599 37.9309 11.1356 38.2259C10.2898 39.7942 9.27668 40.6687 8.26933 40.7084C6.90153 38.7078 6.21234 37.0218 5.58485 34.7377C5.73819 34.7883 5.89331 34.8287 6.05415 34.8287C7.58279 34.8287 8.82148 32.4414 8.82148 29.4965C8.82148 26.5518 7.58279 24.1647 6.05415 24.1647C5.88736 24.1647 5.72586 24.2046 5.567 24.2588C6.27602 21.6618 7.06127 20.1395 8.31516 18.3011C10.5828 18.5124 13.0306 23.062 13.0007 29.4927C12.9921 31.3519 12.7788 33.1958 12.384 34.8262C12.2773 35.2684 12.5486 35.7139 12.9914 35.8204C13.4334 35.9279 13.8789 35.6564 13.9856 35.2136C14.4161 33.4364 14.6393 31.514 14.6487 29.5004C14.6642 26.22 14.0574 23.0944 12.9401 20.7001C11.9905 18.6647 10.7458 17.368 9.36525 16.8762C11.929 13.7524 15.4084 11.3702 19.5046 10.2622C19.9439 10.1428 20.2037 9.69021 20.0849 9.25132C19.9659 8.81176 19.5127 8.55266 19.0743 8.67097C14.1636 10.0002 10.0644 13.0053 7.2393 16.9401C7.20823 16.9721 7.15469 16.9717 7.12847 17.0089C6.78233 17.4949 6.5164 18.0215 6.21411 18.53C5.82082 19.1928 5.50134 19.5171 4.62972 21.7852C4.59314 21.8808 4.54247 21.9703 4.50677 22.0665C0.839397 24.8376 0.823754 34.1047 4.48827 36.9088C7.69868 45.6431 15.9211 51.0713 24.7231 51.0713C33.2571 51.0713 40.6273 46.0784 44.1244 38.871C44.1955 38.8358 44.2799 38.8428 44.3407 38.7856C44.4123 38.7181 51.5847 32.0635 56.8638 34.2078C57.2857 34.3794 57.7658 34.1763 57.937 33.7546C58.1087 33.3326 57.9055 32.8523 57.4838 32.6813Z" fill="white"/>
<path d="M33.0418 29.699C34.7593 28.4843 36.7603 30.4259 36.8482 30.5129C37.009 30.6737 37.2194 30.7535 37.4294 30.7535C38.1572 30.7535 38.5331 29.8682 38.0129 29.3471C36.9636 28.297 34.3759 26.7373 32.0908 28.3534C31.7189 28.6163 31.6306 29.1305 31.8937 29.5022C32.1561 29.8737 32.6705 29.9618 33.0418 29.699Z" fill="white"/>
<path d="M33.2782 16.4029C36.0039 16.5933 37.4685 18.2977 37.5352 18.377C37.8245 18.7267 38.3418 18.7763 38.6926 18.4883C39.0438 18.1997 39.0952 17.6801 38.8063 17.3285C38.7281 17.2333 36.8564 15.0005 33.3928 14.759C30.7526 14.575 29.5756 12.5544 29.5293 12.4727C29.3086 12.0741 28.8073 11.9295 28.4096 12.1501C28.0115 12.3706 27.8672 12.8721 28.0875 13.27C28.1525 13.3877 29.7226 16.1548 33.2782 16.4029Z" fill="white"/>
<path d="M24.4723 46.4763C24.4443 46.9313 24.7896 47.3217 25.2441 47.3497C25.5684 47.3702 25.8804 47.3795 26.1805 47.3795C31.8518 47.3795 33.2714 43.9811 33.3319 43.8291C33.5003 43.4058 33.2954 42.9224 32.8728 42.7541C32.4504 42.5869 31.9723 42.788 31.8042 43.2106C31.755 43.3261 30.5415 46.0253 25.3452 45.705C24.89 45.6757 24.5003 46.0225 24.4723 46.4763Z" fill="white"/>
</g>
</svg>
