<svg width="40" height="40" viewBox="0 0 40 40" fill="none" xmlns="http://www.w3.org/2000/svg">
<path fill-rule="evenodd" clip-rule="evenodd" d="M11.5073 0.78125H23.7425V4.23789C23.7425 5.20586 24.5287 5.99211 25.4967 5.99211H28.9533V22.9959C28.9533 23.2497 28.7463 23.4567 28.4925 23.4567H11.5073C11.2535 23.4567 11.0465 23.2497 11.0465 22.9959V1.24211C11.0465 0.988281 11.2535 0.78125 11.5073 0.78125ZM25.2663 0.82125V4.23797C25.2663 4.36492 25.3698 4.46836 25.4968 4.46836H28.9135C28.8912 4.41945 28.8594 4.37437 28.8184 4.33336L25.4013 0.91625C25.3603 0.875234 25.3152 0.843594 25.2663 0.82125ZM24.6114 14.072H15.3884C15.0497 14.072 14.7751 14.3466 14.7751 14.6852C14.7751 15.0239 15.0497 15.2985 15.3884 15.2985H24.6114C24.9501 15.2985 25.2247 15.0238 25.2247 14.6852C25.2247 14.3466 24.9501 14.072 24.6114 14.072ZM24.6114 19.6822H15.3884C15.0497 19.6822 14.7751 19.9568 14.7751 20.2954C14.7751 20.6341 15.0497 20.9087 15.3884 20.9087H24.6114C24.9501 20.9087 25.2247 20.6341 25.2247 20.2954C25.2247 19.9568 24.9501 19.6822 24.6114 19.6822ZM24.6114 16.877H15.3884C15.0497 16.877 14.7751 17.1516 14.7751 17.4903C14.7751 17.829 15.0497 18.1036 15.3884 18.1036H24.6114C24.9501 18.1036 25.2247 17.829 25.2247 17.4903C25.2247 17.1517 24.9501 16.877 24.6114 16.877ZM18.9419 4.65945C18.815 4.65945 18.7115 4.76297 18.7115 4.88984V6.59719H17.0041C16.8772 6.59719 16.7737 6.7007 16.7737 6.82766V8.94367C16.7737 9.07062 16.8772 9.17414 17.0041 9.17414H18.7115V10.8815C18.7115 11.0084 18.815 11.1119 18.9419 11.1119H21.0579C21.1848 11.1119 21.2883 11.0084 21.2883 10.8815V9.17414H22.9957C23.1226 9.17414 23.2262 9.07062 23.2262 8.94367V6.82766C23.2262 6.7007 23.1226 6.59719 22.9957 6.59719H21.2883V4.88992C21.2883 4.76297 21.1848 4.65953 21.0579 4.65953L18.9419 4.65945ZM11.3712 39.2188H28.5962C29.1221 39.2188 29.5485 38.7923 29.5485 38.2664C29.5485 37.7405 29.1221 37.3141 28.5962 37.3141H24.9261C24.6503 35.8641 24.5165 34.2593 24.6373 32.8193H36.0514C37.5377 32.8193 38.7425 31.6145 38.7425 30.1283V27.0189V8.6107C38.7425 7.12438 37.5377 5.91961 36.0515 5.91961H30.4772V7.59578H36.0515C36.6126 7.59578 37.0664 8.04953 37.0664 8.6107V27.0188H2.9335C2.9335 21.2923 2.9335 14.3372 2.9335 8.6107C2.9335 8.04953 3.38725 7.59578 3.94842 7.59578H9.52264V5.91961H3.94842C2.46209 5.91961 1.25732 7.12438 1.25732 8.6107V30.1283C1.25732 31.6146 2.46209 32.8193 3.94842 32.8193H15.2763C15.4 34.2592 15.286 35.8641 15.0302 37.3141H11.3711C10.8451 37.3141 10.4187 37.7405 10.4187 38.2664C10.4187 38.7923 10.8451 39.2188 11.3712 39.2188Z" fill="#00001B"/>
</svg>
