<svg width="25" height="25" viewBox="0 0 25 25" fill="none" xmlns="http://www.w3.org/2000/svg">
<g clip-path="url(#clip0_47_6793)">
<path d="M24.6092 8.03115C24.6085 7.77739 24.5411 7.52827 24.4136 7.30884C24.2861 7.08941 24.1031 6.90742 23.883 6.78115L23.7385 6.69873L24.0018 6.30342C24.132 6.10927 24.2069 5.88338 24.2186 5.64991C24.2303 5.41645 24.1783 5.1842 24.0681 4.97802C23.958 4.77184 23.7938 4.59949 23.5933 4.47942C23.3927 4.35936 23.1633 4.29609 22.9295 4.29639C22.3584 4.29519 21.8109 4.06861 21.4061 3.66592C21.1804 3.44413 20.9025 3.2827 20.598 3.19648C20.2936 3.11026 19.9723 3.10204 19.6639 3.17256C17.4073 3.67758 15.2953 4.68975 13.4881 6.13232L12.3627 7.03076H12.1213L11.7604 5.58818L13.1666 4.18193C13.2055 4.1431 13.2357 4.0965 13.2553 4.04519C13.2749 3.99388 13.2835 3.939 13.2805 3.88415C13.2775 3.8293 13.2629 3.7757 13.2378 3.72685C13.2126 3.67801 13.1775 3.63501 13.1346 3.60068L9.22832 0.475684C9.15881 0.419873 9.07231 0.389515 8.98317 0.389649C8.89403 0.389783 8.80761 0.420401 8.73827 0.47642C8.66893 0.532439 8.62084 0.610489 8.60197 0.697612C8.58311 0.784734 8.59461 0.875688 8.63457 0.955371L10.0893 3.8667L9.06231 5.23389C9.0085 5.30553 8.98096 5.3935 8.9843 5.48304C8.98764 5.57258 9.02166 5.65825 9.08066 5.72568L10.2229 7.03076H8.20293V5.07764C8.20295 4.99745 8.1783 4.9192 8.13232 4.85351C8.08633 4.78782 8.02125 4.73787 7.9459 4.71045L3.64902 3.14795C3.56546 3.11752 3.47402 3.11652 3.38982 3.14511C3.30561 3.17369 3.23368 3.23015 3.1859 3.30515C3.13813 3.38016 3.11738 3.46922 3.12708 3.55761C3.13678 3.64601 3.17636 3.72845 3.23926 3.79131L5.85918 6.41123V6.95264C4.04864 6.84317 2.24762 6.61087 0.468555 6.25732L0.312305 7.02295C2.14283 7.38652 3.99614 7.62406 5.85918 7.73389V8.20264C5.85915 8.28076 5.88255 8.3571 5.92635 8.42178C5.97015 8.48647 6.03234 8.53654 6.10488 8.56553L10.0111 10.128C10.0947 10.1614 10.1872 10.165 10.273 10.138C10.3589 10.1111 10.4328 10.0554 10.4823 9.98025C10.5318 9.90512 10.5539 9.8152 10.5448 9.72568C10.5356 9.63617 10.4959 9.55256 10.4322 9.48897L8.75527 7.81201H10.9064L11.815 8.85068C11.8727 8.91663 11.9509 8.96126 12.037 8.97741C12.1232 8.99355 12.2122 8.98027 12.2899 8.9397C12.3675 8.89914 12.4293 8.83364 12.4653 8.75373C12.5012 8.67382 12.5092 8.58415 12.4881 8.49912L12.3162 7.81201H12.4998C12.5885 7.81205 12.6746 7.78188 12.7439 7.72647L13.9764 6.74014C15.6905 5.37285 17.6932 4.4136 19.833 3.93506C20.0133 3.89309 20.2011 3.89702 20.3795 3.9465C20.5578 3.99598 20.7209 4.08942 20.8537 4.21826C21.4054 4.76694 22.1514 5.07576 22.9295 5.07764C23.0217 5.07729 23.1123 5.10206 23.1915 5.1493C23.2707 5.19655 23.3356 5.26447 23.3791 5.34579C23.4227 5.4271 23.4432 5.51874 23.4386 5.61086C23.434 5.70297 23.4044 5.7921 23.3529 5.86865L23.0596 6.30889L22.2166 5.82764C21.8255 5.60879 21.3872 5.48797 20.9393 5.47552C20.4913 5.46307 20.047 5.55936 19.6443 5.75615L19.1088 6.02373C18.8368 6.15527 18.6178 6.37561 18.4879 6.64838C18.358 6.92115 18.325 7.23006 18.3943 7.52412C18.1597 7.6961 17.9568 7.90759 17.7947 8.14912C17.6844 8.31377 17.6137 8.50173 17.5882 8.69828C17.5628 8.89482 17.5832 9.0946 17.6479 9.28193C17.4313 9.47477 17.2814 9.73126 17.2198 10.0146C17.1581 10.2979 17.1877 10.5935 17.3045 10.8589C17.0844 11.0357 16.9247 11.2767 16.8476 11.5483C16.7705 11.82 16.7798 12.1088 16.8743 12.375C16.9687 12.6411 17.1436 12.8712 17.3746 13.0335C17.6057 13.1958 17.8815 13.2822 18.1639 13.2808H18.6576C18.8477 13.28 19.0341 13.3325 19.1958 13.4325C19.3574 13.5324 19.4878 13.6757 19.5721 13.846L20.2713 13.4968C20.1221 13.1966 19.8919 12.9441 19.6068 12.7679C19.3216 12.5916 18.9928 12.4987 18.6576 12.4995H18.1639C18.0085 12.4995 17.8594 12.4378 17.7495 12.3279C17.6397 12.218 17.5779 12.069 17.5779 11.9136C17.5779 11.7582 17.6397 11.6091 17.7495 11.4993C17.8594 11.3894 18.0085 11.3276 18.1639 11.3276H18.6115C19.8982 11.3263 21.1563 11.7069 22.2264 12.4214C22.367 12.515 22.4805 12.6439 22.5557 12.7952C22.6308 12.9465 22.6648 13.1149 22.6544 13.2835C22.6439 13.4521 22.5894 13.615 22.4962 13.7559C22.4029 13.8968 22.2743 14.0107 22.1232 14.0862L20.2318 15.0319C19.8464 15.223 19.4082 15.2795 18.9869 15.1925L12.9459 13.9214C12.4538 13.8177 11.9555 13.7461 11.4541 13.7069L11.9717 13.1894L14.1404 11.6401C14.3578 11.4845 14.535 11.2793 14.6573 11.0416C14.7796 10.8038 14.8434 10.5403 14.8436 10.2729C14.8439 10.0393 14.7808 9.8099 14.6608 9.60935C14.5409 9.40879 14.3687 9.24461 14.1627 9.13436C13.9567 9.0241 13.7246 8.97192 13.4912 8.9834C13.2578 8.99487 13.0319 9.06958 12.8377 9.19951L10.7732 10.5769L7.6291 11.4362C6.83443 11.6531 6.14501 12.1501 5.68809 12.8355C5.57248 13.0082 5.4731 13.1913 5.39121 13.3823L5.23848 13.7386L0.364648 14.062L0.416211 14.8433L4.89277 14.5448L4.3748 15.7503L0.180664 18.4198L0.600195 19.0792L4.89707 16.3448C4.96336 16.3026 5.01537 16.2413 5.04629 16.169L6.10957 13.689C6.17254 13.5415 6.24904 13.4001 6.33809 13.2667C6.69012 12.7379 7.2217 12.3543 7.83457 12.187L11.04 11.3128C11.0806 11.3018 11.1192 11.2843 11.1541 11.2608L13.2713 9.84951C13.3478 9.79807 13.437 9.76846 13.5291 9.76384C13.6212 9.75923 13.7128 9.77979 13.7942 9.82332C13.8755 9.86685 13.9434 9.9317 13.9906 10.0109C14.0379 10.0901 14.0627 10.1807 14.0623 10.2729C14.0622 10.4157 14.028 10.5565 13.9627 10.6834C13.8973 10.8104 13.8027 10.92 13.6865 11.003L11.4916 12.571C11.4741 12.5835 11.4576 12.5975 11.4424 12.6128L10.2705 13.7847C10.2155 13.8392 10.1779 13.9089 10.1626 13.9849C10.1474 14.0609 10.155 14.1397 10.1846 14.2113C10.2142 14.2829 10.2644 14.3441 10.3289 14.387C10.3934 14.43 10.4692 14.4529 10.5467 14.4526C11.2987 14.4532 12.0487 14.5317 12.7846 14.687L16.9494 15.5636L16.2033 16.6292C16.0062 16.9111 15.748 17.145 15.448 17.3133C15.148 17.4816 14.8139 17.5801 14.4705 17.6015L8.56934 17.9683C8.47826 17.9739 8.39202 18.0112 8.32559 18.0737L1.68496 24.3237L2.2209 24.8925L8.75879 18.7401L14.5193 18.38C14.9798 18.3512 15.4279 18.219 15.8302 17.9933C16.2326 17.7675 16.579 17.454 16.8436 17.0761L17.7811 15.7374L18.8268 15.9577C19.4206 16.0805 20.0385 16.0009 20.5818 15.7315L22.4732 14.7858C22.8412 14.6038 23.1325 14.2971 23.2955 13.9203C23.4586 13.5436 23.4826 13.1212 23.3635 12.7284C23.5763 12.5087 23.7239 12.2341 23.7899 11.9354C23.8559 11.6367 23.8377 11.3256 23.7373 11.0366C23.9808 10.7991 24.1422 10.4899 24.1978 10.1543C24.2535 9.81869 24.2005 9.47405 24.0467 9.17061C24.2216 9.03657 24.3633 8.86408 24.4608 8.66649C24.5584 8.4689 24.6091 8.25151 24.6092 8.03115ZM6.64043 7.93818V6.24951C6.64041 6.14592 6.59924 6.04658 6.52598 5.97334L5.03887 4.48389L7.42168 5.35107V7.42139C7.4217 7.52498 7.46287 7.62432 7.53613 7.69756L8.53418 8.69561L6.64043 7.93818ZM9.87715 5.44951L10.8592 4.14014C10.903 4.08232 10.9299 4.01343 10.9368 3.9412C10.9437 3.86896 10.9304 3.79622 10.8982 3.73115L10.1291 2.19678L12.3045 3.93818L11.0506 5.19209C11.0029 5.2398 10.9683 5.29906 10.9503 5.3641C10.9323 5.42913 10.9315 5.49772 10.9479 5.56318L11.3365 7.11865L9.87715 5.44951ZM19.458 6.72256L19.9939 6.45498C20.2812 6.3143 20.5984 6.24543 20.9182 6.25428C21.2379 6.26312 21.5508 6.34942 21.8299 6.50576L23.4959 7.45811C23.591 7.51197 23.6712 7.58874 23.7291 7.68146C23.7869 7.77418 23.8207 7.87989 23.8274 7.989C23.834 8.0981 23.8133 8.20713 23.7671 8.30618C23.7208 8.40523 23.6506 8.49116 23.5627 8.55615L22.7033 7.69678C22.2753 7.27157 21.6969 7.03226 21.0936 7.03076H19.8857C19.6373 7.03208 19.3905 7.07026 19.1533 7.14404C19.167 7.05463 19.2017 6.96976 19.2547 6.89646C19.3077 6.82316 19.3774 6.76355 19.458 6.72256ZM18.6115 10.5464H18.1639C18.118 10.5487 18.0722 10.5534 18.0268 10.5604C17.9637 10.4269 17.9513 10.2751 17.9919 10.1331C18.0324 9.99114 18.1231 9.86871 18.2471 9.78857C18.6517 9.51811 19.1276 9.37399 19.6143 9.37451C20.4785 9.37518 21.3154 9.67808 21.9799 10.2308L22.7096 10.839C22.8762 10.9763 22.9896 11.1675 23.0301 11.3795C23.0707 11.5916 23.036 11.8112 22.9318 12.0003C22.8486 11.9152 22.757 11.8388 22.6584 11.7722C21.4605 10.972 20.0521 10.5454 18.6115 10.5464ZM23.21 10.239L22.4803 9.63076C21.6753 8.96097 20.6614 8.59392 19.6143 8.59326C19.1835 8.59521 18.7574 8.68327 18.3611 8.85225C18.3631 8.75658 18.3921 8.66341 18.4447 8.5835C18.6026 8.34595 18.8168 8.15118 19.0682 8.01657C19.3197 7.88195 19.6005 7.81168 19.8857 7.81201H21.0936C21.4899 7.81321 21.8698 7.97053 22.151 8.2499L23.19 9.28936C23.3265 9.42389 23.4122 9.60151 23.4326 9.79206C23.4529 9.98261 23.4067 10.1743 23.3018 10.3347C23.2701 10.3034 23.2443 10.2675 23.21 10.239Z" fill="#A81874"/>
</g>
<defs>
<clipPath id="clip0_47_6793">
<rect width="25" height="25" fill="white"/>
</clipPath>
</defs>
</svg>
