<svg width="40" height="40" viewBox="0 0 40 40" fill="none" xmlns="http://www.w3.org/2000/svg">
<g clip-path="url(#clip0_47_7354)">
<path d="M36.3175 16.3203C34.6968 16.3203 33.3182 17.3733 32.8275 18.8307H23.4805V21.1745H32.8274C34.2033 25.072 39.9177 24.1852 39.9997 20.0025C39.9998 17.9722 38.3479 16.3203 36.3175 16.3203Z" fill="#2D3928"/>
<path d="M31.2966 26.362C30.708 26.362 30.1516 26.5016 29.6577 26.7482L27.1044 24.1948C26.8847 23.9751 26.5866 23.8516 26.2758 23.8516H23.4805V26.1953H25.7904L28.0005 28.4054C26.7684 30.7888 28.6015 33.7624 31.2966 33.7265C36.1747 33.5416 36.1738 26.5465 31.2966 26.362Z" fill="#2D3928"/>
<path d="M6.42594 21.1719H0C0.128594 23.4124 0.624453 25.5834 1.46008 27.6146H7.17719C6.74727 25.5651 6.49242 23.3965 6.42594 21.1719Z" fill="#2D3928"/>
<path d="M7.17719 12.3828H1.46008C0.624453 14.414 0.128594 16.585 0 18.8255H6.42594C6.49242 16.6009 6.74727 14.4323 7.17719 12.3828Z" fill="#2D3928"/>
<path d="M12.0847 1.60938C6.44352 4.02719 3.62594 8.28195 2.61133 10.0435H7.75969C8.55414 7.30234 9.90195 4.11969 12.0847 1.60938Z" fill="#2D3928"/>
<path d="M2.61133 29.9609C3.62594 31.7225 6.44352 35.9773 12.0847 38.3952C9.90156 35.8844 8.55414 32.7022 7.75969 29.9609H2.61133Z" fill="#2D3928"/>
<path d="M19.9644 0C15.4641 0 11.997 4.39844 10.207 10.0416H21.1363V1.17188C21.1363 0.524687 20.6116 0 19.9644 0Z" fill="#2D3928"/>
<path d="M19.9644 40.0026C20.6116 40.0026 21.1363 39.4779 21.1363 38.8307V29.9609H10.207C11.9995 35.6121 15.4702 40.0026 19.9644 40.0026Z" fill="#2D3928"/>
<path d="M8.77148 18.8255H21.1377V12.3828H9.575C9.11547 14.4131 8.84227 16.5852 8.77148 18.8255Z" fill="#2D3928"/>
<path d="M27.1044 15.8056L29.6577 13.2522C32.0409 14.4842 35.0149 12.6512 34.9788 9.95602C34.9788 7.92563 33.327 6.27376 31.2966 6.27376C28.6016 6.23798 26.768 9.21173 28.0005 11.5949L25.7904 13.805H23.4805V16.1488H26.2758C26.5866 16.1488 26.8847 16.0253 27.1044 15.8056Z" fill="#2D3928"/>
<path d="M9.575 27.6146H21.1377V21.1719H8.77148C8.84227 23.4122 9.11547 25.5843 9.575 27.6146Z" fill="#2D3928"/>
</g>
<defs>
<clipPath id="clip0_47_7354">
<rect width="40" height="40" fill="white"/>
</clipPath>
</defs>
</svg>
