<svg width="60" height="60" viewBox="0 0 60 60" fill="none" xmlns="http://www.w3.org/2000/svg">
<g opacity="0.8">
<path d="M32.8123 44.0626C33.0609 44.0626 33.2994 43.9638 33.4752 43.788C33.651 43.6122 33.7498 43.3737 33.7498 43.1251C33.7498 42.8764 33.651 42.638 33.4752 42.4622C33.2994 42.2863 33.0609 42.1876 32.8123 42.1876H26.2498V39.0751L30.3466 37.4344C30.4956 37.3751 30.6268 37.2785 30.7278 37.154C30.8288 37.0294 30.8961 36.881 30.9234 36.723C30.9507 36.565 30.937 36.4027 30.8836 36.2515C30.8302 36.1003 30.7389 35.9653 30.6185 35.8594L30.506 35.7563C28.0191 33.5683 26.4907 30.4912 26.2498 27.1876C26.442 25.4172 26.363 23.6278 26.0154 21.8813C25.4311 18.6384 23.7265 15.7037 21.1992 13.5894C18.6719 11.475 15.4824 10.3153 12.1873 10.3126C10.3155 10.3066 8.46163 10.678 6.73652 11.4044C5.0114 12.1309 3.45037 13.1975 2.14665 14.5407C2.04916 14.6254 1.97023 14.7294 1.91483 14.8461C1.85942 14.9628 1.82873 15.0897 1.82468 15.2188C1.82063 15.348 1.84331 15.4765 1.89129 15.5965C1.93928 15.7164 2.01153 15.8251 2.10352 15.9158C2.19552 16.0065 2.30526 16.0772 2.42587 16.1235C2.54647 16.1698 2.67535 16.1906 2.80439 16.1848C2.93344 16.1789 3.05988 16.1464 3.17578 16.0893C3.29168 16.0323 3.39454 15.9519 3.4779 15.8532C5.1716 14.1229 7.3423 12.9364 9.71312 12.4448C12.084 11.9533 14.5475 12.1791 16.7894 13.0934C19.0314 14.0077 20.9503 15.5691 22.3012 17.5784C23.6522 19.5877 24.3741 21.9538 24.3748 24.3751C24.3737 24.5049 24.4025 24.6332 24.4592 24.7501C24.4762 25.5354 24.4481 26.3211 24.3748 27.1032V27.2438C24.6012 30.6039 25.9862 33.7814 28.2935 36.2344L24.9654 37.5657C24.791 37.6352 24.6414 37.7554 24.5361 37.9109C24.4308 38.0663 24.3746 38.2498 24.3748 38.4376V42.1876H18.7498C18.5011 42.1876 18.2627 42.2863 18.0869 42.4622C17.911 42.638 17.8123 42.8764 17.8123 43.1251C17.8123 43.3737 17.911 43.6122 18.0869 43.788C18.2627 43.9638 18.5011 44.0626 18.7498 44.0626H24.1029C23.699 45.4172 22.8686 46.6052 21.7351 47.4498C20.6017 48.2944 19.2258 48.7504 17.8123 48.7501H17.156H16.931C16.8033 48.7424 16.6753 48.761 16.555 48.8046C16.4346 48.8483 16.3245 48.9161 16.2314 49.004C16.1383 49.0918 16.0642 49.1978 16.0136 49.3153C15.963 49.4329 15.937 49.5596 15.9373 49.6876V57.1876C15.9373 57.4362 16.036 57.6747 16.2119 57.8505C16.3877 58.0263 16.6261 58.1251 16.8748 58.1251C17.1234 58.1251 17.3619 58.0263 17.5377 57.8505C17.7135 57.6747 17.8123 57.4362 17.8123 57.1876V50.6251C19.7234 50.624 21.5775 49.9742 23.0711 48.782C24.5648 47.5898 25.6095 45.9259 26.0342 44.0626H32.8123Z" fill="white"/>
<path d="M33.4781 38.7132C33.3015 38.5367 33.0621 38.4375 32.8124 38.4375C32.5628 38.4375 32.3233 38.5367 32.1468 38.7132C31.9703 38.8897 31.8711 39.1292 31.8711 39.3788C31.8711 39.6285 31.9703 39.8679 32.1468 40.0445L33.0843 40.982C33.1715 41.0698 33.2751 41.1396 33.3894 41.1872C33.5036 41.2348 33.6262 41.2593 33.7499 41.2593C33.8737 41.2593 33.9962 41.2348 34.1105 41.1872C34.2247 41.1396 34.3284 41.0698 34.4156 40.982C34.5034 40.8948 34.5732 40.7911 34.6208 40.6769C34.6684 40.5626 34.6929 40.4401 34.6929 40.3163C34.6929 40.1926 34.6684 40.07 34.6208 39.9558C34.5732 39.8416 34.5034 39.7379 34.4156 39.6507L33.4781 38.7132Z" fill="white"/>
<path d="M33.084 45.2757L32.1465 46.2132C32.0586 46.3004 31.9888 46.4041 31.9412 46.5183C31.8936 46.6325 31.8691 46.7551 31.8691 46.8788C31.8691 47.0026 31.8936 47.1251 31.9412 47.2394C31.9888 47.3536 32.0586 47.4573 32.1465 47.5445C32.2336 47.6323 32.3373 47.7021 32.4515 47.7497C32.5658 47.7973 32.6883 47.8218 32.8121 47.8218C32.9358 47.8218 33.0584 47.7973 33.1726 47.7497C33.2869 47.7021 33.3905 47.6323 33.4777 47.5445L34.4152 46.607C34.5917 46.4304 34.6909 46.191 34.6909 45.9413C34.6909 45.6917 34.5917 45.4522 34.4152 45.2757C34.2387 45.0992 33.9992 45 33.7496 45C33.4999 45 33.2605 45.0992 33.084 45.2757Z" fill="white"/>
<path d="M57.1875 11.25C57.4361 11.25 57.6746 11.1512 57.8504 10.9754C58.0262 10.7996 58.125 10.5611 58.125 10.3125V2.8125C58.125 2.56386 58.0262 2.3254 57.8504 2.14959C57.6746 1.97377 57.4361 1.875 57.1875 1.875H28.125C27.8764 1.875 27.6379 1.97377 27.4621 2.14959C27.2863 2.3254 27.1875 2.56386 27.1875 2.8125V17.8125C27.1875 18.0611 27.2863 18.2996 27.4621 18.4754C27.6379 18.6512 27.8764 18.75 28.125 18.75H38.4375V21.5625C38.4375 21.8111 38.5363 22.0496 38.7121 22.2254C38.8879 22.4012 39.1264 22.5 39.375 22.5H42.2531C42.4813 24.3113 43.3623 25.9771 44.731 27.1853C46.0996 28.3934 47.8619 29.0608 49.6875 29.0625H54.375C54.8723 29.0625 55.3492 29.26 55.7008 29.6117C56.0525 29.9633 56.25 30.4402 56.25 30.9375C56.25 31.4348 56.0525 31.9117 55.7008 32.2633C55.3492 32.615 54.8723 32.8125 54.375 32.8125C53.3804 32.8125 52.4266 33.2076 51.7234 33.9109C51.0201 34.6141 50.625 35.5679 50.625 36.5625V40.3125H48.75C48.75 40.0639 48.6512 39.8254 48.4754 39.6496C48.2996 39.4738 48.0611 39.375 47.8125 39.375H42.1875C41.9389 39.375 41.7004 39.4738 41.5246 39.6496C41.3488 39.8254 41.25 40.0639 41.25 40.3125V40.4531L36.4125 41.25C36.1907 41.2859 35.9891 41.4004 35.8446 41.5724C35.7 41.7445 35.6221 41.9628 35.625 42.1875V44.0625C35.6221 44.2872 35.7 44.5055 35.8446 44.6776C35.9891 44.8496 36.1907 44.9641 36.4125 45L41.25 45.8063V45.9375C41.25 46.1861 41.3488 46.4246 41.5246 46.6004C41.7004 46.7762 41.9389 46.875 42.1875 46.875H47.8125C48.0611 46.875 48.2996 46.7762 48.4754 46.6004C48.6512 46.4246 48.75 46.1861 48.75 45.9375H55.3125C56.0584 45.9375 56.7738 45.6412 57.3012 45.1137C57.8287 44.5863 58.125 43.8709 58.125 43.125C58.125 42.3791 57.8287 41.6637 57.3012 41.1363C56.7738 40.6088 56.0584 40.3125 55.3125 40.3125H52.5V36.5625C52.5 36.0652 52.6975 35.5883 53.0492 35.2367C53.4008 34.885 53.8777 34.6875 54.375 34.6875C55.3696 34.6875 56.3234 34.2924 57.0266 33.5891C57.7299 32.8859 58.125 31.9321 58.125 30.9375C58.125 29.9429 57.7299 28.9891 57.0266 28.2859C56.3234 27.5826 55.3696 27.1875 54.375 27.1875H49.6875C48.3592 27.1862 47.0742 26.7148 46.0601 25.8568C45.046 24.9989 44.3683 23.8097 44.1469 22.5H46.875C47.1236 22.5 47.3621 22.4012 47.5379 22.2254C47.7137 22.0496 47.8125 21.8111 47.8125 21.5625V18.75H57.1875C57.4361 18.75 57.6746 18.6512 57.8504 18.4754C58.0262 18.2996 58.125 18.0611 58.125 17.8125V14.0625C58.125 13.8139 58.0262 13.5754 57.8504 13.3996C57.6746 13.2238 57.4361 13.125 57.1875 13.125C56.9389 13.125 56.7004 13.2238 56.5246 13.3996C56.3488 13.5754 56.25 13.8139 56.25 14.0625V16.875H29.0625V3.75H56.25V10.3125C56.25 10.5611 56.3488 10.7996 56.5246 10.9754C56.7004 11.1512 56.9389 11.25 57.1875 11.25ZM37.5 43.2656V42.9844L41.25 42.3563V43.8937L37.5 43.2656ZM43.125 45V41.25H46.875V45H43.125ZM56.25 43.125C56.25 43.3736 56.1512 43.6121 55.9754 43.7879C55.7996 43.9637 55.5611 44.0625 55.3125 44.0625H48.75V42.1875H55.3125C55.5611 42.1875 55.7996 42.2863 55.9754 42.4621C56.1512 42.6379 56.25 42.8764 56.25 43.125ZM45.9375 18.75V20.625H40.3125V18.75H45.9375Z" fill="white"/>
<path d="M44.0625 5.625C43.8139 5.625 43.5754 5.72377 43.3996 5.89959C43.2238 6.0754 43.125 6.31386 43.125 6.5625V14.0625C43.125 14.3111 43.2238 14.5496 43.3996 14.7254C43.5754 14.9012 43.8139 15 44.0625 15H53.4375C53.6861 15 53.9246 14.9012 54.1004 14.7254C54.2762 14.5496 54.375 14.3111 54.375 14.0625V6.5625C54.375 6.31386 54.2762 6.0754 54.1004 5.89959C53.9246 5.72377 53.6861 5.625 53.4375 5.625H44.0625ZM52.5 13.125H45V7.5H52.5V13.125Z" fill="white"/>
<path d="M30.9375 10.3125C30.9375 10.8688 31.1025 11.4125 31.4115 11.875C31.7205 12.3376 32.1598 12.698 32.6737 12.9109C33.1876 13.1238 33.7531 13.1795 34.2987 13.071C34.8443 12.9624 35.3454 12.6946 35.7387 12.3012C36.1321 11.9079 36.3999 11.4068 36.5085 10.8612C36.617 10.3156 36.5613 9.75012 36.3484 9.2362C36.1355 8.72229 35.7751 8.28303 35.3125 7.97399C34.85 7.66495 34.3063 7.5 33.75 7.5C33.0041 7.5 32.2887 7.79632 31.7613 8.32376C31.2338 8.85121 30.9375 9.56658 30.9375 10.3125ZM34.6875 10.3125C34.6875 10.4979 34.6325 10.6792 34.5295 10.8333C34.4265 10.9875 34.2801 11.1077 34.1088 11.1786C33.9375 11.2496 33.749 11.2682 33.5671 11.232C33.3852 11.1958 33.2182 11.1065 33.0871 10.9754C32.956 10.8443 32.8667 10.6773 32.8305 10.4954C32.7943 10.3135 32.8129 10.125 32.8839 9.95373C32.9548 9.78243 33.075 9.63601 33.2292 9.533C33.3833 9.42998 33.5646 9.375 33.75 9.375C33.9986 9.375 34.2371 9.47377 34.4129 9.64959C34.5887 9.8254 34.6875 10.0639 34.6875 10.3125Z" fill="white"/>
<path d="M40.3125 9.375C40.8303 9.375 41.25 8.95527 41.25 8.4375C41.25 7.91973 40.8303 7.5 40.3125 7.5C39.7947 7.5 39.375 7.91973 39.375 8.4375C39.375 8.95527 39.7947 9.375 40.3125 9.375Z" fill="white"/>
<path d="M40.3125 13.125C40.8303 13.125 41.25 12.7053 41.25 12.1875C41.25 11.6697 40.8303 11.25 40.3125 11.25C39.7947 11.25 39.375 11.6697 39.375 12.1875C39.375 12.7053 39.7947 13.125 40.3125 13.125Z" fill="white"/>
<path d="M16.875 28.125C16.875 28.6813 17.0399 29.225 17.349 29.6875C17.658 30.1501 18.0973 30.5105 18.6112 30.7234C19.1251 30.9363 19.6906 30.992 20.2362 30.8835C20.7818 30.7749 21.2829 30.5071 21.6762 30.1137C22.0696 29.7204 22.3374 29.2193 22.446 28.6737C22.5545 28.1281 22.4988 27.5626 22.2859 27.0487C22.073 26.5348 21.7126 26.0955 21.25 25.7865C20.7875 25.4774 20.2438 25.3125 19.6875 25.3125C18.9416 25.3125 18.2262 25.6088 17.6988 26.1363C17.1713 26.6637 16.875 27.3791 16.875 28.125ZM20.625 28.125C20.625 28.3104 20.57 28.4917 20.467 28.6458C20.364 28.8 20.2176 28.9202 20.0463 28.9911C19.875 29.0621 19.6865 29.0807 19.5046 29.0445C19.3227 29.0083 19.1557 28.919 19.0246 28.7879C18.8935 28.6568 18.8042 28.4898 18.768 28.3079C18.7318 28.126 18.7504 27.9375 18.8214 27.7662C18.8923 27.5949 19.0125 27.4485 19.1667 27.3455C19.3208 27.2425 19.5021 27.1875 19.6875 27.1875C19.9361 27.1875 20.1746 27.2863 20.3504 27.4621C20.5262 27.6379 20.625 27.8764 20.625 28.125Z" fill="white"/>
<path d="M19.6877 23.4835C19.807 23.5354 19.9358 23.5618 20.0658 23.5612C20.1959 23.5606 20.3244 23.5329 20.4432 23.4799C20.562 23.4269 20.6685 23.3498 20.7558 23.2534C20.8432 23.157 20.9096 23.0436 20.9507 22.9202C20.9918 22.7968 21.0068 22.6662 20.9948 22.5367C20.9827 22.4071 20.9438 22.2816 20.8805 22.1679C20.8173 22.0542 20.7311 21.955 20.6274 21.8764C20.5238 21.7979 20.4049 21.7418 20.2783 21.7117C18.0655 20.9731 15.6663 21.0162 13.4814 21.8335L12.4502 22.2179C10.0425 23.1156 8.06324 24.8906 6.90957 27.1867C6.18376 28.6367 5.78878 30.2298 5.75312 31.851C5.71745 33.4722 6.04199 35.0811 6.70332 36.5617C7.22052 37.731 7.48768 38.9955 7.48768 40.2742C7.48768 41.5528 7.22052 42.8173 6.70332 43.9867L6.5627 44.2773C5.93673 45.685 5.61328 47.2085 5.61328 48.7492C5.61328 50.2898 5.93673 51.8133 6.5627 53.221L8.49395 57.571C8.5698 57.74 8.69397 57.8826 8.8508 57.9811C9.00763 58.0795 9.1901 58.1293 9.3752 58.1242C9.50785 58.1236 9.63886 58.0948 9.75957 58.0398C9.98551 57.9375 10.1617 57.7498 10.2496 57.5179C10.3374 57.2859 10.3298 57.0286 10.2283 56.8023L8.29707 52.4992C7.77988 51.3298 7.51272 50.0653 7.51272 48.7867C7.51272 47.508 7.77988 46.2435 8.29707 45.0742L8.4377 44.7835C9.06367 43.3758 9.38712 41.8523 9.38712 40.3117C9.38712 38.771 9.06367 37.2475 8.4377 35.8398C7.89129 34.6067 7.62393 33.2682 7.65473 31.9199C7.68552 30.5715 8.0137 29.2466 8.61582 28.0398C9.55027 26.1642 11.162 24.7133 13.1252 23.9804L14.1564 23.5867C15.935 22.925 17.8858 22.8886 19.6877 23.4835Z" fill="white"/>
<path d="M6.56236 22.9724C10.3307 20.2763 14.9787 19.1043 19.5749 19.6911C19.8235 19.7209 20.0738 19.6508 20.2707 19.4961C20.4676 19.3414 20.595 19.1148 20.6249 18.8661C20.6547 18.6175 20.5845 18.3672 20.4298 18.1703C20.2751 17.9733 20.0485 17.8459 19.7999 17.8161C14.7441 17.1761 9.63336 18.4722 5.49361 21.4442L5.08111 21.7442C4.92104 21.8601 4.80169 22.0236 4.74008 22.2114C4.67848 22.3991 4.67778 22.6015 4.73808 22.7897C4.79838 22.9779 4.9166 23.1422 5.07585 23.2592C5.23511 23.3762 5.42726 23.4398 5.62486 23.4411C5.82024 23.4399 6.01035 23.3776 6.16861 23.263L6.56236 22.9724Z" fill="white"/>
<path d="M3.36522 35.3604C3.14855 35.4627 2.97925 35.644 2.89207 35.8671C2.8049 36.0903 2.80648 36.3384 2.89647 36.5604C3.41142 37.7304 3.67734 38.9946 3.67734 40.2729C3.67734 41.5512 3.41142 42.8155 2.89647 43.9854C2.79502 44.2117 2.78738 44.469 2.87524 44.701C2.9631 44.9329 3.13929 45.1206 3.36522 45.2229C3.48594 45.2779 3.61695 45.3067 3.7496 45.3073C3.93097 45.3061 4.10811 45.2523 4.25954 45.1525C4.41096 45.0527 4.53017 44.911 4.60272 44.7448C5.22869 43.337 5.55214 41.8136 5.55214 40.2729C5.55214 38.7323 5.22869 37.2088 4.60272 35.801C4.49531 35.5801 4.30548 35.4102 4.07405 35.3278C3.84262 35.2454 3.58809 35.2571 3.36522 35.3604Z" fill="white"/>
<path d="M5.40868 19.3516C7.17248 17.2287 9.66782 15.8439 12.4024 15.4704C12.5251 15.4542 12.6434 15.414 12.7505 15.3519C12.8576 15.2898 12.9513 15.2071 13.0262 15.1086C13.1012 15.0102 13.1559 14.8978 13.1872 14.7781C13.2185 14.6583 13.2258 14.5336 13.2087 14.411C13.1737 14.1722 13.0479 13.956 12.8576 13.8076C12.6672 13.6592 12.427 13.5899 12.1868 13.6141C8.98778 14.0515 6.06822 15.6702 4.00243 18.1516C3.92349 18.2464 3.86402 18.3557 3.82741 18.4735C3.79081 18.5912 3.77779 18.7151 3.78912 18.8379C3.80044 18.9606 3.83587 19.08 3.89339 19.1891C3.95091 19.2981 4.02938 19.3948 4.12431 19.4735C4.28298 19.6053 4.48069 19.6811 4.68681 19.6891C4.82454 19.6894 4.96062 19.6592 5.08539 19.6009C5.21015 19.5426 5.32054 19.4575 5.40868 19.3516Z" fill="white"/>
</g>
</svg>
