<svg width="40" height="40" viewBox="0 0 40 40" fill="none" xmlns="http://www.w3.org/2000/svg">
<path d="M34.8157 25.6709C34.8157 26.4715 34.1647 27.1216 33.365 27.1216H26.7214C25.9217 27.1216 25.2707 26.4715 25.2707 25.6709C25.2707 24.8713 25.9217 24.2211 26.7214 24.2211H33.365C34.1646 24.221 34.8157 24.8713 34.8157 25.6709ZM33.3649 28.4878H26.7213C25.9216 28.4878 25.2706 29.1388 25.2706 29.9385C25.2706 30.7382 25.9216 31.3892 26.7213 31.3892H33.3649C34.1646 31.3892 34.8156 30.7382 34.8156 29.9385C34.8157 29.1388 34.1646 28.4878 33.3649 28.4878ZM33.3649 32.7554H26.7213C25.9216 32.7554 25.2706 33.4064 25.2706 34.2061C25.2706 35.0041 25.9216 35.6542 26.7213 35.6542H33.3649C34.1646 35.6542 34.8156 35.0041 34.8156 34.2061C34.8157 33.4064 34.1646 32.7554 33.3649 32.7554ZM32.115 37.0204H25.4697C24.67 37.0204 24.019 37.6705 24.019 38.4711C24.019 39.2708 24.67 39.9218 25.4697 39.9218H32.115C32.9147 39.9218 33.5657 39.2708 33.5657 38.4711C33.5657 37.6706 32.9147 37.0204 32.115 37.0204ZM24.4384 35.8508C24.1035 35.3877 23.9053 34.8195 23.9053 34.2061C23.9053 33.3534 24.2863 32.5887 24.8862 32.0719C24.2864 31.555 23.9053 30.7912 23.9053 29.9385C23.9053 29.0867 24.2863 28.322 24.8862 27.8052C24.2864 27.2883 23.9053 26.5236 23.9053 25.6709C23.9053 25.1413 24.0523 24.6448 24.3086 24.2211H22.4401C22.4469 24.2886 22.4555 24.3578 22.4648 24.4287C22.8955 27.6146 22.7955 29.9394 20.9697 31.6883C20.8373 31.8155 20.6673 31.8788 20.4972 31.8788C20.3177 31.8788 20.1384 31.8079 20.0042 31.6678C19.7437 31.3961 19.7522 30.9638 20.0248 30.7023C21.273 29.5062 21.5575 27.9128 21.1116 24.6123C21.0603 24.2381 21.0355 23.887 21.0355 23.5401C21.0355 23.5392 21.0355 23.5392 21.0355 23.5392C21.0355 23.5384 21.0355 23.5384 21.0355 23.5384V23.5375C21.033 22.2841 21.3559 21.352 21.6977 20.3652C22.0676 19.2955 22.4871 18.0832 22.5734 16.1472C22.628 14.9203 22.2803 14.0343 21.5942 13.6524C21.1184 13.3884 20.6296 13.4542 20.3767 13.6277C20.1657 13.772 20.164 13.9515 20.1811 14.0737C20.5032 16.401 19.6838 18.7873 17.9323 20.6191C17.084 21.5084 15.9323 24.5244 15.7323 26.3818C15.6948 26.7287 15.4017 26.9909 15.0531 26.9909H12.9437V38.0807H15.4769C15.7238 38.0807 15.9519 38.214 16.0723 38.4302C16.5884 39.3503 17.5598 39.9219 18.6082 39.9219H23.0561C22.8006 39.4973 22.6528 39.0009 22.6528 38.4712C22.6528 37.2819 23.3935 36.2634 24.4384 35.8508ZM4.54688 38.9718H11.5775V26.1023H4.54688V38.9718ZM18.7859 4.91391L18.2212 7.11734L20.1444 5.9007C20.3673 5.75977 20.6519 5.75977 20.8748 5.9007L22.7963 7.11734L22.2333 4.91305C22.1684 4.65758 22.2563 4.38672 22.4597 4.21844L24.2112 2.76773L21.9402 2.62164C21.6771 2.60453 21.4473 2.43711 21.3498 2.19187L20.5091 0.078125L19.6693 2.19187C19.5719 2.43711 19.3421 2.60453 19.078 2.62164L16.808 2.76773L18.5595 4.21844C18.7628 4.38672 18.8509 4.65758 18.7859 4.91391ZM7.54148 14.3488L6.97844 16.553L8.89992 15.3364C9.01102 15.2663 9.13828 15.2305 9.26477 15.2305C9.39203 15.2305 9.51852 15.2663 9.63047 15.3364L11.5528 16.553L10.9889 14.3488C10.9231 14.0933 11.0111 13.8224 11.2145 13.6541L12.9659 12.2017L10.6967 12.0565C10.4327 12.0402 10.2029 11.8728 10.1055 11.6276L9.26477 9.51219L8.42492 11.6276C8.3275 11.8728 8.09687 12.0402 7.83367 12.0565L5.56359 12.2017L7.31508 13.6541C7.51844 13.8224 7.60641 14.0924 7.54148 14.3488ZM30.0303 14.1241L29.4664 16.3284L31.3887 15.1117C31.6117 14.9699 31.8962 14.9708 32.1192 15.1117L34.0407 16.3284L33.4777 14.1232C33.4127 13.8677 33.5007 13.5969 33.7041 13.4286L35.4538 11.9779L33.1829 11.8318C32.9189 11.8147 32.6891 11.6473 32.5916 11.402L31.7535 9.29L30.9137 11.402C30.8162 11.6473 30.5864 11.8147 30.3233 11.8318L28.0523 11.9779L29.8038 13.4286C30.0081 13.5969 30.0961 13.8677 30.0303 14.1241Z" fill="#2D3928"/>
</svg>
