<svg width="25" height="25" viewBox="0 0 25 25" fill="none" xmlns="http://www.w3.org/2000/svg">
<path d="M18.7467 17.583C18.6655 17.583 18.5827 17.5572 18.5123 17.5041C18.3397 17.3744 18.3053 17.1299 18.435 16.9572C19.4077 15.6642 19.9217 14.1228 19.9217 12.5002C19.9217 11.9908 19.8694 11.4807 19.7663 10.9846C19.7225 10.7728 19.8584 10.5666 20.0694 10.5228C20.2795 10.4791 20.4873 10.615 20.5311 10.826C20.6452 11.3744 20.703 11.9377 20.703 12.5002C20.703 14.2931 20.1342 15.9978 19.0592 17.4275C18.9819 17.5299 18.8647 17.583 18.7467 17.583Z" fill="#A81874"/>
<path d="M4.85625 14.5186C4.67578 14.5186 4.51328 14.392 4.47422 14.2084C4.35703 13.6483 4.29688 13.0733 4.29688 12.4998C4.29688 10.7147 4.86016 9.01703 5.92656 7.59203C6.05547 7.4186 6.30078 7.38266 6.47344 7.51313C6.64609 7.64281 6.68203 7.88735 6.55234 8.06C5.5875 9.34906 5.07812 10.8842 5.07812 12.4998C5.07812 13.0194 5.13203 13.5405 5.23906 14.0475C5.28359 14.2584 5.14844 14.4655 4.9375 14.51C4.91016 14.5163 4.88281 14.5186 4.85625 14.5186Z" fill="#A81874"/>
<path d="M13.6719 16.4062H11.3281C11.1125 16.4062 10.9375 16.2312 10.9375 16.0156V14.0625H8.98438C8.76875 14.0625 8.59375 13.8875 8.59375 13.6719V11.3281C8.59375 11.1125 8.76875 10.9375 8.98438 10.9375H10.9375V8.98438C10.9375 8.76875 11.1125 8.59375 11.3281 8.59375H13.6719C13.8875 8.59375 14.0625 8.76875 14.0625 8.98438V10.9375H16.0156C16.2312 10.9375 16.4062 11.1125 16.4062 11.3281V13.6719C16.4062 13.8875 16.2312 14.0625 16.0156 14.0625H14.0625V16.0156C14.0625 16.2312 13.8875 16.4062 13.6719 16.4062ZM11.7188 15.625H13.2812V13.6719C13.2812 13.4563 13.4563 13.2812 13.6719 13.2812H15.625V11.7188H13.6719C13.4563 11.7188 13.2812 11.5438 13.2812 11.3281V9.375H11.7188V11.3281C11.7188 11.5438 11.5438 11.7188 11.3281 11.7188H9.375V13.2812H11.3281C11.5438 13.2812 11.7188 13.4563 11.7188 13.6719V15.625Z" fill="#A81874"/>
<path d="M14.1727 23.4378H10.0781C9.31484 23.4378 8.56953 23.2675 7.8625 22.9315L5.12578 21.6018C4.42422 21.2651 3.67656 21.094 2.90703 21.094H1.17188C0.95625 21.094 0.78125 20.919 0.78125 20.7034C0.78125 20.4878 0.95625 20.3128 1.17188 20.3128H2.90703C3.79453 20.3128 4.65547 20.5097 5.46562 20.8987L8.20156 22.2276C8.8 22.5112 9.43203 22.6565 10.0781 22.6565H14.0945L17.5063 21.2487C17.5063 21.2159 17.5523 20.9136 17.4023 20.6565C17.1734 20.2628 16.6445 20.2503 16.2437 20.3089C15.6617 20.3987 15.1805 20.5604 14.7563 20.7034L14.5953 20.7573C14.3898 20.8237 14.1695 20.7151 14.1016 20.5097C14.0336 20.305 14.1445 20.0839 14.3492 20.0159L14.507 19.9636C14.9617 19.8104 15.4766 19.637 16.1281 19.537C17.7391 19.3026 18.1414 20.3089 18.2281 20.6222C18.3711 21.1386 18.2523 21.7847 17.8062 21.9714L14.3211 23.4097C14.2742 23.4276 14.2234 23.4378 14.1727 23.4378Z" fill="#A81874"/>
<path d="M9.08984 17.8727C8.94297 17.8727 8.80156 17.7891 8.73516 17.6469C7.96953 15.9992 5.98047 15.7633 4.50156 16.3766C4.45391 16.3961 4.40313 16.4063 4.35156 16.4063H1.17188C0.95625 16.4063 0.78125 16.2313 0.78125 16.0157C0.78125 15.8 0.95625 15.625 1.17188 15.625H4.27578C6.39062 14.7852 8.60078 15.5063 9.44453 17.318C9.53516 17.5133 9.45078 17.7461 9.25469 17.8375C9.20078 17.861 9.14531 17.8727 9.08984 17.8727Z" fill="#A81874"/>
<path d="M12.7923 21.5808C12.7415 21.5808 12.6907 21.5706 12.6431 21.5511L8.16965 19.6941C7.97043 19.6113 7.8759 19.3831 7.95871 19.1831C8.04152 18.9839 8.27043 18.8902 8.46965 18.9722L12.5501 20.6659C12.7212 19.8605 12.2806 19.2339 11.2337 18.8003L8.93449 17.8456C8.73527 17.7628 8.64074 17.5339 8.72356 17.3347C8.80637 17.1355 9.03527 17.0409 9.23449 17.1238L11.5329 18.0784C13.1431 18.7456 13.7337 19.9339 13.1532 21.3378C13.1134 21.4339 13.0376 21.5105 12.9415 21.5495C12.8939 21.5706 12.8431 21.5808 12.7923 21.5808Z" fill="#A81874"/>
<path d="M8.41463 5.49922C7.18572 5.49922 6.84978 4.66016 6.77166 4.37891C6.62869 3.8625 6.74744 3.21641 7.19353 3.02969L10.6787 1.59141C10.7256 1.57266 10.7763 1.5625 10.8271 1.5625H14.9209C15.6842 1.5625 16.4295 1.73281 17.1365 2.06875L19.8732 3.39844C20.5756 3.73516 21.3232 3.90625 22.0928 3.90625H23.8279C24.0435 3.90625 24.2185 4.08125 24.2185 4.29688C24.2185 4.5125 24.0435 4.6875 23.8279 4.6875H22.0928C21.2052 4.6875 20.3443 4.49062 19.5342 4.10156L16.7982 2.77344C16.1998 2.48906 15.5678 2.34375 14.9217 2.34375H10.9053L7.49275 3.75156C7.49275 3.78437 7.44666 4.08672 7.59666 4.34375C7.82634 4.7375 8.35369 4.75 8.75525 4.69141C9.33728 4.60156 9.81853 4.43984 10.2428 4.29688L10.4037 4.24297C10.6092 4.17578 10.8295 4.28516 10.8974 4.49063C10.9654 4.69531 10.8545 4.91641 10.6498 4.98438L10.492 5.03672C10.0373 5.18984 9.52244 5.36328 8.87088 5.46328C8.70681 5.48828 8.55447 5.49922 8.41463 5.49922Z" fill="#A81874"/>
<path d="M18.9523 9.72239C17.4757 9.72239 16.1617 8.98489 15.5554 7.68176C15.4648 7.48645 15.5492 7.25364 15.7453 7.16223C15.9414 7.07161 16.1734 7.15676 16.2648 7.35208C17.0296 8.99895 19.0179 9.23411 20.4984 8.62239C20.5461 8.60364 20.5968 8.59348 20.6484 8.59348H23.8281C24.0437 8.59348 24.2187 8.76848 24.2187 8.98411C24.2187 9.19973 24.0437 9.37473 23.8281 9.37473H20.7242C20.1304 9.60989 19.5289 9.72239 18.9523 9.72239Z" fill="#A81874"/>
<path d="M15.9153 7.90596C15.8653 7.90596 15.8145 7.89658 15.7653 7.87627L13.4669 6.92158C11.8567 6.2544 11.2661 5.06611 11.8466 3.66221C11.8864 3.56611 11.9622 3.48955 12.0583 3.45049C12.1544 3.41143 12.2614 3.41065 12.3575 3.45049L16.8309 5.30752C17.0302 5.39033 17.1247 5.61846 17.0419 5.81846C16.9591 6.01846 16.7317 6.11143 16.5309 6.0294L12.4505 4.33565C12.2794 5.14111 12.72 5.76768 13.7669 6.20127L16.0661 7.15596C16.2653 7.23877 16.3599 7.46768 16.277 7.6669C16.2138 7.81533 16.0684 7.90596 15.9153 7.90596Z" fill="#A81874"/>
<path d="M17.59 18.7777C17.49 18.7777 17.39 18.7394 17.3135 18.6636C17.1611 18.5113 17.1611 18.2636 17.3135 18.1113C17.4666 17.9589 17.7408 17.9316 17.8932 18.0839C18.0455 18.2363 18.0729 18.4566 17.9205 18.6089L17.8658 18.6636C17.79 18.7394 17.69 18.7777 17.59 18.7777Z" fill="#A81874"/>
<path d="M7.4337 7.0587C7.33292 7.0587 7.23214 7.01964 7.15558 6.94229C7.00401 6.78839 7.00558 6.54151 7.15948 6.38995L7.21495 6.33526C7.36808 6.1837 7.61573 6.18526 7.76729 6.33917C7.91886 6.49308 7.91729 6.73995 7.76339 6.89151L7.70792 6.9462C7.63214 7.0212 7.53292 7.0587 7.4337 7.0587Z" fill="#A81874"/>
</svg>
