<svg width="106" height="114" viewBox="0 0 106 114" fill="none" xmlns="http://www.w3.org/2000/svg">
<path d="M52.9305 0.742969C52.6596 0.757143 52.3948 0.826666 52.1541 0.952099C52.1541 0.952099 29.8866 12.0592 2.1187 15.7616C1.18578 15.8906 0.493132 16.6912 0.500051 17.6329V56.9934C0.500051 81.1059 13.7012 95.409 26.7171 103.363C39.7329 111.317 52.7217 113.232 52.7217 113.232C52.9062 113.261 53.0938 113.261 53.2784 113.232C53.2784 113.232 66.2672 111.317 79.283 103.363C92.2988 95.409 105.5 81.1059 105.5 56.9934V17.6329C105.508 16.6912 104.814 15.8904 103.881 15.7616C76.1135 12.0592 53.846 0.952099 53.846 0.952099C53.5634 0.806115 53.2484 0.733757 52.9305 0.742969ZM52.9999 23.2505C71.6173 23.2505 86.7426 38.3756 86.7426 56.993C86.7426 75.6104 71.6173 90.7541 52.9999 90.7541C34.3825 90.7541 19.2572 75.6104 19.2572 56.993C19.2572 38.3756 34.3825 23.2505 52.9999 23.2505ZM45.4963 40.1218V49.5078H36.1286C35.0931 49.504 34.2504 50.34 34.2462 51.3754V62.6291C34.25 63.6646 35.0931 64.5007 36.1286 64.4968H45.4962V73.8827C45.5 74.9196 46.3453 75.7563 47.3822 75.7504H58.6176C59.6531 75.7542 60.4958 74.9182 60.4999 73.8827V64.4968H69.8712C70.9067 64.5005 71.7494 63.6646 71.7536 62.6291V51.3754C71.7498 50.34 70.9067 49.5038 69.8712 49.5078H60.4999V40.1218C60.4961 39.0863 59.6531 38.2502 58.6176 38.2541H47.2852C46.2276 38.3484 45.4955 39.1566 45.4963 40.1218Z" fill="white"/>
</svg>
