<svg width="28" height="28" viewBox="0 0 28 28" fill="none" xmlns="http://www.w3.org/2000/svg">
<path d="M13.9996 0C8.29615 0 3.65625 4.6399 3.65625 10.3433C3.65625 12.2209 4.49832 14.2403 4.53361 14.3255C4.80558 14.9711 5.34221 15.9738 5.72917 16.5615L12.821 27.307C13.1113 27.7475 13.5408 28 13.9996 28C14.4583 28 14.8879 27.7475 15.1781 27.3076L22.2706 16.5615C22.6582 15.9738 23.1942 14.9711 23.4662 14.3255C23.5014 14.2409 24.3429 12.2216 24.3429 10.3433C24.3429 4.6399 19.703 0 13.9996 0ZM22.3442 13.8534C22.1014 14.432 21.6019 15.3647 21.2545 15.8916L14.162 26.6377C14.0221 26.8501 13.9777 26.8501 13.8377 26.6377L6.74525 15.8916C6.39784 15.3647 5.89832 14.4314 5.65555 13.8528C5.64521 13.8278 4.87311 11.9691 4.87311 10.3433C4.87311 5.311 8.96725 1.21686 13.9996 1.21686C19.0319 1.21686 23.126 5.311 23.126 10.3433C23.126 11.9715 22.3521 13.8351 22.3442 13.8534Z" fill="#00001B"/>
<path d="M13.9993 4.86719C10.9797 4.86719 8.52344 7.32403 8.52344 10.3431C8.52344 13.3621 10.9797 15.8189 13.9993 15.8189C17.019 15.8189 19.4752 13.3621 19.4752 10.3431C19.4752 7.32403 17.019 4.86719 13.9993 4.86719ZM13.9993 14.6021C11.6514 14.6021 9.7403 12.6916 9.7403 10.3431C9.7403 7.99452 11.6514 6.08405 13.9993 6.08405C16.3473 6.08405 18.2583 7.99452 18.2583 10.3431C18.2583 12.6916 16.3473 14.6021 13.9993 14.6021Z" fill="#00001B"/>
</svg>
