<svg width="64" height="45" viewBox="0 0 64 45" fill="none" xmlns="http://www.w3.org/2000/svg">
<path opacity="0.3" d="M49 44.5703C57.2727 44.5703 64 37.8412 64 29.5703C64 22.0191 58.3933 15.7532 51.1204 14.7204C51.7026 10.4907 53.3176 6.46606 55.8409 2.97607C56.3316 2.29494 56.3133 1.37206 55.7896 0.712939C55.2759 0.064315 54.3831 -0.181561 53.5996 0.14894C41.6941 5.11831 34 16.6687 34 29.5703C34 37.8412 40.7272 44.5703 49 44.5703ZM15 44.5703C23.2728 44.5703 30 37.8412 30 29.5703C30 22.0191 24.3933 15.7532 17.1204 14.7204C17.7026 10.4907 19.3176 6.46606 21.8409 2.97606C22.3316 2.29494 22.3133 1.37206 21.7896 0.712937C21.2759 0.0643121 20.3831 -0.181564 19.5996 0.148937C7.69413 5.11831 2.43924e-06 16.6687 1.31134e-06 29.5703C5.88279e-07 37.8412 6.72725 44.5703 15 44.5703Z" fill="#09BBAF"/>
</svg>
