<svg width="80" height="80" viewBox="0 0 80 80" fill="none" xmlns="http://www.w3.org/2000/svg">
<circle cx="40" cy="40" r="39.5" transform="rotate(180 40 40)" fill="#132573" stroke="white"/>
<path d="M41.75 41.75V29.5H54V41.925C54 50.325 46.125 51.375 46.125 51.375L45.075 48.925C45.075 48.925 48.575 48.4 49.275 45.6C49.975 43.5 48.575 41.75 48.575 41.75H41.75Z" fill="white"/>
<path d="M26 41.75V29.5H38.25V41.925C38.25 50.325 30.375 51.375 30.375 51.375L29.325 48.925C29.325 48.925 32.825 48.4 33.525 45.6C34.225 43.5 32.825 41.75 32.825 41.75H26Z" fill="white"/>
</svg>
