<svg width="300" height="300" viewBox="0 0 300 300" fill="none" xmlns="http://www.w3.org/2000/svg">
<g opacity="0.16">
<path opacity="0.3" d="M172.988 155.222H237.405C235.015 183.722 211.047 206.189 181.942 206.189C179.351 206.189 177.255 208.285 177.255 210.876V241.048C177.255 243.639 179.351 245.735 181.942 245.735C234.439 245.735 277.148 203.03 277.148 150.534V51.0625C277.148 48.4713 275.052 46.375 272.461 46.375H172.988C170.397 46.375 168.301 48.4713 168.301 51.0625V150.535C168.301 153.125 170.398 155.222 172.988 155.222ZM177.676 55.75H267.773V150.535C267.773 196.289 231.784 233.793 186.63 236.233V215.395C220.312 212.987 246.972 184.817 246.972 150.534C246.972 147.943 244.876 145.847 242.285 145.847H177.676V55.75Z" fill="#EBECED"/>
<path opacity="0.3" d="M32.4102 155.222H96.8361C94.4464 183.722 70.4876 206.189 41.3736 206.189C38.7823 206.189 36.6861 208.285 36.6861 210.876V241.048C36.6861 243.639 38.7823 245.735 41.3736 245.735C93.8698 245.735 136.58 203.03 136.58 150.534V51.0625C136.58 48.4713 134.483 46.375 131.892 46.375H32.4102C29.8189 46.375 27.7227 48.4713 27.7227 51.0625V150.535C27.7227 153.125 29.8198 155.222 32.4102 155.222ZM37.0977 55.75H127.204V150.535C127.204 196.289 91.2139 233.793 46.0602 236.233V215.395C79.7426 212.987 106.402 184.817 106.402 150.534C106.402 147.943 104.306 145.847 101.715 145.847H37.0977V55.75Z" fill="#EBECED"/>
</g>
</svg>
