<svg width="62" height="44" viewBox="0 0 62 44" fill="none" xmlns="http://www.w3.org/2000/svg">
<path d="M14.5312 0.414062C6.51702 0.414062 0 6.9329 0 14.9453C0 22.2606 5.43154 28.3306 12.4771 29.3311C11.9131 33.4287 10.3486 37.3275 7.90415 40.7085C7.42874 41.3683 7.44654 42.2624 7.9538 42.9009C8.4515 43.5292 9.31635 43.7674 10.0754 43.4473C21.6088 38.6332 29.0625 27.4438 29.0625 14.9453C29.0625 6.9329 22.5455 0.414062 14.5312 0.414062ZM47.4688 0.414062C39.4545 0.414062 32.9375 6.9329 32.9375 14.9453C32.9375 22.2606 38.369 28.3306 45.4146 29.3311C44.8506 33.4287 43.2861 37.3275 40.8417 40.7085C40.3662 41.3683 40.384 42.2624 40.8913 42.9009C41.389 43.5292 42.2538 43.7674 43.0129 43.4473C54.5463 38.6332 62 27.4438 62 14.9453C62 6.9329 55.483 0.414062 47.4688 0.414062Z" fill="white"/>
</svg>
