<svg width="64" height="56" viewBox="0 0 64 56" fill="none" xmlns="http://www.w3.org/2000/svg">
<path opacity="0.1" d="M58 0C61.25 0 64 2.75 64 6V36C64 47.125 55 56 44 56H43C41.25 56 40 54.75 40 53V47C40 45.375 41.25 44 43 44H44C48.375 44 52 40.5 52 36V28H42C38.625 28 36 25.375 36 22V6C36 2.75 38.625 0 42 0H58ZM22 0C25.25 0 28 2.75 28 6V36C28 47.125 19 56 8 56H7C5.25 56 4 54.75 4 53V47C4 45.375 5.25 44 7 44H8C12.375 44 16 40.5 16 36V28H6C2.625 28 0 25.375 0 22V6C0 2.75 2.625 0 6 0H22Z" fill="#2D3928"/>
</svg>
