<svg width="60" height="60" viewBox="0 0 60 60" fill="none" xmlns="http://www.w3.org/2000/svg">
<path d="M29.4981 1.0064C29.4954 0.661171 29.499 0.32537 29.5087 0C29.5087 0.339003 29.5051 0.674459 29.4981 1.0064C29.5823 11.4299 35.5356 30.4478 59.3182 30.4478C49.4714 30.5464 29.8668 36.4882 29.5135 59.3703C29.5145 59.5843 29.5129 59.7943 29.5087 60C29.5087 59.7887 29.5103 59.5788 29.5135 59.3703C29.4674 49.5153 23.7949 31.1236 1.25414 30.4659C0.820986 30.4704 0.402267 30.464 0 30.4478C0.423737 30.4478 0.84176 30.4539 1.25414 30.4659C11.2705 30.3617 29.0048 24.4469 29.4981 1.0064Z" fill="white"/>
</svg>
