<svg width="36" height="36" viewBox="0 0 36 36" fill="none" xmlns="http://www.w3.org/2000/svg">
<path d="M18 1.05469L4.5 5.96419V17.8397C4.50324 20.1575 5.05311 22.4418 6.10495 24.5072C7.15679 26.5726 8.68094 28.3607 10.5536 29.7264L18 35.1422L25.4464 29.7264C27.3191 28.3607 28.8432 26.5726 29.8951 24.5072C30.9469 22.4418 31.4968 20.1575 31.5 17.8397V5.96419L18 1.05469ZM29.25 17.8397C29.2469 19.8026 28.7811 21.7372 27.8903 23.4864C26.9996 25.2356 25.709 26.7502 24.1234 27.9073L18 32.3612L11.8766 27.9073C10.291 26.7502 9.0004 25.2356 8.10966 23.4864C7.21893 21.7372 6.75311 19.8026 6.75 17.8397V7.53919L18 3.44869L29.25 7.53919V17.8397Z" fill="#132573"/>
<path d="M13.1708 15.2344L11.5801 16.8251L16.5942 21.8392L24.4208 14.0126L22.8301 12.4219L16.5942 18.6578L13.1708 15.2344Z" fill="#132573"/>
</svg>
