<svg width="44" height="44" viewBox="0 0 44 44" fill="none" xmlns="http://www.w3.org/2000/svg">
<g clip-path="url(#clip0_47_7100)">
<path fill-rule="evenodd" clip-rule="evenodd" d="M31.1894 40.1631H27.0394C26.7043 40.1631 26.4208 39.8795 26.4208 39.5444V30.0588H23.4823C23.2761 30.0588 23.0441 29.9557 22.941 29.7237C22.8379 29.5175 22.8894 29.2855 22.9925 29.0793L28.586 22.197C28.8179 21.9135 29.3077 21.9135 29.5397 22.197L35.1331 29.0793C35.3135 29.2339 35.3135 29.5175 35.1847 29.7237C35.0816 29.9557 34.8496 30.0588 34.6434 30.0588H31.7049V39.5444C31.808 39.8795 31.5244 40.1631 31.1894 40.1631ZM27.658 38.9516H30.5965V29.4659C30.5965 29.1308 30.88 28.8473 31.1894 28.8473H33.4834L29.153 23.5374L24.8226 28.8473H27.0909C27.426 28.8473 27.7096 29.1308 27.7096 29.4659V38.9516H27.658Z" fill="#2D3928"/>
<path fill-rule="evenodd" clip-rule="evenodd" d="M4.40848 40.3178H2.32061C2.24328 40.3178 2.24328 40.3178 2.19173 40.3178C1.08335 40.1632 0.258513 39.3899 0.0265266 38.4362C-0.128131 37.5598 0.310065 36.6576 1.26379 36.0648C2.03707 35.5492 2.96502 35.343 3.81563 35.111C4.15072 35.0079 4.46004 34.9564 4.79513 34.8275C5.41376 34.6213 6.96033 33.0747 7.14076 32.7396C7.24387 32.0695 7.34697 23.2024 7.39852 17.7637C7.39852 16.5264 7.47585 15.5984 7.52741 14.6447C7.57896 13.7168 7.63051 12.8146 7.63051 11.6547C7.63051 8.81931 7.91405 6.60255 9.22864 5.28796C10.3628 4.17959 12.064 3.66406 14.8994 3.66406H39.9023H39.9539C41.1396 3.8445 41.9644 4.23114 42.6346 4.95287C44.1296 6.49945 44.4647 11.5 43.279 14.4385C42.1706 17.2481 38.4073 19.5422 35.3142 20.1351C29.9269 21.2434 22.5034 19.9289 19.0494 16.9904C19.1009 17.7637 19.0494 18.6916 18.7916 20.0835C18.2245 23.2024 17.1162 24.3624 16.3429 25.1872C15.6727 25.8574 15.286 26.2956 15.3376 27.6875C15.3376 28.0226 15.4407 28.7959 15.5696 29.8011C15.7758 31.6828 16.0593 34.2862 16.1109 36.1163C16.2398 37.8433 15.9562 38.9517 15.286 39.5961C14.8994 39.9827 14.4612 40.2147 13.8426 40.2147C12.6826 40.2147 11.5743 40.2147 10.4143 40.2147C8.53268 40.3178 6.47058 40.3178 4.40848 40.3178ZM2.37216 39.1064H4.40848C6.47058 39.1064 8.53268 39.1064 10.569 39.0548H14.023C14.2292 39.0548 14.4097 39.0033 14.5643 38.8228C14.7963 38.6166 15.1314 37.9464 15.0541 36.2194C14.951 34.3893 14.6674 31.8375 14.5128 29.9558C14.4097 28.9505 14.3323 28.1772 14.2808 27.7906C14.1777 25.8574 14.8479 25.1356 15.6211 24.3624C16.3944 23.5891 17.2708 22.6869 17.7348 19.9289C18.173 17.377 17.941 16.3717 17.6832 15.2634L17.6059 14.9283C17.5544 14.6447 17.7348 14.3096 17.9925 14.2065C18.2761 14.1034 18.6112 14.2581 18.7143 14.5416C20.1578 18.0472 28.6639 20.3671 35.1337 19.0267C37.8145 18.4854 41.2943 16.4233 42.248 14.0519C43.3048 11.3196 42.8924 6.93764 41.784 5.77771C41.3458 5.28796 40.7529 5.00443 39.9023 4.90132H14.8994C12.5022 4.90132 10.9556 5.28796 10.1308 6.16436C9.07398 7.22118 8.84199 9.1544 8.84199 11.7062C8.84199 12.9435 8.79044 13.8714 8.73889 14.7736C8.68734 15.7016 8.63578 16.6037 8.63578 17.7637C8.63578 20.1351 8.53268 32.0695 8.30069 32.9974C8.12026 33.7191 6.13549 35.6781 5.18177 35.9359C4.87246 36.0648 4.53736 36.1679 4.15072 36.2194C3.35166 36.4514 2.52682 36.6061 1.90819 36.9927C1.65043 37.1731 1.1349 37.5598 1.26379 38.1011C1.31534 38.6682 1.80509 39.0033 2.37216 39.1064Z" fill="#2D3928"/>
<path fill-rule="evenodd" clip-rule="evenodd" d="M12.5027 11.653C12.2449 11.653 12.0129 11.4984 11.9614 11.2148C11.7294 10.4931 11.9098 9.38471 12.6831 8.76608C13.0698 8.43099 13.8946 8.04435 15.235 8.81764C15.5185 8.99807 15.6216 9.38471 15.4412 9.66825C15.2865 9.92601 14.8999 10.0549 14.6163 9.87446C14.2297 9.66825 13.7399 9.48782 13.4048 9.77136C13.0698 10.0549 12.9666 10.5962 13.0698 10.9313C13.1729 11.2664 13.0182 11.6015 12.6831 11.7046C12.6316 11.653 12.58 11.653 12.5027 11.653Z" fill="#2D3928"/>
<path fill-rule="evenodd" clip-rule="evenodd" d="M12.6314 38.0976C12.3478 38.0976 12.0127 38.046 11.6261 37.8398C11.3426 37.6594 11.2394 37.2727 11.3941 36.9892C11.5745 36.7314 11.9612 36.6026 12.2447 36.783C12.2963 36.8345 12.5798 36.9892 12.7345 36.8861C12.8376 36.783 12.8891 36.551 12.8376 36.4479C12.7345 36.1128 12.8891 35.7777 13.2242 35.6746C13.5593 35.5457 13.8944 35.7262 14.0233 36.0613C14.1779 36.551 14.0748 37.3758 13.4562 37.8398C13.3531 37.9429 13.0696 38.0976 12.6314 38.0976Z" fill="#2D3928"/>
<path fill-rule="evenodd" clip-rule="evenodd" d="M41.0104 17.039C41.0104 17.039 40.5722 17.039 39.7989 17.039C39.4638 17.039 39.1803 16.7555 39.1803 16.4204C39.1803 16.0853 39.4638 15.8018 39.7989 15.8018H41.0104C41.3455 15.8018 41.629 16.0853 41.629 16.4204C41.5775 16.7555 41.3455 17.039 41.0104 17.039ZM36.1387 16.9875L34.9272 16.9101C34.5921 16.9101 34.3086 16.6524 34.3086 16.3173C34.3086 15.9822 34.5921 15.6987 34.9272 15.6987L36.1387 15.7502C36.4738 15.7502 36.7573 16.0338 36.7573 16.3688C36.7573 16.7039 36.4738 16.9875 36.1387 16.9875ZM31.3185 16.807C30.8803 16.807 30.4937 16.7555 30.0813 16.7555C29.772 16.7555 29.4884 16.472 29.54 16.1369C29.54 15.8018 29.8235 15.544 30.1586 15.5956C30.5453 15.5956 30.9834 15.6471 31.3701 15.6471C31.7052 15.6471 31.9887 15.9307 31.9114 16.2657C31.9114 16.5235 31.6536 16.807 31.3185 16.807ZM26.4984 16.5235C26.0344 16.472 25.6478 16.472 25.2096 16.4204C24.8745 16.4204 24.6683 16.0853 24.6683 15.7502C24.6683 15.4151 25.0034 15.2089 25.3127 15.2089C25.6993 15.2605 26.1117 15.2605 26.5499 15.312C26.885 15.312 27.0912 15.6471 27.0912 15.9822C27.0912 16.3173 26.8335 16.5235 26.4984 16.5235ZM21.7298 16.0853H21.6525C21.2143 16.0338 20.8276 15.9822 20.441 15.9307C20.1059 15.8791 19.8997 15.544 19.9512 15.2605C20.0028 14.9769 20.3379 14.6934 20.6214 14.7707L21.7813 14.9254C22.1164 14.9769 22.3226 15.2605 22.2711 15.5956C22.2711 15.8791 21.9875 16.0853 21.7298 16.0853Z" fill="#2D3928"/>
</g>
<defs>
<clipPath id="clip0_47_7100">
<rect width="44" height="44" fill="white"/>
</clipPath>
</defs>
</svg>
