<svg width="44" height="44" viewBox="0 0 44 44" fill="none" xmlns="http://www.w3.org/2000/svg">
<path d="M30.506 21.1765C30.5694 21.3457 30.6969 21.4831 30.8609 21.559C31.0249 21.635 31.2121 21.6433 31.3822 21.5823C31.5523 21.5212 31.6915 21.3957 31.7698 21.2328C31.848 21.0699 31.859 20.8828 31.8004 20.7119C31.2169 19.074 30.2313 17.609 28.9341 16.4513C27.6369 15.2937 26.0696 14.4804 24.3762 14.0863C24.1997 14.0476 24.0151 14.0798 23.8622 14.1761C23.7093 14.2724 23.6005 14.4249 23.5592 14.6008C23.5179 14.7767 23.5475 14.9618 23.6416 15.1161C23.7357 15.2703 23.8867 15.3813 24.062 15.4251C25.5275 15.7771 26.883 16.4867 28.0074 17.4903C29.1319 18.4939 29.9903 19.7603 30.506 21.1765Z" fill="#2D3928"/>
<path d="M35.7564 36.7262H35.3509V23.375C35.3458 20.5823 34.4073 17.8715 32.6844 15.6736C30.9616 13.4757 28.5534 11.9168 25.8427 11.2449V10.3538C25.8375 9.45579 25.5197 8.58765 24.9438 7.89859C24.368 7.20953 23.57 6.7426 22.6872 6.57806V4.125H23.3633C23.5456 4.125 23.7205 4.05257 23.8494 3.92364C23.9784 3.7947 24.0508 3.61984 24.0508 3.4375C24.0508 3.25516 23.9784 3.0803 23.8494 2.95136C23.7205 2.82243 23.5456 2.75 23.3633 2.75H20.6361C20.4553 2.75229 20.2827 2.82573 20.1556 2.95441C20.0285 3.08309 19.9573 3.25666 19.9573 3.4375C19.9573 3.61834 20.0285 3.79191 20.1556 3.92059C20.2827 4.04927 20.4553 4.12271 20.6361 4.125H21.3122V6.57581C20.4276 6.73747 19.6276 7.2039 19.0512 7.89407C18.4747 8.58425 18.1582 9.45455 18.1567 10.3538V11.2449C15.3953 11.9315 12.9497 13.537 11.2217 15.7977C9.49378 18.0584 8.58633 20.8397 8.64854 23.6845C8.64854 23.8668 8.72097 24.0417 8.8499 24.1706C8.97883 24.2996 9.1537 24.372 9.33604 24.372C9.90831 24.354 10.0731 23.8673 10.0235 23.375C10.0339 20.4262 11.21 17.6011 13.2951 15.516C15.3803 13.4309 18.2053 12.2548 21.1542 12.2445L22.8457 12.2444C25.7944 12.2549 28.6194 13.431 30.7045 15.5161C32.7895 17.6012 33.9655 20.4263 33.9759 23.375L33.9759 36.7262H31.15C30.9677 36.7262 30.7928 36.7986 30.6639 36.9276C30.535 37.0565 30.4625 37.2314 30.4625 37.4137C30.4625 37.596 30.535 37.7709 30.6639 37.8998C30.7928 38.0288 30.9677 38.1012 31.15 38.1012C31.8891 38.0925 35.0602 38.1075 35.7564 38.1012C36.8042 38.0996 36.8147 39.8739 35.7564 39.875H8.243C8.03595 39.8723 7.83813 39.7889 7.69171 39.6425C7.54529 39.496 7.46185 39.2982 7.45916 39.0912C7.43666 38.9735 7.43978 38.8523 7.46831 38.7359C7.49684 38.6196 7.55012 38.5107 7.6245 38.4168C7.69888 38.3228 7.79263 38.246 7.89937 38.1916C8.00611 38.1371 8.12332 38.1063 8.24304 38.1012H28.4C28.5808 38.0988 28.7533 38.0253 28.8803 37.8966C29.0072 37.768 29.0784 37.5945 29.0784 37.4137C29.0784 37.233 29.0072 37.0595 28.8803 36.9308C28.7533 36.8021 28.5808 36.7286 28.4 36.7262H10.0235V26.4345C10.0208 26.2539 9.94724 26.0817 9.8186 25.9549C9.68996 25.8282 9.51661 25.7571 9.33602 25.7571C9.15543 25.7571 8.98209 25.8282 8.85345 25.9549C8.72481 26.0817 8.6512 26.2539 8.64852 26.4345V36.7262H8.243C5.37915 36.7723 5.35988 41.1982 8.24306 41.25H35.7564C38.6279 41.1938 38.6367 36.7836 35.7564 36.7262ZM24.4677 10.987C22.8272 10.8087 21.1722 10.8086 19.5317 10.9869C19.149 6.85789 24.855 6.87093 24.4677 10.987Z" fill="#2D3928"/>
</svg>
