<svg width="44" height="44" viewBox="0 0 44 44" fill="none" xmlns="http://www.w3.org/2000/svg">
<path d="M18.5625 11.6875L22 9.625L25.4375 11.6875L24.0625 8.25L27.5 5.5H23.375L22 1.375L20.625 5.5H16.5L19.9375 8.25L18.5625 11.6875Z" fill="black"/>
<path d="M33.6875 14.4375L37.125 12.375L40.5625 14.4375L39.1875 11L42.625 8.25H38.5L37.125 4.125L35.75 8.25H31.625L35.0625 11L33.6875 14.4375Z" fill="black"/>
<path d="M3.4375 14.4375L6.875 12.375L10.3125 14.4375L8.9375 11L12.375 8.25H8.25L6.875 4.125L5.5 8.25H1.375L4.8125 11L3.4375 14.4375Z" fill="black"/>
<path d="M22 19.25C23.5188 19.25 24.75 18.0188 24.75 16.5C24.75 14.9812 23.5188 13.75 22 13.75C20.4812 13.75 19.25 14.9812 19.25 16.5C19.25 18.0188 20.4812 19.25 22 19.25Z" fill="black"/>
<path d="M16.5 22C17.047 22 17.5716 22.2173 17.9584 22.6041C18.3452 22.9909 18.5625 23.5155 18.5625 24.0625V28.1875H25.4375V24.0625C25.4375 23.5155 25.6548 22.9909 26.0416 22.6041C26.4284 22.2173 26.953 22 27.5 22C28.2293 22 28.9288 21.7103 29.4445 21.1945C29.9603 20.6788 30.25 19.9793 30.25 19.25V11.6875C30.25 11.5052 30.1776 11.3303 30.0486 11.2014C29.9197 11.0724 29.7448 11 29.5625 11C29.3802 11 29.2053 11.0724 29.0764 11.2014C28.9474 11.3303 28.875 11.5052 28.875 11.6875V18.5625C28.875 19.1095 28.6577 19.6341 28.2709 20.0209C27.8841 20.4077 27.3595 20.625 26.8125 20.625H17.1875C16.6405 20.625 16.1159 20.4077 15.7291 20.0209C15.3423 19.6341 15.125 19.1095 15.125 18.5625V11.6875C15.125 11.5052 15.0526 11.3303 14.9236 11.2014C14.7947 11.0724 14.6198 11 14.4375 11C14.2552 11 14.0803 11.0724 13.9514 11.2014C13.8224 11.3303 13.75 11.5052 13.75 11.6875V19.25C13.75 19.9793 14.0397 20.6788 14.5555 21.1945C15.0712 21.7103 15.7707 22 16.5 22Z" fill="black"/>
<path d="M14.1405 40.7887C14.1933 41.1101 14.3588 41.4022 14.6073 41.6127C14.8559 41.8232 15.1713 41.9384 15.497 41.9375H28.5031C28.8288 41.9384 29.1442 41.8232 29.3927 41.6127C29.6413 41.4022 29.8068 41.1101 29.8595 40.7887L30.8138 35.0625H13.1863L14.1405 40.7887Z" fill="black"/>
<path d="M32.3125 29.5625H11.6875C11.3078 29.5625 11 29.8703 11 30.25V33C11 33.3797 11.3078 33.6875 11.6875 33.6875H32.3125C32.6922 33.6875 33 33.3797 33 33V30.25C33 29.8703 32.6922 29.5625 32.3125 29.5625Z" fill="black"/>
<path d="M33 22H35.75V28.1875H39.875V22H42.625L37.8125 17.1875L33 22Z" fill="black"/>
<path d="M6.1875 17.1875L1.375 22H4.125V28.1875H8.25V22H11L6.1875 17.1875Z" fill="black"/>
</svg>
