<svg width="44" height="44" viewBox="0 0 44 44" fill="none" xmlns="http://www.w3.org/2000/svg">
<path d="M27.5862 38.9634C25.0388 37.7623 22.3512 36.4526 19.9549 35.014C19.6496 34.8307 19.2537 34.9296 19.0706 35.2348C18.8873 35.54 18.9862 35.9359 19.2914 36.1192C21.7363 37.587 24.4587 38.914 27.0365 40.1294C27.3605 40.2822 27.7435 40.1411 27.8943 39.8212C28.0461 39.4993 27.9082 39.1151 27.5862 38.9634Z" fill="#2D3928"/>
<path d="M17.677 33.5391C12.9176 30.2058 10.41 26.537 9.78519 21.9935C9.50409 19.9491 7.52967 18.348 5.1926 18.2692C5.00741 18.263 5.16089 18.267 0.644531 18.2659C0.288492 18.2659 0 18.5544 0 18.9104C0 19.2665 0.288492 19.555 0.644531 19.555C5.22148 19.5559 5.00225 19.5527 5.14912 19.5576C6.63068 19.6075 8.29211 20.5979 8.50824 22.1691C8.87124 24.8088 9.81114 27.1486 11.3819 29.3224C12.7419 31.2046 14.5592 32.9292 16.9374 34.595C17.05 34.6739 17.179 34.7117 17.3066 34.7117C17.5098 34.7117 17.7097 34.6158 17.8351 34.4368C18.0394 34.1453 17.9686 33.7434 17.677 33.5391Z" fill="#2D3928"/>
<path d="M43.8746 22.6197C43.6636 22.333 43.2603 22.2715 42.9735 22.4824L39.2379 25.2301C37.292 26.6614 34.5482 26.3361 32.9909 24.4892C31.4749 22.6912 31.5546 20.0509 33.1763 18.3477L38.557 12.6961C39.5404 11.6631 40.055 10.3094 40.0058 8.88407C39.9566 7.45863 39.35 6.14336 38.2977 5.1806C36.258 3.3143 33.0965 3.35099 31.1004 5.26387L28.9993 7.27747C28.7778 7.05627 28.4836 6.9345 28.1707 6.9345C27.8576 6.9345 27.5633 7.05644 27.3417 7.27782L26.3869 8.23267C25.8862 8.16649 25.3614 8.32359 24.9774 8.70738L24.0027 9.68208L23.9923 9.67169C23.7405 9.42006 23.3325 9.42006 23.0808 9.67169C22.8291 9.92348 22.8291 10.3315 23.0808 10.5832L23.0912 10.5936L22.6049 11.0799L22.5944 11.0695C22.3426 10.8178 21.9346 10.8178 21.6828 11.0695C21.4311 11.3213 21.4311 11.7293 21.6828 11.981L21.6933 11.9915L18.1593 15.5255L16.8438 13.6149C14.7265 10.54 11.2336 8.70412 7.50018 8.70412H0.64453C0.288492 8.70412 0 8.99261 0 9.34865C0 9.70469 0.288492 9.99318 0.64453 9.99318H7.50018C10.8093 9.99318 13.9053 11.6204 15.7821 14.346L17.2324 16.4522L16.0433 17.6413C15.3885 18.2963 15.3885 19.3619 16.0434 20.0169L16.1877 20.1612L14.3474 22.0015C14.0957 22.2533 14.0957 22.6614 14.3475 22.913C14.5991 23.1646 15.0072 23.1647 15.2589 22.9129L17.0991 21.0726L17.2435 21.217C17.8983 21.8716 18.9639 21.872 19.619 21.217L20.1486 20.6874L30.1076 35.1511C30.3096 35.4442 30.7106 35.5183 31.004 35.3164C31.2973 35.1145 31.3713 34.7131 31.1695 34.42L21.0756 19.7606L22.3017 18.5346C22.5535 18.2828 22.5535 17.8747 22.3018 17.623C22.0501 17.3715 21.6419 17.3713 21.3903 17.623L18.7076 20.3056C18.5554 20.4579 18.3076 20.4579 18.1551 20.3056L16.9549 19.1054C16.8026 18.9532 16.8026 18.7052 16.9549 18.553L22.605 12.9029L24.3576 14.6555L23.2306 15.7825C22.9789 16.0343 22.9789 16.4423 23.2306 16.6941C23.4824 16.9457 23.8904 16.9457 24.1421 16.6941L25.2691 15.5671L25.2795 15.5775C25.5314 15.8292 25.9393 15.8291 26.191 15.5775C26.4427 15.3257 26.4427 14.9176 26.191 14.6659L26.1806 14.6555L26.667 14.1692L26.6774 14.1796C26.9292 14.4313 27.3372 14.4312 27.5889 14.1796C27.8406 13.9278 27.8406 13.5198 27.5889 13.2681L27.5785 13.2577L28.5532 12.283C28.9371 11.8991 29.0941 11.3743 29.0279 10.8736C29.7305 10.0777 30.3261 9.84176 30.3261 9.0898C30.3261 8.52898 29.9306 8.21685 29.911 8.18918L31.9923 6.19457C33.4997 4.7498 35.8873 4.72238 37.4277 6.13167C38.2223 6.85878 38.6804 7.85205 38.7175 8.9285C38.7546 10.0049 38.366 11.0273 37.6234 11.8072L32.2427 17.4588C30.167 19.6391 30.0649 23.0187 32.0055 25.3203C33.1632 26.6934 34.8334 27.4094 36.5185 27.4094C37.7342 27.4094 38.9577 27.0365 40.0017 26.2688L43.7374 23.521C44.024 23.3099 44.0855 22.9065 43.8746 22.6197ZM28.1708 8.27194L28.9888 9.08989L28.3622 9.71654L27.5442 8.89859L28.1708 8.27194ZM25.2691 13.7441L23.5165 11.9915L24.0028 11.5052L25.7554 13.2578L25.2691 13.7441ZM24.9143 10.5936L25.4567 10.0512C25.4605 10.0551 25.4638 10.0594 25.4677 10.0634L27.1972 11.7929C27.2011 11.7967 27.2054 11.8 27.2093 11.8038L26.667 12.3461L24.9143 10.5936Z" fill="#2D3928"/>
</svg>
