<svg width="44" height="44" viewBox="0 0 44 44" fill="none" xmlns="http://www.w3.org/2000/svg">
<path d="M39.9095 31.834H26.4981V32.4245H39.5871L42.67 37.2242H26.4981V37.814H42.9155V38.7581H26.4981V39.3483H43.5048V37.4332L39.9095 31.834Z" fill="#1D1D1B"/>
<path d="M33.3803 8.97043C33.3803 8.58809 33.3343 8.21667 33.2475 7.86304C32.7802 5.95145 31.1324 4.53906 29.1717 4.53906C26.8468 4.53906 24.9621 6.52345 24.9621 8.97043H30.1018H33.3803ZM28.2492 8.71554H27.8678V8.14354L27.2644 7.90523H25.357L26.088 7.09373H28.2493V8.71554H28.2492ZM29.3943 8.76899H28.9596L28.8109 6.19345H29.5419L29.3943 8.76899ZM30.1017 7.09373H32.2633L32.9944 7.90523H31.087L30.4825 8.14354V8.71554H30.1017V7.09373Z" fill="#1D1D1B"/>
<path d="M38.9078 27.0279C38.9078 27.0279 38.9078 25.7878 38.9078 23.6576C38.9078 21.5275 37.3184 20.8918 37.3184 20.8918L32.803 19.048L31.6186 16.7905L30.1726 18.4124H29.2426H29.1009H28.17L26.7236 16.7905L25.5395 19.048L21.0251 20.8918C21.0251 20.8918 20.2225 21.213 19.7579 22.1641L23.6906 23.6506C23.6906 23.6506 25.2897 24.8505 25.5151 27.0279L25.9708 31.2289H38.908V27.0279H38.9078ZM24.7447 24.3886V24.0077L25.507 21.3057L26.7471 24.3886H24.7447ZM31.2469 26.6149H30.9281H27.4154H27.0976V24.4848L25.6669 20.9337V19.2709L25.7315 19.1591L26.7159 17.4588L27.9262 19.0481H28.4346L29.0705 20.7966H29.2723L29.908 19.0481H30.4172L31.6274 17.4588L32.6118 19.1591L32.6765 19.2709V20.9337L31.2469 24.4848V26.6149ZM33.598 24.3886H31.5949L32.8354 21.3057L33.598 24.0077V24.3886ZM38.6535 26.6149H36.3644V23.9757H38.6535V26.6149Z" fill="#1D1D1B"/>
<path d="M37.5826 24.3149H37.9331V25.6182H37.5826V24.3149Z" fill="#1D1D1B"/>
<path d="M37.011 24.3149H37.3602V25.6182H37.011V24.3149Z" fill="#1D1D1B"/>
<path d="M38.0805 24.3149H38.431V25.6182H38.0805V24.3149Z" fill="#1D1D1B"/>
<path d="M25.5925 14.4968H26.0763L26.6713 16.3459L28.3849 18.0261H29.9583L31.6711 16.3459L32.267 14.4968H32.7508L33.0495 12.6708L32.6485 12.2357L32.6049 12.2166H32.2452L32.2292 12.0638L31.9585 9.45068H26.3841L26.1141 12.0638L26.0982 12.2166H25.7123L25.295 12.6708L25.5925 14.4968ZM25.7636 12.3354H26.204L26.4905 9.57014H31.852L32.1383 12.3354H32.5785L32.9237 12.7083L32.6501 14.3791H32.1802L31.5681 16.2821L29.9105 17.9081H28.4327L26.7751 16.2821L26.1621 14.3791H25.6921L25.419 12.7083L25.7636 12.3354Z" fill="#1D1D1B"/>
<path d="M8.80327 16.8062L9.21371 17.0551L10.1036 19.669L12.362 21.4122H13.1142H13.8661L16.1245 19.669L17.0144 17.0551L17.4258 16.8062C17.4258 16.8062 17.6982 15.4987 17.7672 14.8141C17.8354 14.1293 17.1506 13.9423 17.1506 13.9423C17.1506 13.9423 17.2877 13.0095 17.1506 11.0175C17.0144 9.02634 13.1141 8.71533 13.1141 8.71533C13.1141 8.71533 9.21354 9.02634 9.07733 11.0175C8.94017 13.0096 9.07733 13.9423 9.07733 13.9423C9.07733 13.9423 8.39249 14.1293 8.46064 14.8141C8.52999 15.4987 8.80327 16.8062 8.80327 16.8062Z" fill="#1D1D1B"/>
<path d="M26.2468 9.25609H29.1717H32.0965L32.3183 12.0541H32.6368L32.9865 12.4036V9.10742H32.0965H25.3569V12.4036L25.7064 12.0541H26.0241L26.2468 9.25609Z" fill="#1D1D1B"/>
<path d="M23.3411 24L15.7509 21.1301V21.1221L13.9377 22.5204H13.1142H12.2906L10.4766 21.1221V21.1301L2.88639 24C2.88639 24 1.03573 25.3886 1.03573 27.8871C1.03573 27.8871 0.50042 31.9429 0.495178 39.4608H4.04792C4.33701 35.7002 5.01566 29.0916 5.01566 29.0916V39.4608H21.2128V29.0916C21.2128 29.0916 21.8915 35.7002 22.1806 39.4608H25.7334C25.7288 31.943 25.1927 27.8871 25.1927 27.8871C25.1925 25.3887 23.3411 24 23.3411 24Z" fill="#1D1D1B"/>
<path d="M28.4352 17.7076H29.1708H29.907L31.5311 16.1128L31.844 15.1416L30.4887 14.7817H29.7583L29.3218 15.18H29.0231L28.5872 14.7817H27.8561L26.498 15.1425L26.8107 16.1127L28.4352 17.7076ZM30.4754 15.3863C30.4754 15.3863 30.1253 16.2456 29.1716 16.2456C28.2178 16.2456 27.8677 15.3863 27.8677 15.3863H30.4754Z" fill="#1D1D1B"/>
</svg>
