<svg width="36" height="36" viewBox="0 0 36 36" fill="none" xmlns="http://www.w3.org/2000/svg">
<g clip-path="url(#clip0_47_918)">
<mask id="mask0_47_918" style="mask-type:luminance" maskUnits="userSpaceOnUse" x="0" y="0" width="36" height="36">
<path d="M36 0H0V36H36V0Z" fill="white"/>
</mask>
<g mask="url(#mask0_47_918)">
<mask id="mask1_47_918" style="mask-type:luminance" maskUnits="userSpaceOnUse" x="0" y="0" width="36" height="36">
<path d="M0 3.8147e-06V36H14.231L19.7075 30.5293L13.5 24.234V20.25L23.685 30.5342L18.2056 36H36V21.7207C36 20.5938 35.5612 19.5343 34.7643 18.7375C33.9675 17.9409 32.9084 17.5022 31.7816 17.5022H31.781L31.7816 14.6953C33.3236 14.6953 34.7896 15.1849 36 16.0951V3.8147e-06H0ZM4.21875 31.9152C3.33661 30.7403 2.8125 29.2821 2.8125 27.7031H5.625C5.625 28.9496 6.16887 30.0712 7.03125 30.8442V31.9219H4.21875V31.9152Z" fill="white"/>
</mask>
<g mask="url(#mask1_47_918)">
<path d="M13.2187 26.0156L17.7187 30.5268L13.2187 35.0156M7.03125 19.4766V27.7031C7.03125 29.2564 8.29048 30.5156 9.84375 30.5156H15.9609M17.8594 34.5938H31.7812C33.3345 34.5938 34.5937 33.3345 34.5937 31.7813V21.7207C34.5937 20.1674 33.3345 18.9082 31.7812 18.9084L25.875 18.9141L23.1724 15.8906H17.9292C16.3759 15.8906 15.1167 17.1499 15.1167 18.7031V23.9063M12.6562 5.83594H9.84375M7.73437 5.83594H4.92187M1.40625 10.2656H34.5937M4.21875 30.5156C2.66548 30.5156 1.40625 29.2564 1.40625 27.7031V4.21875C1.40625 2.66548 2.66548 1.40625 4.21875 1.40625H31.7812C33.3345 1.40625 34.5937 2.66548 34.5937 4.21875V18.5625" stroke="#132573" stroke-width="2.2" stroke-miterlimit="10"/>
</g>
</g>
</g>
<defs>
<clipPath id="clip0_47_918">
<rect width="36" height="36" fill="white"/>
</clipPath>
</defs>
</svg>
