<svg width="44" height="44" viewBox="0 0 44 44" fill="none" xmlns="http://www.w3.org/2000/svg">
<g clip-path="url(#clip0_47_7124)">
<path d="M13.254 10.2769C13.3799 10.4027 13.5449 10.4656 13.7098 10.4656C13.8748 10.4656 14.0398 10.4027 14.1657 10.2769C14.4174 10.0251 14.4174 9.61709 14.1657 9.36538L4.99681 0.196531C4.74501 -0.0550937 4.33698 -0.0550937 4.08527 0.196531C3.83356 0.448328 3.83356 0.856359 4.08527 1.10807L13.254 10.2769Z" fill="#2D3928"/>
<path d="M14.3365 16.16C15.0822 16.9057 15.3901 17.9754 15.14 18.9515C14.8743 19.9874 15.1874 21.0917 15.9571 21.8331C16.531 22.3862 17.2746 22.6659 18.0197 22.6659C18.6861 22.6659 19.3538 22.4422 19.9023 21.9898C20.6559 21.3685 21.0489 20.4492 20.9821 19.4917C21.9389 19.558 22.8568 19.1663 23.4782 18.4144C24.4368 17.2545 24.3721 15.559 23.3278 14.4708C22.5845 13.6965 21.4766 13.3821 20.4363 13.6509C19.4647 13.9017 18.3977 13.5933 17.6505 12.846L15.9835 11.1791C15.7317 10.9275 15.3237 10.9275 15.072 11.1791C14.8203 11.4309 14.8203 11.8389 15.072 12.0906L16.7389 13.7576C17.8075 14.826 19.348 15.2634 20.7586 14.899C21.3574 14.7444 21.9702 14.918 22.3977 15.3633C22.979 15.9691 23.0171 16.9485 22.4845 17.5931C22.1004 18.0577 21.5171 18.2802 20.9248 18.1892C20.5824 18.1361 20.2325 18.2515 19.9873 18.4969C19.7419 18.7421 19.6269 19.0926 19.6797 19.434C19.7713 20.0274 19.548 20.611 19.0822 20.9951C18.4365 21.5276 17.4566 21.4879 16.8515 20.9047C16.4088 20.4782 16.2358 19.8677 16.3886 19.2714C16.7513 17.8562 16.3143 16.3146 15.2482 15.2483L1.1179 1.11841C0.866103 0.866781 0.458072 0.866781 0.206361 1.11841C-0.0453496 1.3702 -0.0453496 1.77823 0.206361 2.02995L14.3365 16.16Z" fill="#2D3928"/>
<path d="M30.6392 19.4592C30.4332 18.4341 29.7274 17.5889 28.7512 17.1981C27.7904 16.8134 26.7155 16.9347 25.8747 17.5236L25.8219 17.5612C25.3042 17.9347 24.9231 18.449 24.7197 19.0487C23.3615 23.0519 20.7089 25.0232 18.7229 25.972C17.7284 26.447 17.1974 27.4635 17.3701 28.5617C17.5402 29.643 18.3447 30.435 19.4195 30.5795C19.6799 30.6144 20.9384 30.617 21.1612 30.6016C21.4364 30.5827 21.6961 30.6738 21.893 30.8577C22.0802 31.0326 22.1833 31.2703 22.1833 31.5268V43.3547C22.1833 43.7107 22.4718 43.9992 22.8279 43.9992C23.1839 43.9992 23.4724 43.7107 23.4724 43.3547V31.5268C23.4724 30.9092 23.224 30.337 22.7729 29.9158C22.3189 29.4917 21.7002 29.2724 21.0736 29.3156C20.8849 29.3286 19.7675 29.3213 19.5911 29.3018C18.989 29.2211 18.7068 28.763 18.6437 28.3615C18.5784 27.9465 18.7109 27.4065 19.2787 27.1353C21.4886 26.0795 24.4382 23.8915 25.9407 19.4629C26.0559 19.1234 26.2816 18.8194 26.576 18.6069L26.6159 18.5786C27.1048 18.2361 27.7087 18.1693 28.2724 18.3949C28.8432 18.6234 29.2556 19.1163 29.3755 19.7132C29.8259 21.9552 28.8365 24.4128 26.8548 25.9741C26.3144 26.3998 26.0045 27.0361 26.0045 27.7197V43.3548C26.0045 43.7108 26.293 43.9993 26.649 43.9993C27.005 43.9993 27.2935 43.7108 27.2935 43.3548V27.7196C27.2935 27.4335 27.4243 27.1663 27.6526 26.9865C30.0119 25.1274 31.1842 22.1728 30.6392 19.4592Z" fill="#2D3928"/>
<path d="M16.9171 33.2962C16.8368 32.9493 16.4909 32.7334 16.1438 32.8136C15.7971 32.8939 15.581 33.2401 15.6613 33.5869C16.3231 36.446 16.6938 39.736 16.7628 43.3653C16.7696 43.717 17.0568 43.9975 17.407 43.9975C17.4112 43.9975 17.4155 43.9975 17.4196 43.9974C17.7755 43.9907 18.0585 43.6966 18.0517 43.3407C17.9808 39.6219 17.5991 36.2424 16.9171 33.2962Z" fill="#2D3928"/>
<path d="M16.2453 30.836C14.6068 25.6676 11.872 22.064 8.11697 20.1254C5.30002 18.671 3.29588 16.5034 2.16021 13.6826C1.31115 11.5738 1.28941 9.8628 1.28906 9.82353C1.28872 9.46784 1.00031 9.17969 0.644531 9.17969C0.288492 9.17969 0 9.46818 0 9.82422C0 9.90242 0.0107421 11.7667 0.942734 14.1098C1.80194 16.2698 3.64134 19.2653 7.52572 21.2707C10.9651 23.0464 13.4854 26.3957 15.0165 31.2256C15.1036 31.5001 15.3574 31.6755 15.6307 31.6755C15.6953 31.6755 15.7609 31.6658 15.8257 31.6451C16.1649 31.5376 16.3529 31.1754 16.2453 30.836Z" fill="#2D3928"/>
<path d="M40.3725 31.5409H39.0804V30.2488C39.0804 29.6894 38.6254 29.2344 38.066 29.2344H35.9634C35.4041 29.2344 34.9491 29.6894 34.9491 30.2488V31.5409H33.6569C33.0976 31.5409 32.6426 31.9959 32.6426 32.5553V34.6578C32.6426 35.2172 33.0976 35.6722 33.6569 35.6722H34.9491V36.9643C34.9491 37.5236 35.4041 37.9787 35.9634 37.9787H38.066C38.6254 37.9787 39.0804 37.5236 39.0804 36.9643V35.6722H40.3725C40.9319 35.6722 41.3869 35.2172 41.3869 34.6578V32.5553C41.3869 31.9959 40.9319 31.5409 40.3725 31.5409ZM40.0978 34.3831H38.8057C38.2464 34.3831 37.7914 34.8382 37.7914 35.3975V36.6896H36.2382V35.3975C36.2382 34.8382 35.7832 34.3831 35.2238 34.3831H33.9317V32.8299H35.2238C35.7832 32.8299 36.2382 32.3749 36.2382 31.8156V30.5234H37.7914V31.8156C37.7914 32.3749 38.2464 32.8299 38.8057 32.8299H40.0978V34.3831Z" fill="#2D3928"/>
<path d="M37.0147 26.6222C36.0601 26.6222 35.1497 26.8147 34.3202 27.1629V22.9402C34.3202 19.1268 33.3159 15.3634 31.4161 12.0569C29.5163 8.75044 26.7706 5.98764 23.476 4.0672L16.6489 0.0877847C16.3414 -0.0913946 15.9468 0.0124177 15.7675 0.319987C15.5882 0.627557 15.6922 1.02218 15.9997 1.20145L22.8267 5.18095C25.9269 6.98804 28.5106 9.58781 30.2983 12.6992C32.086 15.8105 33.031 19.3518 33.031 22.9402V27.8725C31.2187 29.1355 30.0304 31.2348 30.0304 33.6064C30.0304 35.9781 31.2187 38.0774 33.031 39.3403V43.3554C33.031 43.7115 33.3195 44 33.6755 44C34.0316 44 34.3201 43.7115 34.3201 43.3554V40.0499C35.1496 40.3982 36.0601 40.5906 37.0146 40.5906C38.197 40.5906 39.3667 40.2885 40.397 39.717C40.7083 39.5444 40.8207 39.1521 40.6481 38.8408C40.4753 38.5295 40.083 38.4168 39.7719 38.5898C38.9322 39.0555 37.9789 39.3016 37.0146 39.3016C33.8743 39.3016 31.3195 36.7468 31.3195 33.6064C31.3195 30.4661 33.8743 27.9113 37.0146 27.9113C40.155 27.9113 42.7099 30.4662 42.7099 33.6065C42.7099 34.8723 42.3024 36.0713 41.5312 37.0739C41.3143 37.3561 41.3671 37.7607 41.6492 37.9778C41.9315 38.1947 42.336 38.1419 42.5531 37.8598C43.499 36.6297 43.9989 35.159 43.9989 33.6065C43.9989 29.7553 40.8658 26.6222 37.0147 26.6222Z" fill="#2D3928"/>
</g>
<defs>
<clipPath id="clip0_47_7124">
<rect width="44" height="44" fill="white"/>
</clipPath>
</defs>
</svg>
