<svg width="44" height="44" viewBox="0 0 44 44" fill="none" xmlns="http://www.w3.org/2000/svg">
<path fill-rule="evenodd" clip-rule="evenodd" d="M22.3063 16.264C22.147 14.1458 21.173 12.1717 19.5888 10.7565C18.0046 9.34125 15.9336 8.59507 13.8109 8.67469C11.6881 8.75431 9.67881 9.65352 8.2051 11.1834C6.73139 12.7133 5.90796 14.7548 5.90779 16.8791C5.90779 21.4391 8.82107 21.1666 9.21578 27.8877H12.013V19.5346H10.7927C10.2794 19.5346 9.77765 19.3823 9.35085 19.0972C8.92406 18.812 8.59141 18.4067 8.39498 17.9324C8.19854 17.4582 8.14715 16.9364 8.24729 16.4329C8.34743 15.9295 8.59461 15.467 8.95757 15.1041C9.32053 14.7411 9.78297 14.4939 10.2864 14.3938C10.7899 14.2937 11.3117 14.3451 11.7859 14.5415C12.2601 14.7379 12.6655 15.0706 12.9507 15.4974C13.2358 15.9242 13.388 16.4259 13.388 16.9392V18.1596H14.849V16.9392C14.849 16.2509 15.1224 15.5908 15.6091 15.1041C16.0958 14.6174 16.756 14.3439 17.4443 14.3439C18.1326 14.3439 18.7927 14.6174 19.2795 15.1041C19.7662 15.5908 20.0396 16.2509 20.0396 16.9392C20.04 17.2851 19.9706 17.6276 19.8357 17.9461C20.5719 17.2668 21.4044 16.6999 22.3062 16.2638L22.3063 16.264ZM42.7263 37.5705L37.9144 32.9012C37.7624 32.7547 37.5586 32.6743 37.3476 32.6775C37.1365 32.6808 36.9353 32.7673 36.7879 32.9184L36.6889 33.0204L33.9303 30.3435C35.1897 28.5042 35.7011 26.2543 35.3605 24.0513C35.02 21.8484 33.853 19.8579 32.097 18.4848C30.3411 17.1117 28.128 16.459 25.9079 16.6596C23.6878 16.8602 21.6275 17.899 20.1461 19.5646C18.6647 21.2302 17.8735 23.3977 17.9333 25.626C17.9931 27.8543 18.8995 29.9761 20.4682 31.5599C22.0368 33.1436 24.1499 34.0703 26.3775 34.1515C28.6051 34.2327 30.78 33.4622 32.4598 31.9969L35.1497 34.6069L35.0507 34.7088C34.9042 34.8608 34.8238 35.0645 34.827 35.2756C34.8302 35.4866 34.9168 35.6878 35.0678 35.8353L39.8798 40.5046C40.0318 40.6511 40.2356 40.7314 40.4466 40.7282C40.6576 40.725 40.8589 40.6384 41.0063 40.4874L42.7436 38.697C42.8901 38.545 42.9704 38.3412 42.9672 38.1302C42.964 37.9191 42.8774 37.7179 42.7263 37.5705ZM26.7212 31.7254C25.4736 31.7254 24.254 31.3554 23.2166 30.6623C22.1792 29.9691 21.3706 28.9839 20.8932 27.8312C20.4157 26.6785 20.2908 25.4102 20.5342 24.1865C20.7776 22.9628 21.3784 21.8388 22.2606 20.9565C23.1429 20.0743 24.2669 19.4735 25.4906 19.2301C26.7143 18.9867 27.9826 19.1116 29.1353 19.5891C30.288 20.0665 31.2732 20.8751 31.9664 21.9125C32.6595 22.9499 33.0295 24.1695 33.0295 25.4171C33.0295 27.0902 32.3649 28.6947 31.1819 29.8777C29.9988 31.0608 28.3943 31.7254 26.7212 31.7254ZM30.2811 22.8715C30.4566 23.0461 30.5555 23.2833 30.5563 23.5308C30.557 23.7783 30.4595 24.0161 30.2852 24.1918C29.0414 25.4471 27.8059 26.7108 26.5563 27.9605C26.3808 28.1359 26.1428 28.2345 25.8946 28.2345C25.6464 28.2345 25.4084 28.1359 25.2329 27.9605L23.1602 25.8873C22.9847 25.7118 22.8861 25.4738 22.8861 25.2256C22.8861 24.9774 22.9847 24.7394 23.1602 24.5639C23.3357 24.3884 23.5737 24.2898 23.8219 24.2898C24.0701 24.2898 24.3081 24.3884 24.4836 24.5639L25.893 25.9732L28.9604 22.8753C29.0468 22.7883 29.1495 22.7191 29.2627 22.6719C29.3759 22.6246 29.4973 22.6 29.62 22.5997C29.7426 22.5993 29.8641 22.6232 29.9776 22.6698C30.091 22.7164 30.1942 22.785 30.2811 22.8715ZM16.3184 34.6002H11.9195C11.9311 34.9465 12.0766 35.2748 12.3253 35.5161C12.574 35.7574 12.9066 35.8928 13.2531 35.8938H14.9847C15.3312 35.8927 15.6638 35.7573 15.9125 35.5161C16.1612 35.2748 16.3067 34.9465 16.3183 34.6002H16.3184ZM17.6867 31.9317H10.5513C10.5629 32.278 10.7084 32.6064 10.9572 32.8476C11.2059 33.0888 11.5386 33.2242 11.8851 33.2252H16.3532C16.6997 33.2242 17.0323 33.0888 17.281 32.8476C17.5297 32.6063 17.6752 32.278 17.6867 31.9317ZM17.3144 29.2631H9.21647C9.22806 29.6094 9.37351 29.9377 9.62223 30.179C9.87094 30.4203 10.2035 30.5557 10.55 30.5567H17.6868C17.7721 30.5568 17.8573 30.5486 17.941 30.5322C17.7028 30.1243 17.4935 29.7002 17.3144 29.2631ZM12.013 18.16H10.7927C10.5514 18.16 10.3154 18.0884 10.1148 17.9543C9.91409 17.8202 9.75767 17.6296 9.66531 17.4067C9.57295 17.1837 9.54878 16.9383 9.59587 16.7016C9.64295 16.4649 9.75918 16.2474 9.92984 16.0768C10.1005 15.9061 10.3179 15.7899 10.5547 15.7428C10.7914 15.6957 11.0367 15.7199 11.2597 15.8123C11.4827 15.9046 11.6733 16.061 11.8074 16.2617C11.9415 16.4624 12.013 16.6983 12.013 16.9397V18.16ZM17.4443 18.16H16.224V16.9397C16.224 16.6983 16.2956 16.4624 16.4296 16.2617C16.5637 16.061 16.7543 15.9046 16.9773 15.8123C17.2003 15.7199 17.4457 15.6957 17.6824 15.7428C17.9191 15.7899 18.1365 15.9061 18.3072 16.0768C18.4779 16.2474 18.5941 16.4649 18.6412 16.7016C18.6882 16.9383 18.6641 17.1837 18.5717 17.4067C18.4794 17.6296 18.3229 17.8202 18.1223 17.9543C17.9216 18.0884 17.6857 18.16 17.4443 18.16ZM16.224 19.535H17.4443C17.8691 19.5354 18.2873 19.4307 18.6619 19.2303C17.7306 20.4455 17.0853 21.8549 16.774 23.3539C16.4627 24.8529 16.4934 26.4027 16.8639 27.8882H16.2238V19.5351L16.224 19.535ZM14.849 27.8881H13.388V19.535H14.849V27.8881ZM14.806 5.89301C14.806 6.07534 14.7336 6.25021 14.6047 6.37914C14.4757 6.50808 14.3009 6.58051 14.1185 6.58051C13.9362 6.58051 13.7613 6.50808 13.6324 6.37914C13.5034 6.25021 13.431 6.07534 13.431 5.89301V3.95898C13.431 3.77665 13.5034 3.60178 13.6324 3.47285C13.7613 3.34392 13.9362 3.27148 14.1185 3.27148C14.3009 3.27148 14.4757 3.34392 14.6047 3.47285C14.7336 3.60178 14.806 3.77665 14.806 3.95898V5.89301ZM25.1883 12.6791C25.031 12.7687 24.8446 12.7924 24.6699 12.7452C24.4952 12.6979 24.3462 12.5835 24.2555 12.4269C24.1647 12.2702 24.1396 12.0841 24.1856 11.909C24.2315 11.7339 24.3448 11.5841 24.5008 11.4922L26.1757 10.5251C26.3331 10.434 26.5203 10.4091 26.6961 10.4559C26.8719 10.5027 27.0218 10.6175 27.113 10.7749C27.2042 10.9323 27.2291 11.1195 27.1822 11.2953C27.1354 11.471 27.0206 11.621 26.8632 11.7122L25.1883 12.6791ZM20.9046 7.89604C20.8134 8.05345 20.6634 8.1682 20.4877 8.21504C20.3119 8.26189 20.1247 8.23698 19.9673 8.14582C19.8099 8.05465 19.6951 7.90468 19.6483 7.72891C19.6014 7.55313 19.6263 7.36595 19.7175 7.20854L20.6846 5.53362C20.7765 5.37766 20.9263 5.26434 21.1014 5.21839C21.2765 5.17243 21.4626 5.19755 21.6193 5.28828C21.7759 5.37901 21.8903 5.52798 21.9376 5.70272C21.9848 5.87747 21.9611 6.06381 21.8715 6.22112L20.9046 7.89604ZM3.73348 11.4921C3.88928 11.5834 4.00271 11.7325 4.04906 11.907C4.09542 12.0815 4.07094 12.2673 3.98097 12.4239C3.891 12.5804 3.74282 12.6951 3.5687 12.7429C3.39458 12.7907 3.20862 12.7678 3.05131 12.6791L1.37639 11.7121C1.21899 11.6216 1.10397 11.4723 1.05663 11.2971C1.0332 11.2103 1.02708 11.1198 1.03864 11.0306C1.0502 10.9415 1.0792 10.8555 1.12399 10.7775C1.16878 10.6996 1.22849 10.6312 1.2997 10.5764C1.3709 10.5215 1.45222 10.4812 1.539 10.4578C1.71427 10.4104 1.90116 10.4347 2.05856 10.5251L3.73348 11.4921ZM8.51926 7.20854C8.61043 7.36595 8.63533 7.55313 8.58848 7.72891C8.54164 7.90468 8.42689 8.05465 8.26948 8.14582C8.11207 8.23698 7.92488 8.26189 7.74911 8.21504C7.57334 8.1682 7.42337 8.05345 7.3322 7.89604L6.36523 6.22112C6.31929 6.14315 6.28924 6.05685 6.2768 5.96721C6.26436 5.87757 6.26979 5.78636 6.29277 5.69882C6.31574 5.61129 6.35581 5.52917 6.41067 5.45719C6.46553 5.38522 6.53409 5.32481 6.6124 5.27945C6.69071 5.23409 6.77723 5.20468 6.86696 5.19291C6.95669 5.18114 7.04786 5.18724 7.13522 5.21087C7.22258 5.2345 7.3044 5.27518 7.37597 5.33057C7.44753 5.38596 7.50743 5.45497 7.5522 5.53362L8.51926 7.20854Z" fill="black"/>
</svg>
