<svg width="44" height="44" viewBox="0 0 44 44" fill="none" xmlns="http://www.w3.org/2000/svg">
<g clip-path="url(#clip0_47_7965)">
<path d="M32.6501 7.568C31.9388 6.70849 31.0472 6.01605 30.0383 5.53984C29.0294 5.06362 27.9281 4.8153 26.8125 4.8125V0.6875H25.4375V5.5C25.4375 5.68234 25.5099 5.8572 25.6389 5.98614C25.7678 6.11507 25.9427 6.1875 26.125 6.1875H26.8125C27.7727 6.18978 28.7193 6.41443 29.5781 6.84383C30.4369 7.27324 31.1846 7.89573 31.7625 8.6625C31.8265 8.74788 31.9096 8.81719 32.005 8.86492C32.1005 8.91265 32.2058 8.9375 32.3125 8.9375C34.8644 8.94023 37.3109 9.95517 39.1154 11.7596C40.9198 13.5641 41.9348 16.0106 41.9375 18.5625V43.3125H43.3125V18.5625C43.3091 15.7046 42.1949 12.9599 40.2053 10.9084C38.2157 8.8568 35.5065 7.65899 32.6501 7.568Z" fill="#2D3928"/>
<path d="M37.0817 22.2391L35.7933 21.7578L33.7308 27.2578C33.7024 27.3344 33.6877 27.4154 33.6875 27.4971V29.3973C33.685 30.3017 33.4732 31.1933 33.0687 32.0023C32.5718 33.0028 32.3129 34.1047 32.3125 35.2218V43.3096H33.6875V35.2218C33.69 34.3174 33.9018 33.4258 34.3063 32.6169C34.598 32.0211 34.8062 31.3879 34.925 30.7352C35.4696 32.5178 35.7476 34.3712 35.75 36.2352V43.3096H37.125V36.2338C37.1192 33.1993 36.434 30.2046 35.1196 27.4696L37.0817 22.2391Z" fill="#2D3928"/>
<path d="M17.875 6.1875C18.0573 6.1875 18.2322 6.11507 18.3611 5.98614C18.4901 5.8572 18.5625 5.68234 18.5625 5.5V0.6875H17.1875V4.8125C16.0719 4.8153 14.9706 5.06362 13.9617 5.53984C12.9528 6.01605 12.0612 6.70849 11.3499 7.568C8.4935 7.65899 5.78428 8.8568 3.79467 10.9084C1.80506 12.9599 0.690868 15.7046 0.6875 18.5625V43.3125H2.0625V18.5625C2.06523 16.0106 3.08017 13.5641 4.88461 11.7596C6.68906 9.95517 9.13563 8.94023 11.6875 8.9375C11.7942 8.9375 11.8995 8.91265 11.995 8.86492C12.0904 8.81719 12.1735 8.74788 12.2375 8.6625C12.8154 7.89573 13.5631 7.27324 14.4219 6.84383C15.2807 6.41443 16.2273 6.18978 17.1875 6.1875H17.875Z" fill="#2D3928"/>
<path d="M10.3125 29.4001V27.4998C10.3126 27.4172 10.2979 27.3353 10.2692 27.2578L8.20669 21.7578L6.91831 22.2391L8.88044 27.4696C7.56564 30.2055 6.88038 33.2011 6.875 36.2366V43.3123H8.25V36.2366C8.25237 34.3726 8.53038 32.5192 9.075 30.7366C9.19381 31.3892 9.40202 32.0224 9.69375 32.6182C10.0984 33.4276 10.3102 34.3197 10.3125 35.2246V43.3123H11.6875V35.2246C11.6871 34.1074 11.4282 33.0055 10.9312 32.005C10.5268 31.1961 10.315 30.3045 10.3125 29.4001Z" fill="#2D3928"/>
<path d="M24.75 39.875C24.75 39.6927 24.6776 39.5178 24.5486 39.3889C24.4197 39.2599 24.2448 39.1875 24.0625 39.1875H19.9375C19.7552 39.1875 19.5803 39.2599 19.4514 39.3889C19.3224 39.5178 19.25 39.6927 19.25 39.875V40.5625H17.875V41.9375H19.25V42.625C19.25 42.8073 19.3224 42.9822 19.4514 43.1111C19.5803 43.2401 19.7552 43.3125 19.9375 43.3125H24.0625C24.2448 43.3125 24.4197 43.2401 24.5486 43.1111C24.6776 42.9822 24.75 42.8073 24.75 42.625V41.9375H26.125V40.5625H24.75V39.875ZM23.375 41.9375H20.625V40.5625H23.375V41.9375Z" fill="#2D3928"/>
<path d="M24.75 34.375C24.75 34.1927 24.6776 34.0178 24.5486 33.8889C24.4197 33.7599 24.2448 33.6875 24.0625 33.6875H19.9375C19.7552 33.6875 19.5803 33.7599 19.4514 33.8889C19.3224 34.0178 19.25 34.1927 19.25 34.375V35.0625H17.875V36.4375H19.25V37.125C19.25 37.3073 19.3224 37.4822 19.4514 37.6111C19.5803 37.7401 19.7552 37.8125 19.9375 37.8125H24.0625C24.2448 37.8125 24.4197 37.7401 24.5486 37.6111C24.6776 37.4822 24.75 37.3073 24.75 37.125V36.4375H26.125V35.0625H24.75V34.375ZM23.375 36.4375H20.625V35.0625H23.375V36.4375Z" fill="#2D3928"/>
<path d="M24.75 28.875C24.75 28.6927 24.6776 28.5178 24.5486 28.3889C24.4197 28.2599 24.2448 28.1875 24.0625 28.1875H19.9375C19.7552 28.1875 19.5803 28.2599 19.4514 28.3889C19.3224 28.5178 19.25 28.6927 19.25 28.875V29.5625H17.875V30.9375H19.25V31.625C19.25 31.8073 19.3224 31.9822 19.4514 32.1111C19.5803 32.2401 19.7552 32.3125 19.9375 32.3125H24.0625C24.2448 32.3125 24.4197 32.2401 24.5486 32.1111C24.6776 31.9822 24.75 31.8073 24.75 31.625V30.9375H26.125V29.5625H24.75V28.875ZM23.375 30.9375H20.625V29.5625H23.375V30.9375Z" fill="#2D3928"/>
<path d="M25.4375 24.0625H24.255L24.0419 23.2086C24.0048 23.0598 23.919 22.9277 23.7981 22.8333C23.6773 22.7389 23.5284 22.6875 23.375 22.6875H20.625C20.4716 22.6875 20.3227 22.7389 20.2019 22.8333C20.081 22.9277 19.9952 23.0598 19.9581 23.2086L19.745 24.0625H18.5625V25.4375H19.4012L19.2706 25.9586C19.2454 26.06 19.2435 26.1657 19.2652 26.2679C19.2869 26.37 19.3316 26.4659 19.3959 26.5482C19.4601 26.6305 19.5423 26.6971 19.6362 26.7429C19.73 26.7887 19.8331 26.8125 19.9375 26.8125H24.0625C24.1669 26.8125 24.27 26.7887 24.3638 26.7429C24.4577 26.6971 24.5399 26.6305 24.6041 26.5482C24.6684 26.4659 24.7131 26.37 24.7348 26.2679C24.7565 26.1657 24.7546 26.06 24.7294 25.9586L24.5987 25.4375H25.4375V24.0625ZM20.8182 25.4375L21.1619 24.0625H22.8381L23.1818 25.4375H20.8182Z" fill="#2D3928"/>
<path d="M25.4375 18.5625H24.255L24.0419 17.7086C24.0048 17.5598 23.919 17.4277 23.7981 17.3333C23.6773 17.2389 23.5284 17.1875 23.375 17.1875H20.625C20.4716 17.1875 20.3227 17.2389 20.2019 17.3333C20.081 17.4277 19.9952 17.5598 19.9581 17.7086L19.745 18.5625H18.5625V19.9375H19.4012L19.2706 20.4586C19.2454 20.56 19.2435 20.6657 19.2652 20.7679C19.2869 20.87 19.3316 20.9659 19.3959 21.0482C19.4601 21.1305 19.5423 21.1971 19.6362 21.2429C19.73 21.2887 19.8331 21.3125 19.9375 21.3125H24.0625C24.1669 21.3125 24.27 21.2887 24.3638 21.2429C24.4577 21.1971 24.5399 21.1305 24.6041 21.0482C24.6684 20.9659 24.7131 20.87 24.7348 20.7679C24.7565 20.6657 24.7546 20.56 24.7294 20.4586L24.5987 19.9375H25.4375V18.5625ZM20.8182 19.9375L21.1619 18.5625H22.8381L23.1818 19.9375H20.8182Z" fill="#2D3928"/>
<path d="M25.4375 13.0625H24.255L24.0419 12.2086C24.0048 12.0598 23.919 11.9277 23.7981 11.8333C23.6773 11.7389 23.5284 11.6875 23.375 11.6875H20.625C20.4716 11.6875 20.3227 11.7389 20.2019 11.8333C20.081 11.9277 19.9952 12.0598 19.9581 12.2086L19.745 13.0625H18.5625V14.4375H19.4012L19.2706 14.9586C19.2454 15.06 19.2435 15.1657 19.2652 15.2679C19.2869 15.37 19.3316 15.4659 19.3959 15.5482C19.4601 15.6305 19.5423 15.6971 19.6362 15.7429C19.73 15.7887 19.8331 15.8125 19.9375 15.8125H24.0625C24.1669 15.8125 24.27 15.7887 24.3638 15.7429C24.4577 15.6971 24.5399 15.6305 24.6041 15.5482C24.6684 15.4659 24.7131 15.37 24.7348 15.2679C24.7565 15.1657 24.7546 15.06 24.7294 14.9586L24.5987 14.4375H25.4375V13.0625ZM20.8182 14.4375L21.1619 13.0625H22.8381L23.1818 14.4375H20.8182Z" fill="#2D3928"/>
<path d="M18.5625 7.5625V8.9375H19.4012L19.2706 9.45863C19.2454 9.55995 19.2435 9.6657 19.2652 9.76785C19.2869 9.87 19.3316 9.96587 19.3959 10.0482C19.4601 10.1305 19.5423 10.1971 19.6362 10.2429C19.73 10.2887 19.8331 10.3125 19.9375 10.3125H24.0625C24.1669 10.3125 24.27 10.2887 24.3638 10.2429C24.4577 10.1971 24.5399 10.1305 24.6041 10.0482C24.6684 9.96587 24.7131 9.87 24.7348 9.76785C24.7565 9.6657 24.7546 9.55995 24.7294 9.45863L24.5987 8.9375H25.4375V7.5625H24.255L24.0419 6.70863C24.0048 6.55983 23.919 6.42771 23.7981 6.33328C23.6773 6.23886 23.5284 6.18754 23.375 6.1875H20.625C20.4716 6.18754 20.3227 6.23886 20.2019 6.33328C20.081 6.42771 19.9952 6.55983 19.9581 6.70863L19.745 7.5625H18.5625ZM21.1619 7.5625H22.8381L23.1818 8.9375H20.8182L21.1619 7.5625Z" fill="#2D3928"/>
<path d="M28.3887 13.9531L25.6387 16.7031L26.6109 17.6754L29.361 14.9253L28.3887 13.9531Z" fill="#2D3928"/>
<path d="M30.25 18.5625H26.8125V19.9375H30.25V18.5625Z" fill="#2D3928"/>
<path d="M26.6109 20.8246L25.6387 21.7969L28.3887 24.5469L29.361 23.5747L26.6109 20.8246Z" fill="#2D3928"/>
<path d="M15.6109 13.9496L14.6387 14.9219L17.3887 17.6719L18.361 16.6997L15.6109 13.9496Z" fill="#2D3928"/>
<path d="M17.1875 18.5625H13.75V19.9375H17.1875V18.5625Z" fill="#2D3928"/>
<path d="M17.3887 20.8281L14.6387 23.5781L15.6109 24.5504L18.361 21.8003L17.3887 20.8281Z" fill="#2D3928"/>
</g>
<defs>
<clipPath id="clip0_47_7965">
<rect width="44" height="44" fill="white"/>
</clipPath>
</defs>
</svg>
