<svg width="44" height="44" viewBox="0 0 44 44" fill="none" xmlns="http://www.w3.org/2000/svg">
<path d="M11.0276 19.5897C11.0959 19.4235 11.0965 19.2371 11.0292 19.0705C10.9618 18.904 10.8319 18.7703 10.6673 18.6983C10.5027 18.6263 10.3164 18.6215 10.1484 18.6851C9.98031 18.7487 9.84382 18.8755 9.76811 19.0385C9.73219 19.119 8.90805 21.0456 10.317 24.0611C10.3394 24.1194 11.438 26.98 12.4955 30.3781C12.5577 31.0108 13.1111 37.1112 11.5527 39.6228C11.4895 39.7271 11.455 39.8463 11.4527 39.9683C11.4504 40.0902 11.4804 40.2106 11.5397 40.3172C11.5989 40.4238 11.6853 40.5128 11.79 40.5753C11.8948 40.6378 12.0142 40.6714 12.1361 40.6729C13.3666 40.556 13.8037 37.0434 13.9298 35.687C14.3158 37.1737 14.4734 38.7104 14.3974 40.2445C14.3857 40.3342 14.3918 40.4253 14.4154 40.5126C14.4389 40.5999 14.4795 40.6817 14.5347 40.7532C14.59 40.8248 14.6588 40.8848 14.7373 40.9298C14.8157 40.9747 14.9023 41.0037 14.992 41.0152C15.0817 41.0266 15.1727 41.0202 15.2599 40.9964C15.3472 40.9726 15.4288 40.9318 15.5003 40.8764C15.5717 40.8209 15.6315 40.752 15.6762 40.6734C15.721 40.5948 15.7497 40.5082 15.7609 40.4184C16.3383 35.8987 11.7934 24.0671 11.5812 23.5227C10.4452 21.0882 10.9977 19.6632 11.0276 19.5897Z" fill="#2D3928"/>
<path d="M36.4518 13.9866L30.7977 11.6005C26.2071 9.94784 27.1615 4.03998 27.2045 3.78922C27.2356 3.60955 27.1941 3.42489 27.089 3.27584C26.984 3.12679 26.824 3.02558 26.6444 2.99446C26.4647 2.96335 26.28 3.00488 26.131 3.10992C25.982 3.21496 25.8807 3.3749 25.8496 3.55457C25.4122 6.06958 25.7862 11.2577 30.2972 12.8808L35.9147 15.2525C37.2894 15.8975 38.4134 16.9773 39.1129 18.3251C39.8125 19.6728 40.0486 21.2135 39.7849 22.7089C39.6341 24.8267 39.4747 28.9793 38.4037 30.7891C38.2917 30.9296 38.2391 31.1085 38.2574 31.2873C38.2756 31.4661 38.3631 31.6306 38.5012 31.7457C38.6392 31.8608 38.8169 31.9172 38.996 31.9029C39.1752 31.8886 39.3416 31.8047 39.4597 31.6692C39.526 31.5846 39.5865 31.4957 39.6407 31.4029C39.8369 33.5795 39.8746 36.4911 39.0434 38.5472C38.9784 38.7156 38.9822 38.9028 39.054 39.0685C39.1258 39.2341 39.2598 39.3648 39.4271 39.4325C39.5945 39.5002 39.7817 39.4993 39.9484 39.4302C40.1152 39.361 40.248 39.2291 40.3184 39.0628C41.8502 35.2728 40.7961 29.275 40.6029 28.2699C40.8955 26.4702 41.079 24.6546 41.1525 22.8328C41.4296 21.0484 41.1213 19.2222 40.274 17.6276C39.4266 16.033 38.0857 14.7556 36.4518 13.9866Z" fill="#2D3928"/>
<path d="M33.3365 18.6898C33.1705 18.7623 33.0395 18.897 32.9717 19.065C32.9039 19.2331 32.9048 19.421 32.974 19.5884C32.9985 19.6478 33.5628 21.0738 32.3993 23.5697L32.1321 24.268C32.0995 24.3523 32.0839 24.4422 32.0861 24.5325C32.0884 24.6229 32.1084 24.7119 32.1451 24.7945C32.1817 24.8772 32.2343 24.9517 32.2998 25.014C32.3653 25.0763 32.4425 25.125 32.5268 25.1574C32.6112 25.1899 32.7011 25.2054 32.7915 25.203C32.8818 25.2006 32.9708 25.1805 33.0534 25.1437C33.136 25.1069 33.2105 25.0542 33.2726 24.9886C33.3348 24.923 33.3835 24.8458 33.4158 24.7614L33.6652 24.1045C35.0946 21.0433 34.2698 19.1181 34.2339 19.0375C34.1603 18.873 34.0248 18.7441 33.8568 18.679C33.6887 18.6139 33.5018 18.6177 33.3365 18.6898Z" fill="#2D3928"/>
<path d="M31.506 30.3679C31.8271 29.3342 32.1542 28.3536 32.4484 27.4845C32.5063 27.312 32.4934 27.1235 32.4126 26.9603C32.3317 26.7972 32.1895 26.6729 32.0171 26.6145C31.8447 26.5561 31.6561 26.5684 31.4928 26.6489C31.3295 26.7293 31.2047 26.8712 31.1459 27.0434C30.021 30.4279 26.6645 40.73 28.922 41.0141C29.0198 41.014 29.1164 40.9931 29.2054 40.9528C29.2944 40.9125 29.3739 40.8537 29.4385 40.7804C29.5031 40.707 29.5513 40.6208 29.5801 40.5274C29.6088 40.434 29.6173 40.3355 29.605 40.2385C29.5308 38.7169 29.6888 37.1928 30.0735 35.7188C30.1289 37.331 30.5409 38.9109 31.2798 40.345C31.327 40.4226 31.3891 40.4901 31.4625 40.5436C31.5359 40.5971 31.6192 40.6355 31.7075 40.6566C31.7959 40.6777 31.8875 40.6811 31.9772 40.6666C32.0668 40.6521 32.1528 40.62 32.2299 40.5721C32.3071 40.5242 32.374 40.4615 32.4268 40.3875C32.4796 40.3136 32.5172 40.23 32.5375 40.1414C32.5578 40.0529 32.5603 39.9612 32.545 39.8717C32.5296 39.7822 32.4966 39.6966 32.448 39.6198C30.8811 37.0945 31.4488 30.9432 31.506 30.3679Z" fill="#2D3928"/>
<path d="M16.9026 16.0451C17.0395 16.1627 17.2173 16.2217 17.3974 16.2094C17.5775 16.1971 17.7455 16.1145 17.8652 15.9793C17.9849 15.8442 18.0467 15.6674 18.0371 15.4872C18.0276 15.3069 17.9476 15.1376 17.8143 15.0158L14.8024 12.3495C18.2654 10.32 18.5491 5.83648 18.1517 3.55125C18.118 3.37404 18.0159 3.21717 17.8676 3.11448C17.7193 3.01179 17.5366 2.97149 17.3588 3.00228C17.1811 3.03307 17.0226 3.13248 16.9174 3.27907C16.8123 3.42566 16.769 3.6077 16.7968 3.78593C16.838 4.0263 17.7029 9.4563 13.6994 11.3731L9.6246 7.76584C9.8646 7.24161 9.90792 6.64853 9.74667 6.09499C9.58542 5.54145 9.23035 5.06443 8.74637 4.75111C8.26238 4.43779 7.68181 4.3091 7.11076 4.38856C6.53972 4.46803 6.01634 4.75033 5.63629 5.18389C5.25623 5.61744 5.04489 6.17328 5.04089 6.74982C5.03689 7.32635 5.2405 7.88507 5.6145 8.32386C5.9885 8.76264 6.50791 9.05219 7.0778 9.13957C7.64769 9.22695 8.22999 9.10633 8.71827 8.79976L12.3053 11.9753L7.54947 13.9836C7.49341 14.0071 1.95346 16.4278 2.84272 22.7627C2.9182 24.6064 3.10381 26.444 3.39854 28.2656C3.20581 29.2684 2.15069 35.2685 3.68296 39.0596C3.7537 39.2252 3.8866 39.3565 4.05309 39.4252C4.21957 39.4939 4.40637 39.4945 4.57333 39.427C4.7403 39.3595 4.87411 39.2291 4.94602 39.064C5.01793 38.8989 5.0222 38.7121 4.9579 38.5439C4.12671 36.4878 4.16442 33.5762 4.36064 31.3996C4.81627 32.4207 6.23212 31.7267 5.59778 30.7857C4.52002 28.9367 4.36901 24.8149 4.21023 22.6388C3.95632 21.1528 4.19802 19.6245 4.89812 18.2894C5.59821 16.9543 6.71785 15.8864 8.08457 15.2502L13.4461 12.9853L16.9026 16.0451ZM8.22771 7.42758C8.11686 7.55987 7.97441 7.66204 7.81357 7.72464C7.65273 7.78724 7.4787 7.80825 7.30758 7.78571C7.13647 7.76317 6.9738 7.69782 6.83466 7.59571C6.69551 7.4936 6.58438 7.35803 6.51156 7.20155C6.43873 7.04507 6.40657 6.87275 6.41804 6.70054C6.42952 6.52833 6.48426 6.3618 6.57721 6.21637C6.67015 6.07094 6.79829 5.95131 6.94975 5.86856C7.10121 5.78582 7.27111 5.74263 7.4437 5.74299C7.63787 5.74537 7.82741 5.80255 7.9905 5.90795C8.15359 6.01334 8.28359 6.16266 8.36552 6.33871C8.44745 6.51476 8.47799 6.71037 8.45361 6.90301C8.42923 7.09566 8.35092 7.2775 8.22771 7.42758Z" fill="#2D3928"/>
<path d="M19.9382 15.7782C20.0045 14.9088 18.953 13.048 18.0127 14.0275C17.9594 14.1004 17.9209 14.1831 17.8996 14.2708C17.8782 14.3585 17.8743 14.4496 17.8882 14.5388C17.902 14.628 17.9333 14.7137 17.9802 14.7908C18.0272 14.8679 18.0889 14.9351 18.1617 14.9883C18.2812 15.0755 18.3794 15.1885 18.4488 15.3191C18.5182 15.4496 18.5571 15.5942 18.5625 15.742C18.568 15.8897 18.5398 16.0368 18.4802 16.1721C18.4205 16.3074 18.331 16.4274 18.2182 16.523C18.1055 16.6187 17.9725 16.6875 17.8293 16.7243C17.6861 16.7611 17.5364 16.765 17.3915 16.7355C17.2466 16.7061 17.1103 16.6442 16.9928 16.5544C16.8753 16.4646 16.7797 16.3494 16.7132 16.2173C16.6296 16.0572 16.4863 15.9364 16.3143 15.881C16.1423 15.8257 15.9555 15.8402 15.7941 15.9216C15.6328 16.0029 15.5099 16.1445 15.4521 16.3156C15.3944 16.4868 15.4063 16.6739 15.4853 16.8364C15.7273 17.3035 16.1186 17.6764 16.5969 17.8956C17.0752 18.1148 17.6131 18.1678 18.125 18.0462C18.6368 17.9245 19.0934 17.6352 19.4219 17.2243C19.7505 16.8133 19.9322 16.3043 19.9382 15.7782Z" fill="#2D3928"/>
<path d="M31.3603 18.5886C31.3547 17.9685 31.1044 17.3757 30.6639 16.9392C30.2234 16.5027 29.6284 16.2578 29.0083 16.2578C28.3881 16.2578 27.7931 16.5027 27.3526 16.9392C26.9121 17.3758 26.6619 17.9686 26.6562 18.5887C26.6619 19.2088 26.9121 19.8016 27.3526 20.2381C27.7931 20.6746 28.3882 20.9195 29.0083 20.9195C29.6284 20.9195 30.2235 20.6746 30.664 20.2381C31.1044 19.8016 31.3547 19.2087 31.3603 18.5886ZM28.0312 18.5886C28.035 18.332 28.1396 18.0871 28.3224 17.9069C28.5052 17.7267 28.7516 17.6257 29.0083 17.6257C29.265 17.6257 29.5114 17.7267 29.6942 17.9069C29.877 18.0871 29.9816 18.332 29.9853 18.5887C29.9813 18.8451 29.8766 19.0897 29.6938 19.2697C29.511 19.4496 29.2648 19.5505 29.0083 19.5505C28.7518 19.5505 28.5056 19.4496 28.3228 19.2696C28.14 19.0897 28.0353 18.8451 28.0312 18.5886Z" fill="#2D3928"/>
<path d="M20.6277 23.25C20.0076 23.2556 19.4148 23.5059 18.9783 23.9464C18.5418 24.3869 18.2969 24.9819 18.2969 25.6021C18.2969 26.2222 18.5418 26.8172 18.9783 27.2577C19.4148 27.6982 20.0076 27.9485 20.6278 27.9541C21.2479 27.9485 21.8407 27.6982 22.2772 27.2577C22.7137 26.8172 22.9586 26.2221 22.9586 25.602C22.9586 24.9819 22.7137 24.3868 22.2771 23.9464C21.8406 23.5059 21.2478 23.2556 20.6277 23.25ZM20.6277 26.5791C20.371 26.5753 20.1261 26.4707 19.946 26.2879C19.7658 26.1051 19.6648 25.8587 19.6648 25.602C19.6648 25.3453 19.7658 25.0989 19.946 24.9161C20.1262 24.7333 20.3711 24.6287 20.6277 24.625C20.8844 24.6287 21.1293 24.7333 21.3095 24.9161C21.4897 25.099 21.5907 25.3454 21.5907 25.6021C21.5907 25.8587 21.4896 26.1051 21.3095 26.288C21.1293 26.4708 20.8844 26.5753 20.6277 26.5791Z" fill="#2D3928"/>
<path d="M20.6273 33.375C20.0073 33.3807 19.4146 33.631 18.9781 34.0715C18.5417 34.512 18.2969 35.107 18.2969 35.7271C18.2969 36.3471 18.5417 36.9421 18.9782 37.3826C19.4146 37.8231 20.0073 38.0734 20.6274 38.0791C21.2474 38.0734 21.8401 37.823 22.2766 37.3826C22.713 36.9421 22.9578 36.3471 22.9578 35.727C22.9578 35.1069 22.713 34.512 22.2765 34.0715C21.8401 33.631 21.2474 33.3807 20.6273 33.375ZM20.6273 36.7041C20.3707 36.7003 20.1258 36.5958 19.9456 36.4129C19.7654 36.2301 19.6644 35.9837 19.6644 35.727C19.6644 35.4703 19.7654 35.2239 19.9456 35.0411C20.1258 34.8583 20.3707 34.7537 20.6274 34.75C20.884 34.7537 21.1289 34.8583 21.3091 35.0412C21.4893 35.224 21.5903 35.4704 21.5903 35.7271C21.5903 35.9838 21.4893 36.2301 21.3091 36.413C21.1289 36.5958 20.884 36.7004 20.6273 36.7041Z" fill="#2D3928"/>
</svg>
