<svg width="36" height="36" viewBox="0 0 36 36" fill="none" xmlns="http://www.w3.org/2000/svg">
<path d="M18.4272 27.7461C19.9621 27.686 21.46 27.2578 22.7947 26.4977C24.1295 25.7376 25.262 24.6678 26.0968 23.3785C26.7581 22.3224 27.1713 21.1302 27.3053 19.8914C27.3226 19.7432 27.2804 19.5943 27.1879 19.4772C27.0954 19.3602 26.9602 19.2847 26.812 19.2674C26.6638 19.2501 26.5149 19.2923 26.3978 19.3848C26.2808 19.4773 26.2053 19.6125 26.188 19.7607C26.0733 20.8319 25.717 21.8632 25.1459 22.7767C24.4023 23.9017 23.4043 24.836 22.2328 25.5039C21.0612 26.1719 19.7489 26.5547 18.402 26.6216C12.8045 26.7999 9.38304 22.8354 9.32609 18.4199L9.32617 15.0352C13.1346 14.9014 14.8103 13.4081 15.5425 12.015C16.0078 12.9261 16.7156 13.6911 17.5878 14.2257C18.4601 14.7603 19.463 15.0437 20.4861 15.0448H26.2572V17.576C26.2594 17.7238 26.3196 17.8647 26.4249 17.9684C26.5301 18.0721 26.6719 18.1303 26.8197 18.1302C26.9674 18.1302 27.1093 18.0721 27.2145 17.9684C27.3198 17.8647 27.38 17.7238 27.3822 17.576V14.4823C27.3822 14.4084 27.3677 14.3353 27.3394 14.267C27.3111 14.1988 27.2697 14.1367 27.2175 14.0845C27.1652 14.0323 27.1032 13.9908 27.035 13.9626C26.9667 13.9343 26.8936 13.9198 26.8197 13.9198H20.4861C19.4457 13.9243 18.4378 13.5581 17.6429 12.8869C16.8481 12.2157 16.3182 11.2833 16.1484 10.257C16.0332 9.61161 16.2689 8.80861 15.4801 8.79688C14.9105 8.84338 14.9251 9.45175 14.9732 9.89112C14.9289 11.1205 14.2258 13.9198 8.76367 13.9198C8.61449 13.9198 8.47141 13.9791 8.36592 14.0845C8.26044 14.19 8.20117 14.3331 8.20117 14.4823V18.4198C8.26703 23.5139 12.2466 27.9602 18.4272 27.7461Z" fill="#132573"/>
<path d="M31.7461 12.4405L29.7367 11.885C26.9947 -0.947016 8.7573 -0.783712 6.0867 11.9335L4.25168 12.4405C3.7823 12.5714 3.36856 12.8521 3.07349 13.2399C2.77842 13.6277 2.61818 14.1013 2.61719 14.5886V18.5481C2.61823 19.0353 2.77849 19.5089 3.07356 19.8966C3.36863 20.2844 3.78234 20.565 4.25168 20.6959L5.84772 21.1373V21.8629C5.8497 22.0108 5.90984 22.152 6.01511 22.2558C6.12038 22.3597 6.26232 22.418 6.41022 22.418C6.55811 22.418 6.70005 22.3597 6.80532 22.2558C6.91059 22.152 6.97073 22.0108 6.97272 21.8629V14.3189C6.94903 4.64707 18.8404 -0.287502 25.6503 6.57781C26.6706 7.5918 27.4794 8.79812 28.0302 10.1269C28.5809 11.4557 28.8626 12.8805 28.8588 14.3189V19.9541C28.8545 22.4278 27.9937 24.8237 26.4226 26.7345C24.8515 28.6453 22.6672 29.9531 20.2409 30.4355C19.9922 29.8874 19.5854 29.4261 19.0727 29.1107C18.5599 28.7954 17.9647 28.6404 17.3633 28.6657C15.6948 28.6657 14.3371 29.8063 14.3371 31.2082C14.361 31.7127 14.5341 32.1987 14.8344 32.6048C15.1348 33.0108 15.5489 33.3185 16.0244 33.489C16.1621 33.5444 16.3161 33.5432 16.4529 33.4855C16.5898 33.4279 16.6982 33.3184 16.7547 33.1811C16.8112 33.0438 16.8111 32.8898 16.7544 32.7525C16.6978 32.6153 16.5892 32.506 16.4523 32.4486C14.6716 31.6798 15.5133 29.7714 17.3633 29.7907C19.2001 29.7595 20.0769 31.6866 18.2754 32.448C18.1373 32.5044 18.0273 32.6134 17.9695 32.751C17.9117 32.8885 17.911 33.0434 17.9674 33.1815C18.0238 33.3196 18.1328 33.4297 18.2704 33.4874C18.4079 33.5452 18.5628 33.5459 18.7009 33.4895C19.122 33.3386 19.4968 33.0811 19.7887 32.7421C20.0805 32.4032 20.2795 31.9943 20.3663 31.5555C22.8564 31.0803 25.128 29.8178 26.8465 27.9541C28.5649 26.0903 29.6392 23.7239 29.911 21.2034L31.7461 20.6959C32.2155 20.5651 32.6292 20.2844 32.9243 19.8967C33.2195 19.5089 33.3798 19.0354 33.3808 18.5481V14.5886C33.3798 14.1013 33.2195 13.6277 32.9244 13.2399C32.6292 12.8521 32.2155 12.5714 31.7461 12.4405ZM4.5516 19.6116C4.3192 19.5468 4.11433 19.4078 3.96821 19.2158C3.82208 19.0238 3.74271 18.7894 3.74216 18.5481V14.5886C3.74266 14.3473 3.82201 14.1128 3.96814 13.9207C4.11427 13.7287 4.31916 13.5897 4.5516 13.5249L5.9069 13.1502C5.79372 13.8798 5.86744 19.1225 5.84769 19.97L4.5516 19.6116ZM32.2559 18.5481C32.2553 18.7894 32.1759 19.0239 32.0297 19.2159C31.8836 19.4079 31.6786 19.5468 31.4462 19.6116L29.981 20.0168C29.9674 19.046 30.0387 13.9696 29.9231 13.1038L31.4461 13.5249C31.6786 13.5896 31.8836 13.7286 32.0298 13.9207C32.176 14.1127 32.2553 14.3473 32.2558 14.5886L32.2559 18.5481Z" fill="#132573"/>
</svg>
