<svg width="36" height="36" viewBox="0 0 36 36" fill="none" xmlns="http://www.w3.org/2000/svg">
<path d="M22.6548 6.9615H20.2933V4.60006C20.2933 4.32823 20.073 4.10787 19.8011 4.10787H16.1982C15.9264 4.10787 15.706 4.32823 15.706 4.60006V6.96143H13.3446C13.0728 6.96143 12.8524 7.18179 12.8524 7.45362V11.0566C12.8524 11.3285 13.0728 11.5488 13.3446 11.5488H15.706V13.9102C15.706 14.182 15.9264 14.4024 16.1982 14.4024H19.8011C20.073 14.4024 20.2933 14.182 20.2933 13.9102V11.5488H22.6548C22.9266 11.5488 23.147 11.3285 23.147 11.0566V7.45362C23.147 7.18186 22.9266 6.9615 22.6548 6.9615ZM22.1626 10.5645H19.8011C19.5293 10.5645 19.309 10.7848 19.309 11.0566V13.418H16.6904V11.0566C16.6904 10.7848 16.47 10.5645 16.1982 10.5645H13.8368V7.94581H16.1982C16.47 7.94581 16.6904 7.72545 16.6904 7.45362V5.09224H19.309V7.45362C19.309 7.72545 19.5293 7.94581 19.8011 7.94581H22.1626V10.5645ZM31.6387 8.32767C31.1289 7.81791 30.4488 7.53715 29.7239 7.53715C28.9989 7.53715 28.3188 7.81791 27.809 8.32767L26.6177 9.51905C26.6203 9.43109 26.6221 9.34313 26.6221 9.25517C26.622 4.50077 22.7541 0.632812 17.9997 0.632812C13.2453 0.632812 9.37732 4.50077 9.37732 9.25517C9.37732 14.0096 13.2453 17.8775 17.9997 17.8775C18.0876 17.8775 18.1757 17.8757 18.2635 17.873L13.5825 22.5541C13.3903 22.7463 13.3903 23.0579 13.5825 23.2501L13.8816 23.5492L3.71449 33.7164C3.52225 33.9086 3.52225 34.2202 3.71449 34.4123C4.33682 35.0347 5.47082 35.3724 6.68611 35.3723C8.07119 35.3722 9.56168 34.9334 10.5181 33.9768L13.927 30.5681C14.1046 30.3906 14.1108 30.2239 14.1515 29.1395C14.1625 28.8455 14.1747 28.5215 14.1901 28.3115L16.4171 26.0847L16.7162 26.3838C16.8084 26.476 16.9337 26.5279 17.0642 26.5279C17.1947 26.5279 17.3199 26.4761 17.4121 26.3838L31.6385 12.1574C32.1483 11.6476 32.429 10.9676 32.429 10.2425C32.429 9.51736 32.1484 8.83737 31.6387 8.32767ZM17.9997 16.8931C13.7881 16.8931 10.3617 13.4668 10.3617 9.25517C10.3617 5.04352 13.7881 1.61719 17.9997 1.61719C22.2112 1.61719 25.6376 5.04352 25.6376 9.25517C25.6376 9.71416 25.5964 10.1728 25.5156 10.6211L19.3656 16.771C18.9175 16.8518 18.4587 16.8931 17.9997 16.8931ZM13.3698 27.7399C13.2941 27.8156 13.2451 27.914 13.2304 28.02C13.2004 28.2351 13.1847 28.6565 13.1679 29.1026C13.1573 29.3834 13.1424 29.782 13.1252 29.9777L9.82211 33.2809C8.54636 34.5566 6.01673 34.6149 4.81973 34.0031L14.5776 24.2452L15.7211 25.3886L13.3698 27.7399ZM17.0642 25.3397L14.6266 22.9021L15.7861 21.7426L18.2237 24.1802L17.0642 25.3397ZM30.9426 11.4614L18.9198 23.4842L16.4822 21.0466L28.5049 9.0237C28.8288 8.69991 29.2617 8.52152 29.7238 8.52152C30.1859 8.52152 30.6188 8.69991 30.9426 9.0237C31.2664 9.34749 31.4448 9.78033 31.4448 10.2425C31.4448 10.7047 31.2664 11.1375 30.9426 11.4614ZM29.9917 9.97453C30.184 10.1668 30.184 10.4784 29.9917 10.6706L25.051 15.6113C24.955 15.7074 24.829 15.7554 24.7031 15.7554C24.5771 15.7554 24.4511 15.7073 24.3551 15.6113C24.1628 15.4191 24.1628 15.1074 24.3551 14.9153L29.2958 9.97453C29.4879 9.7823 29.7996 9.7823 29.9917 9.97453Z" fill="#132573"/>
</svg>
