<svg width="30" height="30" viewBox="0 0 30 30" fill="none" xmlns="http://www.w3.org/2000/svg">
<g clip-path="url(#clip0_47_4529)">
<path d="M6.77438 9.5996V9.4375H5.80664V9.5996C5.80664 9.87685 5.8139 10.1541 5.82793 10.4299L6.79471 10.3806C6.78164 10.1207 6.77438 9.86089 6.77438 9.5996Z" fill="#00001B"/>
<path d="M6.87161 11.3125L5.91016 11.4223C6.18693 13.8596 7.03661 16.2417 8.36677 18.3102L9.18064 17.7867C7.93032 15.842 7.13241 13.6031 6.87161 11.3125Z" fill="#00001B"/>
<path d="M17.8359 4.70312C16.9979 5.26925 16.0171 5.56829 15 5.56829C13.9829 5.56829 13.0026 5.26925 12.1645 4.70361L11.623 5.50587C12.6218 6.1799 13.7893 6.53603 15 6.53603C16.2106 6.53603 17.3782 6.1799 18.3774 5.50538L17.8359 4.70312Z" fill="#00001B"/>
<path d="M4.35484 18.6328H3.3871C3.3871 20.5001 1.86726 22.0199 0 22.0199V22.9877C1.86726 22.9877 3.3871 24.5075 3.3871 26.3747H4.35484C4.35484 24.5075 5.87468 22.9877 7.74194 22.9877V22.0199C5.87468 22.0199 4.35484 20.5001 4.35484 18.6328ZM3.87097 24.3885C3.45484 23.5804 2.79435 22.9199 1.98629 22.5038C2.79435 22.0877 3.45484 21.4272 3.87097 20.6191C4.2871 21.4272 4.94758 22.0877 5.75565 22.5038C4.94758 22.9199 4.2871 23.5804 3.87097 24.3885Z" fill="#00001B"/>
<path d="M26.613 6.05066H25.6864C24.77 3.77114 22.5267 2.17969 19.985 2.17969C18.785 2.17969 17.6566 2.50436 16.7217 3.11791C15.6867 3.7992 14.314 3.7992 13.2785 3.11791C12.3442 2.50436 11.2158 2.17969 10.0153 2.17969C6.62722 2.17969 3.87109 4.93582 3.87109 8.32388V9.59985C3.87109 13.0692 4.86303 16.4447 6.739 19.3629C7.74835 20.9331 8.48964 22.6474 8.94255 24.4581L9.469 26.5648C9.65384 27.3071 10.3172 27.8248 11.0817 27.8248C11.9116 27.8248 12.6035 27.2292 12.7259 26.4086L13.8113 19.1708C13.9008 18.5781 14.4006 18.1474 15.0001 18.1474C15.5996 18.1474 16.0995 18.5781 16.1885 19.1708L17.2738 26.4086C17.3967 27.2292 18.0887 27.8248 18.9185 27.8248C19.683 27.8248 20.3464 27.3071 20.5313 26.5648L21.0582 24.4581C21.5111 22.6469 22.2529 20.9326 23.2622 19.3629C24.365 17.6471 25.1716 15.731 25.6434 13.7423C25.6429 13.7592 25.6453 13.7757 25.6453 13.7926H26.613C26.613 11.9253 28.1329 10.4055 30.0001 10.4055V9.43775C28.1329 9.43775 26.613 7.91791 26.613 6.05066ZM22.4479 18.8394C21.3809 20.499 20.598 22.3107 20.1195 24.2239L19.5921 26.3307C19.5151 26.6408 19.2379 26.8571 18.9185 26.8571C18.5716 26.8571 18.2827 26.6079 18.2314 26.2648L17.1461 19.0271C16.9854 17.9563 16.0825 17.1797 15.0001 17.1797C13.9177 17.1797 13.0148 17.9563 12.8542 19.0271L11.7688 26.2648C11.718 26.6079 11.4287 26.8571 11.0817 26.8571C10.7624 26.8571 10.4851 26.6408 10.4072 26.3307L9.88029 24.2239C9.40222 22.3102 8.61884 20.4986 7.5519 18.8394C5.77706 16.0779 4.83884 12.8829 4.83884 9.59985V8.32388C4.83884 5.46953 7.16093 3.14743 10.0153 3.14743C11.0261 3.14743 11.9706 3.41695 12.7467 3.92695C13.4246 4.37259 14.1834 4.59904 15.0001 4.59904C15.8169 4.59904 16.5756 4.37259 17.253 3.92695C18.0296 3.41695 18.9742 3.14743 19.985 3.14743C22.5379 3.14743 24.7404 5.04953 25.1034 7.53324L25.1237 7.84824C24.5237 8.80098 23.465 9.43775 22.2582 9.43775V10.4055C23.3943 10.4055 24.3993 10.9697 25.0138 11.8305C24.6872 14.3118 23.8008 16.7345 22.4479 18.8394ZM26.1292 11.8063C25.713 10.9982 25.0525 10.3378 24.2445 9.92162C25.0525 9.50549 25.713 8.84501 26.1292 8.03695C26.5453 8.84501 27.2058 9.50549 28.0138 9.92162C27.2058 10.3378 26.5453 10.9982 26.1292 11.8063Z" fill="#00001B"/>
</g>
<defs>
<clipPath id="clip0_47_4529">
<rect width="30" height="30" fill="white"/>
</clipPath>
</defs>
</svg>
