<svg width="73" height="73" viewBox="0 0 73 73" fill="none" xmlns="http://www.w3.org/2000/svg">
<path fill-rule="evenodd" clip-rule="evenodd" d="M42.9139 11.0589C39.1886 12.6451 33.8121 12.6451 30.0867 11.0588C27.0599 9.77004 23.6744 9.65051 20.5504 11.001C13.958 13.8509 11.0011 22.1793 13.8704 29.6922L13.8703 29.6974L14.7657 31.6324C17.7925 38.1734 20.074 45.0302 21.5677 52.0752L22.9886 58.7768C23.4803 60.7032 25.2179 62.0516 27.2091 62.0516C29.3475 62.0516 31.1697 60.5014 31.5091 58.3932L33.5122 45.9546C33.7482 44.4897 35.0144 43.4125 36.5004 43.4125C37.9865 43.4125 39.2527 44.4897 39.4886 45.9546L41.4917 58.3932C41.8311 60.5014 43.6533 62.0516 45.7917 62.0516C47.7829 62.0516 49.5205 60.7032 50.0122 58.7768L51.4331 52.0752C52.9268 45.0302 55.2083 38.1734 58.2351 31.6324L59.1305 29.6974L59.1304 29.6922C61.9997 22.1793 59.0428 13.8509 52.4504 11.001C49.3264 9.65051 45.9408 9.77004 42.9139 11.0589Z" fill="#09BBAF"/>
<path d="M33.5016 39.6278C34.4495 39.1614 35.4769 38.9434 36.4992 38.9737C37.5215 38.9434 38.549 39.1614 39.4969 39.6278C41.8239 40.7727 43.4073 43.1083 43.6696 45.7831L44.5593 54.8523C44.596 55.2258 44.8629 55.5389 45.2271 55.6326C45.792 55.7777 46.334 55.3473 46.334 54.7651V50.5939C46.334 45.6352 47.2448 40.7226 49.0168 36.1229L52.4077 27.321C54.5329 21.8049 49.763 16.1027 44.2509 17.5696L40.1082 18.6721C38.9236 18.9874 37.7121 19.1532 36.4992 19.1695C35.2863 19.1532 34.0748 18.9874 32.8902 18.6721L28.7475 17.5696C23.2354 16.1027 18.4656 21.8049 20.5907 27.321L23.9816 36.1229C25.7536 40.7226 26.6644 45.6352 26.6644 50.5939V54.7651C26.6644 55.3473 27.2064 55.7777 27.7713 55.6326C28.1355 55.5389 28.4024 55.2258 28.4391 54.8523L29.3288 45.7831C29.5911 43.1083 31.1745 40.7727 33.5016 39.6278Z" fill="white"/>
</svg>
