<svg width="28" height="28" viewBox="0 0 28 28" fill="none" xmlns="http://www.w3.org/2000/svg">
<g clip-path="url(#clip0_47_5976)">
<path d="M5.70733 18.6125C8.46904 21.9138 11.7935 24.5131 15.588 26.3523C17.0327 27.0369 18.9647 27.8491 21.1172 27.9884C21.2506 27.9942 21.3783 28 21.5117 28C22.9564 28 24.1168 27.501 25.0625 26.4741C25.0683 26.4683 25.0799 26.4567 25.0857 26.4451C25.4222 26.039 25.8051 25.6734 26.2055 25.2847C26.4782 25.0236 26.7567 24.7509 27.0235 24.4724C28.2593 23.1844 28.2593 21.5483 27.0119 20.3009L23.525 16.8139C22.9332 16.1989 22.2254 15.874 21.4827 15.874C20.7401 15.874 20.0264 16.1989 19.4172 16.8081L17.3402 18.8852C17.1487 18.775 16.9514 18.6763 16.7658 18.5835C16.5337 18.4675 16.319 18.3572 16.1276 18.2354C14.2361 17.0344 12.5188 15.4679 10.8768 13.4546C10.0472 12.4045 9.49018 11.5226 9.10145 10.6233C9.64683 10.1301 10.1574 9.61376 10.6506 9.10899C10.8246 8.92913 11.0045 8.74927 11.1843 8.56942C11.8109 7.94281 12.1475 7.21757 12.1475 6.48073C12.1475 5.74389 11.8167 5.01865 11.1843 4.39204L9.45537 2.66308C9.2523 2.46001 9.06084 2.26274 8.86357 2.05968C8.48065 1.66515 8.08031 1.25901 7.68578 0.893494C7.08819 0.307501 6.38616 0 5.64351 0C4.90667 0 4.19884 0.307501 3.57803 0.899296L1.40812 3.06921C0.619062 3.85827 0.172315 4.81558 0.0794843 5.92375C-0.0307519 7.3104 0.224532 8.78409 0.885949 10.5653C1.90128 13.3212 3.43299 15.8798 5.70733 18.6125ZM1.49515 6.04559C1.56477 5.27393 1.86067 4.62992 2.41765 4.07294L4.57596 1.91463C4.91247 1.58972 5.28379 1.42147 5.64351 1.42147C5.99743 1.42147 6.35715 1.58972 6.68786 1.92623C7.07658 2.28595 7.4421 2.66307 7.83663 3.06341C8.0339 3.26647 8.23696 3.46954 8.44003 3.67841L10.169 5.40738C10.5287 5.76709 10.7144 6.13262 10.7144 6.49233C10.7144 6.85205 10.5287 7.21757 10.169 7.57729C9.98914 7.75715 9.80928 7.94281 9.62942 8.12267C9.08984 8.66805 8.58508 9.18442 8.0281 9.67758C8.01649 9.68918 8.01069 9.69499 7.99909 9.70659C7.51753 10.1881 7.59295 10.6465 7.70899 10.9946C7.71479 11.012 7.7206 11.0236 7.7264 11.041C8.17314 12.1144 8.79395 13.1355 9.76287 14.3539C11.5034 16.5006 13.3368 18.1658 15.3559 19.448C15.6054 19.6104 15.8723 19.7381 16.1218 19.8657C16.3538 19.9818 16.5685 20.092 16.76 20.2138C16.7832 20.2254 16.8006 20.237 16.8238 20.2487C17.0152 20.3473 17.2009 20.3937 17.3866 20.3937C17.8507 20.3937 18.1524 20.0978 18.2511 19.9992L20.421 17.8293C20.7575 17.4927 21.123 17.3129 21.4827 17.3129C21.9237 17.3129 22.2834 17.5856 22.5097 17.8293L26.0082 21.322C26.7044 22.0182 26.6986 22.7725 25.9908 23.5093C25.7471 23.7704 25.4918 24.0199 25.2191 24.281C24.813 24.6755 24.3895 25.0816 24.0065 25.54C23.3393 26.2594 22.5445 26.5959 21.5175 26.5959C21.4189 26.5959 21.3145 26.5901 21.2158 26.5843C19.3128 26.4625 17.5432 25.7199 16.2146 25.0874C12.6058 23.3411 9.43796 20.8637 6.8097 17.719C4.64558 15.114 3.18931 12.6888 2.22619 10.0895C1.62859 8.49399 1.40232 7.21177 1.49515 6.04559Z" fill="#00001B"/>
</g>
<defs>
<clipPath id="clip0_47_5976">
<rect width="28" height="28" fill="white"/>
</clipPath>
</defs>
</svg>
