<svg width="204" height="133" viewBox="0 0 204 133" fill="none" xmlns="http://www.w3.org/2000/svg">
<path d="M1.26011 130.966C0.465818 130.731 0.0127063 129.896 0.248055 129.102C0.483411 128.308 1.3181 127.854 2.11239 128.09L1.26011 130.966ZM37.4021 116.285L38.7544 116.934L37.4021 116.285ZM40.4505 81.0006L41.8941 80.5932L40.4505 81.0006ZM27.9059 72.294L27.0103 71.0907L27.9059 72.294ZM35.2299 104.192L36.1268 102.99L35.2299 104.192ZM86.0526 107.768L86.6944 109.124L86.0526 107.768ZM128.412 51.3514L126.918 51.4839L128.412 51.3514ZM86.9766 19.2793L86.3532 17.915L86.9766 19.2793ZM85.4227 54.3096L84.2704 55.27L85.4227 54.3096ZM157.279 59.8784L156.296 58.7458L157.279 59.8784ZM196.805 0.823416C197.584 0.542072 198.444 0.945657 198.725 1.72485L203.31 14.4225C203.591 15.2017 203.187 16.0614 202.408 16.3427C201.629 16.6241 200.769 16.2205 200.488 15.4413L196.413 4.15453L185.126 8.22986C184.347 8.5112 183.487 8.10762 183.206 7.32843C182.924 6.54924 183.328 5.68951 184.107 5.40817L196.805 0.823416ZM2.11239 128.09C14.6422 131.802 29.9557 128.332 36.0498 115.636L38.7544 116.934C31.797 131.428 14.6354 134.929 1.26011 130.966L2.11239 128.09ZM36.0498 115.636C40.8821 105.568 41.8566 91.5044 39.0069 81.4081L41.8941 80.5932C44.9364 91.372 43.912 106.189 38.7544 116.934L36.0498 115.636ZM39.0069 81.4081C38.3088 78.9347 36.8373 75.8687 34.9247 74.0143C33.9823 73.1004 33.0264 72.5704 32.0892 72.4397C31.1924 72.3146 30.107 72.5256 28.8015 73.4973L27.0103 71.0907C28.8317 69.735 30.693 69.2159 32.5036 69.4684C34.2738 69.7153 35.786 70.6707 37.0131 71.8605C39.4398 74.2135 41.1136 77.8282 41.8941 80.5932L39.0069 81.4081ZM28.8015 73.4973C25.2496 76.1409 24.4119 81.4049 26.0027 87.436C27.5719 93.385 31.3823 99.4505 36.1268 102.99L34.333 105.394C28.9743 101.397 24.8203 94.7157 23.1019 88.2011C21.4052 81.7684 21.9571 74.8518 27.0103 71.0907L28.8015 73.4973ZM36.1268 102.99C50.6142 113.797 69.0494 114.158 85.4107 106.412L86.6944 109.124C69.5207 117.254 49.8681 116.984 34.333 105.394L36.1268 102.99ZM85.4107 106.412C95.6502 101.564 106.613 93.8361 114.72 84.2778C122.831 74.7168 127.98 63.4584 126.918 51.4839L129.906 51.219C131.063 64.2612 125.432 76.2873 117.008 86.2184C108.582 96.1522 97.2555 104.124 86.6944 109.124L85.4107 106.412ZM126.918 51.4839C126.417 45.8336 125.024 41.3008 122.693 37.381C120.358 33.4545 117.033 30.0605 112.553 26.7566L114.333 24.3422C119.032 27.8074 122.675 31.4817 125.271 35.8476C127.871 40.2203 129.373 45.2041 129.906 51.219L126.918 51.4839ZM112.553 26.7566C105.244 21.3665 96.1454 16.7386 87.6001 20.6436L86.3532 17.915C96.5924 13.236 107.028 18.9549 114.333 24.3422L112.553 26.7566ZM87.6001 20.6436C83.9949 22.291 81.6961 24.5155 80.3351 27.0159C78.9671 29.5289 78.4875 32.4305 78.712 35.5103C79.1644 41.7134 82.4643 48.4174 86.5749 53.3492L84.2704 55.27C79.882 50.0048 76.2302 42.7254 75.72 35.7285C75.4633 32.2082 75.9996 28.7056 77.7001 25.5816C79.4076 22.4449 82.2297 19.7992 86.3532 17.915L87.6001 20.6436ZM86.5749 53.3492C103.251 73.3567 136.62 75.8286 156.296 58.7458L158.262 61.0111C137.337 79.1794 102.038 76.5874 84.2704 55.27L86.5749 53.3492ZM156.296 58.7458C173.864 43.4922 186.081 22.6342 195.956 1.59686L198.672 2.87167C188.739 24.0322 176.307 45.3444 158.262 61.0111L156.296 58.7458Z" fill="#00001B"/>
</svg>
