<svg width="120" height="120" viewBox="0 0 120 120" fill="none" xmlns="http://www.w3.org/2000/svg">
<g opacity="0.3">
<path d="M46.6494 67.8909C46.1244 67.8909 45.5994 67.6659 45.2244 67.2534L25.0119 43.9284C23.6244 42.3346 23.7182 39.8971 25.2182 38.3971L28.5557 35.0784C30.0557 33.5971 32.4744 33.5034 34.0682 34.8909L58.1244 55.7221C58.9119 56.3971 58.9869 57.5784 58.3119 58.3659C57.6369 59.1534 56.4557 59.2284 55.6682 58.5534L31.6119 37.7221C31.4994 37.6096 31.3119 37.6284 31.1994 37.7409L27.8619 41.0596C27.7494 41.1721 27.7494 41.3596 27.8432 41.4721L48.0557 64.7971C48.7307 65.5846 48.6557 66.7659 47.8682 67.4409C47.5307 67.7409 47.0807 67.8909 46.6494 67.8909Z" fill="#09BBAF"/>
<path d="M93.9375 112.442C91.7062 112.442 89.475 111.598 87.7875 109.911L54.9 77.0234C54.1688 76.2922 54.1688 75.1109 54.9 74.3797C55.6312 73.6484 56.8125 73.6484 57.5437 74.3797L90.4125 107.267C92.3438 109.18 95.475 109.198 97.4062 107.286C98.325 106.367 98.85 105.111 98.85 103.798C98.85 102.486 98.3438 101.23 97.4062 100.311L64.0125 66.8797C63.2812 66.1484 63.2812 64.9672 64.0125 64.2359C64.7437 63.5047 65.925 63.5047 66.6562 64.2359L100.069 97.6484C103.462 101.042 103.462 106.555 100.069 109.93C98.3812 111.617 96.1687 112.442 93.9375 112.442Z" fill="#09BBAF"/>
<path d="M28.1994 39.9351C27.7119 39.9351 27.2431 39.7476 26.8681 39.3913L16.7994 29.3226C13.4431 25.9663 12.0931 21.0351 13.2556 16.4413C13.2931 16.3101 13.3494 16.1788 13.4056 16.0663L17.2306 8.56633C17.6994 7.64758 18.8244 7.27258 19.7619 7.74133C20.6806 8.21008 21.0556 9.33508 20.5869 10.2726L16.8556 17.5851C16.1056 20.8476 17.0994 24.3163 19.4619 26.6976L29.5306 36.7663C30.2619 37.4976 30.2619 38.6788 29.5306 39.4101C29.1744 39.7663 28.6869 39.9351 28.1994 39.9351Z" fill="#09BBAF"/>
<path d="M18.3944 112.441C16.7819 112.441 15.1882 111.991 13.8007 111.091C11.5882 109.647 10.1444 107.322 9.8819 104.716C9.60065 102.091 10.5194 99.5221 12.3757 97.6471L45.4882 64.5346L73.2194 40.4221C74.8131 39.0346 77.2506 39.1284 78.7506 40.6096L82.0694 43.9284C83.5694 45.4284 83.6444 47.8471 82.2757 49.4596L57.8444 76.7221C57.8257 76.7409 57.8069 76.7784 57.7694 76.7971L24.8069 109.76C23.0444 111.522 20.7194 112.441 18.3944 112.441ZM75.8819 43.1784C75.8069 43.1784 75.7319 43.1971 75.6757 43.2534L48.0382 67.2721L15.0194 100.31C13.9694 101.36 13.4444 102.841 13.5944 104.322C13.7444 105.822 14.5507 107.116 15.8256 107.96C17.7569 109.216 20.4007 108.86 22.1444 107.116L55.0694 74.1909L79.4444 46.9846C79.5194 46.8909 79.5194 46.7034 79.4069 46.5909L76.0882 43.2721C76.0319 43.2159 75.9569 43.1784 75.8819 43.1784Z" fill="#09BBAF"/>
<path d="M97.2758 37.9109C93.9758 37.9109 90.6758 36.6547 88.1633 34.1422C85.7258 31.7047 84.3945 28.4609 84.3945 25.0297C84.3945 21.5984 85.7445 18.3359 88.1633 15.9172C93.1883 10.8922 101.363 10.8922 106.407 15.9172C108.845 18.3547 110.176 21.5984 110.176 25.0297C110.176 28.4609 108.826 31.7234 106.407 34.1422C103.876 36.6547 100.576 37.9109 97.2758 37.9109ZM97.2758 15.8797C94.932 15.8797 92.5883 16.7609 90.807 18.5609C87.2445 22.1234 87.2445 27.9359 90.807 31.4984C94.3695 35.0609 100.182 35.0609 103.745 31.4984C107.307 27.9359 107.307 22.1234 103.745 18.5609C101.963 16.7797 99.6195 15.8797 97.2758 15.8797Z" fill="#09BBAF"/>
<path d="M79.0875 45.491C78.6187 45.491 78.15 45.3222 77.7937 44.966C77.0437 44.2535 77.025 43.0535 77.7375 42.3222L88.125 31.5222C88.8375 30.7722 90.0375 30.7535 90.7687 31.466C91.5187 32.1785 91.5375 33.3785 90.825 34.1097L80.4187 44.9097C80.0625 45.3035 79.575 45.491 79.0875 45.491Z" fill="#09BBAF"/>
<path d="M39.4508 94.3524C38.9633 94.3524 38.4571 94.1649 38.0821 93.7711L28.7071 83.8899C27.9946 83.1399 28.0321 81.9586 28.7821 81.2461C29.5321 80.5336 30.7133 80.5711 31.4258 81.3211L40.8008 91.2024C41.5133 91.9524 41.4758 93.1336 40.7258 93.8461C40.3883 94.1836 39.9196 94.3524 39.4508 94.3524Z" fill="#09BBAF"/>
<path d="M73.5184 94.872C73.0497 94.872 72.5809 94.7032 72.2059 94.347C71.4559 93.6157 71.456 92.4345 72.1685 91.6845L81.6747 81.9345C82.406 81.1845 83.5872 81.1845 84.3185 81.897C85.0685 82.6282 85.0685 83.8095 84.356 84.5595L74.8497 94.3095C74.4934 94.6845 74.0059 94.872 73.5184 94.872Z" fill="#09BBAF"/>
</g>
</svg>
