<svg width="666" height="382" viewBox="0 0 666 382" fill="none" xmlns="http://www.w3.org/2000/svg">
<path opacity="0.02" d="M0 190.992L5.47184 200.005C11.6559 210.232 18.5347 220.234 25.7437 229.593C97.7808 325.028 212.637 382 333 382C453.363 382 568.219 325.028 640.152 229.715C647.465 220.234 654.327 210.215 660.528 200.005L666 190.992L660.528 181.98C654.344 171.753 647.465 161.751 640.274 152.409C577.912 69.5638 485.708 19.5893 394.545 4.88169C339.757 -4.11303 280.036 -0.640155 225.648 14.9877L219.36 16.8804C142.65 40.4091 73.8958 88.543 25.8653 152.253C18.5521 161.734 11.6906 171.753 5.4892 181.963L0 190.992ZM356.277 112.158C352.994 112.158 349.346 111.117 346.376 109.033C338.576 103.476 336.648 92.7104 342.033 84.7228C345.507 79.8608 350.718 77.4298 356.277 77.4298C359.751 77.4298 363.225 78.4717 366.352 80.5554C371.216 83.8546 373.648 89.2376 373.648 94.6205C373.648 98.0934 372.606 101.74 370.521 104.692C367.221 109.554 361.836 112.158 356.277 112.158ZM373.822 125.876C378.529 129.175 381.117 134.558 381.117 139.941C381.117 143.414 380.075 147.061 377.834 150.013C374.36 154.875 369.149 157.306 363.747 157.306C360.099 157.306 356.642 156.264 353.689 154.18C345.872 148.624 343.944 137.684 349.52 129.87C352.803 125.182 358.205 122.577 363.59 122.577C367.221 122.577 370.695 123.619 373.822 125.876ZM372.606 71.3523C364.789 65.9694 362.861 55.2035 368.263 47.2159C371.737 42.3539 376.948 39.9229 382.49 39.9229C385.964 39.9229 389.438 40.9647 392.391 43.0485C397.255 46.3477 399.861 51.7306 399.861 57.2872C399.861 60.7601 398.818 64.233 396.734 67.1849C393.451 72.0469 388.048 74.6515 382.49 74.6515C379.033 74.6515 375.559 73.6097 372.606 71.3523ZM402.831 55.5508C406.305 50.6888 411.708 48.2578 417.075 48.2578C420.549 48.2578 424.197 49.2996 427.15 51.3833C431.858 54.8562 434.272 60.2392 434.272 65.6221C434.272 69.095 433.213 72.5678 431.146 75.6934C427.671 80.3818 422.269 82.9864 416.901 82.9864C413.427 82.9864 409.953 81.9445 406.826 79.6872C399.009 74.1306 397.272 63.1911 402.831 55.5508ZM333 49.6469V84.3756C298.258 84.3756 264.124 115.527 264.124 153.833C264.124 192.139 295.427 223.29 333.643 223.29C372.05 223.29 403.422 192.139 403.422 153.833C403.422 141.713 400.156 129.853 394.024 119.278C392.756 119.556 391.575 120.146 390.289 120.146C386.815 120.146 383.185 119.104 380.232 116.847C372.415 111.29 370.521 100.524 376.254 92.7104C379.537 88.0221 384.939 85.4174 390.324 85.4174C393.798 85.4174 397.272 86.4593 400.399 88.7166C405.107 92.0159 407.695 97.3988 407.695 102.782C407.695 104.796 407.226 106.793 406.496 108.755L422.443 98.8053C432.796 115.406 438.268 134.42 438.268 153.833C438.268 211.291 391.436 258.019 333.869 258.019C276.492 258.019 229.383 211.291 229.383 153.833C229.383 96.3743 280.887 49.6469 333 49.6469ZM53.485 173.316C91.8052 122.473 144.526 82.6044 203.57 59.1973C236.974 8.35455 176.662 70.2237 176.662 146.106C176.662 235.358 246.667 309.556 333 309.556C419.333 309.556 489.338 238.032 489.338 148.78C489.338 115.458 479.541 84.9486 462.743 59.1452C465.453 60.2391 466.999 61.3678 469.692 62.5486L471.967 64.1288V64.1808C524.08 88.2652 575.654 125.963 611.403 173.437C615.746 179.115 620.558 185.002 624.518 190.992C620.541 197.001 616.649 202.922 612.22 208.687C545.741 296.741 444.017 347.271 332.844 347.271C221.67 347.271 119.859 296.759 53.2765 208.53C48.9164 202.852 44.7822 196.983 40.8216 190.992C44.7995 184.984 49.038 179.081 53.485 173.316Z" fill="#424242"/>
</svg>
