<svg width="196" height="40" viewBox="0 0 196 40" fill="none" xmlns="http://www.w3.org/2000/svg">
<path d="M0.179049 8.63309C0.552596 5.14373 2.67305 0 2.67305 0C2.67305 0 2.60963 1.87249 2.67305 3.06954C2.76499 4.80488 2.82039 5.79782 3.24859 7.48201C3.64292 9.03298 3.64579 10.1041 4.68744 11.3189C5.53281 12.3049 6.50985 13.0456 7.46909 13.1415C8.42832 13.2374 8.71635 13.2374 9.77137 13.1415C10.8264 13.0456 11.6138 12.5111 12.745 11.9904C14.7292 11.0771 15.6 10.1143 17.5412 9.11271C19.6437 8.02781 23.1047 6.71463 23.1047 6.71463C23.1047 6.71463 21.3433 7.79626 20.3229 8.63309C18.6628 9.99461 17.819 10.9071 16.5819 12.6619C15.0275 14.8667 14.3658 16.3078 13.6083 18.8969C12.8763 21.3987 12.6914 22.9095 12.745 25.5156C12.8014 28.2558 13.1902 29.8012 13.992 32.4221C14.948 35.547 17.5412 40 17.5412 40C17.5412 40 15.3214 38.5559 13.992 37.506C11.9331 35.88 10.856 34.8509 9.09991 32.9017C6.98357 30.5526 5.86728 29.127 4.30375 26.3789C2.52531 23.253 1.66615 21.3444 0.850512 17.8417C0.0327491 14.3299 -0.204763 12.2184 0.179049 8.63309Z" fill="white"/>
<path d="M19.5555 27.3381V22.1583H24.5436V17.0743H30.3949V22.1583H35.191V27.3381H30.3949V32.4221H24.5436V27.3381H19.5555Z" fill="white"/>
<path d="M26.2739 8.02886C24.259 8.31752 21.3477 9.73491 21.3477 9.73491C21.3477 9.73491 23.632 9.36159 25.1095 9.28595C26.2274 9.22872 26.8633 9.16156 27.9757 9.28595C29.3753 9.44245 30.1687 9.64113 31.4688 10.1839C33.2152 10.9129 34.1131 11.5872 35.4993 12.8776C36.7202 14.0142 37.3585 14.7503 38.1863 16.1999C39.1426 17.8745 39.4346 18.9743 39.7985 20.8691C40.2813 23.3827 40.43 24.9436 39.7985 27.4239C39.1792 29.8563 38.388 31.1792 36.7532 33.0808C35.5048 34.533 34.6372 35.2471 32.9914 36.2235C31.1911 37.2916 30.0491 37.8303 27.9757 38.1091C26.2046 38.3473 25.1441 38.2633 23.4078 37.8398C22.3973 37.5933 21.8926 37.2526 20.8999 36.9418C19.8633 36.6173 18.2129 36.2235 18.2129 36.2235C18.2129 36.2235 19.2737 37.0373 20.0042 37.4806C21.0347 38.106 21.6529 38.4036 22.7808 38.8275C24.0995 39.323 24.8785 39.535 26.2739 39.7254C27.9029 39.9476 28.8598 39.983 30.4836 39.7254C31.7411 39.5259 32.4313 39.2888 33.6184 38.8275C35.0918 38.2549 35.8975 37.8373 37.2011 36.9418C38.997 35.7081 40.0049 34.8839 41.2316 33.0808C42.0249 31.9148 42.3512 31.1704 42.8438 29.8483C43.6768 27.6123 43.9448 26.2189 43.9186 23.8322C43.8939 21.5835 43.647 20.2751 42.8438 18.1753C42.3509 16.8867 41.9855 16.1874 41.2316 15.0326C40.0926 13.2879 39.3095 12.3374 37.6489 11.0818C36.0254 9.85418 34.9291 9.36586 32.9914 8.7472C30.4776 7.94457 28.8856 7.65471 26.2739 8.02886Z" fill="white"/>
<circle cx="10.0579" cy="5.2766" r="3.93285" fill="white"/>
<path d="M56.2239 33V9.16H60.3839L69.3119 21.288H67.3279L76.0639 9.16H80.2239V33H75.8399V14.12L77.5359 14.536L68.4799 26.6H67.9679L59.1359 14.536L60.5759 14.12V33H56.2239ZM84.7864 33V9.16H100.626V13H89.1384V19.112H99.9864V22.952H89.1384V29.16H100.626V33H84.7864ZM103.818 33V9.16H111.594C114.111 9.16 116.298 9.672 118.154 10.696C120.031 11.6987 121.482 13.096 122.506 14.888C123.53 16.6587 124.042 18.7173 124.042 21.064C124.042 23.3893 123.53 25.4587 122.506 27.272C121.482 29.064 120.031 30.472 118.154 31.496C116.298 32.4987 114.111 33 111.594 33H103.818ZM108.17 29.16H111.69C113.311 29.16 114.708 28.8293 115.882 28.168C117.076 27.4853 118.004 26.5467 118.666 25.352C119.327 24.136 119.658 22.7067 119.658 21.064C119.658 19.4 119.327 17.9707 118.666 16.776C118.004 15.5813 117.076 14.6533 115.882 13.992C114.708 13.3307 113.311 13 111.69 13H108.17V29.16ZM127.505 33V9.16H131.857V33H127.505ZM134.491 33L142.299 21L134.555 9.16H139.547L145.883 18.856H143.579L149.883 9.16H154.875L147.163 21L154.939 33H149.947L143.579 23.176H145.883L139.483 33H134.491ZM155.647 33L163.871 9.16H169.503L177.727 33H172.991L171.295 27.88H162.079L160.351 33H155.647ZM163.327 24.04H170.047L166.079 12.168H167.295L163.327 24.04ZM180.38 33V9.16H184.732V29.16H194.94V33H180.38Z" fill="white"/>
</svg>
