<svg width="226" height="133" viewBox="0 0 226 133" fill="none" xmlns="http://www.w3.org/2000/svg">
<path d="M135.601 111.537C135.266 111.733 134.853 111.659 134.604 111.354L129.177 104.686C120.615 104.884 112.731 104.644 105.689 103.972C97.7022 103.209 90.573 101.868 84.499 99.985C78.5982 98.1558 73.5259 95.7635 69.4198 92.8737L68.3411 93.5043L66.6816 94.4681L55.496 101.007C55.3401 101.142 55.2501 101.343 55.2543 101.55L55.3528 106.471C55.3587 106.763 55.1775 107.024 54.9017 107.12C54.6261 107.216 54.322 107.124 54.1452 106.892L42.5313 91.6327L57.4766 120.558C57.6135 120.824 57.5286 121.147 57.279 121.31C57.0286 121.472 56.6992 121.422 56.511 121.191L42.067 103.444L42.6645 107.419C42.7548 108.019 42.4744 108.605 41.9501 108.912L29.5493 116.163C29.4084 116.246 29.3447 116.417 29.3979 116.572L33.1862 127.574C33.267 127.809 33.165 128.065 32.9503 128.186C32.7329 128.306 32.4621 128.252 32.3067 128.058L21.51 114.609L23.0311 119.088C23.1808 119.529 22.9979 120.018 22.596 120.253C22.5952 120.254 22.5944 120.254 22.5936 120.255L0.881466 132.947C0.661538 133.076 0.379117 133.001 0.250603 132.782C0.12204 132.562 0.196073 132.279 0.416001 132.151L22.1292 119.458C22.1291 119.458 22.1293 119.458 22.1292 119.458C22.1554 119.443 22.167 119.412 22.1576 119.385L20.074 113.249C19.9781 112.967 20.0988 112.658 20.3599 112.514C20.6215 112.37 20.947 112.435 21.1339 112.667L31.5424 125.633L28.5257 116.872C28.3299 116.304 28.5645 115.671 29.0837 115.367L33.5355 112.765L33.7196 112.654L41.4845 108.115C41.681 108 41.7861 107.781 41.7523 107.556L41.0122 102.634C40.9674 102.336 41.1231 102.054 41.3981 101.932C41.6738 101.81 41.9869 101.885 42.1772 102.119L55.1399 118.046L39.789 88.3349C39.6552 88.0761 39.74 87.7633 39.9864 87.6076C40.2323 87.4523 40.5518 87.5091 40.7282 87.7411L54.4151 105.724L54.3318 101.568C54.3218 101.066 54.5507 100.579 54.9439 100.267L54.9697 100.246L66.2169 93.6713L68.6027 92.283C64.8797 89.5147 61.9028 86.2467 59.7475 82.5595C55.9779 76.111 54.7602 68.732 56.3188 61.782C57.9303 54.5966 62.4297 48.5279 68.9885 44.6939C73.0769 42.304 78.4852 41.4511 85.0633 42.1589C90.3809 42.731 95.2819 44.1943 98.4569 45.3212C99.0041 45.5154 99.6052 45.4589 100.106 45.1661C100.381 45.0054 100.608 44.7837 100.774 44.5217L89.7952 23.2719C89.6196 22.932 89.7268 22.5368 90.0502 22.3324C90.3704 22.1299 90.7765 22.2003 91.0084 22.505L102.452 37.5404C103.061 35.334 103.85 32.9499 104.866 30.583C107.477 24.5038 110.874 20.2096 114.962 17.8196C121.521 13.9856 129.016 13.0424 136.068 15.1637C142.889 17.2154 148.721 21.8967 152.491 28.3453C154.461 31.7163 155.776 35.5413 156.51 40.0386L156.515 40.0746C156.676 41.1268 156.18 42.1571 155.252 42.6996L131.165 56.7801C130.335 57.2653 129.831 58.1639 129.85 59.1251L130.115 72.339C130.124 72.7925 129.853 73.1821 129.425 73.3311C128.996 73.4804 128.542 73.3435 128.267 72.9826L102.87 39.6127C102.456 41.3027 102.161 42.7982 101.959 43.963C101.926 44.1523 101.875 44.3359 101.807 44.5117L132.373 103.671C132.651 103.661 132.93 103.651 133.209 103.64C133.87 103.615 134.471 103.264 134.817 102.7C148.644 80.1931 155.776 61.4283 156.016 46.9268C156.022 46.5851 156.022 46.2438 156.016 45.9121C155.998 44.9327 156.17 41.5644 159.13 39.3475L159.174 39.3186L178.255 28.1647C178.451 28.0498 178.556 27.8301 178.522 27.605L177.782 22.6832C177.738 22.385 177.894 22.1025 178.168 21.9811C178.444 21.8593 178.757 21.9346 178.947 22.1684L191.91 38.0953L176.559 8.3842C176.425 8.12527 176.51 7.8125 176.757 7.65673C177.002 7.50162 177.322 7.5586 177.499 7.79068L191.185 25.7736L191.102 21.6176C191.092 21.1152 191.321 20.6284 191.714 20.3158L191.74 20.2953L202.987 13.7205C202.987 13.7205 202.988 13.7204 202.987 13.7205C203.014 13.7052 203.025 13.6746 203.016 13.6471L200.932 7.51166C200.836 7.22916 200.958 6.92143 201.218 6.77618C201.48 6.63258 201.805 6.69725 201.992 6.92994L212.401 19.8957L209.384 11.1348C209.188 10.5661 209.423 9.93313 209.942 9.62964L224.698 1.00358C224.918 0.875007 225.201 0.949053 225.329 1.16898C225.458 1.38883 225.384 1.67127 225.164 1.79984L210.407 10.4259C210.266 10.5083 210.203 10.6802 210.256 10.8345L214.044 21.8362C214.125 22.0714 214.025 22.3269 213.808 22.4485C213.591 22.5682 213.32 22.5148 213.165 22.3213L202.368 8.87174L203.889 13.3506C204.039 13.7916 203.856 14.2813 203.454 14.5162C203.453 14.5166 203.452 14.5171 203.452 14.5175L192.266 21.0563C192.11 21.1912 192.02 21.3922 192.024 21.5992L192.123 26.5208C192.129 26.8127 191.947 27.0732 191.672 27.1694C191.396 27.2654 191.092 27.1739 190.915 26.9417L179.302 11.6824L194.247 40.6079C194.383 40.8729 194.299 41.196 194.049 41.3596C193.798 41.5219 193.47 41.472 193.281 41.2408L178.837 23.494L179.435 27.468C179.525 28.0685 179.244 28.6546 178.72 28.961L159.662 40.1015C157.006 42.107 156.927 45.2789 156.938 45.8957C156.944 46.238 156.944 46.59 156.938 46.9422C156.819 54.1867 155.009 62.5139 151.561 71.6927C148.023 81.1114 142.653 91.7062 135.603 103.183C135.095 104.009 134.213 104.525 133.244 104.562C133.11 104.567 132.976 104.572 132.842 104.577L135.903 110.503C136.091 110.865 135.979 111.291 135.637 111.515C135.626 111.522 135.614 111.53 135.601 111.537ZM130.343 104.657L134.458 109.713L131.822 104.612C131.327 104.628 130.834 104.643 130.343 104.657ZM129.607 103.753C130.186 103.739 130.767 103.723 131.353 103.704L101.241 45.4236C101.048 45.6331 100.824 45.815 100.572 45.9621C99.8359 46.3924 98.9527 46.4755 98.1488 46.1902C92.5564 44.2054 78.5653 40.164 69.4543 45.4899C56.5767 53.0177 52.7462 68.754 60.5441 82.0937C62.6967 85.7761 65.685 89.0068 69.4837 91.7679L94.0494 77.4077C94.8531 76.9379 95.283 76.0394 95.1445 75.1188L93.1576 61.9041C93.09 61.4546 93.3235 61.0291 93.7397 60.8454C94.1554 60.6616 94.6275 60.775 94.9144 61.1275L129.607 103.753ZM70.3107 92.3529C74.2999 95.0983 79.1288 97.3546 84.7721 99.1041C95.9531 102.57 110.626 104.14 128.439 103.779L94.1992 61.7098C94.1868 61.6947 94.1639 61.6664 94.1127 61.6891C94.061 61.7114 94.0668 61.7477 94.0698 61.7671L96.0567 74.9818C96.2516 76.2779 95.6464 77.5427 94.5149 78.2042L70.3107 92.3529ZM103.161 38.4714L129.002 72.4237C129.013 72.439 129.049 72.4852 129.121 72.4598C129.195 72.4346 129.193 72.3762 129.193 72.3572L128.928 59.1433C128.902 57.8481 129.581 56.6374 130.699 55.9835L154.787 41.9031C155.377 41.558 155.705 40.879 155.604 40.2135L155.6 40.1881C154.885 35.8032 153.607 32.082 151.695 28.8105C143.897 15.4707 128.305 11.0879 115.428 18.6157C108.531 22.6475 104.939 31.7494 103.161 38.4714ZM91.6798 24.9093L101.151 43.2406C101.394 41.9117 101.719 40.3558 102.152 38.6685L91.6798 24.9093Z" fill="#EBECED"/>
</svg>
