<svg width="80" height="80" viewBox="0 0 80 80" fill="none" xmlns="http://www.w3.org/2000/svg">
<g opacity="0.44" clip-path="url(#clip0_47_7725)">
<path d="M58.866 15.1063L65.3354 17.8835C66.6998 18.4692 67.9778 19.2252 69.1345 20.1303C69.3495 20.2985 69.6045 20.38 69.8578 20.38C70.2068 20.38 70.5522 20.2252 70.7837 19.9292C71.1836 19.4182 71.0936 18.6797 70.5826 18.28C69.2664 17.25 67.8127 16.3902 66.2624 15.7246L59.7929 12.9472C58.5871 12.4298 57.4939 11.7085 56.5437 10.803C54.3747 8.73638 53.131 5.83308 53.131 2.83751V1.17486C53.131 0.525865 52.6051 0 51.9561 0C51.3071 0 50.7812 0.525865 50.7812 1.17486V2.83735C50.7812 6.47267 52.2909 9.99598 54.9227 12.5039C56.0761 13.6028 57.4027 14.4783 58.866 15.1063Z" fill="#2D3928"/>
<path d="M79.8669 66.9475L78.5012 64.3212C78.4061 64.1382 78.3557 63.9325 78.3557 63.7261V50.5948C78.3557 48.7243 77.5728 46.9518 76.2023 45.6908C76.2027 45.6762 76.2045 45.662 76.2045 45.6472L76.2046 41.7531C79.1656 35.3929 78.4672 27.932 74.3587 22.2159C73.9799 21.6886 73.2454 21.569 72.719 21.9476C72.1921 22.3262 72.0719 23.0604 72.4507 23.5872C76.1094 28.6775 76.6921 35.3412 73.9714 40.9784C73.8947 41.1377 73.8547 41.3122 73.8547 41.489V43.6769L62.8556 34.2825V32.9168C62.8556 32.2678 62.3297 31.742 61.6807 31.742C61.0317 31.742 60.5059 32.2678 60.5059 32.9168V49.3519C60.5059 50.9579 60.2165 52.5596 59.663 54.0653L59.456 53.7204C58.8446 52.7012 57.8689 51.9974 56.7089 51.7385C55.5491 51.4803 54.3667 51.7018 53.38 52.3641C51.6666 53.5139 51.0129 55.725 51.8254 57.6218L55.0613 65.1735C55.8976 67.1252 57.138 68.8491 58.6814 70.2507C58.6812 70.2772 58.6808 70.3035 58.6825 70.3303L59.2063 78.6029C59.2458 79.2252 59.7627 79.7035 60.3779 79.7035C60.4028 79.7035 60.4279 79.7027 60.4531 79.7011C61.1007 79.6601 61.5924 79.102 61.5515 78.4544L61.1467 72.0621C61.5397 72.2912 61.9445 72.5035 62.3607 72.697L63.6844 73.3124L68.2803 79.5251C68.5107 79.8366 68.8658 80.0014 69.2257 80.0013C69.4685 80.0013 69.7133 79.9262 69.9234 79.7708C70.445 79.385 70.5551 78.6494 70.1691 78.1278L65.3953 71.6745C65.2786 71.5166 65.1242 71.3907 64.946 71.3078L63.3509 70.5662C60.5949 69.2853 58.4181 67.0415 57.221 64.248L53.9851 56.6965C53.6171 55.8375 53.9132 54.8359 54.6892 54.3152C55.1363 54.0152 55.6719 53.9146 56.197 54.0318C56.7224 54.149 57.1643 54.4677 57.4411 54.9292L59.8058 58.8703C60.2978 59.6899 61.1972 60.1992 62.153 60.1992H63.7549C65.1036 60.1992 66.24 59.233 66.4568 57.9016L66.6969 56.4261C66.8012 55.7856 66.3665 55.182 65.7261 55.0779C65.0855 54.9739 64.4821 55.4082 64.3779 56.0486L64.1377 57.5239C64.107 57.7125 63.946 57.8494 63.7551 57.8494H62.1532C62.0178 57.8494 61.8903 57.7772 61.8208 57.6613L61.1472 56.5386C62.2646 54.317 62.8557 51.8387 62.8557 49.3516V44.6762L65.5573 47.9039C65.6355 47.9973 65.6691 48.1198 65.6495 48.2401L65.1934 51.042C65.0891 51.6824 65.5236 52.2861 66.1641 52.3903C66.228 52.4006 66.2915 52.4058 66.3543 52.4058C66.92 52.4058 67.4187 51.9962 67.5126 51.4195L67.9687 48.6174C68.0979 47.8228 67.8758 47.0129 67.359 46.3957L62.8557 41.0155V37.3725L74.4925 47.3115C75.4544 48.1329 76.006 49.3297 76.006 50.5946V63.7259C76.006 64.308 76.1479 64.8887 76.4164 65.405L77.782 68.0314C77.9913 68.4338 78.401 68.6645 78.8253 68.6645C79.008 68.6645 79.1933 68.6218 79.3664 68.5317C79.9421 68.2325 80.1662 67.5232 79.8669 66.9475Z" fill="#2D3928"/>
<path d="M48.5854 47.8637C46.4533 49.7802 45.2305 52.5227 45.2305 55.3876C45.2305 57.0275 45.6323 58.6565 46.3926 60.0986C46.6032 60.4979 47.0109 60.7258 47.4331 60.7258C47.6178 60.7258 47.8053 60.6821 47.9799 60.59C48.5539 60.2872 48.7738 59.5767 48.4713 59.0027C47.8883 57.8971 47.5803 56.647 47.5803 55.3876C47.5803 53.1883 48.5193 51.0828 50.1562 49.6109C50.6389 49.1772 50.6784 48.4343 50.2444 47.9519C49.8112 47.4695 49.0682 47.4298 48.5854 47.8637Z" fill="#2D3928"/>
<path d="M53.2557 45.4886C52.6206 45.6223 52.2143 46.2451 52.3476 46.8801C52.464 47.4336 52.9521 47.8136 53.4961 47.8136C53.5763 47.8136 53.6575 47.8053 53.7391 47.7882C54.7214 47.5818 55.7658 47.5686 56.7561 47.75C57.3932 47.8666 58.0065 47.4447 58.1235 46.8064C58.2405 46.1682 57.818 45.556 57.1798 45.439C55.8908 45.2026 54.5355 45.2195 53.2557 45.4886Z" fill="#2D3928"/>
<path d="M28.0431 0C27.3941 0 26.8682 0.525865 26.8682 1.17486V2.83735C26.8682 5.83292 25.6244 8.73607 23.4555 10.8029C22.5056 11.7078 21.4123 12.4293 20.2062 12.9471L13.7368 15.7243C8.82306 17.8337 5.08529 21.7538 3.21242 26.7626C1.37149 31.6862 1.58046 36.9982 3.79561 41.7519V45.6458C3.79561 45.6597 3.79718 45.6734 3.79765 45.6872C2.42824 46.9255 1.64453 48.6796 1.64453 50.5321V52.6152C1.64453 53.2642 2.1704 53.7901 2.81939 53.7901C3.46838 53.7901 3.99424 53.2642 3.99424 52.6152V50.5321C3.99424 49.306 4.52888 48.1461 5.46125 47.3498L17.1445 37.3711V41.0141L12.6412 46.3941C12.1244 47.0113 11.9023 47.8212 12.0315 48.6162L13.5432 57.9003C13.76 59.2317 14.8963 60.1979 16.245 60.1979H17.8469C18.8031 60.1979 19.7025 59.6886 20.1941 58.8689L22.5588 54.9281C22.8358 54.4665 23.2775 54.1477 23.8029 54.0304C24.3283 53.9132 24.8636 54.0139 25.3108 54.3139C26.0867 54.8346 26.3828 55.8362 26.0148 56.6951L22.7789 64.2467C21.5818 67.0404 19.4049 69.2842 16.6488 70.5653L15.0539 71.3065C14.8758 71.3892 14.7213 71.5154 14.6046 71.6732L9.83077 78.1265C9.44479 78.6481 9.55491 79.3838 10.0765 79.7696C10.2866 79.9251 10.5315 80.0002 10.7743 80C11.1341 80 11.4892 79.8352 11.7196 79.5238L16.3155 73.3112L17.639 72.696C18.0552 72.5025 18.46 72.2903 18.8532 72.061L18.4484 78.4531C18.4074 79.1007 18.8992 79.6588 19.5468 79.6999C19.572 79.7014 19.5971 79.7022 19.622 79.7022C20.237 79.7022 20.7541 79.2238 20.7936 78.6016L21.3174 70.3291C21.3191 70.3023 21.3185 70.276 21.3184 70.2495C22.8616 68.8478 24.1021 67.1239 24.9385 65.1722L28.1743 57.6204C28.987 55.7237 28.3333 53.5125 26.6199 52.3629C25.633 51.7005 24.4505 51.4784 23.2907 51.7374C22.1307 51.9961 21.155 52.7001 20.5437 53.7194L20.3368 54.0642C19.7832 52.5582 19.4939 50.9566 19.4939 49.3505V32.9154C19.4939 32.2664 18.968 31.7405 18.319 31.7405C17.67 31.7405 17.1442 32.2664 17.1442 32.9154V34.281L6.14486 43.6757V41.4876C6.14486 41.3107 6.10491 41.1362 6.02815 40.9769C3.98516 36.744 3.76663 31.9882 5.41284 27.5858C7.05905 23.1833 10.3447 19.7376 14.6638 17.8835L21.133 15.1063C22.5968 14.478 23.9234 13.6025 25.0765 12.5041C27.7085 9.99599 29.2179 6.47283 29.2179 2.83751V1.17486C29.2179 0.525865 28.6921 0 28.0431 0ZM18.1796 57.6602C18.1101 57.7763 17.9825 57.8483 17.8472 57.8483H16.2453C16.0542 57.8483 15.8933 57.7114 15.8626 57.523L14.351 48.239C14.3314 48.1185 14.3651 47.996 14.4433 47.9026L17.1448 44.6751V49.3507C17.1448 51.8378 17.7358 54.3161 18.8533 56.5377L18.1796 57.6602Z" fill="#2D3928"/>
<path d="M2.82055 56.4453C2.17156 56.4453 1.64569 56.9712 1.64569 57.6202V63.755C1.64569 63.9401 1.60058 64.1246 1.5152 64.2888L0.134671 66.9438C-0.164682 67.5195 0.0594801 68.2288 0.635003 68.5282C0.808098 68.6182 0.993412 68.661 1.17606 68.661C1.60026 68.661 2.01005 68.4303 2.21933 68.0278L3.59987 65.3727C3.85849 64.875 3.99525 64.3156 3.99525 63.755V57.6202C3.9954 56.9712 3.46954 56.4453 2.82055 56.4453Z" fill="#2D3928"/>
<path d="M31.4174 47.8638C30.9349 47.4297 30.1919 47.4695 29.7583 47.952C29.3244 48.4344 29.3639 49.1773 29.8465 49.611C31.4835 51.0829 32.4224 53.1884 32.4224 55.3877C32.4224 56.6472 32.1143 57.8974 31.5314 59.0028C31.2288 59.5768 31.4488 60.2873 32.0228 60.5901C32.1976 60.6822 32.385 60.7259 32.5697 60.7259C32.9917 60.7259 33.3996 60.4979 33.6101 60.0987C34.3705 58.6566 34.7723 57.0277 34.7723 55.3877C34.7723 52.5229 33.5495 49.7805 31.4174 47.8638Z" fill="#2D3928"/>
<path d="M22.8225 45.4389C22.1843 45.5559 21.7618 46.1681 21.8788 46.8063C21.9959 47.4444 22.609 47.8675 23.2462 47.7499C24.2367 47.5685 25.2808 47.5818 26.2632 47.7881C26.3449 47.8052 26.426 47.8135 26.5062 47.8135C27.0501 47.8135 27.5384 47.4335 27.6547 46.88C27.7882 46.245 27.3817 45.6222 26.7467 45.4885C25.4667 45.2196 24.1114 45.2027 22.8225 45.4389Z" fill="#2D3928"/>
<path d="M40.1241 0C39.4751 0 38.9492 0.525865 38.9492 1.17486V3.92214C38.9492 4.57113 39.4751 5.09699 40.1241 5.09699C40.7731 5.09699 41.2989 4.57113 41.2989 3.92214V1.17486C41.2989 0.525865 40.7731 0 40.1241 0Z" fill="#2D3928"/>
<path d="M40.1241 10.5156C39.4751 10.5156 38.9492 11.0415 38.9492 11.6905V14.4376C38.9492 15.0866 39.4751 15.6125 40.1241 15.6125C40.7731 15.6125 41.2989 15.0866 41.2989 14.4376V11.6905C41.2989 11.0416 40.7731 10.5156 40.1241 10.5156Z" fill="#2D3928"/>
<path d="M40.1241 21.0234C39.4751 21.0234 38.9492 21.5493 38.9492 22.1983V24.9454C38.9492 25.5944 39.4751 26.1203 40.1241 26.1203C40.7731 26.1203 41.2989 25.5944 41.2989 24.9454V22.1983C41.2989 21.5495 40.7731 21.0234 40.1241 21.0234Z" fill="#2D3928"/>
<path d="M40.1241 31.5391C39.4751 31.5391 38.9492 32.0649 38.9492 32.7139V35.4612C38.9492 36.1102 39.4751 36.6361 40.1241 36.6361C40.7731 36.6361 41.2989 36.1102 41.2989 35.4612V32.7139C41.2989 32.0651 40.7731 31.5391 40.1241 31.5391Z" fill="#2D3928"/>
<path d="M40.1241 42.0547C39.4751 42.0547 38.9492 42.5806 38.9492 43.2295V45.9767C38.9492 46.6257 39.4751 47.1515 40.1241 47.1515C40.7731 47.1515 41.2989 46.6257 41.2989 45.9767V43.2295C41.2989 42.5806 40.7731 42.0547 40.1241 42.0547Z" fill="#2D3928"/>
<path d="M40.1241 52.5703C39.4751 52.5703 38.9492 53.0962 38.9492 53.7452V56.4925C38.9492 57.1414 39.4751 57.6673 40.1241 57.6673C40.7731 57.6673 41.2989 57.1414 41.2989 56.4925V53.7452C41.2989 53.0962 40.7731 52.5703 40.1241 52.5703Z" fill="#2D3928"/>
<path d="M40.1241 63.0859C39.4751 63.0859 38.9492 63.6118 38.9492 64.2608V67.0079C38.9492 67.6569 39.4751 68.1828 40.1241 68.1828C40.7731 68.1828 41.2989 67.6569 41.2989 67.0079V64.2608C41.2989 63.6118 40.7731 63.0859 40.1241 63.0859Z" fill="#2D3928"/>
<path d="M40.1241 73.6016C39.4751 73.6016 38.9492 74.1274 38.9492 74.7764V77.5235C38.9492 78.1725 39.4751 78.6984 40.1241 78.6984C40.7731 78.6984 41.2989 78.1725 41.2989 77.5235V74.7764C41.2989 74.1274 40.7731 73.6016 40.1241 73.6016Z" fill="#2D3928"/>
</g>
<defs>
<clipPath id="clip0_47_7725">
<rect width="80" height="80" fill="white"/>
</clipPath>
</defs>
</svg>
