<svg width="693" height="356" viewBox="0 0 693 356" fill="none" xmlns="http://www.w3.org/2000/svg">
<g opacity="0.02">
<path d="M622.541 239.095C569.394 294.165 496.374 331.352 415.002 341.537C400.27 343.381 385.475 344.258 370.705 344.243C376.975 343.467 383.222 342.422 389.422 341.077C444.242 329.185 490.805 295.805 515.725 250.48C530.258 224.047 537.559 194.131 537.299 164.273C537.05 135.688 529.912 101.711 505.73 80.7058C500.205 75.9068 489.029 80.7798 495.029 86.9738C513.824 106.377 520.875 130.425 523.318 155.265C525.789 180.394 522.28 205.717 512.863 229.148C494.823 274.031 456.722 309.616 407.146 326.488C358.823 342.933 304.791 339.443 258.26 316.715C210.712 293.491 176.363 251.7 166.905 203.966C161.691 177.651 163.56 150.003 173.423 125.164C182.967 101.13 199.35 77.1158 227.245 68.2208C228.938 67.6808 228.101 65.3428 226.36 65.6438C200.392 70.1308 182.051 88.3068 170.268 108.594C157.441 130.678 151.992 156.329 152.753 181.486C154.317 233.169 183.377 281.691 230.413 312.339C237.408 316.897 244.666 320.991 252.129 324.634C225.789 315.814 200.42 304.168 176.641 289.945C156.857 278.111 138.025 264.601 120.976 249.649C112.274 242.018 103.856 234.017 95.8652 225.777C87.9332 217.598 79.6142 209.242 72.6572 200.398C72.2402 199.868 71.0262 200.286 71.4372 200.925C76.7432 209.172 81.5583 217.332 87.6593 225.186C94.0033 233.353 100.805 241.186 108.194 248.616C122.813 263.317 138.879 276.89 156.271 288.872C191.356 313.041 231.434 331.542 273.492 342.726C357.131 364.966 446.182 357.247 522.852 323.805C565.046 305.401 603.852 279.202 633.29 246.314C638.51 240.485 627.565 233.889 622.541 239.095Z" fill="#132573"/>
<path d="M383.536 174.135C382.956 142.234 340.802 125.257 317.369 147.268C304.81 159.064 305.231 178.63 318.521 189.788C319.013 190.201 319.846 189.595 319.399 189.053C307.903 175.121 313.029 154.777 328.493 146.321C343.006 138.384 361.824 143.646 371.426 156.63C380.861 169.388 378.461 187.759 367.35 198.639C354.976 210.756 336.13 209.091 322.417 200.063C319.651 198.242 316.459 201.374 319.047 203.751C330.206 213.995 348.589 215.363 362.03 209.148C375.632 202.858 383.8 188.656 383.536 174.135Z" fill="#132573"/>
<path d="M454.106 159.657C443.158 121.621 405.888 91.3211 363.319 84.2721C340.079 80.4241 316.152 84.1731 295.659 93.8081C285.131 98.7581 275.497 105.249 267.499 113.136C259.42 121.102 254.524 130.46 249.973 140.415C249.882 140.613 250.241 140.741 250.34 140.557C258.722 125.092 274.957 111.44 291.07 102.563C307.651 93.4281 327.175 88.3621 346.941 88.9141C386.757 90.0251 424.643 115.214 439.854 148.538C455.416 182.629 445.176 223.501 416.768 248.229C388.743 272.623 343.509 278.001 307.362 263.243C265.019 245.955 242.524 202.574 244.921 162.573C245.049 160.437 241.572 159.978 240.978 161.977C229.689 199.989 251.811 242.776 288.851 264.19C326.129 285.741 376.686 285.483 412.165 263.494C447.724 241.455 465.208 198.229 454.106 159.657Z" fill="#132573"/>
<path d="M491.241 194.056C494.998 149.126 471.758 98.4781 429.217 71.9151C425.988 69.8991 421.927 73.4532 425.271 75.9362C442.776 88.9342 457.56 103.734 468.092 121.922C478.228 139.425 484.099 159.122 485.564 178.597C488.588 218.816 467.978 255.896 434.464 280.78C401.085 305.564 357.039 314.961 313.975 305.597C270.926 296.236 232.715 269.827 212.86 233.703C190.42 192.875 192.998 142.237 218.156 104.26C218.243 104.129 217.973 104.002 217.883 104.118C191.683 138.014 186.571 181.773 201.054 221.759C215.641 262.03 252.538 293.533 296.576 307.354C340.356 321.094 387.687 316.662 425.621 294.22C463.031 272.089 487.823 234.923 491.241 194.056Z" fill="#132573"/>
<path d="M406.66 61.074C379.275 49.122 346.956 46.94 317.613 50.325C303.045 52.005 288.615 55.154 275.005 59.916C268.163 62.31 261.338 65.11 254.988 68.398C248.062 71.983 242.636 76.632 236.54 81.104C236.346 81.246 236.589 81.481 236.784 81.372C249.094 74.442 263.69 68.951 277.339 64.445C290.927 59.959 305.05 56.879 319.528 55.406C348.798 52.428 377.266 56.694 405.741 63.883C407.757 64.39 408.467 61.862 406.66 61.074Z" fill="#132573"/>
<path d="M338.71 230.827C338.71 230.247 337.747 230.073 337.606 230.66C330.312 260.985 326.99 292.497 323.338 323.548C321.845 323.943 320.661 325.012 320.862 326.748C321.223 329.865 321.585 332.983 321.947 336.1C322.354 339.61 329.165 340.015 329.572 336.413C333.516 301.507 338.715 266.057 338.71 230.827Z" fill="#132573"/>
<path d="M282.655 164.658C273.528 160.423 262.288 158.817 252.351 157.2C241.76 155.477 231.085 154.277 220.385 153.602C200.118 152.323 178.048 151.735 158.28 155.685C154.356 156.469 156.619 161.408 160.157 161.154C170.401 160.418 180.492 158.724 190.787 158.161C200.926 157.606 211.11 157.53 221.291 157.951C231.495 158.372 241.694 159.282 251.827 160.67C261.923 162.054 272.29 164.812 282.436 165.329C282.903 165.354 283.121 164.875 282.655 164.658Z" fill="#132573"/>
<path d="M523.215 198.407C489.477 186.231 450.816 178.109 414.776 179.821C414.33 179.842 414.353 180.406 414.786 180.463C432.51 182.788 450.134 184.762 467.643 188.481C485.684 192.313 503.11 197.66 520.37 203.889C524.688 205.447 527.769 200.051 523.215 198.407Z" fill="#132573"/>
<path d="M690.854 315.459C690.22 303.861 688.111 292.318 686.188 280.774C682.338 268.699 677.723 256.804 672.29 245.193C665.342 230.345 657.085 215.959 647.748 202.15C652.694 205.528 657.68 208.853 662.686 212.167C664.783 213.555 667.556 211.049 665.285 209.519C657.973 204.592 650.656 199.703 643.192 194.968C642.987 194.838 642.776 194.754 642.565 194.697C640.521 191.842 638.447 189.004 636.311 186.204C650.707 190.923 667.023 190.669 680.788 184.974C682.529 184.254 681.312 182.133 679.592 182.653C662.838 187.724 645.16 185.626 629.941 178.101C629.194 177.178 628.448 176.254 627.69 175.338C626.173 173.503 624.615 171.697 623.057 169.89C626.991 171.088 630.912 172.059 634.683 172.78C654.222 176.514 674.086 174.63 691.68 166.799C693.501 165.989 691.544 163.648 689.87 164.221C673.071 169.976 654.268 170.764 636.556 166.622C627.833 164.582 619.199 161.398 611.462 157.099C608.196 153.663 604.88 150.264 601.469 146.944C619.275 150.106 637.782 148.555 653.433 141.009C654.327 140.578 653.338 139.643 652.588 139.806C631.359 144.41 609.427 143.246 589.782 136.042C578.978 126.403 567.549 117.338 555.573 108.919C563.216 110.59 570.981 111.743 578.775 112.31C604.202 114.16 635.205 109.906 655.859 96.2065C656.686 95.6585 655.828 94.6095 654.934 94.8885C642.531 98.7625 630.788 102.954 617.617 104.687C604.799 106.374 591.83 106.472 578.852 105.278C566.285 104.121 553.841 101.521 541.962 97.3786C538.464 96.1586 535.018 94.8055 531.616 93.3645C529.004 91.8065 526.374 90.2745 523.72 88.7765C526.876 88.6335 530.017 88.3885 533.127 88.0315C558.626 85.0985 580.661 76.2046 600.267 61.8116C600.536 61.6136 600.19 61.2716 599.924 61.4366C580.498 73.5036 555.662 80.2876 531.945 81.4856C524.48 81.8626 517.014 81.7916 509.571 81.1786C507.022 79.8786 504.453 78.6105 501.872 77.3645C525.367 74.8445 548.248 67.1715 566.37 55.4655C567.214 54.9195 566.176 54.0435 565.391 54.3955C547.737 62.3055 528.645 68.0965 508.853 70.1945C501.808 70.9406 494.863 71.1695 487.952 71.0125C484.426 69.4915 480.884 68.0065 477.311 66.5965C497.376 59.0305 514.327 45.1606 522.115 26.7426C522.325 26.2476 521.515 25.9976 521.233 26.4016C508.699 44.3605 489.767 57.5795 467.773 62.9905C460.894 60.4995 453.935 58.2305 446.916 56.1575C465.393 49.2235 482.515 39.1245 496.267 27.2636C496.717 26.8756 495.924 26.3136 495.481 26.5916C481.689 35.2736 466.972 42.8176 451.144 48.2036C445.753 50.0386 440.32 51.5305 434.843 52.8165C429.38 51.4055 423.886 50.1075 418.362 48.9505C428.317 34.7065 432.326 16.4445 429.248 0.261537C429.176 -0.115463 428.529 -0.072452 428.54 0.310548C428.912 12.3255 426.297 24.3705 420.69 35.1155C418.245 39.7995 415.29 43.8915 411.929 47.6465C405.795 46.4765 399.629 45.4655 393.441 44.6115C404.854 36.5625 412.04 23.9435 413.293 10.2065C413.316 9.95654 412.855 9.88355 412.82 10.1346C410.763 25.2016 399.721 37.0626 385.328 43.5916C377.45 42.6836 369.542 42.0225 361.618 41.6335C362.299 29.5315 361.59 17.1735 361.795 5.10754C361.799 4.86054 361.342 4.78055 361.322 5.03555C360.384 17.1016 358.535 29.3175 358.078 41.4785C350.343 41.1745 342.596 41.1115 334.852 41.3105C332.621 37.0965 330.562 32.8306 329.072 28.1866C326.349 19.7006 325.159 11.1305 325.608 2.38355C325.625 2.05255 325.027 1.95054 324.977 2.28854C323.148 14.6605 324.172 29.2375 330.095 41.4655C327.555 41.5645 325.017 41.6805 322.479 41.8345C301.957 43.0785 281.627 46.0365 261.768 50.5495C260.821 49.9175 259.88 49.2635 258.949 48.5635C249.014 41.0835 240.769 29.6606 238.911 18.0746C238.864 17.7826 238.346 17.8136 238.361 18.1126C239.013 31.1035 244.287 42.1765 255.004 51.3795C255.239 51.5815 255.489 51.7745 255.729 51.9735C247.258 54.0435 238.875 56.3886 230.612 59.0186C215.994 53.8066 202.994 45.0525 192.277 34.6525C191.999 34.3835 191.261 34.5616 191.531 34.9745C198.846 46.1535 210.268 55.2365 223.434 61.3755C215.606 64.0406 207.904 66.9775 200.319 70.1275C187.162 66.9155 175.048 59.2196 169.13 48.2635C169.069 48.1506 168.86 48.2015 168.911 48.3295C173.277 59.2645 180.403 67.7236 192.195 73.0356C192.408 73.1316 192.626 73.2155 192.84 73.3085C189.907 74.6035 186.989 75.9236 184.101 77.2926C179.91 76.5266 175.721 75.4696 171.515 74.0616C156.253 68.9506 140.814 59.3235 132.116 46.6055C131.858 46.2275 131.042 46.4015 131.314 46.8465C140.033 61.1255 151.394 72.1436 167.704 79.4776C169.846 80.4406 172.063 81.3126 174.331 82.1006C169.459 84.5906 164.656 87.1806 159.931 89.8766C158.117 90.9116 156.314 91.9626 154.521 93.0296C139.224 91.1826 124.161 84.4656 115.522 72.9066C115.389 72.7296 115.072 72.8965 115.209 73.0895C122.29 83.1125 130.242 91.0395 142.674 95.6465C144.298 96.2485 145.951 96.7815 147.622 97.2555C144.662 99.1095 141.725 100.997 138.826 102.932C138.444 102.912 138.068 102.911 137.682 102.883C129.405 102.271 121.264 100.088 113.911 96.4145C100.55 89.7405 88.2561 77.9285 83.4072 64.8125C83.3182 64.5725 82.8031 64.6425 82.8761 64.9085C87.0741 79.9935 94.9671 93.1855 109.858 101.967C115.345 105.203 121.922 107.964 128.868 109.832C127.788 110.609 126.731 111.413 125.66 112.201C118.295 112.509 111.051 111.643 103.451 109.117C91.5961 105.177 80.5101 97.8555 74.1981 87.8075C74.1311 87.7005 73.9101 87.7496 73.9791 87.8736C82.2861 102.996 99.4831 115.289 117.994 118.012C116.773 118.965 115.537 119.903 114.332 120.872C101.02 123.564 87.3501 122.458 74.7451 115.328C60.5671 107.308 49.3371 92.1896 48.8111 77.0746C48.7881 76.4246 47.3971 76.3446 47.3941 77.0166C47.3151 94.6386 53.9891 111.277 70.5611 122.128C79.4001 127.915 90.4421 131.214 101.51 131.751C101.469 131.787 101.43 131.824 101.39 131.861C78.2882 135.601 52.1681 128.834 35.7071 113.173C35.4851 112.963 35.0411 113.168 35.2691 113.43C49.8911 130.259 72.1011 139.252 94.2271 138.51C94.0891 138.642 93.9491 138.771 93.8111 138.903C88.0561 139.638 82.1911 139.853 76.2611 139.413C55.2391 137.855 31.6101 129.483 16.9771 114.924C16.6961 114.645 16.1091 114.933 16.4141 115.254C24.4601 123.713 32.1511 131.012 42.9251 136.709C53.1031 142.091 64.5621 145.592 76.1811 146.684C79.3051 146.978 82.4292 147.115 85.5412 147.121C85.0962 147.582 84.6661 148.054 84.2241 148.517C61.9671 151.045 37.9661 148.007 18.8691 136.31C18.5931 136.141 18.2341 136.456 18.5321 136.653C36.3651 148.481 57.3072 155.734 78.5412 154.663C77.8352 155.448 77.1191 156.226 76.4211 157.017C68.7081 158.843 60.6961 159.709 52.0801 159.191C34.8201 158.154 17.7271 152.923 3.23314 144C2.91514 143.804 2.34214 144.108 2.68014 144.429C15.7771 156.886 33.3371 164.188 51.9981 165.847C55.3581 166.146 58.8351 166.275 62.3521 166.258C59.3811 167.411 56.3311 168.446 53.1301 169.274C41.7791 172.209 28.9251 173.642 17.0031 172.46C16.4531 172.405 16.3401 173.081 16.8971 173.161C32.6391 175.428 50.2411 174.975 65.6191 170.067C64.5511 171.448 63.4981 172.838 62.4541 174.234C54.8541 177.163 47.0771 179.403 38.4101 180.342C25.9781 181.689 12.7341 180.875 0.510128 177.859C-0.0168715 177.729 -0.19987 178.385 0.27113 178.591C16.7951 185.842 37.2571 188.089 55.4181 184.086C47.8931 195.179 41.2671 206.787 35.7121 218.884C34.6501 221.197 38.3401 222.732 39.9861 221.232C40.3301 221.189 40.6531 221.043 40.8491 220.735C48.0151 209.516 56.5711 198.729 65.8561 188.5C66.2741 190.657 66.9801 192.736 68.0701 194.334C68.3741 194.78 69.1771 194.927 69.4621 194.396C70.4831 192.491 70.4801 190.263 70.5761 188.159C70.6501 186.544 70.6671 185.035 70.4821 183.498C77.1391 176.468 84.1041 169.725 91.1541 163.315C92.0051 162.541 92.8851 161.792 93.7471 161.027C98.3051 159.315 102.577 157.153 106.368 154.461C108.516 152.935 108.453 151.059 107.326 149.675C110.852 146.894 114.426 144.159 118.079 141.509C125.953 138.595 133.292 134.548 139.76 129.355C140.849 128.48 140.952 127.47 140.503 126.57C145.099 123.762 149.749 121.029 154.482 118.424C168.15 110.901 182.413 104.265 197.111 98.4845C190.791 106.519 185.753 115.419 182.085 124.683C178.461 133.835 176.065 143.391 175.161 153.151C174.176 163.781 176.194 173.469 178.531 183.907C178.558 184.029 178.784 184.021 178.767 183.891C177.501 174.408 178.859 164.161 180.285 154.803C181.777 145.012 184.67 135.425 188.885 126.378C194.847 113.58 203.347 102.377 213.604 92.4355C235.355 85.0165 257.943 79.4675 280.978 75.8745C271.595 80.3635 262.869 85.8765 255.149 92.1245C230.724 111.893 217.27 140.563 216.696 170.518C216.356 188.247 221.068 203.879 229.53 219.95C229.689 220.251 230.264 220.112 230.114 219.775C222.48 202.584 220.073 181.918 222.041 163.861C224.09 145.064 231.437 127.165 243.527 112.011C259.362 92.1625 281.69 79.1646 306.931 72.6815C308.224 72.5636 309.518 72.4416 310.813 72.3365C325.005 71.1865 339.3 70.7765 353.597 71.1185C353.238 74.9805 352.898 78.8306 352.468 82.6106C351.83 88.2226 351.347 93.8416 350.883 99.4726C350.453 104.7 349.488 110.182 350.307 115.425C350.353 115.717 350.861 115.79 350.992 115.528C353.38 110.779 354.14 105.258 355.333 100.145C356.618 94.6386 357.879 89.1375 358.992 83.5965C359.801 79.5655 360.736 75.4915 361.642 71.3955C370.469 71.7825 379.287 72.4625 388.074 73.4335C396.617 77.3725 404.952 81.5125 412.784 86.9735C424.333 95.0265 434.565 104.67 443.041 115.387C461.571 138.818 471.571 167.245 467.94 195.512C464.534 222.028 451.767 245.842 430.422 263.878C410.379 280.814 383.427 291.41 355.47 291.984C321.848 292.674 289.848 277.788 265.04 257.438C264.879 257.306 264.635 257.488 264.763 257.652C282.875 280.904 313.482 293.057 343.822 295.581C373.796 298.075 403.148 290.415 426.626 274.207C449.978 258.086 466.652 234.043 471.569 207.5C476.826 179.119 471.709 146.439 454.785 121.109C445.939 107.869 434.587 96.1785 421.259 86.4355C416.132 82.6875 410.538 78.9726 404.642 75.6286C426.067 78.9216 447.212 83.9845 467.715 90.9035C477.352 98.7815 485.509 107.647 491.642 118.728C501.218 136.03 504.735 156.893 501.347 175.67C501.262 176.139 502.079 176.228 502.214 175.801C508.554 155.848 507.614 135.41 498.017 115.879C494.918 109.573 490.857 103.374 486.029 97.6385C530.379 115.44 570.185 142.322 602.07 175.617C619.053 193.351 633.893 212.728 645.963 233.317C643.549 232.654 641.115 232.361 639.164 232.478C627.579 233.174 619.748 242.586 615.309 251.322C613.497 254.89 619.974 258.057 622.419 255.01C626.497 249.926 630.311 243.477 637.224 241.167C643.079 239.21 647.319 241.366 651.972 244.077C659.515 258.368 665.722 273.189 670.35 288.421C671.016 289.959 671.696 291.489 672.371 293.022C674.905 298.405 677.438 303.787 679.953 309.175C681.596 312.703 683.233 316.233 684.838 319.774C685.792 321.703 686.783 323.62 687.759 325.542C688.921 325.871 690.126 325.973 691.189 325.798C691.138 322.357 691.043 318.909 690.854 315.459ZM185.342 91.0265C188.733 89.4795 192.165 87.9955 195.623 86.5525C195.686 86.6325 195.756 86.7085 195.823 86.7865C192.304 88.1515 188.808 89.5625 185.342 91.0265Z" fill="#132573"/>
<path d="M380.434 174.77C379.686 160.667 368.311 147.013 353.015 143.177C350.034 142.429 346.943 142.092 343.859 142.124C328.325 139.21 313.408 145.663 305.654 157.785C297.913 169.886 300.28 186.853 310.625 197.704C321.455 209.064 339.942 213.278 355.173 208.711C370.862 204.007 381.229 189.749 380.434 174.77Z" fill="#132573"/>
<path d="M481.942 245.429C469.696 264.747 456.811 282.401 436.85 295.854C416.96 309.258 394.861 318.239 370.163 322.23C320.454 330.263 270.911 315.538 232.536 285.011C211.247 268.075 193.5 246.138 184.268 221.956C184.242 221.888 184.091 221.908 184.116 221.983C199.353 267.672 237.133 304.349 286.884 321.162C336.102 337.795 389.62 330.045 431.626 304.12C454.004 290.309 476.522 270.417 486.057 247.022C486.987 244.741 483.19 243.46 481.942 245.429Z" fill="#132573"/>
<path d="M324.625 114.18C295.112 116.203 269.776 137.447 265.934 164.077C262.24 189.684 278.722 219.29 306.999 228.048C307.185 228.106 307.399 227.907 307.195 227.78C284.857 213.858 268.593 190.649 272.461 165.898C276.254 141.621 298.865 122.104 325.303 117.93C328.187 117.474 327.503 113.982 324.625 114.18Z" fill="#132573"/>
<path d="M373.121 118.401C372.97 118.372 372.947 118.558 373.092 118.592C406.407 126.489 429.154 157.693 424.394 187.907C419.471 219.158 387.509 239.794 352.797 236.088C349.245 235.709 348.52 240.118 352.113 240.615C389.709 245.813 424.828 222.59 430.041 188.761C435.206 155.242 409.461 125.366 373.121 118.401Z" fill="#132573"/>
<path d="M71.8879 225.602C45.9079 223.386 24.5609 242.817 26.7889 266.038C26.8029 266.182 27.0949 266.201 27.1039 266.051C28.5019 243.732 47.6219 228.861 71.9499 229.454C74.6219 229.52 74.4969 225.825 71.8879 225.602Z" fill="#132573"/>
<path d="M83.4188 238.11C59.7368 240.276 45.6408 263.601 49.0908 283.513C49.1128 283.637 49.3368 283.626 49.3268 283.497C48.5648 273.556 52.7518 264.035 59.8008 256.693C66.7378 249.469 75.2888 246.16 85.3598 243.767C89.3438 242.821 87.1238 237.771 83.4188 238.11Z" fill="#132573"/>
<path d="M104.555 253.427C97.5411 253.844 91.2541 259.982 87.7151 264.987C83.4211 271.061 82.0691 278.161 82.7451 285.394C82.7681 285.645 83.2991 285.679 83.2961 285.417C83.2111 278.679 85.8561 272.491 90.3941 267.293C92.4951 264.886 94.9701 262.766 97.8031 261.067C100.522 259.437 103.748 258.644 106.313 256.854C108.115 255.597 106.72 253.299 104.555 253.427Z" fill="#132573"/>
<path d="M96.1914 250.198C81.5944 248.536 69.0454 260.167 65.9534 271.951C65.9064 272.131 66.2674 272.221 66.3344 272.052C68.5674 266.414 72.7944 261.871 78.2504 258.544C83.8944 255.101 89.6374 254.501 96.2464 253.665C98.5354 253.376 98.6474 250.478 96.1914 250.198Z" fill="#132573"/>
<path d="M82.978 232.935C73.546 231.118 62.514 234.903 54.72 239.197C46.016 243.992 39.618 251.093 36.302 259.825C36.192 260.115 36.6519 260.264 36.8159 260.024C41.7419 252.823 48.518 246.791 56.669 242.576C65.179 238.175 73.568 237.872 83.036 236.595C85.544 236.256 85.4739 233.416 82.978 232.935Z" fill="#132573"/>
<path d="M127.181 271.008C120.444 270.415 113.602 274.778 109.03 278.701C103.378 283.55 100.123 289.686 98.94 296.682C98.898 296.933 99.389 297.069 99.473 296.823C101.575 290.689 105.472 285.302 110.815 281.11C115.974 277.064 122.237 276.096 127.888 273.118C128.933 272.568 128.307 271.107 127.181 271.008Z" fill="#132573"/>
<path d="M113.334 269.314C107.854 271.541 103.133 274.944 97.8553 277.503C97.5033 277.674 97.9283 278.086 98.2463 277.931C103.518 275.375 109.321 273.694 114.379 270.803C115.35 270.249 114.305 268.919 113.334 269.314Z" fill="#132573"/>
<path d="M148.561 288.396C140.967 288.938 134.17 295.279 130.546 300.857C126.159 307.611 125.127 315.331 127.531 323.017C127.628 323.328 128.21 323.33 128.16 322.973C127.151 315.745 129.208 308.394 133.757 302.522C138.176 296.817 143.929 294.938 150.137 291.469C151.94 290.461 150.365 288.268 148.561 288.396Z" fill="#132573"/>
<path d="M131.357 289.092C129.254 290.341 127.181 291.623 124.99 292.744C124.641 292.922 125.066 293.334 125.382 293.172C127.608 292.032 129.933 291.063 132.239 290.055C133.017 289.715 132.073 288.667 131.357 289.092Z" fill="#132573"/>
<path d="M652.958 293.462C651.221 282.729 644.893 268.795 633.941 262.929C631.44 261.589 627.537 263.459 629.79 266.143C633.192 270.197 637.48 273.436 640.62 277.752C644.222 282.701 647.032 288.029 648.529 293.77C651.66 305.783 649.139 318.345 642.717 328.84C642.615 329.007 642.943 329.16 643.059 329.017C651.358 318.806 655.039 306.315 652.958 293.462Z" fill="#132573"/>
<path d="M629.197 279.954C627.832 278.681 624.187 279.489 625.537 281.535C632.386 291.908 637.867 301.156 637.894 313.454C637.895 313.782 638.459 313.889 638.525 313.548C640.676 302.42 638.464 288.601 629.197 279.954Z" fill="#132573"/>
<path d="M605.648 291.257C603.52 290.573 601.831 292.547 603.61 294.048C608.27 297.979 612.956 300.733 616.442 305.791C619.963 310.899 622.271 317.128 621.999 323.103C621.986 323.393 622.511 323.482 622.551 323.186C624.092 311.832 619.459 295.698 605.648 291.257Z" fill="#132573"/>
<path d="M605.567 315.109C605.018 312.498 604.775 309.695 603.533 307.253C602.745 305.703 599.695 306.048 599.971 307.896C600.367 310.542 601.884 313.089 602.982 315.576C604.206 318.347 605.437 321.115 606.677 323.88C606.812 324.181 607.43 324.106 607.359 323.757C606.769 320.872 606.172 317.99 605.567 315.109Z" fill="#132573"/>
<path d="M611.85 286.479C610.423 286.403 608.795 288.081 610.551 289.017C615.518 291.665 620.252 293.787 623.945 297.986C628.012 302.608 630.038 308.621 629.829 314.39C629.82 314.629 630.274 314.792 630.362 314.531C634.012 303.756 626.026 287.238 611.85 286.479Z" fill="#132573"/>
<path d="M584.096 303.677C582.396 302.955 579.889 304.812 581.543 306.289C585.461 309.785 589.671 312.602 592.848 316.777C596.122 321.079 597.934 326.037 599.688 330.929C599.843 331.361 600.702 331.309 600.75 330.859C601.812 320.975 594.422 308.062 584.096 303.677Z" fill="#132573"/>
<path d="M574.904 315.653C572.864 314.954 571.523 317.274 573.573 318.219C578.11 320.31 582.22 323.489 583.121 328.276C583.184 328.609 583.767 328.575 583.75 328.232C583.485 323.111 580.644 317.621 574.904 315.653Z" fill="#132573"/>
<path d="M561.924 328.936C560.782 327.321 559.455 325.855 557.786 324.658C556.971 324.073 555.692 324.901 556.402 325.729C557.71 327.255 559.377 328.474 561.149 329.536C561.644 329.833 562.274 329.432 561.924 328.936Z" fill="#132573"/>
</g>
</svg>
