<svg width="40" height="40" viewBox="0 0 40 40" fill="none" xmlns="http://www.w3.org/2000/svg">
<g opacity="0.12">
<path opacity="0.67" d="M36.4844 16.4844H23.5156V3.51562C23.5156 1.57398 21.9416 0 20 0C18.0584 0 16.4844 1.57398 16.4844 3.51562V16.4844H3.51562C1.57398 16.4844 0 18.0584 0 20C0 21.9416 1.57398 23.5156 3.51562 23.5156H16.4844V36.4844C16.4844 38.426 18.0584 40 20 40C21.9416 40 23.5156 38.426 23.5156 36.4844V23.5156H36.4844C38.426 23.5156 40 21.9416 40 20C40 18.0584 38.426 16.4844 36.4844 16.4844Z" fill="#2D3928"/>
</g>
</svg>
