<svg width="125" height="148" viewBox="0 0 125 148" fill="none" xmlns="http://www.w3.org/2000/svg">
<path d="M123.519 38.592C123.444 34.6503 123.372 30.9264 123.372 27.3243C123.372 24.5018 121.085 22.214 118.262 22.214C96.4073 22.214 79.7679 15.9326 65.8979 2.44702C63.9138 0.517212 60.7564 0.518112 58.7729 2.44702C44.9045 15.9326 28.2677 22.214 6.41438 22.214C3.59191 22.214 1.30378 24.5018 1.30378 27.3243C1.30378 30.9273 1.2332 34.6524 1.15748 38.595C0.45716 75.2777 -0.50214 125.517 60.6615 146.718C61.204 146.906 61.7696 147 62.3351 147C62.9006 147 63.4667 146.906 64.0086 146.718C125.177 125.516 124.219 75.2756 123.519 38.592Z" fill="#D9D9D9" fill-opacity="0.11" stroke="white" stroke-miterlimit="10"/>
</svg>
