<svg width="162" height="40" viewBox="0 0 162 40" fill="none" xmlns="http://www.w3.org/2000/svg">
<path d="M0.179049 8.63309C0.552596 5.14373 2.67305 0 2.67305 0C2.67305 0 2.60963 1.87249 2.67305 3.06954C2.76499 4.80488 2.82039 5.79782 3.24859 7.48201C3.64292 9.03298 3.64579 10.1041 4.68744 11.3189C5.53281 12.3049 6.50985 13.0456 7.46909 13.1415C8.42832 13.2374 8.71635 13.2374 9.77137 13.1415C10.8264 13.0456 11.6138 12.5111 12.745 11.9904C14.7292 11.0771 15.6 10.1143 17.5412 9.11271C19.6437 8.02781 23.1047 6.71463 23.1047 6.71463C23.1047 6.71463 21.3433 7.79626 20.3229 8.63309C18.6628 9.99461 17.819 10.9071 16.5819 12.6619C15.0275 14.8667 14.3658 16.3078 13.6083 18.8969C12.8763 21.3987 12.6914 22.9095 12.745 25.5156C12.8014 28.2558 13.1902 29.8012 13.992 32.4221C14.948 35.547 17.5412 40 17.5412 40C17.5412 40 15.3214 38.5559 13.992 37.506C11.9331 35.88 10.856 34.8509 9.09991 32.9017C6.98357 30.5526 5.86728 29.127 4.30375 26.3789C2.52531 23.253 1.66615 21.3444 0.850512 17.8417C0.0327491 14.3299 -0.204763 12.2184 0.179049 8.63309Z" fill="#00001B"/>
<path d="M19.5555 27.3381V22.1583H24.5436V17.0743H30.3949V22.1583H35.191V27.3381H30.3949V32.4221H24.5436V27.3381H19.5555Z" fill="#00001B"/>
<path d="M26.2739 8.02886C24.259 8.31752 21.3477 9.73491 21.3477 9.73491C21.3477 9.73491 23.632 9.36159 25.1095 9.28595C26.2274 9.22872 26.8633 9.16156 27.9757 9.28595C29.3753 9.44245 30.1687 9.64113 31.4688 10.1839C33.2152 10.9129 34.1131 11.5872 35.4993 12.8776C36.7202 14.0142 37.3585 14.7503 38.1863 16.1999C39.1426 17.8745 39.4346 18.9743 39.7985 20.8691C40.2813 23.3827 40.43 24.9436 39.7985 27.4239C39.1792 29.8563 38.388 31.1792 36.7532 33.0808C35.5048 34.533 34.6372 35.2471 32.9914 36.2235C31.1911 37.2916 30.0491 37.8303 27.9757 38.1091C26.2046 38.3473 25.1441 38.2633 23.4078 37.8398C22.3973 37.5933 21.8926 37.2526 20.8999 36.9418C19.8633 36.6173 18.2129 36.2235 18.2129 36.2235C18.2129 36.2235 19.2737 37.0373 20.0042 37.4806C21.0347 38.106 21.6529 38.4036 22.7808 38.8275C24.0995 39.323 24.8785 39.535 26.2739 39.7254C27.9029 39.9476 28.8598 39.983 30.4836 39.7254C31.7411 39.5259 32.4313 39.2888 33.6184 38.8275C35.0918 38.2549 35.8975 37.8373 37.2011 36.9418C38.997 35.7081 40.0049 34.8839 41.2316 33.0808C42.0249 31.9148 42.3512 31.1704 42.8438 29.8483C43.6768 27.6123 43.9448 26.2189 43.9186 23.8322C43.8939 21.5835 43.647 20.2751 42.8438 18.1753C42.3509 16.8867 41.9855 16.1874 41.2316 15.0326C40.0926 13.2879 39.3095 12.3374 37.6489 11.0818C36.0254 9.85418 34.9291 9.36586 32.9914 8.7472C30.4776 7.94457 28.8856 7.65471 26.2739 8.02886Z" fill="#00001B"/>
<circle cx="10.0588" cy="5.2766" r="3.93285" fill="#00001B"/>
<path d="M60.0159 19.432L59.0079 28H54.7359L57.4479 10.36L64.5999 20.608L71.7759 10.36L74.4879 28H70.2159L69.2079 19.432L64.5999 26.44L60.0159 19.432ZM79.7589 28V24.664H88.2309V28H79.7589ZM79.7589 14.536V11.2H88.2309V14.536H79.7589ZM79.7589 20.8V17.536H87.7509V20.8H79.7589ZM77.0709 11.2H80.9589V28H77.0709V11.2ZM91.5319 11.2H95.7079V28H91.5319V11.2ZM97.5319 28H94.2199V24.4H97.3879C98.0279 24.4 98.6439 24.32 99.2359 24.16C99.8439 24 100.372 23.736 100.82 23.368C101.284 23 101.652 22.512 101.924 21.904C102.196 21.28 102.332 20.512 102.332 19.6C102.332 18.688 102.196 17.928 101.924 17.32C101.652 16.696 101.284 16.2 100.82 15.832C100.372 15.464 99.8439 15.2 99.2359 15.04C98.6439 14.88 98.0279 14.8 97.3879 14.8H94.2199V11.2H97.5319C99.3719 11.2 100.964 11.544 102.308 12.232C103.652 12.92 104.692 13.888 105.428 15.136C106.164 16.384 106.532 17.872 106.532 19.6C106.532 21.312 106.164 22.8 105.428 24.064C104.692 25.312 103.652 26.28 102.308 26.968C100.964 27.656 99.3719 28 97.5319 28ZM109.133 11.2H113.261V28H109.133V11.2ZM126.037 11.2H131.053L125.773 19.384L131.413 28H126.397L123.325 22.408L120.157 28H115.141L120.901 19.384L115.741 11.2H120.757L123.349 16.072L126.037 11.2ZM135.914 24.76L136.202 21.664H144.53L144.794 24.76H135.914ZM140.306 17.368L137.954 22.792L138.146 23.68L136.058 28H131.474L140.306 10.144L149.162 28H144.554L142.538 23.848L142.682 22.816L140.306 17.368ZM150.922 11.2H154.978V24.52H161.722V28H150.922V11.2Z" fill="#00001B"/>
</svg>
