<?xml version="1.0" encoding="utf-8"?>
<!-- Generator: Adobe Illustrator 24.0.0, SVG Export Plug-In . SVG Version: 6.00 Build 0)  -->
<svg version="1.1" id="Camada_1" xmlns="http://www.w3.org/2000/svg" xmlns:xlink="http://www.w3.org/1999/xlink" x="0px" y="0px"
	 viewBox="0 0 1300 1300" style="enable-background:new 0 0 1300 1300;" xml:space="preserve">
<style type="text/css">
	.st0{fill:#FDFDFF;}
	.st1{font-family:'StretchProRegular';}
	.st2{font-size:68.7528px;}
	.st3{fill:#EFA220;}
	.st4{font-size:71.4176px;}
	.st5{fill:#F5F5DC;}
	.st6{font-size:69.0478px;}
</style>
<g>
	<text transform="matrix(0.7234 0 0 1 589.9083 359.8629)" class="st0 st1 st2">Dr. MB</text>
	<text transform="matrix(0.9439 0 0 1 589.9082 433.6685)" class="st3 st1 st4">MEDICAL</text>
	<text transform="matrix(0.9005 0 0 1 584.5557 508.6836)" class="st5 st1 st6">SERVICES</text>
</g>
<g>
	<path class="st5" d="M416.85,363.95c-0.75,0-0.75-1.17,0-1.17C417.6,362.78,417.6,363.95,416.85,363.95z"/>
	<path class="st5" d="M419.12,361.29v-0.26c0-0.76,1.17-0.76,1.17,0v0.26C420.3,362.04,419.12,362.04,419.12,361.29z"/>
	<path class="st5" d="M421.99,358.68v-0.26c0-0.76,1.17-0.76,1.17,0v0.26C423.16,359.44,421.99,359.44,421.99,358.68z"/>
	<path class="st5" d="M425.18,356.93c-0.76,0-0.76-1.17,0-1.17C425.93,355.75,425.93,356.93,425.18,356.93z"/>
	<path class="st5" d="M483.22,369.55c0.76,0,0.76,1.17,0,1.17C482.47,370.72,482.47,369.55,483.22,369.55z"/>
	<path class="st5" d="M529.16,347.22c-0.23,0.17-0.48,0.34-0.75,0.5c-1.33,0.49-2.66,0.97-3.99,1.47
		C522.22,349.65,527.13,347.73,529.16,347.22z"/>
	<path class="st5" d="M383.37,322.5c1.4,4.64,4.09,8.66,7.03,12.46c3.3,4.28,6.77,8.37,9.86,12.81c4.89,7.02,9.68,14.01,14.98,20.66
		c-0.09,0.37,0.24,0.74,0.59,0.74c1.47,1.83,2.99,3.63,4.56,5.4c14.66,16.52,31.9,30.48,47.82,45.71c0.28,0.26,0.6,0.32,0.88,0.25
		c0.97,2.32,2.38,4.49,3.65,6.59c0.1,0.16,0.22,0.27,0.36,0.35c7.84,16.23-7.36,33.75-17.18,45.55c-0.72,0.87-1.44,1.75-2.15,2.63
		c-0.07,0.04-0.14,0.07-0.2,0.11c-0.3,0.18-0.43,0.44-0.46,0.71c-1.38,1.73-2.74,3.47-4.06,5.23c-0.48,0.32-5.4,7.62-7,10.18
		c-0.29,0.34-0.57,0.72-0.81,1.15c-0.07,0.13-0.11,0.25-0.12,0.37c-5.95,9.87-10.4,20.5-12.07,32.29c-0.47,3.32-0.66,6.66-0.7,10.01
		c-0.01,0.75,1.5,0.87,1.5,0.87c12.99,4.39,27.29,6.35,41.03,5.55c7.11-0.41,13.8-2.09,20.39-4.77c7.08-2.88,13.96-6.23,21.22-8.66
		c2.13-0.49,2.23-0.45,2.59-1.55c3.01-9.15-0.65-17.41-3.67-26.43c-1.81-5.42-2.99-10.77-2.75-16.53c0.25-5.8,1.99-11.45,4.06-16.83
		c3.35-8.7,8.9-17.59,18.31-20.46c4.62-1.41,9.34-0.42,14.06-0.45c3.78-0.02,8.28-1.02,9.66-5c0.5-1.45,0.27-3.14,0.06-4.62
		c-0.13-0.89-0.27-1.77-0.38-2.66c-0.06-0.55-0.35-2.23,0.01-2.68c0.2-0.25,0.26-0.53,0.22-0.78c2.81-0.49,3.71-3.86,3.97-6.41
		c0.02-0.19-0.01-0.34-0.07-0.47c1.34-2.45,0.36-6.19-0.22-9c1.12-0.31,2.12-0.72,2.82-1.16c3.87-2.46,0.01-8.44-1.59-11.08
		c-3.21-5.33-6.61-10.41-7.33-16.77c-0.41-3.68-0.31-7.12-1.36-10.73c-0.99-3.36-2.67-6.31-4.33-9.34c0.31-0.15,0.61-0.31,0.92-0.46
		c0.36-0.18,0.6-0.72,0.45-1.1c-2.54-6.31-5.46-12.45-8.65-18.44c-1.8-5.34-3.65-10.67-5.51-15.99c0.28-0.28-2.13-6.12-2.67-7.68
		c-2.94-8.46-5.57-17.04-8.76-25.42c-2.1-5.52-4.54-10.88-6.61-16.41c-0.63-1.68-1.19-3.56-2.21-5.06
		c-0.59-0.88-0.59-0.88-1.59-0.99c-3.47-0.72-7.98-0.33-10.89-0.13c-6.98,0.48-13.91,1.91-20.73,3.41
		c-6.71,1.48-13.37,3.2-20.03,4.94c-5.46,1.43-10.95,2.7-16.36,4.33c-11.68,3.51-23.13,8.07-33.91,13.78
		c-9.43,5-20.99,11.92-26.89,21.08c-0.08,0.13,0,0-0.02,0.12C382.48,321.56,383.12,321.69,383.37,322.5z M524.73,309.09
		c-1.03-0.89-2.19-1.6-3.35-2.02c-2.44-0.88-4.58,0.56-5.21,2.67c-0.13-1.45-0.09-3.43,1.17-4.39c1.71-1.3,4.43-0.31,6.28,0.45
		C523.99,306.9,524.36,308,524.73,309.09z M454.85,327.95c0.42-0.21,0.84-0.43,1.27-0.64c0.07,0.54,0.21,1.07,0.4,1.58
		c-3.18,5.21-5.91,10.72-9.37,15.74c-2.46,3.57-5.62,7.47-6.32,11.9c-0.64-0.95-1.28-1.9-1.92-2.85c0.26,0.17,0.63,0.18,0.83-0.17
		c4.85-8.44,9.36-17.1,15.1-24.99C454.99,328.31,454.97,328.11,454.85,327.95z M448.09,331.35c1.68-0.85,3.39-1.7,5.14-2.58
		c-5.46,7.66-9.82,16.01-14.5,24.15c-0.08,0.13-0.09,0.26-0.07,0.38c-0.45-0.67-0.91-1.33-1.36-2c2.75-6.89,6.88-13.12,10.77-19.4
		C448.19,331.71,448.18,331.51,448.09,331.35z M436.03,351.51c0.02,0.15,0.11,0.26,0.23,0.33c1.35,1.99,2.71,3.98,4.04,5.98
		c-0.78,0.49-1.56,0.99-2.34,1.5c-3.31-5.72-7.3-10.99-11.05-16.43c0.79-0.49,1.57-0.95,2.33-1.4
		C431.49,344.85,433.76,348.18,436.03,351.51z M430.84,341.77c-0.19-0.29-0.39-0.58-0.58-0.86c0.41-0.24,0.8-0.46,1.21-0.7
		C431.24,340.72,431.04,341.25,430.84,341.77z M430.12,358.13c-2.43-4.26-5.32-8.28-9.02-11.45c0.76-0.53,1.52-1.04,2.28-1.54
		c3.16,5.87,7.4,11.07,11.12,16.6c-0.6,0.44-1.19,0.88-1.78,1.34c-0.66-1.36-1.36-2.72-2.1-4.06
		C430.93,358.65,430.56,358.15,430.12,358.13z M424.36,344.51c0.52-0.34,1.04-0.66,1.56-0.99c3.76,5.44,7.75,10.73,11.07,16.47
		c-0.52,0.35-1.03,0.71-1.55,1.07C431.73,355.56,427.51,350.36,424.36,344.51z M431.6,342.9c0.05-0.05,0.1-0.12,0.13-0.2
		c0.48-1.22,0.91-2.49,1.64-3.59c0.64-0.36,1.28-0.72,1.92-1.08c-1.08,2-2.08,4.03-2.79,6.2C432.2,343.79,431.9,343.35,431.6,342.9z
		 M437.13,337.11c0.02-0.03,0.03-0.07,0.04-0.1c1.12-0.61,2.24-1.2,3.35-1.79c-2.62,3.46-4.46,7.59-6.37,11.47
		c-0.34-0.5-0.68-1.01-1.02-1.52c0.18-0.04,0.34-0.17,0.41-0.39C434.41,342.08,435.76,339.58,437.13,337.11z M442.51,334.63
		c0.14-0.16,0.17-0.34,0.14-0.51c1.29-0.67,2.59-1.33,3.9-1.99c-3.64,5.83-7.39,11.66-10.04,18.02c-0.53-0.78-1.06-1.56-1.6-2.35
		C437.13,343.33,439.2,338.4,442.51,334.63z M457.11,330.19c0.11,0.21,0.23,0.42,0.35,0.63c-0.02,0.04-0.04,0.08-0.05,0.12
		c-2.54,8.39-8.67,15.02-11.71,23.17c-0.07,0.2-0.04,0.36,0.06,0.48c-1.27,0.72-2.53,1.46-3.78,2.22c0.65-4.61,4.28-8.79,6.81-12.49
		C451.86,339.82,454.31,334.87,457.11,330.19z M459.38,347.55c-1.03,0.48-2.05,0.97-3.07,1.47c1.96-3.55,3.89-7.1,5.8-10.68
		c0.42,0.9,0.8,1.82,1.15,2.75c-0.02,0.03-0.04,0.07-0.06,0.11C462.22,343.5,460.56,345.38,459.38,347.55z M463.8,342.65
		c0.28,0.84,0.54,1.69,0.79,2.55c-1.11,0.49-2.22,0.98-3.33,1.49C462.13,345.34,463.07,344.06,463.8,342.65z M454.47,349.93
		c-0.89,0.45-1.78,0.9-2.66,1.36c3.03-5.35,5.54-10.97,8.41-16.39c0.45,0.71,0.86,1.43,1.25,2.16
		C459.17,341.37,456.84,345.66,454.47,349.93z M449.85,352.33c-0.94,0.5-1.88,1.02-2.81,1.54c3-7.62,8.6-13.97,11.22-21.79
		c0.4,0.59,0.82,1.17,1.21,1.73C456.19,339.93,453.42,346.34,449.85,352.33z M457.22,326.76c0.57-0.28,1.14-0.55,1.72-0.81
		c0.01,0.07,0.04,0.15,0.09,0.23c3.53,5.43,7.59,11.05,9.32,17.39c-0.74,0.32-1.48,0.64-2.23,0.96c-0.15,0.06-0.3,0.13-0.45,0.2
		c-0.74-2.61-1.59-5.32-2.83-7.75c0.02-0.04,0.04-0.07,0.06-0.11c0.25-0.48-0.19-0.92-0.6-0.88c-0.12-0.22-0.25-0.43-0.38-0.64
		c-1.19-1.89-3.18-4.02-4.13-6.28c0.05-0.09,0.11-0.18,0.16-0.27c0.28-0.45-0.13-0.87-0.54-0.87c-0.08-0.33-0.14-0.66-0.16-0.99
		C457.25,326.87,457.24,326.81,457.22,326.76z M459.97,325.5c0.89-0.39,1.79-0.76,2.7-1.11c3.52,5.53,6.86,11.53,8.79,17.79
		c0,0.02,0.01,0.03,0.02,0.04c-0.68,0.29-1.36,0.58-2.04,0.88c-1.78-6.37-5.84-12.04-9.4-17.51
		C460.02,325.56,459.99,325.53,459.97,325.5z M463.79,323.96c0.88-0.33,1.77-0.64,2.66-0.95c1.27,2.04,2.44,4.14,3.54,6.27
		c-0.17,0.37,0.03,0.87,0.43,0.86c1.73,3.43,3.3,6.95,4.83,10.48c-0.9,0.38-1.8,0.76-2.69,1.14
		C470.6,335.5,467.3,329.5,463.79,323.96z M475.19,337.57c-0.32-0.73-0.65-1.45-0.97-2.17c9.87-3.48,20.43-4.54,30.18-8.4
		c0.12,0.39,0.23,0.78,0.33,1.18c-0.02,0-0.03,0-0.05,0.01c-5.59,1.29-11.06,3.01-16.46,4.95
		C483.89,334.68,479.11,335.04,475.19,337.57z M475.71,338.63c3.84-2.52,8.57-2.83,12.81-4.37c5.39-1.95,10.87-3.66,16.46-4.95
		c0,0,0.01,0,0.01,0c0.09,0.42,0.17,0.84,0.24,1.26c-3.35,0.97-6.71,1.94-10.08,2.86c-6.39,1.75-12.65,4.16-18.83,6.74
		c-0.22-0.51-0.44-1.01-0.67-1.52C475.68,338.64,475.69,338.64,475.71,338.63z M503.51,324.39c0.19,0.49,0.37,0.99,0.53,1.49
		c-9.8,3.87-20.41,4.92-30.32,8.45c-0.27-0.58-0.54-1.15-0.81-1.72c9.64-4.05,20.07-5.84,30.24-7.98
		C503.33,324.59,503.45,324.5,503.51,324.39z M502.85,323.5c-10.26,2.15-20.72,3.99-30.43,8.06c-0.3-0.62-0.59-1.23-0.9-1.84
		c9.74-4.09,19.8-8.11,30.45-8.71c0.04,0,0.07-0.01,0.1-0.02c0.39,0.83,0.76,1.68,1.11,2.53
		C503.08,323.49,502.97,323.47,502.85,323.5z M467.59,322.64c5.38-1.75,10.92-3.07,16.43-4.27c5.02-1.09,10.06-2.05,15.11-2.95
		c0.31,0.55,0.62,1.1,0.92,1.65c-10.47,1.64-21.11,3.93-30.64,8.7C468.83,324.71,468.23,323.67,467.59,322.64z M500.64,318.15
		c0.3,0.57,0.6,1.14,0.88,1.72c-10.68,0.7-20.76,4.71-30.54,8.81c-0.33-0.64-0.66-1.27-1-1.9
		C479.51,322.02,490.19,319.78,500.64,318.15z M500.36,315.2c0.65-0.11,1.29-0.23,1.94-0.34c2.82,4.55,4.84,9.6,6.18,14.78
		c-0.71,0.2-1.41,0.41-2.12,0.61C505.46,324.87,503.02,319.92,500.36,315.2z M503.54,314.64c0.61-0.11,1.21-0.21,1.82-0.32
		c2.14,4.79,4.56,9.46,6.3,14.41c-0.44,0.12-0.87,0.24-1.31,0.36c-0.25,0.07-0.5,0.14-0.75,0.22
		C508.27,324.19,506.28,319.17,503.54,314.64z M506.54,314.12c1-0.17,1.99-0.35,2.99-0.52c1.8,4.84,4.13,9.46,6.27,14.16
		c-1.01,0.21-2.01,0.44-3.01,0.69C511.06,323.52,508.68,318.87,506.54,314.12z M521.48,325.13c0.54,0.56,1.09,1.11,1.66,1.65
		c-2.08,0.1-4.13,0.36-6.16,0.74c-0.09-0.2-0.18-0.39-0.27-0.59c1.56-0.22,3.15-0.29,4.55-1.06
		C521.58,325.7,521.61,325.38,521.48,325.13z M516.2,325.83c-0.22-0.48-0.45-0.97-0.68-1.45c0.04,0,0.09-0.01,0.13-0.01
		c1.38-0.29,2.72-0.74,4.04-1.25c0.49,0.6,1,1.18,1.53,1.74c-0.16-0.09-0.35-0.11-0.55,0.01
		C519.31,325.61,517.7,325.61,516.2,325.83z M517.91,320.6c0.33,0.54,0.67,1.06,1.04,1.55c-1.18,0.44-2.37,0.83-3.6,1.09
		c-0.12,0.03-0.22,0.08-0.29,0.15c-0.23-0.49-0.46-0.98-0.69-1.47C515.54,321.46,516.73,321.05,517.91,320.6z M513.88,320.86
		c-0.28-0.6-0.55-1.19-0.82-1.79c1.16-0.41,2.37-0.65,3.58-0.88c0.17,0.37,0.35,0.73,0.52,1.07c0.05,0.11,0.11,0.21,0.17,0.32
		C516.18,320.01,515.02,320.41,513.88,320.86z M510.69,313.39c1.17-0.21,2.33-0.41,3.5-0.62c0.15-0.03,0.27-0.08,0.37-0.15
		c0.12,0.48,0.26,0.96,0.41,1.44c-1.24,0.22-2.47,0.51-3.58,1.12C511.16,314.58,510.92,313.99,510.69,313.39z M515.36,315.17
		c0.24,0.66,0.5,1.3,0.78,1.92c-1.2,0.24-2.4,0.48-3.55,0.9c-0.25-0.58-0.5-1.15-0.74-1.73c0.02-0.01,0.03-0.01,0.05-0.02
		C512.96,315.64,514.16,315.38,515.36,315.17z M517.93,310.11c0.12-0.75,0.7-1.29,2.07-1.32c0.62-0.02,1.26,0.18,1.89,0.52
		C520.57,309.58,519.24,309.82,517.93,310.11z M523.2,310.22c0.36,0.31,0.71,0.66,1.04,1.02c-1.72,0.89-3.65,1.11-5.49,1.66
		c-0.3-0.54-0.56-1.1-0.71-1.63C519.75,310.89,521.48,310.6,523.2,310.22z M526.3,314.65c-0.01,0-0.02,0-0.03,0
		c-1.84,0.26-3.68,0.53-5.5,0.93c-0.1-0.1-0.2-0.2-0.3-0.3c-0.29-0.3-0.68-0.78-1.08-1.35c1.89-0.54,3.84-0.8,5.59-1.76
		C525.61,313.03,526.08,313.91,526.3,314.65z M527.5,317.37c-1.16,0.41-2.37,0.66-3.53,1.07c-0.71-0.64-1.45-1.25-2.17-1.89
		c1.58-0.32,3.18-0.55,4.78-0.78c0.15-0.02,0.25-0.08,0.32-0.17C527.11,316.2,527.3,316.78,527.5,317.37z M528.59,320.61
		c-0.07-0.01-0.15,0-0.23,0.03c-0.61,0.2-1.23,0.37-1.87,0.45c-0.15-0.16-0.29-0.32-0.43-0.49c-0.34-0.43-0.72-0.84-1.12-1.24
		c0.97-0.3,1.97-0.54,2.93-0.88C528.11,319.19,528.35,319.9,528.59,320.61z M529.64,323.7c-0.69-0.53-1.41-1.06-2.09-1.62
		c0.38-0.09,0.75-0.19,1.12-0.31c0.11-0.04,0.19-0.09,0.26-0.16C529.16,322.3,529.4,323,529.64,323.7z M534.14,336.7
		c-2.69-5.38-9.61-10.61-12.72-14.35c-1.82-2.19-3.31-4.97-4.25-7.85c1.37,2.09,3.64,3.88,5.27,5.34c1.31,1.17,2.49,2.48,3.82,3.63
		c1.66,1.44,3.4,2.64,4.77,4.27C532.07,330.73,533.11,333.71,534.14,336.7z M536.83,344.53c-1.3,0.52-2.61,1.02-3.92,1.52
		c2.06-2.1,2.61-4.3,2.22-6.51C535.7,341.2,536.27,342.86,536.83,344.53z M544.17,360.19c-7.37,2.21-14.98,4.57-22.08,7.84
		c-0.27-0.04-0.56,0.08-0.65,0.31c-2.99,1.41-5.89,3-8.63,4.81c-0.28-0.52-0.48-1.22-0.69-1.67c-0.31-0.65-0.51-1.3-0.96-1.87
		c-0.16-0.2-0.45,0.08-0.29,0.29c0.52,0.65,0.78,1.51,1.14,2.26c0.19,0.39,0.29,0.82,0.47,1.21c-0.43,0.28-0.85,0.57-1.27,0.87
		c-0.09-0.24-0.18-0.47-0.27-0.69c-0.23-0.57-0.42-1.17-0.75-1.71c-0.36-0.6-0.93-1.77-1-2.48c-0.03-0.26-0.43-0.26-0.4,0
		c0.13,1.3,1.06,2.35,1.42,3.56c0.16,0.53,0.37,1.07,0.59,1.61c-0.52,0.38-1.04,0.76-1.54,1.15c-0.18-0.73-0.4-1.45-0.64-2.15
		c-0.17-0.5-0.31-1-0.45-1.51c0.01-0.04,0.01-0.09-0.01-0.14c-0.03-0.07-0.06-0.15-0.1-0.22c-0.09-0.31-0.18-0.63-0.27-0.94
		c-0.15-0.5-0.33-1.1-0.68-1.51c-0.03-0.04-0.07-0.06-0.11-0.06c-0.41-1.01-0.78-2.04-1.05-3.08c-0.07-0.25-0.45-0.14-0.39,0.11
		c0.46,1.78,1.21,3.51,1.94,5.21c0.03,0.12,0.06,0.24,0.09,0.36c0.2,0.73,0.48,1.47,0.74,2.18c0.23,0.63,0.43,1.31,0.6,2.01
		c-0.27,0.21-0.54,0.42-0.81,0.64c-0.58-3.93-2.43-7.68-4.35-11.15c-0.02-0.04-0.04-0.07-0.07-0.1c0.07-0.06,0.15-0.11,0.21-0.16
		c0.71-0.51,1.47-1.02,2.1-1.64c0.54-0.53-0.28-1.35-0.83-0.83c-0.53,0.51-1.15,0.93-1.74,1.36c-0.36,0.26-0.73,0.52-1.11,0.77
		c-0.12,0.08-0.25,0.16-0.37,0.24c-0.1,0.06-0.22,0.1-0.17,0.09c-0.74,0.13-0.43,1.25,0.31,1.13c0.21-0.04,0.43-0.14,0.64-0.27
		c2.56,4.65,5.16,9.92,4.16,15.36c-0.35,0.25-0.71,0.51-1.06,0.76c0.24-5.9-3.12-12.17-6.05-17.05
		c10.28-9.99,24.65-13.5,37.62-18.71c0.02,0.04,0.04,0.08,0.06,0.12c0.18,0.52,0.35,1.04,0.53,1.57c0.11,0.34,0.35,0.54,0.62,0.62
		C540.61,352.46,542.46,356.29,544.17,360.19z M508.26,377.97c0.27-0.23,0.54-0.45,0.81-0.67c0.12,0.57,0.17,1.15,0.3,1.72
		c0.01,0.15,0.02,0.29,0.02,0.43c0,0.07,0.03,0.11,0.07,0.15c-0.41,0.28-0.82,0.56-1.23,0.85
		C508.31,379.61,508.31,378.79,508.26,377.97z M511.15,375.71c0.19,0.8,0.39,1.59,0.64,2.37c-0.42,0.26-0.84,0.52-1.25,0.79
		c-0.2-0.78-0.22-1.6-0.46-2.38C510.43,376.23,510.79,375.97,511.15,375.71z M513.55,374.04c0.25,0.86,0.54,1.71,0.75,2.58
		c-0.18,0.1-0.37,0.19-0.55,0.29c-0.31,0.17-0.62,0.36-0.93,0.54c-0.25-0.82-0.45-1.65-0.65-2.49
		C512.62,374.65,513.09,374.35,513.55,374.04z M516.08,372.48c0.27,0.94,0.58,1.86,0.82,2.8c-0.51,0.25-1.02,0.51-1.53,0.77
		c-0.24-0.9-0.54-1.78-0.79-2.67C515.08,373.07,515.58,372.78,516.08,372.48z M518.98,370.88c0.43,0.97,0.64,2.01,0.85,3.04
		c-0.62,0.28-1.24,0.56-1.85,0.85c-0.26-0.97-0.59-1.92-0.85-2.89C517.74,371.54,518.36,371.2,518.98,370.88z M531.67,369.26
		c-0.68,0.29-1.35,0.56-2.01,0.81c-0.5-1.12-1.09-2.18-1.64-3.27c0.73-0.28,1.46-0.56,2.19-0.83
		C530.81,367.02,531.27,368.12,531.67,369.26z M531.32,365.56c0.8-0.29,1.6-0.56,2.4-0.84c0.35,1.06,0.67,2.13,1.03,3.19
		c-0.67,0.3-1.34,0.6-2.01,0.88C532.35,367.68,531.89,366.6,531.32,365.56z M528.57,370.47c-0.56,0.2-1.12,0.4-1.68,0.61
		c-0.29-1.17-0.83-2.25-1.62-3.16c0.55-0.23,1.11-0.46,1.67-0.68c0.01,0.02,0.02,0.05,0.03,0.07
		C527.5,368.36,528.1,369.39,528.57,370.47z M525.79,371.49c-0.6,0.23-1.21,0.46-1.81,0.69c-0.41-1.05-0.78-2.12-1.18-3.18
		c0.45-0.21,0.9-0.4,1.35-0.6c0.01,0.02,0.03,0.04,0.05,0.06C525.01,369.31,525.52,370.36,525.79,371.49z M522.89,372.61
		c-0.66,0.27-1.32,0.54-1.98,0.83c-0.22-1.06-0.47-2.1-0.9-3.1c0.57-0.29,1.14-0.57,1.72-0.84
		C522.13,370.54,522.5,371.58,522.89,372.61z M541.25,365.26c-0.8,0.27-1.6,0.58-2.41,0.9c-0.47-0.89-0.9-1.8-1.41-2.67
		c0.67-0.22,1.34-0.42,2.01-0.63c0.03,0.05,0.06,0.09,0.1,0.14C540.21,363.68,540.79,364.44,541.25,365.26z M540.66,362.48
		c0.43-0.13,0.86-0.26,1.29-0.39c0.5,0.83,1.01,1.65,1.39,2.54c-0.32,0.09-0.64,0.18-0.97,0.27
		C541.91,364.03,541.33,363.22,540.66,362.48z M537.76,366.61c-0.64,0.27-1.29,0.55-1.93,0.83c-0.35-1.03-0.66-2.06-0.99-3.09
		c0.49-0.16,0.98-0.32,1.47-0.48c0.01,0.02,0.02,0.04,0.03,0.06C536.85,364.8,537.29,365.71,537.76,366.61z M545.75,363.94
		c-0.18,0.09-0.37,0.18-0.55,0.27c-0.23,0.04-0.47,0.08-0.7,0.13c-0.37-0.91-0.88-1.77-1.39-2.61c0.51-0.15,1.02-0.31,1.52-0.46
		C545.01,362.16,545.39,363.05,545.75,363.94z M556.88,422.97c-2.14,0.41-6.33,0.95-8.43,0.74c-0.4-0.04-0.79-0.06-1.17-0.05
		c1.25-0.65,2.51-1.34,3.8-1.88c0.34-0.04,0.69-0.09,1.03-0.11c0.55-0.04,1.04-0.26,1.56-0.43c0.19-0.06,0.37-0.09,0.55-0.12
		c0.16,0.13,0.39,0.17,0.62,0.03c0.07-0.04,0.14-0.08,0.21-0.11c0.13-0.01,0.27-0.02,0.41-0.04c0.5-0.08,1.06-0.19,1.61-0.27
		c0.13,0,0.26-0.01,0.4-0.01C557.57,421.95,557.45,422.86,556.88,422.97z M552.29,428.54c-1.99-0.55-3.84-1.75-5.59-2.93
		c1.68-0.22,3.61,0.33,5.16,0.51c1.57,0.19,3.2,0.23,4.6-0.4C555.99,427.82,554.88,429.25,552.29,428.54z M541.7,444.35
		c-8.7-3.64-18.47-6.73-27.51-9.31c-7.36-2.09-13.91-8.59-15.29-16.51c0.54-0.7,0.81-1.71,0.65-3.11c-0.14-1.24-2.09-1.25-1.95,0
		c0.24,2.07-0.71,2.65-2.02,2.53c-0.09-0.08-0.13-0.1-0.12-0.01c-1.64-0.19-3.78-1.42-4.86-2.18c-4.08-2.88-8.29-6.39-10.45-10.99
		c-1.18-2.5-3.09-7.52-0.28-9.61c2.01-1.49,4.91-0.58,6.8,0.6c2.02,1.26,3.53,3.34,4.81,5.3c0.69,1.05,2.38,0.07,1.69-0.99
		c-1.69-2.58-4.11-5.38-6.96-6.76c4.26-0.47,8.28-1.94,12.1-3.97c2.2-1.17,4.27-2.54,6.3-3.97c0.37,0.01,0.73-0.18,0.87-0.62
		c2.31-1.64,4.58-3.33,6.98-4.84c5.03-3.17,10.59-5.43,16.17-7.43c5.36-1.92,11.03-4.18,16.67-5.06c1.22,2.23,2.42,4.41,3.3,6.85
		c1.12,3.09,1.55,6.25,1.59,9.52c0.07,5.46,2.16,10.6,4.9,15.23c2.02,3.41,5.68,7.4,5.75,11.55c0.02,1.15-1.22,1.94-2.81,2.36
		c-0.02-0.01-0.04-0.01-0.06-0.01c-1.06,0-1.59-1.11-2.63-0.95c-0.65,0.1-1.21,0.48-1.79,0.82c-0.89,0.07-1.57,0.02-1.97-0.44
		c-0.82-0.96-2.2,0.43-1.38,1.38c1.27,1.48,4.2,0.61,6.25,1.41c0.29,1.33,0.65,2.94,0.87,4.34c-0.53,0-1.09,0.02-1.63,0.11
		c-0.09-0.07-0.21-0.12-0.36-0.11c-3.92,0.16-7.27,2.6-10.75,4.15c-0.02,0-0.03-0.01-0.05-0.01h-0.2c-0.07,0-0.12,0.03-0.15,0.08
		c-0.08-0.05-0.17-0.09-0.25-0.14c0-0.03,0-0.06,0-0.09c0-0.12-0.08-0.18-0.17-0.19c0.22-0.38,0.47-0.75,0.63-1.09
		c0.32-0.68-0.69-1.27-1.01-0.59c-0.37,0.77-1.01,1.52-1.18,2.35c-0.23,1.14-0.44,2.25-0.46,3.42c-0.02,0.76,1.16,0.75,1.17,0
		c0.01-0.55,0.07-1.09,0.15-1.62c0.33,0.47,1.52,0.75,1.52,0.75c0,0,0.01,0,0.01-0.01c2.46,1.65,5.18,3.61,8.17,4.11
		c-0.56,1.19-0.33,2.77-0.19,4.01c0.24,2.07,0.86,4.2,0.33,6.27c-1,3.95-6.89,3.83-10.99,3.52
		C541.64,444.33,541.63,444.33,541.7,444.35z M555.84,412.56c-0.11,0.01-0.21,0.02-0.31,0.03c-0.03-0.02-0.07-0.04-0.11-0.04h-0.2
		c-0.08,0-0.13,0.04-0.16,0.09c-0.18,0.02-0.36,0.05-0.54,0.07c0.13-0.06,0.26-0.12,0.4-0.17c0.51-0.18,0.81-0.14,1.13,0.01
		C555.98,412.57,555.92,412.56,555.84,412.56z M513.51,520.53c0.19-0.19,0.38-0.39,0.54-0.63c0.05,1.77-0.07,3.53-0.44,5.25
		C513.68,523.62,513.56,522.07,513.51,520.53z M510.8,519.55c-0.75-5.34-2.2-10.52-3.43-15.76c0.38,0.03,0.78,0.05,1.17,0.06
		c1.6,3.84,2.9,7.9,3.24,12.05c0.06,0.75,1.23,0.75,1.17,0c-0.34-4.2-1.61-8.29-3.21-12.18c0.06-0.04,0.11-0.08,0.16-0.12l0,0
		c0.16,0.13,0.33,0.23,0.51,0.32c1.07,3.26,2.11,6.53,2.83,9.89c0.12,0.54,0.22,1.08,0.32,1.63c-0.2,0.16-0.34,0.39-0.36,0.71
		C513.1,518.28,512.14,519.25,510.8,519.55z M506.57,511.02c0-0.77-0.17-1.5-0.22-2.26c-0.05-0.81-0.27-1.6-0.5-2.38
		c1.25,3.23,1.46,6.83,1.68,10.29c-2.24-1.57-5.11-1.99-7.36-3.6c-0.62-0.44-1.2,0.58-0.59,1.01c2.55,1.83,5.97,2.04,8.21,4.33
		c0.34,0.35,1.04,0.11,1-0.41c-0.11-1.56-0.2-3.15-0.35-4.74c0.48,2.12,0.9,4.25,1.2,6.4c-2.69-0.07-6.21-1.9-8.05-2.9
		c-1.19-0.65-2.42-1.35-3.65-2.09c0.33-4.58,0.98-9.22,0.39-13.78c1.6,0.97,3.25,1.69,4.97,2.19c0.34,0.66,0.51,1.44,0.66,2.15
		c0.19,0.91,0.48,1.79,0.62,2.7c0.12,0.81,0.29,1.58,0.33,2.38c-0.1,0.03-0.19,2.48-0.1,2.65c0.03,0.06,0.09,0.09,0.15,0.1
		c0.01,0.03,0.02,0.73,0.03,0.76c0.02,0.06,0.42,0.28,0.41-0.89c0-0.05-0.08-0.06-0.1-0.14c0.28-0.48,0.13-1.17-0.02-1.76
		c0.03-0.5,0.07-0.94,0.06-1.07c-0.06-0.94-0.24-1.98-0.47-2.89c-0.3-1.18-0.49-2.66-1.03-3.85c0.31,0.08,0.63,0.16,0.95,0.22
		c0.05,0.85,0.26,1.68,0.52,2.49c0.01,0.03,0.03,0.05,0.04,0.08c0.25,0.92,0.54,1.83,0.61,2.77c0.05,0.76,0.21,1.51,0.22,2.26
		c0.01,0.96-0.01,1.93-0.01,2.89c0,0.26,0.4,0.26,0.4,0C506.56,512.95,506.57,511.98,506.57,511.02z M496.04,499.5
		c0-0.07-0.01-0.13-0.03-0.19c0-0.02,0-0.04-0.01-0.06c0.09,0.07,0.18,0.14,0.27,0.21c0.25,0.19,0.51,0.37,0.76,0.55
		c0.81,4.6,0.17,9.3-0.2,13.94c-2.81-1.79-5.52-3.85-7.64-6.21c-0.76-0.85-1.51-1.71-2.24-2.57c0.1-0.07,0.18-0.17,0.22-0.31
		c1.07-3.76,2.05-7.54,2.6-11.42c1.18,1.26,2.39,2.48,3.66,3.64c0.03,0.48,0,0.98,0.04,1.3c0.1,0.97,0.18,1.9,0.17,2.88
		c0,1.13,0.11,2.35-0.07,3.47c-0.11,0.71-0.36,1.4-0.33,2.12c0.01,0.26,0.41,0.26,0.4,0c-0.03-1.05,0.39-2.06,0.4-3.12
		c0.01-1.11,0-2.22,0-3.32c0-0.97-0.09-1.97-0.18-2.93c0.14,0.12,0.28,0.25,0.42,0.37c-0.01,0.02-0.02,0.04-0.03,0.07
		c0,0.02,0,0.04,0,0.05c-0.13,0.01-0.25,0.15-0.18,0.3c0.18,0.38,0.11,0.81,0.36,1.16c0.1,0.14,0.31,0.12,0.37-0.05
		c0.01-0.04,0.02-0.08,0.03-0.13c0.05,0.25,0.04,0.51,0.04,0.77c0,0.04,0,0.08,0.01,0.12c0.06,3.15,0.34,6.3-0.09,9.43
		c-1.88-1.6-3.77-3.18-5.43-5.02c-0.51-0.56-1.33,0.27-0.83,0.83c1.9,2.11,4.11,3.87,6.25,5.73c0.3,0.26,0.89,0.21,0.98-0.26
		C496.48,507.09,496.07,503.3,496.04,499.5z M479.42,494.97c2.05,1.62,3.54,3.74,5.21,5.73c0.29,0.34,0.87,0.14,0.98-0.26
		c0.65-2.5,0.96-5.06,1.33-7.61c0.01-0.02,0.02-0.04,0.03-0.06c0.13-0.53,0.34-1.04,0.41-1.58c0.01-0.1,0.02-0.21,0.02-0.31
		c0.55,0.6,1.1,1.21,1.65,1.81c-0.2,0.02-0.38,0.15-0.41,0.42c-0.53,3.77-1.47,7.45-2.51,11.11c-2.83-3.36-5.56-6.8-8.52-10.01
		c0.05-0.04,0.09-0.08,0.13-0.13c1.94-2.87,2.35-6.31,3.5-9.5c1.32,1.18,2.58,2.43,3.81,3.74c-0.05,0.03-0.09,0.08-0.09,0.16
		c0.01,1.43,0.21,2.99-0.1,4.4c-0.26,1.2-0.52,2.41-0.7,3.63c-0.04,0.25,0.35,0.36,0.39,0.11c0.2-1.34,0.55-2.65,0.77-3.98
		c0.21-1.29,0.06-2.67,0.04-3.98c0.02,0.02,0.03,0.03,0.05,0.05c0.03,0.03,0.06,0.06,0.08,0.09v2.91c0,0.28,0.16,0.45,0.36,0.53
		c-0.34,2.27-0.61,4.55-1.11,6.79c-1.4-1.72-2.74-3.47-4.5-4.86C479.67,493.68,478.83,494.5,479.42,494.97z M469.91,485.69
		c2.44,1.17,4.4,3.13,6.04,5.26c0.29,0.38,0.93,0.4,1.07-0.14c0.48-1.84,1.11-3.62,1.83-5.38c0.12-0.07,0.21-0.18,0.25-0.35
		c0.12-0.5,0.18-1,0.19-1.5c0.07-0.17,0.13-0.34,0.19-0.51c0.28,0.22,0.55,0.45,0.82,0.68c-1.25,3.19-1.59,6.69-3.49,9.6
		c-2.24-2.35-4.62-4.57-7.29-6.52c-0.41-0.3-0.84-0.59-1.26-0.88c1.21-2.6,2.6-5.18,4.59-7.26c1.57,0.82,3.05,1.74,4.46,2.74
		c-0.02,0.66-0.82,2.47-0.89,2.63c-0.16,0.38-0.29,0.79-0.36,1.2c-0.04,0.22-0.04,0.47-0.07,0.71c-0.07,0.22-0.13,0.43-0.2,0.64
		c-0.02,0.03-0.04,0.06-0.06,0.09c-0.07,0.07-0.07,0.16-0.03,0.23c-0.01,0.02-0.01,0.04-0.02,0.06c-0.08,0.25,0.31,0.36,0.39,0.11
		c0.04-0.12,0.08-0.25,0.12-0.37c0.06-0.12,0.1-0.24,0.13-0.37c0.1-0.29,0.21-0.58,0.3-0.88c0.19-0.66,0.42-1.33,0.71-1.96
		c0.21-0.45,0.47-0.93,0.67-1.41c0.15,0.75,0.17,1.48,0.05,2.22c0,0.01-0.01,0.02-0.02,0.03c-0.7,1.65-1.32,3.32-1.83,5.04
		c-1.59-1.92-3.44-3.64-5.7-4.73C469.83,484.36,469.23,485.37,469.91,485.69z M460.47,481.59c1.84-0.4,3.81,1.07,5.28,2.02
		c0.35,0.23,0.73-0.02,0.86-0.35c0.89-2.15,2.34-4,3.95-5.66c0.4,0.17,0.8,0.35,1.19,0.54c-1.92,2.09-3.29,4.62-4.48,7.18
		c-2.97-1.84-6.22-3.26-9.6-4.13c1.8-2.05,4.05-3.66,6.02-5.56c1.43,0.17,2.86,0.51,4.26,0.97c-0.14,0.19-0.27,0.39-0.43,0.58
		c-0.26,0.31-0.59,0.56-0.84,0.88c-0.23,0.29-0.46,0.62-0.64,0.94c-0.1,0.19-0.21,0.76-0.45,0.79c-0.26,0.03-0.26,0.43,0,0.4
		c0.65-0.07,0.66-0.8,0.97-1.27c0.31-0.48,0.68-0.88,1.08-1.29c0.27-0.28,0.46-0.61,0.7-0.9c0.36,0.12,0.71,0.25,1.06,0.39
		c-1.44,1.54-2.7,3.22-3.6,5.12c-1.67-1.08-3.64-2.22-5.63-1.79C459.42,480.62,459.73,481.75,460.47,481.59z M452.46,487.61
		c-0.04,0.25,0.35,0.36,0.39,0.11c0.17-1.01,0.69-1.85,1.13-2.76c0.28-0.58,0.69-1.98,1.4-2.3c0.33,0.05,0.66,0.12,0.99,0.19
		c-1.78,1.94-2.83,4.31-3.8,6.72c-0.52-0.05-1.04-0.1-1.56-0.12c0.83-2.38,1.84-4.69,3.53-6.54c-0.28,0.4-0.5,0.9-0.64,1.23
		C453.4,485.29,452.67,486.35,452.46,487.61z M457.35,483.52c0.11-0.12,0.16-0.25,0.16-0.38c0.24,0.07,0.48,0.14,0.71,0.21
		c-1.6,1.33-2.24,3.37-3.11,5.22c-0.11,0.23,0.24,0.44,0.35,0.2c0.86-1.84,1.54-4.03,3.23-5.28c0.17,0.06,0.35,0.11,0.52,0.17
		c-0.03,0.02-0.06,0.04-0.08,0.07c-1.71,1.8-2.55,4.07-3.32,6.38c-0.67-0.15-1.35-0.29-2.03-0.39
		C454.67,487.48,455.65,485.29,457.35,483.52z M492.23,521.99c-0.01,0.26,0.39,0.26,0.4,0c0.04-1.29,0.73-2.46,1.1-3.68
		c0.35-1.17,0.79-2.37,0.9-3.59c0.43,0.31,0.88,0.62,1.34,0.94c-0.01,0.03-0.03,0.06-0.04,0.09c-0.92,3.35-2.12,6.61-3.13,9.93
		c-0.59-0.54-1.17-1.1-1.73-1.67c0.79-3.34,1.89-6.59,2.66-9.93c0.17,0.12,0.35,0.25,0.53,0.38c-0.01,0.02-0.02,0.04-0.02,0.06
		c-0.09,1.5-0.7,3.1-1.23,4.49C492.67,519.95,492.26,520.97,492.23,521.99z M490.12,522.99c-0.7-0.76-1.37-1.54-2.03-2.35
		c0.4-3.15,1.34-6.19,2.23-9.23c0.16,0.13,0.34,0.28,0.52,0.42c-0.02,0.06-0.01,0.13,0.04,0.19c0.43,0.49-0.06,1.38-0.2,1.91
		c-0.17,0.61-0.33,1.22-0.52,1.82c-0.2,0.67-0.24,1.38-0.48,2.04c-0.13,0.37-0.17,0.92-0.42,1.21c-0.17,0.2,0.12,0.48,0.29,0.29
		c0.34-0.4,0.43-1.04,0.59-1.53c0.26-0.83,0.38-1.72,0.64-2.56c0.23-0.76,0.54-1.62,0.66-2.4c0.03-0.18,0.03-0.34,0.01-0.49
		c0.39,0.31,0.82,0.64,1.28,0.99C491.99,516.57,490.93,519.75,490.12,522.99z M487.09,519.42c-0.59-0.74-1.16-1.49-1.74-2.25
		c0.77-2.69,1.76-5.32,2.49-8.02c0.06,0.07,0.13,0.13,0.2,0.2c-0.03,0.03-0.05,0.07-0.06,0.13c-0.05,1.33-0.55,2.44-0.87,3.7
		c-0.26,1.01-0.72,2.12-0.74,3.16c0,0.26,0.4,0.26,0.4,0c0.01-0.68,0.3-1.42,0.45-2.09c0.12-0.53,0.26-1.07,0.41-1.59
		c0.3-1.04,0.66-1.9,0.74-2.98c0.31,0.31,0.63,0.62,0.96,0.91C488.49,513.51,487.59,516.42,487.09,519.42z M484.48,515.99
		c-0.5-0.67-0.99-1.35-1.49-2.03c0.81-2.58,1.48-5.2,2.28-7.78c0.17,0.21,0.34,0.41,0.51,0.61c0,0.02-0.01,0.03-0.01,0.05
		c-0.04,1.27-0.69,2.33-0.96,3.54c-0.22,0.97-0.67,1.87-0.85,2.86c-0.05,0.25,0.34,0.36,0.39,0.11c0.13-0.73,0.41-1.31,0.68-1.99
		c0.15-0.38,0.13-0.75,0.22-1.14c0.24-1.04,0.75-1.94,0.89-3c0.27,0.33,0.55,0.65,0.84,0.97c-0.07,0.07-0.12,0.15-0.15,0.27
		C486.16,511.01,485.25,513.47,484.48,515.99z M482.13,512.78c-0.63-0.86-1.26-1.71-1.9-2.56c0.94-2.32,1.81-4.67,2.62-7.04
		c0.1,0.12,0.19,0.23,0.29,0.35c0.06,0.08,0.13,0.16,0.19,0.24c-0.46,0.64-0.6,1.62-0.84,2.35c-0.33,1.02-0.49,2.14-1.14,3.04
		c-0.15,0.21,0.2,0.41,0.35,0.2c0.45-0.63,0.82-1.47,0.96-2.23c0.1-0.55,0.27-1.04,0.45-1.56c0.16-0.45,0.23-1.06,0.48-1.48
		c0.27,0.33,0.53,0.66,0.8,0.99C483.58,507.63,482.91,510.22,482.13,512.78z M479.42,509.15c-0.6-0.77-1.2-1.54-1.82-2.29
		c0.35-2.51,1.38-4.87,2.34-7.21c0.26,0.31,0.52,0.63,0.78,0.94c-0.05,1.23-0.64,2.2-1.06,3.37c-0.17,0.47-0.28,0.99-0.42,1.47
		c-0.08,0.27-0.13,0.9-0.27,1.07c-0.17,0.2,0.12,0.48,0.29,0.29c0.33-0.39,0.28-0.85,0.44-1.34c0.18-0.54,0.25-1.07,0.47-1.6
		c0.4-0.96,0.8-1.82,0.92-2.8c0.3,0.36,0.6,0.72,0.9,1.08C481.19,504.49,480.33,506.83,479.42,509.15z M476.62,505.72
		c-0.66-0.76-1.33-1.49-2.03-2.21c1.1-2.12,1.96-4.36,3.09-6.47c0.08,0.09,0.15,0.17,0.23,0.26c0,0.01-0.01,0.03-0.01,0.04
		c-0.08,1.23-0.71,2.21-1.08,3.35c-0.26,0.84-0.31,2.08-0.88,2.77c-0.17,0.2,0.12,0.48,0.29,0.29c0.59-0.71,0.66-1.77,0.9-2.63
		c0.33-1.18,0.95-2.2,1.13-3.41c0.28,0.32,0.57,0.64,0.85,0.97c-0.03,0.04-0.06,0.09-0.09,0.15
		C478.1,501.09,477.12,503.34,476.62,505.72z M473.78,502.53c-0.5-0.64-1.03-1.26-1.57-1.87c0.6-2.28,1.68-4.39,2.82-6.45
		c0.18,0.18,0.35,0.37,0.53,0.56c-0.05,0.03-0.09,0.08-0.09,0.16c0.01,0.54-0.28,0.75-0.53,1.15c-0.21,0.33-0.31,0.74-0.44,1.11
		c-0.2,0.53-0.52,0.93-0.74,1.44c-0.23,0.54-0.29,1.17-0.3,1.75c-0.01,0.26,0.4,0.26,0.4,0c0.02-0.9,0.23-1.49,0.68-2.23
		c0.25-0.42,0.33-0.89,0.52-1.33c0.28-0.64,0.75-1.03,0.81-1.74c0.34,0.36,0.68,0.71,1.01,1.07c-0.06,0.04-0.11,0.1-0.15,0.18
		C475.64,498.36,474.81,500.49,473.78,502.53z M471.29,499.64c-0.68-0.73-1.39-1.43-2.12-2.1c0.81-2.03,2.06-3.8,3.37-5.55
		c0.03-0.04,0.05-0.08,0.07-0.12c0.08,0.07,0.16,0.15,0.25,0.22c0,0,0,0.01,0,0.01c-0.01,0.43-0.55,1.32-0.76,1.73
		c-0.21,0.41-0.46,0.79-0.64,1.21c-0.37,0.85-0.58,2.03-1.16,2.77c-0.16,0.2,0.12,0.49,0.29,0.29c0.7-0.89,0.88-2.15,1.37-3.16
		c0.29-0.58,0.58-1.19,0.89-1.76c0.16-0.29,0.3-0.49,0.37-0.76c0.03,0.03,0.06,0.05,0.08,0.07c0.3,0.28,0.59,0.57,0.88,0.86
		C473.06,495.37,471.97,497.43,471.29,499.64z M468.24,496.72c-0.49-0.42-0.98-0.83-1.49-1.22c0.64-2.17,1.89-4.1,3.64-5.54
		c0.07,0.06,0.14,0.12,0.21,0.17c-0.15,0.43-0.66,0.94-0.91,1.3c-0.25,0.35-0.49,0.7-0.69,1.08c-0.12,0.24-0.63,1.57-0.85,1.61
		c-0.26,0.04-0.15,0.43,0.11,0.39c0.43-0.07,0.83-1.28,1-1.62c0.27-0.53,0.59-1,0.94-1.48c0.23-0.32,0.55-0.64,0.73-1.01
		c0.3,0.25,0.61,0.51,0.91,0.77c-0.11,0.03-0.22,0.11-0.31,0.22C470.26,493.09,469.08,494.8,468.24,496.72z M465.75,494.76
		c-0.47-0.34-0.95-0.66-1.44-0.97c1.14-1.94,2.38-3.82,3.62-5.69c0.15,0.11,0.3,0.22,0.45,0.33c-0.6,0.7-1.16,1.46-1.65,2.24
		c-0.51,0.82-0.78,1.75-1.33,2.55c-0.15,0.21,0.2,0.42,0.35,0.2c0.49-0.72,0.75-1.54,1.18-2.29c0.49-0.87,1.13-1.71,1.78-2.47
		c0.25,0.19,0.51,0.37,0.75,0.56C467.74,490.68,466.45,492.62,465.75,494.76z M463.31,493.17c-0.66-0.38-1.33-0.75-2.02-1.09
		c1.04-2.09,2.45-3.95,3.96-5.73c0.15,0.09,0.31,0.18,0.46,0.28c-0.28,0.77-0.91,1.52-1.34,2.2c-0.52,0.83-1.01,1.67-1.39,2.56
		c-0.1,0.24,0.25,0.44,0.35,0.2c0.43-1,0.99-1.93,1.58-2.85c0.38-0.59,0.88-1.23,1.15-1.9c0.3,0.19,0.61,0.38,0.91,0.58
		C465.71,489.32,464.46,491.22,463.31,493.17z M460.23,491.59c-0.27-0.12-0.53-0.23-0.8-0.34c0.42-2.04,1.51-3.78,2.86-5.39
		c0.09-0.11,0.13-0.22,0.14-0.34c0.12-0.15,0.25-0.3,0.38-0.44c0.09,0.04,0.18,0.08,0.27,0.12c-0.32,0.76-1.08,1.34-1.55,2
		c-0.41,0.59-0.83,1.31-0.99,2.02c-0.06,0.25,0.33,0.36,0.39,0.11c0.21-0.92,0.85-1.87,1.47-2.55c0.37-0.41,0.81-0.88,1.04-1.4
		c0.26,0.13,0.51,0.26,0.77,0.39C462.69,487.58,461.27,489.47,460.23,491.59z M458.32,490.83c-0.46-0.16-0.91-0.3-1.38-0.43
		c0.7-2.1,1.46-4.19,3.01-5.84c0.18-0.19,0.2-0.41,0.12-0.6c0.08,0.03,0.17,0.06,0.25,0.09c0.16,0.05,0.31,0.12,0.46,0.17
		c-0.05,0.23-0.56,0.65-0.68,0.91c-0.2,0.4-0.3,0.82-0.57,1.19c-0.23,0.33-0.5,0.61-0.64,1c-0.12,0.32-0.07,0.74-0.31,1.01
		c-0.17,0.2,0.12,0.48,0.29,0.29c0.24-0.28,0.24-0.52,0.33-0.87c0.14-0.53,0.44-0.85,0.74-1.29c0.36-0.52,0.43-1.12,0.88-1.59
		c0.03-0.04,0.34-0.43,0.37-0.44c0.02-0.01,0.04-0.02,0.06-0.03c0.27,0.11,0.54,0.22,0.8,0.34c-0.01,0.02-0.02,0.04-0.03,0.07
		c-0.02,0.02-0.05,0.03-0.07,0.05c-0.16-0.03-0.34,0.01-0.48,0.18C460.02,486.75,458.79,488.63,458.32,490.83z M495.26,525.16
		c-0.04,0.25,0.35,0.36,0.39,0.11c0.49-2.91,1.69-5.63,1.82-8.62c0.32,0.21,0.64,0.41,0.97,0.62c-0.48,3.8-1,7.58-2.04,11.27
		c-0.91-0.63-1.79-1.3-2.63-2.02c1-3.4,2.23-6.72,3.19-10.13c0.04,0.02,0.09,0.04,0.13,0.05c-0.01,0.03-0.02,0.05-0.02,0.09
		C496.97,519.53,495.76,522.25,495.26,525.16z M510.79,527.21c0.34-1.79,0.19-3.65,0.12-5.49c0.17-0.02,0.33-0.06,0.5-0.09
		c0,0.62-0.01,1.24,0,1.85c0.01,0.68,0.16,1.4-0.17,2.04c-0.12,0.23,0.23,0.43,0.35,0.2c0.3-0.57,0.28-1.15,0.25-1.77
		c-0.04-0.81-0.02-1.62-0.02-2.43c0.19-0.06,0.38-0.13,0.56-0.21c0.09,1.81,0.21,3.62-0.08,5.4
		C511.79,526.87,511.29,527.04,510.79,527.21z M508.08,528.2c0.12-0.72,0.13-1.47,0.17-2.13c0.09-1.48,0.06-2.97,0.04-4.45
		c0.04,0.01,0.08,0.01,0.12,0.02c0.05,0.65,0.15,1.28,0.28,1.93c0.05,0.24,0.44,2.17,0.04,2.26c-0.25,0.05-0.15,0.44,0.11,0.39
		c0.06-0.01,0.11-0.02,0.17-0.03c0.07-0.01,0.12-0.08,0.14-0.14c0.39-1.38-0.13-2.91-0.31-4.34c0.31,0.04,0.61,0.07,0.9,0.08
		c0.09,1.99,0.26,4-0.27,5.91C509.01,527.86,508.54,528.03,508.08,528.2z M505.01,529.41c0.22-2.8,0.47-5.6,1.09-8.35
		c0.09,0.03,0.18,0.06,0.27,0.08c-0.03,0.16-0.02,0.33-0.03,0.55c-0.04,0.67-0.24,1.33-0.33,2c-0.09,0.6-0.06,1.19-0.17,1.79
		c-0.12,0.66-0.26,1.28-0.28,1.96c-0.01,0.26,0.4,0.26,0.4,0c0.03-1.1,0.35-2.16,0.41-3.26c0.04-0.66,0.25-1.29,0.35-1.94
		c0.04-0.29-0.02-0.67,0.05-0.98c0.12,0.03,0.24,0.07,0.35,0.1c0.01,1.15,0.03,2.29,0.01,3.44c-0.02,1.02,0.13,2.75-0.3,3.89
		C506.22,528.92,505.61,529.16,505.01,529.41z M501.32,530.94c0.88-3.61,1.95-7.19,2.21-10.9c0.14,0.06,0.27,0.12,0.41,0.18
		c0.01,1.57-0.33,3.2-0.6,4.74c-0.15,0.81-0.24,1.58-0.48,2.37c-0.27,0.89-0.57,1.76-0.72,2.68c-0.04,0.25,0.35,0.36,0.39,0.11
		c0.16-0.92,0.45-1.79,0.72-2.68c0.27-0.9,0.38-1.77,0.55-2.68c0.26-1.43,0.54-2.9,0.55-4.36c0.22,0.09,0.43,0.18,0.65,0.26
		c-0.69,3.04-0.95,6.14-1.19,9.24C502.97,530.24,502.15,530.59,501.32,530.94z M497.7,531.64c0.3,0.16,0.59,0.33,0.89,0.48
		c-0.29,0.13-0.58,0.25-0.87,0.37C497.73,532.21,497.72,531.92,497.7,531.64z M497.43,529.22c1.07-3.69,1.62-7.48,2.1-11.29
		c0.45,0.27,0.91,0.53,1.37,0.78c-0.06,1.54-0.31,3.14-0.62,4.64c-0.36,1.76-0.65,3.53-1.36,5.2c-0.1,0.24,0.25,0.44,0.35,0.2
		c0.72-1.7,1.03-3.5,1.4-5.3c0.31-1.48,0.55-3.01,0.63-4.53c0.37,0.2,0.73,0.39,1.1,0.58c-0.19,3.83-1.32,7.51-2.22,11.22
		C499.22,530.27,498.3,529.76,497.43,529.22z M496.02,530.64c0.39,0.25,0.79,0.5,1.2,0.73c0.03,0.22,0.04,0.45,0.04,0.54
		c0.02,0.25,0.02,0.51,0.02,0.76c-0.36,0.15-0.72,0.31-1.08,0.46c-0.06-0.65-0.14-1.29-0.16-1.95
		C496.05,531.01,496.04,530.82,496.02,530.64z M494.26,531.6c0.02-0.82-0.18-1.62-0.31-2.42c0.53,0.41,1.08,0.79,1.64,1.17
		c0.11,0.46,0.05,1,0.08,1.45c0.04,0.51,0.11,1.01,0.15,1.51c-0.48,0.21-0.95,0.41-1.43,0.62
		C494.32,533.16,494.24,532.38,494.26,531.6z M491.96,529.71c-0.1-0.8-0.24-1.61-0.38-2.4c-0.01-0.05-0.02-0.09-0.03-0.14
		c0.25,0.23,0.5,0.46,0.75,0.68c0.07,0.15,0.21,0.26,0.37,0.31c0.27,0.23,0.54,0.45,0.81,0.67c0.12,0.93,0.39,1.84,0.36,2.78
		c-0.02,0.84,0.07,1.66,0.14,2.49c-0.65,0.28-1.31,0.56-1.96,0.83C492.05,533.21,492.17,531.41,491.96,529.71z M489.61,528.2
		c-0.05-0.58-0.25-1.18-0.39-1.75c-0.16-0.65-0.22-1.31-0.32-1.97c0.63,0.68,1.27,1.34,1.93,1.99c0.01,0.03,0.02,0.07,0.05,0.1
		c0.4,0.44,0.36,1.31,0.47,1.89c0.14,0.8,0.28,1.58,0.28,2.39c0,1.42,0,2.84,0,4.25c-0.06,0.02-0.12,0.05-0.18,0.07
		c-0.55,0.23-1.09,0.44-1.64,0.66C489.81,533.28,489.81,530.74,489.61,528.2z M487.59,530.63c-0.17-1.15-0.3-2.31-0.49-3.45
		c-0.19-1.07-0.54-2.09-0.84-3.13c-0.15-0.52-0.19-1.04-0.31-1.56c-0.09-0.42-0.31-0.77-0.45-1.17c-0.18-0.51-0.24-1.02-0.48-1.47
		c1.11,1.43,2.24,2.83,3.44,4.17c0.15,0.7,0.13,1.53,0.24,2c0.12,0.54,0.28,1.06,0.39,1.6c0.12,0.58,0.06,1.15,0.14,1.73
		c0.29,2.19,0.2,4.42,0.18,6.64c-0.51,0.19-1.02,0.39-1.53,0.57c0.1-0.64-0.01-1.5-0.02-1.84
		C487.83,533.35,487.8,531.98,487.59,530.63z M487.35,532.55c-0.12-1.14-0.28-2.28-0.5-3.42c-0.03-0.26-0.06-0.51-0.1-0.76
		c-0.07-0.51-0.22-0.96-0.37-1.42c-0.09-0.38-0.19-0.76-0.29-1.14c0.07,0.03,0.15,0.02,0.2-0.02c0.3,1.29,0.52,2.56,0.73,3.9
		C487.18,530.64,487.28,531.59,487.35,532.55z M486.26,537.12c-0.21-7.72-2.11-15.64-5.38-22.84c0.78,1.06,1.55,2.12,2.34,3.17
		c0.25,0.49,0.35,1.07,0.48,1.6c0.22,0.88,0.42,1.76,0.63,2.64c0.35,1.47,0.87,2.89,1.32,4.33c0.16,0.63,0.31,1.26,0.39,1.9
		c0.39,2.97,0.97,5.92,0.94,8.93c0,0.01,0,0.02,0,0.03C486.74,536.95,486.5,537.04,486.26,537.12z M452.24,491.48
		c2.82,0.24,5.6,1.1,8.15,2.3c4.38,2.07,8.09,5.36,11.17,9.09c-0.02,0.24,0.07,0.49,0.3,0.71c0.36,0.33,0.71,0.68,1.06,1.03
		c0.17,0.23,0.34,0.46,0.51,0.69c6.65,9.2,10.7,21.05,10.89,32.43c-4.35,1.29-8.77,2.13-13.43,2.43
		c-13.69,0.91-27.62-1.87-40.54-6.29c0.44-14.31,5.26-27.6,12.45-39.67c0.05-0.05,0.09-0.12,0.13-0.19
		C444.75,490.78,449.04,491.21,452.24,491.48z M450.23,483.31c-1.27,1.7-2.56,3.84-2.58,5.17c0,0,0,0,0,0
		c-0.12,0.11-0.2,0.25-0.28,0.4c-0.07,0-0.14,0.05-0.16,0.15c-0.04,0.22-0.18,0.36-0.3,0.54c-0.46,0.06-0.92,0.14-1.36,0.25
		c1.43-2.17,2.93-4.3,4.49-6.38C450.11,483.38,450.17,483.35,450.23,483.31z M450.01,487.36c0.57-0.76,0.9-1.75,1.34-2.6
		c0.21-0.41,0.48-0.78,0.69-1.19c0.17-0.32,0.27-0.71,0.45-1.03c0.28-0.03,0.57-0.05,0.86-0.06c-1.69,1.99-2.7,4.45-3.55,6.93
		c-0.24,0-0.48,0-0.72,0c0.18-0.3,0.12-0.76-0.31-0.89c-0.12-0.04,1.4-2.99,1.6-3.32c0.44-0.71,0.93-1.51,1.5-2.22
		c-0.01,0.01-0.01,0.02-0.01,0.04c-0.19,0.45-0.46,0.84-0.7,1.27c-0.51,0.92-0.86,2.02-1.49,2.86
		C449.5,487.37,449.85,487.57,450.01,487.36z M456.37,479.34c1.21-0.97,1.86-2.42,3.2-3.27c0.17-0.11,0.25-0.27,0.27-0.43
		c0.75-0.09,1.5-0.13,2.26-0.11c-1.93,1.77-4.03,3.36-5.71,5.38c-1.34-0.26-2.81-0.41-4.21-0.26c0.16-0.2,0.33-0.4,0.49-0.61
		C454.05,480.38,455.24,480.24,456.37,479.34z M457.84,476.03c-1.32,1.38-2.33,3.14-4.33,2.97c0.22-0.28,0.44-0.56,0.67-0.83
		c0.26-0.32,0.53-0.64,0.79-0.96C455.9,476.68,456.86,476.3,457.84,476.03z M471.17,405.63c0.97-3.46,2.6-7.26,5.53-9
		c-0.6,2.75,0.51,6.26,1.46,8.45c2.47,5.64,7.94,10.54,13.24,13.55c1.36,0.77,3.04,1.25,4.52,1.21c2.09,7,8.83,13.8,15.2,16.27
		c4.67,1.81,9.72,2.82,14.53,4.22c3.94,1.15,7.86,2.4,11.7,3.85c-0.95,0.01-1.89,0.07-2.8,0.18c-0.04-0.11-0.13-0.21-0.28-0.27
		c-8.55-3.67-20.1-3.64-28.11-8.82c0.77,0.82,1.53,1.66,2.25,2.52c7.41,3.47,16.68,3.96,24.21,6.88c-0.48,0.1-0.95,0.21-1.42,0.33
		c-0.36-0.14-0.68-0.37-1.06-0.46c-0.74-0.19-1.38-0.3-2.1-0.59c-0.58-0.24-1.18-0.43-1.77-0.63c-0.48-0.16-0.84-0.44-1.35-0.46
		c-0.26-0.01-0.26,0.4,0,0.4c0.44,0.01,1.13,0.4,1.56,0.54c0.61,0.2,1.2,0.44,1.8,0.68c0.44,0.17,0.87,0.3,1.33,0.4
		c0.33,0.07,0.62,0.19,0.91,0.31c-5.13,1.52-9.58,4.71-13.07,9.33c-6.01,7.94-9.73,18.49-10.64,28.35c-0.51,5.47,0.33,10.95,2,16.15
		c0.3,0.94,0.61,1.87,0.92,2.8c-0.12,0.01-0.24,0.04-0.34,0.11c-0.05-0.01-0.09-0.01-0.14-0.01c-0.82,0-1.89,0.01-3.2-0.25
		c-3.97-0.64-7.3-2.5-10.56-5.33c-4.17-3.62-7.58-8.02-11.48-11.91c-4.86-4.86-12.29-9.78-19.68-10.73
		c-0.05-0.01-0.1-0.02-0.14-0.02c-2.23-0.27-4.46-0.18-6.61,0.39c4.45-5.37,8.85-10.78,12.56-16.71c4.12-6.6,7.51-14.29,7.01-22.2
		c0.02-1.11,0-2.21-0.14-3.28c-0.13-1-0.38-2.03-0.69-3.05c-0.45-2.26-1.72-4.39-2.55-6.48c-0.22-0.56-0.61-1.04-0.9-1.56
		c-0.03-0.06-0.06-0.13-0.09-0.19c-0.04-0.13-0.07-0.26-0.11-0.39c-0.29-0.93-0.84-1.75-1.16-2.66c-0.03-0.11-0.07-0.22-0.1-0.34
		c-0.02-0.06-0.04-0.12-0.05-0.18c0-0.01-0.01-0.03-0.02-0.04c-0.03-0.1-0.07-0.2-0.11-0.3c-0.06-0.31-0.11-0.63-0.15-0.94
		C470.17,412.38,469.94,408.98,471.17,405.63z M475.87,428.73c0.04,0.19,0.08,0.39,0.12,0.58c-0.17-0.48-0.35-0.95-0.54-1.41
		c-0.02-0.26-0.06-0.51-0.11-0.76C475.51,427.66,475.7,428.19,475.87,428.73z M432.34,384.27c0.76,0.07,1.51,0.15,2.27,0.22
		c5.87,5.29,10.98,11.42,17.6,15.83c0.63,0.42,1.22-0.59,0.59-1.01c-6.11-4.07-10.92-9.65-16.26-14.63
		c8.12,0.78,16.25,1.49,24.39,1.93c10.15,0.55,20.21,0.12,30.35,0.12c0.48,0,1.04-0.45,0.98-0.98c-0.02-0.16-0.04-0.32-0.06-0.48
		c1.17-0.13,2.31-0.67,3.25-1.36c0.53-0.39,0.99-0.86,1.5-1.27c0.31-0.26,0.63-0.5,0.72-0.91c0.05-0.25-0.34-0.36-0.39-0.11
		c-0.13,0.6-1.59,1.61-2.08,1.97c-0.88,0.65-1.95,1.17-3.05,1.29c-0.08-0.53-0.17-1.06-0.26-1.59c1.45-0.06,2.59-0.79,3.51-1.87
		c0.17-0.2-0.12-0.48-0.29-0.29c-0.87,1.02-1.9,1.72-3.29,1.76c0,0-0.01,0-0.01,0c-0.1-0.49-0.2-0.98-0.31-1.46
		c0.71-0.16,1.48-0.7,1.73-1.31c0.1-0.24-0.29-0.34-0.39-0.11c-0.12,0.29-0.49,0.55-0.74,0.72c-0.2,0.14-0.44,0.25-0.69,0.3
		c-0.86-3.61-2.1-7.13-3.34-10.63c-0.12-0.34-2.03-4.67-2.5-4.59c-13.18,2.31-26.48,2.86-39.79,2.36c-0.14-0.49-0.94-0.62-1.11-0.04
		c-4.62-0.2-9.24-0.52-13.85-0.94c3.55-3.15,7.54-5.86,11.53-8.33c7.67-4.74,15.84-8.77,24.1-12.36
		c9.28-4.03,18.79-8.23,28.53-10.99c4.84-1.37,9.7-2.64,14.52-4.12c4.92-1.51,9.95-2.65,15.12-2.71c0.17,0,0.31-0.04,0.43-0.1
		c0.44,0.41,0.88,0.83,1.32,1.26c3.52,3.41,8.97,12.83,2.8,17.38c0.47-0.12,0.78-0.16,0.82-0.08c-0.52,0.19-1.05,0.39-1.58,0.58
		c-1.05,0.62-2.36,1.12-3.99,1.47c-9.66,3.6-19.16,7.62-26.53,15.06c-0.31,0.31-0.38,0.81-0.15,1.18c1.67,2.75,3.16,5.61,4.35,8.6
		c1.18,2.97,2.23,6.41,1.65,9.63c-1.18,0.83-2.37,1.64-3.59,2.4c-4.98,3.11-10.43,4.7-16.41,5.49c-3.91,0.52-3.61,0.64-3.38,0.92
		c-2.32,0.51-4.4,1.7-6.14,3.55c-0.04,0.04-0.06,0.08-0.09,0.12c-2.97,2.77-4.49,7.43-5.37,11.12c-0.76,3.15-1.2,6.39-0.72,9.61
		c0.03,0.22,0.07,0.45,0.12,0.67c-0.34-0.32-0.68-0.63-1.01-0.95c-0.04-0.16-0.07-0.33-0.1-0.5c-0.13-0.84-0.05-1.74-0.05-2.58
		c0-0.83-0.08-1.68,0-2.51c0.07-0.77,0.37-1.49,0.41-2.27c0.01-0.26-0.39-0.26-0.4,0c-0.04,0.78-0.34,1.49-0.41,2.27
		c-0.08,0.83,0,1.68,0,2.51c0,0.77-0.06,1.56,0.01,2.32c0.01,0.1,0.02,0.19,0.04,0.29c-0.33-0.31-0.66-0.62-0.99-0.93
		c-0.08-0.55,0.04-1.15,0.08-1.7c0.09-1.28,0.2-2.55,0.35-3.82c0.3-2.6,0.85-5.17,1.73-7.63c1.81-5.08,5.84-9.37,10.97-11.13
		c7.4-2.54,17.74-1.42,22.14-9.27c0.37-0.66-0.64-1.25-1.01-0.59c-2.52,4.51-7.59,5.82-12.32,6.75c-4.69,0.92-9.46,1.44-13.51,4.19
		c-4.42,3.01-7.03,7.67-8.31,12.76c-0.63,2.5-0.91,5.08-1.13,7.64c-0.03,0.34-0.15,0.98-0.24,1.63c-0.38-0.35-0.76-0.7-1.14-1.06
		c0.14-8.55,2.41-20.08,11.8-22.74c0.73-0.21,0.42-1.34-0.31-1.13c-9.57,2.71-12.3,13.87-12.63,22.81
		c-0.47-0.43-0.94-0.86-1.41-1.29c0.14-0.13,0.22-0.32,0.18-0.55c-1.11-6.89,1.88-12.87,6.36-17.91c0.5-0.56-0.33-1.39-0.83-0.83
		c-4.63,5.21-7.64,11.29-6.76,18.32c-0.54-0.49-1.08-0.99-1.62-1.48c0.01-0.06,0.01-0.12-0.01-0.18c-0.5-2.63-0.72-5.49,0.72-7.88
		c0.39-0.65-0.62-1.24-1.01-0.59c-1.37,2.25-1.42,4.87-1.07,7.41c-0.5-0.46-1-0.91-1.5-1.36c0.1-0.96,0.27-1.92,0.32-2.89
		c0.01-0.26-0.39-0.26-0.4,0c-0.04,0.86-0.19,1.71-0.29,2.56c-0.38-0.34-0.75-0.68-1.13-1.03c0.01-0.12,0.02-0.24,0.04-0.36
		c0.07-0.41,0.21-0.75,0.17-1.17c-0.02-0.26-0.43-0.26-0.4,0c0.04,0.42-0.11,0.79-0.17,1.2C446.21,397.43,439.13,391,432.34,384.27z
		 M427.31,373.73c-0.16-0.85-0.29-1.69-0.4-2.5c0.03,0.01,0.06,0.02,0.09,0.02c3.6,0.48,7.24,0.54,10.84,1
		c0.01,0.84,0.02,1.69,0.02,2.53c-3.37,0.09-6.65-0.54-9.93-1.29C427.65,373.41,427.43,373.54,427.31,373.73z M427.62,374.61
		c3.39,0.78,6.78,1.44,10.27,1.34c0.03,0.73,0.07,1.47,0.15,2.2c-3.37,0.14-6.63-0.71-9.93-1.26c-0.25-0.76-0.45-1.55-0.63-2.33
		C427.52,374.58,427.57,374.59,427.62,374.61z M427.74,370.16c0.43-0.46,0.87-0.9,1.32-1.34c0.14,0.11,0.32,0.19,0.54,0.21
		c2.67,0.25,5.35,0.47,8.02,0.64c0.02,0.16,0.11,0.29,0.22,0.38c0.03,0.29,0.01,0.68,0,1.02
		C434.49,370.65,431.1,370.56,427.74,370.16z M439.01,369.76c0.74,0.05,1.48,0.09,2.22,0.13c0,4.5,1.01,8.9,1.31,13.39
		c-0.78-0.07-1.57-0.15-2.35-0.22c-0.86-2.99-1.14-6.08-1.16-9.17C439.02,372.8,439.3,371.02,439.01,369.76z M448.57,381.57
		c0,0,0.01,0.01,0.01,0.01c0.11,0.75,0.23,1.51,0.36,2.26c-0.7-0.06-1.4-0.12-2.1-0.18c-0.51-4.46-1.94-9.07-1.36-13.57
		c0.76,0.03,1.52,0.06,2.28,0.09c0.01,0.7,0.02,1.39,0.04,2.09c-0.06,0.15-0.05,0.32,0.01,0.48c0.09,2.66,0.29,5.3,0.63,7.94
		C448.23,380.93,448.19,381.36,448.57,381.57z M445.66,383.56c-0.65-0.06-1.29-0.12-1.94-0.18c-0.29-4.5-1.31-8.92-1.32-13.44
		c0.64,0.03,1.27,0.07,1.91,0.09C443.78,374.55,445.13,379.09,445.66,383.56z M449.65,380.87c-0.1-0.74-0.19-1.48-0.26-2.22
		c2.49,2.08,5.21,3.88,7.83,5.79c-0.93-0.06-1.87-0.12-2.8-0.18C452.92,383.01,451.33,381.87,449.65,380.87z M452.36,384.11
		c-0.74-0.05-1.48-0.11-2.22-0.17c-0.1-0.52-0.19-1.05-0.27-1.57C450.73,382.92,451.56,383.5,452.36,384.11z M449.28,377.01
		c-0.01-0.01-0.03-0.02-0.04-0.03c-0.07-0.9-0.13-1.8-0.17-2.7c4.38,4.43,10.45,6.49,15.11,10.51c-0.82-0.03-1.65-0.06-2.47-0.1
		c-0.98-0.05-1.95-0.11-2.93-0.16c0.03-0.21-0.03-0.43-0.24-0.59C455.43,381.65,452.16,379.58,449.28,377.01z M449,372.48
		c-0.02-0.67-0.04-1.34-0.05-2.02c4.62,4.03,10.38,6.37,15.24,10.07c0.13,0.1,0.26,0.13,0.38,0.11c0.23,1.18,0.46,2.35,0.66,3.53
		c-4.7-4.16-10.9-6.23-15.35-10.73c-0.04-0.05-0.09-0.1-0.15-0.14c-0.02-0.01-0.04-0.03-0.06-0.04
		C449.35,373.09,449.16,372.79,449,372.48z M474.63,382.04c-0.07,0-0.13,0.02-0.19,0.04c-0.29-1.07-0.53-2.14-0.74-3.23
		c4.99,1.65,10.3,1.29,15.49,1.24c0.22,0.82,0.42,1.64,0.59,2.46C484.72,382.51,479.69,381.84,474.63,382.04z M489.99,383.74
		c0.01,0,0.01,0,0.02,0c0.06,0.35,0.13,0.7,0.18,1.05c-4.95,0.01-9.89,0.12-14.83,0.15c-0.21-0.57-0.4-1.14-0.58-1.72
		C479.86,383.02,484.91,383.7,489.99,383.74z M486.76,372.78c0.01,0,0.02-0.01,0.04-0.01c0.03,0.03,0.05,0.05,0.06,0.05
		c0.32,0.91,0.64,1.82,0.95,2.74c-4.95,0.37-9.83-0.49-14.76-0.79c-0.11-0.79-0.22-1.59-0.32-2.39
		C477.07,373.99,482.3,373.63,486.76,372.78z M472.71,371.13c-0.05-0.02-0.1-0.03-0.15-0.04c-0.07-0.53-0.14-1.07-0.21-1.6
		c4.24-0.39,8.46-0.92,12.68-1.63c0.16,0.95,0.75,2.68,1.23,3.82C481.93,372.49,476.85,372.78,472.71,371.13z M488.17,376.71
		c0.01,0,0.01,0,0.01,0c0.24,0.74,0.47,1.48,0.68,2.22c-5.07,0.06-10.25,0.4-15.12-1.29c-0.1-0.03-0.19-0.04-0.27-0.03
		c-0.09-0.55-0.18-1.1-0.26-1.66C478.21,376.27,483.16,377.14,488.17,376.71z M474.11,384.93c-0.69,0-1.37,0-2.06,0
		c-1.16-5.01-2.15-10.07-2.06-15.24c0.4-0.03,0.8-0.06,1.2-0.09c-0.01,0.05-0.01,0.11,0,0.17
		C471.92,374.91,472.35,380.05,474.11,384.93z M470.85,384.93c-0.65,0-1.3-0.01-1.95-0.02c-1.26-4.91-2.16-9.92-2.03-15
		c0.65-0.04,1.3-0.08,1.95-0.13C468.75,374.91,469.7,379.95,470.85,384.93z M467.69,384.89c-0.39-0.01-0.78-0.02-1.16-0.03
		c-0.81-4.94-2.1-9.79-2.23-14.81c0.47-0.02,0.94-0.04,1.4-0.07C465.59,375.02,466.46,380.02,467.69,384.89z M463.26,372.37
		c0.07,0.8,0.17,1.6,0.28,2.4c-2.39-1.44-4.73-2.96-7.05-4.51c1.21-0.01,2.43-0.03,3.64-0.06
		C461.11,371.01,462.23,371.63,463.26,372.37z M462.01,370.14c0.37-0.01,0.74-0.02,1.11-0.04c0.01,0.26,0.02,0.52,0.04,0.78
		C462.78,370.63,462.39,370.39,462.01,370.14z M463.77,376.28c0.16,0.96,0.33,1.92,0.51,2.88c-4.43-3.25-9.55-5.46-13.81-8.93
		c1.32,0.02,2.63,0.03,3.95,0.04c0.04,0.04,0.08,0.08,0.13,0.12C457.59,372.41,460.63,374.42,463.77,376.28z M428.57,378.15
		c3.19,0.57,6.35,1.33,9.61,1.16c0.18,1.23,0.42,2.45,0.75,3.63c-2.59-0.24-5.17-0.49-7.76-0.74c-0.29-0.28-0.56-0.59-0.81-0.91
		c2.48,0.54,5,0.62,7.57,0.62c0.76,0,0.76-1.17,0-1.17c-2.91,0-5.75-0.1-8.56-0.91C429.07,379.3,428.81,378.73,428.57,378.15z
		 M425.92,376.89c-0.36-1.01-0.95-2.12-0.92-3.22c0-0.08-0.04-0.14-0.1-0.17c0.32-0.42,0.64-0.84,0.98-1.24
		c0.41,2.68,1.06,5.45,2.33,7.82c-0.64-0.66-1.27-1.32-1.9-1.98C426.2,377.69,426.06,377.29,425.92,376.89z M423.67,375.21
		c0.3-0.45,0.61-0.88,0.93-1.31c0.03,1.17,0.52,2.28,0.96,3.41c-0.63-0.67-1.26-1.34-1.89-2.02
		C423.67,375.26,423.67,375.24,423.67,375.21z M421.37,372.71c2.33-3.86,6.04-7.37,9.83-9.61c0.07-0.04,0.12-0.09,0.16-0.14
		c0.14,0.29,0.28,0.57,0.42,0.86c-3.59,2.9-6.87,6.17-9.48,9.95C421.98,373.42,421.68,373.06,421.37,372.71z M419.07,370.03
		c3.35-3.6,6.87-7.07,10.64-10.24c0.4,0.73,0.79,1.47,1.17,2.21c-0.08,0-0.17,0.03-0.26,0.08c-3.86,2.29-7.62,5.79-10.05,9.7
		C420.05,371.2,419.56,370.62,419.07,370.03z M417.31,367.87c3.55-3.6,7.4-6.88,11.11-10.32c0.24,0.4,0.48,0.8,0.71,1.21
		c-3.84,3.2-7.41,6.71-10.81,10.36C417.97,368.71,417.64,368.29,417.31,367.87z M413.89,363.51c3.76-3.53,7.25-7.52,11.76-10.11
		c0.75,1.02,1.47,2.06,2.14,3.13c-3.74,3.48-7.63,6.79-11.22,10.42C415.66,365.82,414.77,364.67,413.89,363.51z M412.23,361.31
		c0.16-0.01,0.32-0.09,0.44-0.25c2.93-4.12,7.18-6.98,11.3-9.8c0.33,0.39,0.66,0.79,0.97,1.2c-4.5,2.61-8.01,6.58-11.76,10.12
		C412.86,362.15,412.54,361.74,412.23,361.31z M410.46,358.91c3.89-3.21,7.3-7.17,11.79-9.55c0.33,0.33,0.64,0.67,0.95,1.02
		c-4.23,2.91-8.52,5.86-11.54,10.1c-0.01,0.01-0.02,0.03-0.02,0.04C411.24,359.98,410.85,359.45,410.46,358.91z M409.15,357.1
		c0.2-0.01,0.41-0.11,0.58-0.33c2.68-3.42,6.43-6.58,10.38-9.4c0.43,0.36,0.85,0.74,1.26,1.13c-4.38,2.42-7.78,6.28-11.6,9.46
		C409.56,357.68,409.35,357.39,409.15,357.1z M386.12,322.33c0.24-0.85,0,0,0.25-0.39c4.3-6.68,10.99-11.59,17.63-15.74
		c7.84-4.9,13.15-7.54,21.74-10.93c12.48-4.93,28.59-9.38,41.57-12.7c8.78-2.25,17.63-4.37,26.59-5.76
		c3.8-0.59,7.66-1.04,11.52-0.97c2.05,0.04,5.87,0.39,7.35,2.07c-0.19,0.05,0,0.17,0.06,0.14c0.16,0.4,0.32,0.8,0.48,1.2
		c0.79,2,1.5,4.03,2.28,6.04c2.28,5.84,4.85,11.54,6.96,17.46c0.09,0.24,0.17,0.48,0.25,0.72c-3.31-0.98-7.11-1-8.32,2.95
		c-0.44,1.42-0.46,2.97-0.24,4.53c-0.16-0.07-0.35-0.09-0.56-0.06c-1.22,0.22-2.45,0.43-3.67,0.64c-0.29-0.44-1.02-0.28-1.09,0.19
		c-1.11,0.19-2.21,0.39-3.32,0.58c-0.17-0.07-0.38-0.03-0.54,0.1c-7.2,1.26-14.4,2.54-21.55,4.09c-9.69,2.09-19.3,4.63-28.21,9.05
		c-4.66,2.31-21.75,10.96-26.22,13.62c-5.98,3.57-13.34,8.26-18.51,13.68c-4.59-5.47-8.31-11.58-12.48-17.36
		c-2.73-3.78-4.3-8.87-7.55-12.29c-0.24-0.59-0.69-1.08-0.96-1.67c0.99-2.09,3.36-3.97,4.78-5.16c3.25-2.71,6.89-4.96,10.51-7.14
		c0.49-0.29,1-0.59,1.53-0.9c0.21-0.21,0.43-0.42,0.64-0.63c-0.02-0.03-0.03-0.06-0.05-0.09c0.27-0.15,0.53-0.3,0.79-0.45
		c0.41-0.12,0.83-0.2,1.25-0.26c0.06-0.01,0.13-0.08,0.14-0.14c0.02-0.11,0.05-0.22,0.07-0.34c0.01-0.04,0-0.07-0.01-0.1
		c0.93-0.55,1.86-1.11,2.79-1.67c0.78-0.46,1.69-0.64,2.44-1.13c0.7-0.45,1.27-1.06,2.01-1.47c1.55-0.87,3.29-1.33,4.87-2.12
		c0.9-0.45,1.76-0.8,2.73-1.07c0.64-0.18,1.16-0.41,1.67-0.83c0.2-0.17-0.09-0.45-0.29-0.29c-0.79,0.65-1.72,0.72-2.65,1.05
		c-0.9,0.33-1.72,0.85-2.6,1.22c-1.42,0.59-2.89,1.05-4.22,1.85c-0.77,0.46-1.41,1.23-2.24,1.56c-0.68,0.28-1.27,0.49-1.93,0.87
		c-1.4,0.83-2.78,1.67-4.19,2.48c-0.16,0.05-0.32,0.1-0.47,0.16c-0.13,0.05-0.25,0.1-0.37,0.16c-0.02-0.09-0.03-0.17-0.04-0.26
		c-1.27,0.68-2.43,1.35-3.46,1.97c-3.85,2.33-7.67,4.81-11.04,7.82c-1.38,1.24-3.18,3-3.94,4.96c-0.45,0.53-0.85,1.1-1.46,1.47
		c-0.17,0.11-0.1,0.37,0.1,0.38c0.05,0,0.09,0.01,0.13,0.01c0,0.01,0.01,0.01,0.01,0.02c0.28,0.32,0.53,0.64,0.76,0.98
		c0,0.01,0,0.02,0,0.03c-0.02,0.14,0.08,0.23,0.19,0.25c0.4,0.64,0.75,1.3,1.12,1.99c0.5,0.91,1.23,1.65,1.74,2.55
		c0.58,1.03,1.08,2.11,1.81,3.04c0.52,0.67,1.57,1.35,1.68,2.24c0.01,0.09,0.05,0.17,0.15,0.19c0.11,0.03,0.22,0.05,0.33,0.08
		c0.25,0.06,0.36-0.33,0.11-0.39c-0.28-0.07-0.38-0.56-0.54-0.8c-0.27-0.39-0.62-0.72-0.94-1.06c-0.87-0.92-1.46-2.09-2.06-3.2
		c-0.6-1.12-1.48-2.04-2.06-3.17c-0.19-0.37-0.39-0.72-0.59-1.07c0.34-0.02,0.67-0.29,0.52-0.71c-0.11-0.33-0.17-0.65-0.18-0.98
		c1.77,1.68,2.91,4.01,4.07,6.13c1.33,2.44,2.67,4.8,4.29,7.05c4.11,5.69,7.76,11.7,12.29,17.08c-0.5,0.56-0.98,1.11-1.43,1.68
		c-0.09,0.11-0.14,0.23-0.18,0.34c-1.82-2.57-3.62-5.16-5.41-7.77c-2.89-4.2-5.98-8.16-9.19-12.12
		C390.26,331.76,387.31,325.3,386.12,322.33z M387.95,323.43c-0.13-0.14-0.3-0.24-0.5-0.31c0.22-0.19,0.41-0.4,0.6-0.62
		C387.98,322.81,387.95,323.12,387.95,323.43z"/>
	<path class="st5" d="M545.2,364.22C544.58,364.25,544.84,363.48,545.2,364.22L545.2,364.22z"/>
	<path class="st5" d="M531.38,394.8c4.42-0.13,9.89,4.53,13.97,1.28c0.98-0.79-0.41-2.16-1.38-1.38c-0.22,0.18-0.46,0.3-0.72,0.39
		c0.26-0.8,0.66-2.08,0.53-3.05c0.55-0.05,1.1-0.09,1.66-0.1c1.26-0.02,1.26-1.97,0-1.95c-3.29,0.05-6.35,0.79-9.49,1.7
		c-1.16,0.34-2.28,0.63-3.44,0.79c2.64-1.69,6.01-2.11,8.92-3.3c0.69-0.28,0.39-1.42-0.31-1.13c-3.59,1.46-7.8,1.84-10.69,4.56
		c-0.04,0-0.07,0-0.1,0c-0.12,0-0.24-0.01-0.36-0.01c2.95-3.29,6.88-5.82,11.31-6.42c0.08-0.01,0.16-0.03,0.23-0.06
		c0.57,0.03,1.79,0.15,1.68-0.61c0-0.02-0.01-0.04-0.01-0.06c0-0.04,0.01-0.07,0-0.11c-0.03-0.37-0.39-0.56-0.81-0.63
		c-0.23-0.06-0.49-0.08-0.75-0.08c-0.21-0.2-0.5-0.34-0.85-0.34c-6.42-0.01-10.46,5.74-14.23,8.06c-0.14,0.09-0.75,0.05-0.79,0.19
		c-0.82-0.02-4.21,1.15-6.24,0.35c-0.58-0.23,2.73,1.43,5.97,0.93c-3.44,1.56-4.11,3.83-3.62,3.44c2.99-2.42,6.93-2.79,8.48-2.7
		c0.14,0.01,0.28,0.01,0.42,0.01C530.89,394.72,531.1,394.81,531.38,394.8z M536.03,393.7c1.57-0.43,3.11-0.86,4.67-1.19
		c0.04,0.83,0.17,1.65,0.18,2.49c0,0.06,0.01,0.13,0.02,0.19c-1.24-0.22-2.5-0.72-3.44-1.02
		C536.99,394.01,536.51,393.85,536.03,393.7z"/>
	<path class="st5" d="M543.54,380.66c-3.96-11.69-17.17,2.1-21.54,6.68c-0.87,0.91-2.25-0.47-1.38-1.38
		c5.54-5.81,20.07-19.77,24.8-5.82C545.83,381.34,543.94,381.85,543.54,380.66z"/>
	<path class="st5" d="M495.46,410.38c-2.47,0.84-5.31-0.9-4.81-3.38c-0.71-0.45-1.47-0.94-2.15-1.5c0.26,0.66,0.59,1.3,1.04,1.89
		c0.76,1-0.93,1.97-1.69,0.99c-1.08-1.43-1.62-3.17-1.92-4.92c-0.07-0.41,0.09-0.74,0.35-0.96c-0.07-0.26-0.12-0.53-0.15-0.81
		c-0.61-0.11-1.25-0.11-1.87-0.12c-0.85,0-1.12-0.88-0.83-1.46c-0.46,0.1-1.26,0.33-1.27,0.9c-0.02,0.83,0.66,1.5,1.22,2.03
		c0.54,0.53-0.29,1.36-0.83,0.83c-0.79-0.77-1.7-1.81-1.54-3.01c0.12-0.89,0.85-1.51,1.67-1.77c1.76-0.55,3.78-0.14,5.31,0.9
		c0.8,0.17,1.52,0.53,2.16,1.12c0.88,0.81,1.67,2.06,2.96,2.14c1.25,0.08,1.26,2.03,0,1.95c-1.11-0.07-2.04-0.47-2.85-1.24
		c-0.66-0.63-1.24-1.39-2.02-1.81c0.59,1.64,2.65,2.7,4.06,3.58c0.47,0.29,0.6,0.85,0.35,1.34c-0.74,1.45,1.36,1.74,2.28,1.43
		C496.13,408.09,496.64,409.98,495.46,410.38z"/>
	<path class="st5" d="M480.91,370.03l0.04,0.02c0.15,0.07,0.11,0.27,0,0.35c-0.13,0.09-0.21,0.13-0.31,0.1
		c-0.09,0.04-0.18,0.07-0.29,0.05c-0.09-0.01-0.17-0.06-0.19-0.15c-0.06-0.26,0.02-0.63,0.32-0.71
		C480.72,369.61,480.9,369.81,480.91,370.03z"/>
</g>
</svg>
