<svg width="163" height="200" viewBox="0 0 163 200" fill="none" xmlns="http://www.w3.org/2000/svg">
  <path fill-rule="evenodd" clip-rule="evenodd" d="M119.237 114.453C119.371 114.52 119.506 114.585 119.537 114.753C118.568 118.274 115.356 120.462 112.642 122.548C110.047 124.541 107.172 127.683 103.498 127.494C108.183 122.585 115.035 119.845 119.237 114.453Z" fill="#ffffff"/>
  <path fill-rule="evenodd" clip-rule="evenodd" d="M67.3718 8.92235C63.8178 9.1161 60.329 10.6735 55.9793 10.5713C60.9119 29.7835 60.0191 52.5955 64.6735 72.3302C67.7078 85.1948 74.0239 97.691 81.1625 106.807C86.3286 113.405 94.8711 120.84 105.446 117C125.064 109.877 137.394 90.6707 146.369 72.63C150.41 64.507 152.393 54.8136 155.213 45.9478C158.067 36.9744 160.951 27.5906 160.61 15.9677C156.503 16.177 153.797 14.9852 150.716 14.1688C149.901 16.0091 150.604 19.7164 148.767 20.4646C146.511 21.3838 142.016 18.9988 138.574 18.8157C136.051 18.6815 128.538 19.7223 127.332 18.5159C125.951 17.1348 127.524 13.3695 127.781 12.0701C128.135 10.2883 128.064 6.78515 128.981 5.62447C130.723 3.41803 137.991 4.36578 141.123 4.72512C146.432 5.33432 154.116 5.49536 151.466 11.6205C154.717 12.9535 161.185 12.2947 162.558 15.0681C163.319 16.604 162.89 23.5074 162.708 26.0109C161.922 36.8632 158.389 45.8015 155.513 54.492C151.446 66.7804 148.128 79.064 142.922 89.4188C134.511 106.146 125.606 118.796 111.892 129.742C107.613 133.157 102.442 137.059 100.2 141.734C98.2794 145.737 97.8307 150.16 96.9021 154.176C95.9276 158.389 94.5014 162.199 92.8547 165.868C86.4177 180.208 80.2396 195.486 63.7741 199.445C55.0534 201.543 45.9052 197.319 40.3896 193C28.3563 183.577 25.3043 164.37 28.2477 144.732C29.5443 136.081 31.9616 127.906 34.5436 119.699C37.1762 111.33 44.1562 93.9386 37.3918 86.121C35.6595 84.1192 32.0082 81.9083 28.3976 83.123C30.2896 86.8097 31.8917 88.8918 31.3957 94.2155C30.2279 106.749 13.7606 113.357 4.41369 104.109C-6.5531 93.2585 4.35531 71.0576 21.3524 78.0263C22.8435 78.6376 24.2032 80.513 25.9993 80.8745C29.3441 81.5477 31.5363 80.7256 33.7941 81.3241C40.0196 82.9746 43.2625 88.6121 42.7881 97.6633C42.2553 107.831 38.8173 115.934 35.8928 124.645C30.7298 140.025 25.6756 165.517 34.2438 181.458C38.5585 189.485 44.449 193.317 53.1312 196.448C62.8843 199.965 71.8256 193.734 77.1153 188.653C82.7123 183.276 86.8754 175.407 89.5569 167.217C91.9686 159.852 94.8853 146.564 91.5057 137.687C89.9762 133.669 83.7606 130.844 81.1625 127.194C64.0858 103.198 60.5006 64.5591 56.429 26.9102C56.1219 24.0697 55.6401 20.9842 55.0799 17.9164C54.6224 15.4106 53.4738 10.6147 54.7801 9.07231C57.036 6.4084 63.5005 7.93225 67.5217 6.67384C67.22 -1.54949 78.3005 -0.322343 85.06 0.827693C87.3255 1.21309 91.235 1.75277 91.8055 3.226C92.5416 5.12693 91.0802 7.69714 90.6063 9.97166C90.2938 11.4713 89.8819 15.2343 88.5077 15.9677C86.1453 17.2283 81.3545 15.5075 77.8647 15.3679C75.4006 15.2696 68.2778 16.574 67.072 15.3679C65.6492 13.9453 67.3325 10.7396 67.3718 8.92235ZM70.2199 3.67592C70.4846 7.11328 70.1105 10.2125 69.4704 13.1195C74.8637 12.2369 81.8614 12.3928 87.1586 13.2695C87.8151 10.3284 88.418 7.33359 89.2572 4.57522C83.6328 3.28903 76.3028 1.97158 70.2199 3.67592ZM130.929 7.12343C131.488 9.87104 130.879 13.1399 130.33 15.668C136.586 15.6074 142.487 15.9026 147.269 17.3169C147.889 14.489 148.694 11.8471 149.367 9.07242C144.139 7.559 137.475 6.38324 130.929 7.12343ZM2.01516 92.7167C2.18518 108.816 27.0969 110.141 28.6974 94.5153C29.2096 89.5152 27.6535 86.4927 25.3996 83.7225C24.1853 85.1782 19.6479 86.2091 19.7034 87.9197C19.7216 88.4838 21.3415 89.8509 21.5022 90.3181C22.7618 93.985 20.1108 97.534 16.4056 97.5133C8.88383 97.4715 9.97505 84.84 18.0545 87.1704C19.5575 84.9759 21.5142 83.2349 23.6007 81.6242C13.7986 75.5162 1.90312 82.0946 2.01516 92.7167ZM116.539 114.302C112.144 116.821 107.17 119.885 101.399 120.298C90.633 121.07 83.7239 114.056 79.064 107.857C74.4119 101.668 71.2277 94.7295 67.9713 88.0697C71.7409 102.839 75.6867 114.902 82.8115 125.395C85.09 128.751 88.5796 130.672 91.6557 133.939C94.9808 137.471 94.7738 144.205 95.4032 150.278C96.624 144.182 98.612 138.273 102.299 134.389C109.534 126.766 118.323 121.316 124.934 112.953C131.41 104.76 137 95.9996 141.572 85.6712C134.461 96.6379 127.849 107.821 116.539 114.302ZM15.5062 95.1151C20.2257 96.2611 20.5493 88.8273 16.2558 89.2688C13.034 89.6003 12.6841 94.4297 15.5062 95.1151Z" fill="#ffffff"/>
  </svg>