<svg width="120" height="120" viewBox="0 0 120 120" fill="none" xmlns="http://www.w3.org/2000/svg">
<g opacity="0.1">
<path d="M40.8877 58.6958C37.0922 58.6958 33.3857 58.0965 29.8711 56.9146L30.8557 53.9867C34.0524 55.0618 37.4276 55.6069 40.8877 55.6069C44.4188 55.6069 47.858 55.04 51.1098 53.9219L52.1142 56.843C48.5385 58.0724 44.7613 58.6958 40.8877 58.6958Z" fill="#00001B"/>
<path d="M40.8801 73.6132L39.4982 72.259C31.316 64.2406 27.4322 55.6577 23.3204 46.571C23.0427 45.9573 22.7638 45.341 22.4824 44.7224L26.0976 43.0781C26.38 43.6991 26.6599 44.3176 26.9386 44.9337C30.6475 53.1298 34.163 60.8993 40.8985 68.0187C48.5021 60.1246 51.9692 51.8881 55.628 43.1963L55.656 43.1298L59.3163 44.6707L59.2884 44.7371C57.3612 49.3153 55.3684 54.0493 52.7657 58.6356C49.8282 63.8119 46.3949 68.2708 42.2698 72.267L40.8801 73.6132Z" fill="#231F20"/>
<path d="M58.5171 44.4597L56.616 43.34C61.4142 35.1931 68.182 19.2521 63.1124 11.1811C60.4312 6.91269 54.6368 5.11812 45.8903 5.84736L45.707 3.6486C50.6859 3.23356 54.8612 3.60609 58.117 4.7561C61.1571 5.82993 63.4665 7.59679 64.9808 10.0075C66.5401 12.4901 67.2587 15.6657 67.1165 19.4462C67.0022 22.4875 66.3309 25.9523 65.1214 29.7442C62.8018 37.016 59.213 43.2782 58.5171 44.4597Z" fill="#808080"/>
<path d="M23.4607 44.5223C22.7649 43.3408 19.1761 37.0786 16.8565 29.8067C15.647 26.0148 14.9758 22.5501 14.8614 19.5088C14.7192 15.7282 15.4378 12.5526 16.9972 10.0701C18.5115 7.65932 20.8208 5.89246 23.8609 4.81863C27.1167 3.66864 31.2919 3.29602 36.2709 3.71112L36.0876 5.90988C27.341 5.18069 21.5467 6.97522 18.8655 11.2437C13.7958 19.3147 20.5636 35.2557 25.3619 43.4025L23.4607 44.5223Z" fill="#808080"/>
<path d="M83.3904 66.6246C88.2768 66.6246 92.2379 62.6635 92.2379 57.7772C92.2379 52.8908 88.2768 48.9297 83.3904 48.9297C78.5041 48.9297 74.543 52.8908 74.543 57.7772C74.543 62.6635 78.5041 66.6246 83.3904 66.6246Z" fill="#414042"/>
<path d="M83.39 66.7566C78.4385 66.7566 74.4102 62.7282 74.4102 57.7767C74.4102 52.8252 78.4385 48.7969 83.39 48.7969C88.3416 48.7969 92.3699 52.8252 92.3699 57.7767C92.3699 62.7283 88.3416 66.7566 83.39 66.7566ZM83.39 49.0616C78.5845 49.0616 74.6749 52.9712 74.6749 57.7767C74.6749 62.5823 78.5845 66.4918 83.39 66.4918C88.1956 66.4918 92.1051 62.5823 92.1051 57.7767C92.1051 52.9712 88.1956 49.0616 83.39 49.0616Z" fill="#808285"/>
<path d="M72.8176 118.474C72.0178 118.474 71.2154 118.447 70.4095 118.394C65.837 118.089 61.3767 116.926 57.1525 114.938C52.9283 112.95 49.1897 110.254 46.0406 106.924C42.9943 103.704 40.6249 100.029 38.9984 96.0019C37.3675 91.9644 36.5651 87.7756 36.6134 83.552C36.6635 79.1688 37.6319 74.9428 39.4916 70.9915L42.2865 72.3069C38.98 79.3321 38.8295 87.3363 41.8625 94.845C44.9123 102.395 50.8095 108.539 58.4679 112.143C63.1269 114.336 68.0177 115.375 72.7699 115.375C84.1013 115.376 94.6557 109.472 99.4785 99.2247C102.785 92.1995 102.936 84.1953 99.9025 76.6865C96.8527 69.1362 90.9555 62.993 83.2971 59.3886L84.6124 56.5938C88.8367 58.5819 92.5752 61.278 95.7243 64.6073C98.7706 67.828 101.14 71.5028 102.767 75.5297C104.397 79.5672 105.2 83.7559 105.152 87.9795C105.101 92.3628 104.133 96.5888 102.273 100.54C100.414 104.491 97.7742 107.931 94.4284 110.763C91.2044 113.492 87.4652 115.543 83.3144 116.86C79.9289 117.933 76.4074 118.474 72.8176 118.474Z" fill="#231F20"/>
<path d="M86.3821 60.7205C88.0356 59.067 88.0356 56.3861 86.3821 54.7326C84.7286 53.0791 82.0478 53.0792 80.3943 54.7326C78.7408 56.3861 78.7408 59.067 80.3943 60.7205C82.0478 62.374 84.7286 62.374 86.3821 60.7205Z" fill="#00001B"/>
<path d="M83.3899 62.1001C80.9822 62.1001 79.0234 60.1413 79.0234 57.7337C79.0234 55.326 80.9822 53.3672 83.3899 53.3672C85.7976 53.3672 87.7564 55.326 87.7564 57.7337C87.7564 60.1413 85.7976 62.1001 83.3899 62.1001ZM83.3899 53.632C81.1282 53.632 79.2882 55.472 79.2882 57.7337C79.2882 59.9953 81.1282 61.8353 83.3899 61.8353C85.6516 61.8353 87.4916 59.9953 87.4916 57.7337C87.4916 55.472 85.6516 53.632 83.3899 53.632Z" fill="#808285"/>
<path d="M36.089 4.5406C36.089 5.75519 35.274 6.77948 34.1611 7.09717C33.9291 7.16303 33.6845 7.19838 33.4312 7.19838C31.9633 7.19838 30.7734 6.00848 30.7734 4.5406C30.7734 3.07271 31.9633 1.88281 33.4312 1.88281C33.6845 1.88281 33.9291 1.91816 34.1611 1.98402C35.274 2.30171 36.089 3.32598 36.089 4.5406Z" fill="#414042"/>
<path d="M36.0891 4.54095C36.0891 5.75554 35.2741 6.77984 34.1612 7.09753C33.3078 6.56626 32.7402 5.61997 32.7402 4.54095C32.7402 3.46196 33.3078 2.51516 34.1612 1.98438C35.2741 2.30206 36.0891 3.32634 36.0891 4.54095Z" fill="#231F20"/>
<path d="M36.0898 7.55074C37.7521 7.55074 39.0996 6.20323 39.0996 4.54099C39.0996 2.87876 37.7521 1.53125 36.0898 1.53125C34.4276 1.53125 33.0801 2.87876 33.0801 4.54099C33.0801 6.20323 34.4276 7.55074 36.0898 7.55074Z" fill="#414042"/>
<path d="M45.3734 4.53993C45.3231 5.75349 46.095 6.81064 47.1938 7.17417C47.4229 7.24958 47.6658 7.29503 47.9189 7.30552C49.3855 7.36631 50.6237 6.22672 50.6844 4.76011C50.7452 3.29349 49.6057 2.05531 48.139 1.99451C47.886 1.98403 47.6401 2.00923 47.4056 2.06541C46.2805 2.33675 45.4237 3.32637 45.3734 4.53993Z" fill="#414042"/>
<path d="M45.3734 4.53702C45.3231 5.75058 46.0951 6.80773 47.1938 7.17126C48.0684 6.67578 48.6747 5.75382 48.7194 4.67574C48.7641 3.59766 48.2362 2.62818 47.4056 2.0625C46.2805 2.33384 45.4237 3.32346 45.3734 4.53702Z" fill="#231F20"/>
<path d="M47.5018 6.66725C48.6771 5.49189 48.6771 3.58624 47.5018 2.41087C46.3264 1.23551 44.4207 1.23551 43.2454 2.41087C42.07 3.58624 42.07 5.49189 43.2454 6.66725C44.4207 7.84262 46.3264 7.84262 47.5018 6.66725Z" fill="#414042"/>
<path d="M83.3879 57.9477C83.4813 57.9477 83.5571 57.8719 83.5571 57.7785C83.5571 57.6851 83.4813 57.6094 83.3879 57.6094C83.2945 57.6094 83.2188 57.6851 83.2188 57.7785C83.2188 57.8719 83.2945 57.9477 83.3879 57.9477Z" fill="#414042"/>
<path d="M84.2228 45.7026C84.0839 45.6929 83.9791 45.5724 83.9889 45.4335L84.1938 42.5157C84.2035 42.3768 84.3241 42.2721 84.463 42.2819C84.6019 42.2916 84.7066 42.4122 84.6968 42.5511L84.492 45.4688C84.4822 45.6077 84.3617 45.7124 84.2228 45.7026Z" fill="#414042"/>
<path d="M73.5399 50.9592C73.462 51.0746 73.3052 51.1051 73.1898 51.0272L70.7654 49.3909C70.65 49.313 70.6196 49.1562 70.6975 49.0408C70.7754 48.9254 70.9321 48.895 71.0475 48.9729L73.4719 50.6092C73.5874 50.6871 73.6178 50.8438 73.5399 50.9592Z" fill="#414042"/>
<path d="M72.8542 62.7355C72.9152 62.8607 72.8632 63.0116 72.738 63.0726L70.1088 64.354C69.9836 64.4151 69.8326 64.363 69.7716 64.2379C69.7106 64.1127 69.7626 63.9617 69.8878 63.9007L72.5171 62.6193C72.6423 62.5583 72.7932 62.6103 72.8542 62.7355Z" fill="#414042"/>
<path d="M82.5606 69.3991C82.6995 69.4088 82.8043 69.5293 82.7945 69.6683L82.5896 72.586C82.5799 72.7249 82.4593 72.8296 82.3204 72.8199C82.1815 72.8101 82.0768 72.6896 82.0866 72.5507L82.2915 69.6329C82.3012 69.494 82.4217 69.3893 82.5606 69.3991Z" fill="#414042"/>
<path d="M76.7737 67.4026C76.8891 67.4805 76.9195 67.6372 76.8416 67.7526L75.2053 70.177C75.1274 70.2924 74.9707 70.3228 74.8553 70.2449C74.7398 70.167 74.7094 70.0103 74.7873 69.8949L76.4236 67.4705C76.5015 67.3551 76.6582 67.3246 76.7737 67.4026Z" fill="#414042"/>
<path d="M71.5933 56.7794C71.5836 56.9183 71.463 57.023 71.3241 57.0132L68.4064 56.8084C68.2674 56.7986 68.1627 56.6781 68.1725 56.5392C68.1823 56.4003 68.3028 56.2956 68.4417 56.3053L71.3594 56.5102C71.4984 56.52 71.6031 56.6405 71.5933 56.7794Z" fill="#414042"/>
<path d="M78.2086 46.9753C78.0834 47.0363 77.9324 46.9843 77.8714 46.8591L76.59 44.2299C76.529 44.1047 76.581 43.9537 76.7062 43.8927C76.8314 43.8317 76.9823 43.8837 77.0433 44.0089L78.3247 46.6382C78.3857 46.7634 78.3337 46.9143 78.2086 46.9753Z" fill="#414042"/>
<path d="M90.0037 47.8074C89.8883 47.7295 89.8578 47.5728 89.9357 47.4574L91.572 45.033C91.6499 44.9176 91.8067 44.8871 91.9221 44.965C92.0375 45.0429 92.068 45.1997 91.99 45.3151L90.3538 47.7395C90.2758 47.8549 90.1191 47.8853 90.0037 47.8074Z" fill="#414042"/>
<path d="M95.1842 58.4298C95.194 58.2909 95.3145 58.1862 95.4534 58.1959L98.3712 58.4008C98.5101 58.4106 98.6148 58.5311 98.605 58.67C98.5952 58.8089 98.4747 58.9136 98.3358 58.9039L95.4181 58.699C95.2792 58.6892 95.1745 58.5687 95.1842 58.4298Z" fill="#414042"/>
<path d="M88.5675 68.2365C88.6927 68.1755 88.8436 68.2275 88.9046 68.3527L90.1861 70.9819C90.2471 71.1071 90.1951 71.2581 90.0699 71.3191C89.9447 71.3801 89.7938 71.3281 89.7328 71.2029L88.4513 68.5736C88.3903 68.4484 88.4423 68.2975 88.5675 68.2365Z" fill="#414042"/>
<path d="M94.3888 52.2457C94.3278 52.1205 94.3798 51.9695 94.505 51.9085L97.1343 50.6271C97.2595 50.5661 97.4104 50.6181 97.4714 50.7433C97.5324 50.8685 97.4804 51.0194 97.3552 51.0804L94.726 52.3619C94.6008 52.4229 94.4498 52.3709 94.3888 52.2457Z" fill="#414042"/>
<path d="M57.9963 24.836C57.8825 24.8595 57.7607 24.8733 57.6315 24.8745C54.4216 24.9045 51.2109 24.8653 48.0007 24.8377C46.3904 24.8237 44.253 25.1793 43.6879 22.7127C43.6358 22.9005 42.5449 26.5261 41.9178 28.5742C41.2906 23.5217 39.8244 14.0391 39.8244 14.0391L36.5617 24.8388C36.5617 24.8388 34.2581 22.4436 34.2229 22.5345C33.3903 24.6822 31.7539 24.7696 29.8288 24.8933C28.025 25.0094 26.2033 24.9698 24.1768 24.8973C24.0444 24.8926 23.9215 24.8843 23.8066 24.872V26.3746C24.801 26.3744 25.6762 26.3737 26.5513 26.3751C28.4876 26.3779 29.1032 26.4099 31.0367 26.3683C32.0744 26.3459 34.1392 26.285 34.5197 24.6786C35.5609 25.9374 36.3779 26.9254 37.456 28.2289C38.1248 25.6238 38.6627 23.5281 39.2778 21.1328C39.9162 26.2565 41.3904 35.9206 41.3904 35.9206C41.3904 35.9206 43.3099 29.6779 44.1621 26.4428H57.9963V24.836Z" fill="#00001B"/>
</g>
</svg>
