<svg width="200" height="200" viewBox="0 0 200 200" fill="none" xmlns="http://www.w3.org/2000/svg">
<g opacity="0.6">
<path d="M198.438 100C198.438 126.294 188.198 151.014 169.606 169.606C151.013 188.198 126.294 198.438 100 198.438C84.0277 198.438 68.3266 194.566 54.2895 187.202L56.2883 191.655C56.9066 193.033 56.291 194.651 54.9133 195.269C53.5355 195.887 51.9176 195.272 51.2992 193.894L45.8156 181.677C45.4684 180.904 45.4996 180.013 45.9004 179.266C46.3012 178.518 47.0258 177.999 47.8625 177.861L61.0531 175.671C62.5434 175.424 63.9508 176.432 64.198 177.921C64.4453 179.411 63.4383 180.819 61.9484 181.066L56.1926 182.021C69.6078 189.194 84.6719 192.969 100 192.969C151.263 192.969 192.969 151.264 192.969 100C192.969 77.3742 184.746 55.5699 169.814 38.6047C168.816 37.4711 168.927 35.7434 170.06 34.7457C171.194 33.748 172.921 33.8586 173.919 34.9918C189.73 52.9562 198.438 76.0434 198.438 100H198.438ZM100 7.03164C115.328 7.03164 130.393 10.8066 143.807 17.9793L138.052 18.9348C136.562 19.182 135.555 20.5898 135.802 22.0797C136.049 23.5695 137.46 24.5773 138.947 24.3293L152.137 22.1402C152.974 22.0016 153.699 21.4824 154.1 20.7352C154.5 19.9879 154.532 19.0969 154.184 18.3234L148.701 6.10664C148.082 4.72852 146.464 4.11367 145.087 4.73164C143.709 5.35 143.093 6.96836 143.712 8.3457L145.711 12.7988C131.674 5.43437 115.973 1.5625 100 1.5625C73.7066 1.5625 48.9867 11.802 30.3945 30.3941C11.8023 48.9863 1.5625 73.7066 1.5625 100C1.5625 123.957 10.2699 147.045 26.0809 165.009C26.6211 165.623 27.3758 165.937 28.1344 165.937C28.7758 165.937 29.4203 165.712 29.9398 165.255C31.0734 164.257 31.1836 162.529 30.1859 161.396C15.2543 144.43 7.03125 122.626 7.03125 100C7.03125 48.7371 48.7367 7.03164 100 7.03164ZM45.2406 123.472C46.2535 115.472 45.4727 108.277 42.9188 102.087C38.5816 92.6484 33.0348 73.8758 39.648 63.1246C42.5988 58.3277 47.4684 55.7731 54.1211 55.5324C59.0984 55.3504 63.0109 56.577 66.4648 57.6578C69.2973 58.5438 71.968 59.3832 74.9449 59.3555H74.9918C77.959 59.3797 80.6395 58.5438 83.4719 57.6578C84.5078 57.3336 85.5867 56.9973 86.7215 56.6891C86.3559 49.3707 87.8687 43.7059 91.2426 39.8398C94.2539 36.3891 98.6078 34.5371 104.183 34.3352C109.159 34.1535 113.073 35.3797 116.527 36.4605C119.359 37.3469 122.026 38.1773 125.007 38.1582H125.054C128.029 38.1848 130.702 37.3465 133.534 36.4605C136.988 35.3797 140.904 34.1562 145.877 34.3352C152.53 34.5758 157.4 37.1305 160.351 41.9277C166.964 52.6793 161.418 71.4512 157.08 80.8898C154.527 87.0793 153.745 94.2746 154.759 102.275C154.766 102.332 154.771 102.389 154.775 102.446C155.282 110.488 154.824 117.868 153.413 124.38C151.532 133.063 149.161 138.991 146.364 141.999C144.884 143.591 143.065 144.474 141.242 144.487C141.229 144.487 141.216 144.487 141.203 144.487C138.889 144.487 136.862 143.069 135.776 140.686C134.913 138.793 134.754 136.313 134.512 132.559C134.454 131.648 134.39 130.654 134.31 129.569C133.938 124.529 133.394 119.091 131.941 113.477C131.529 111.887 130.406 107.795 128.862 104.135C126.877 99.4313 125.454 98.3461 125.028 98.1137C124.611 98.3438 123.187 99.4258 121.2 104.135C119.657 107.795 118.533 111.887 118.121 113.477C116.669 119.089 116.124 124.528 115.752 129.569C115.672 130.653 115.608 131.646 115.55 132.556C115.308 136.311 115.149 138.792 114.286 140.686C113.2 143.069 111.173 144.487 108.859 144.487C108.845 144.487 108.832 144.487 108.819 144.487C107.106 144.475 105.4 143.686 103.971 142.27C103.79 143.395 103.585 144.5 103.352 145.578C101.47 154.261 99.0984 160.189 96.3016 163.197C94.8219 164.789 93.0031 165.672 91.1801 165.685C91.1668 165.685 91.1535 165.685 91.1406 165.685C88.8266 165.685 86.8 164.266 85.7137 161.883C84.8508 159.991 84.6914 157.511 84.4504 153.756C84.3922 152.846 84.3281 151.852 84.248 150.767C83.8762 145.727 83.3316 140.289 81.8789 134.675C81.4672 133.085 80.3438 128.992 78.8 125.333C76.8152 120.629 75.3922 119.544 74.966 119.311C74.5488 119.541 73.125 120.623 71.1383 125.333C69.5945 128.992 68.4707 133.085 68.0594 134.675C66.6066 140.287 66.0621 145.726 65.6898 150.767C65.6098 151.851 65.5461 152.845 65.4875 153.755C65.2465 157.51 65.0871 159.99 64.2242 161.883C63.1313 164.28 61.0762 165.703 58.7574 165.684C56.9352 165.672 55.1164 164.788 53.6363 163.196C50.8391 160.188 48.4672 154.26 46.5867 145.578C45.1758 139.065 44.7176 131.685 45.2254 123.643C45.2289 123.586 45.2344 123.529 45.2418 123.472L45.2406 123.472ZM92.1512 55.65C93.309 55.5348 94.5262 55.4855 95.8156 55.5324C102.469 55.7731 107.339 58.3277 110.289 63.1246C116.903 73.8758 111.355 92.6488 107.018 102.087C104.464 108.277 103.683 115.471 104.696 123.472C104.704 123.529 104.709 123.586 104.713 123.643C104.92 126.918 104.963 130.08 104.85 133.122C106.017 136.089 107.038 137.56 107.703 138.275C108.247 138.86 108.696 139.017 108.857 139.018C108.921 139 109.114 138.847 109.31 138.416C109.756 137.438 109.904 135.129 110.092 132.205C110.151 131.28 110.216 130.269 110.298 129.166C110.689 123.87 111.266 118.138 112.827 112.106C116.123 99.3703 120.188 92.8047 124.908 92.5926C124.99 92.5887 125.072 92.5887 125.154 92.5926C129.874 92.8043 133.939 99.3699 137.235 112.106C138.796 118.139 139.373 123.871 139.764 129.166C139.845 130.27 139.911 131.282 139.97 132.208C140.157 135.13 140.306 137.438 140.752 138.416C140.948 138.846 141.14 139 141.181 139.018C141.366 139.017 141.815 138.86 142.359 138.275C144.388 136.092 146.469 130.605 148.069 123.222C149.368 117.225 149.79 110.379 149.323 102.874C148.203 93.932 149.12 85.8156 152.048 78.7484C152.062 78.7156 152.076 78.6832 152.091 78.6512C156.296 69.523 160.725 52.973 155.693 44.7922C153.733 41.6055 150.458 39.9727 145.68 39.7996C141.645 39.6543 138.497 40.6375 135.167 41.6793C132.062 42.6508 128.854 43.6566 125.031 43.6266C121.219 43.6523 118 42.6508 114.895 41.6793C111.565 40.6375 108.421 39.6539 104.381 39.7996C100.32 39.9465 97.3695 41.1359 95.3633 43.4352C92.6414 46.5539 92.0324 51.3945 92.1512 55.65ZM47.9086 99.8488C47.9234 99.8813 47.9375 99.9137 47.9512 99.9461C50.8797 107.013 51.7965 115.13 50.677 124.072C50.2094 131.577 50.6313 138.422 51.9305 144.42C53.5297 151.803 55.6109 157.289 57.6406 159.472C58.1848 160.057 58.6336 160.214 58.7949 160.215C58.859 160.198 59.0516 160.044 59.248 159.613C59.6938 158.636 59.8422 156.327 60.0297 153.404C60.0891 152.478 60.1539 151.467 60.2355 150.363C60.6266 145.067 61.2035 139.334 62.7648 133.303C66.0609 120.567 70.1258 114.002 74.8461 113.79C74.9277 113.786 75.0098 113.786 75.0914 113.79C79.8117 114.002 83.8766 120.567 87.1727 133.304C88.7344 139.336 89.3109 145.068 89.702 150.364C89.7832 151.467 89.8484 152.479 89.9078 153.405C90.0953 156.327 90.2438 158.636 90.6898 159.614C90.8859 160.044 91.0785 160.198 91.1195 160.215C91.3039 160.214 91.7527 160.057 92.2965 159.472C94.3258 157.29 96.4074 151.803 98.007 144.42C99.3063 138.422 99.7281 131.577 99.2605 124.072C98.1406 115.13 99.0578 107.013 101.987 99.9461C102 99.9133 102.014 99.8809 102.029 99.8488C106.234 90.7203 110.663 74.1703 105.631 65.9898C103.671 62.8035 100.396 61.1703 95.618 60.9973C91.5844 60.8539 88.4352 61.8352 85.1051 62.877C82 63.8484 78.7812 64.8547 74.9688 64.8242C71.1551 64.8594 67.9375 63.8484 64.8324 62.877C61.5027 61.8356 58.3605 60.8523 54.3191 60.9973C49.5414 61.1703 46.266 62.8035 44.3063 65.9898C39.2742 74.1703 43.7035 90.7207 47.9086 99.8488ZM53.8711 95.6723C54.3039 95.6723 54.7434 95.5691 55.152 95.352C56.4855 94.6434 56.9918 92.9875 56.2832 91.6543C52.5922 84.7102 52.0602 75.3184 53.3281 72.1539C53.8898 70.7523 53.2086 69.1606 51.807 68.5988C50.4063 68.0371 48.8137 68.718 48.252 70.1199C46.2988 74.9949 47.1332 86.0918 51.4543 94.2207C51.9457 95.1453 52.8926 95.6723 53.8711 95.6723Z" fill="#09BBAF"/>
</g>
</svg>
