<svg width="171" height="171" viewBox="0 0 171 171" fill="none" xmlns="http://www.w3.org/2000/svg">
<g opacity="0.23" clip-path="url(#clip0_47_4486)">
<path fill-rule="evenodd" clip-rule="evenodd" d="M67.0533 126.579C67.1033 133.277 67.904 140.677 68.8901 147.114C71.6533 165.145 71.6888 167.633 66.9525 167.179C50.6872 162.567 44.6931 146.998 42.2612 135.781C43.9788 135.323 45.6101 134.839 47.1146 134.366C53.7586 132.274 60.4554 129.604 67.0533 126.58V126.579ZM38.4917 117.317C36.487 112.414 33.599 108.226 31.6019 103.837C31.6941 102.703 31.3552 101.54 30.5736 100.6C30.4594 100.462 30.3384 100.334 30.2126 100.213C29.7585 98.7159 29.4513 97.1701 29.3543 95.5436C29.0326 90.1247 28.759 83.4385 28.5737 76.6543C30.0849 78.0954 31.6134 79.5068 33.1487 80.8893C40.6741 87.6659 48.694 93.9633 57.0364 99.7019C60.0042 101.743 63.0045 103.74 66.0356 105.688C64.2565 106.586 62.464 107.459 60.657 108.305C53.8968 111.469 47.0109 114.206 40.003 116.767L38.4917 117.316V117.317ZM28.4297 50.5141C28.5007 48.1858 28.6073 46.2377 28.7552 44.8119C30.2347 30.4678 35.7852 25.2879 50.3271 23.8612C57.0239 23.8545 61.5096 25.7757 65.8599 28.1539C75.9517 33.6707 80.5411 39.8942 92.4322 39.1808C99.3373 38.768 99.8472 35.6438 96.0749 35.2587C90.005 34.6404 84.8549 33.2099 81.2247 31.2061C78.4989 29.7016 80.0764 26.898 82.0936 26.8952C94.9554 27.3887 105.01 23.8986 113.125 23.7076C133.609 23.2227 140.58 24.7541 142.118 49.5213C142.139 49.8535 142.159 50.2203 142.176 50.613C140.311 52.9019 138.275 54.9921 136.986 56.2441C129.864 63.1588 121.859 69.5139 113.885 75.4147C104.658 82.2431 95.085 88.6711 85.3436 94.7467C75.6022 88.6711 66.0289 82.2431 56.8022 75.4147C48.8284 69.5139 40.8229 63.1588 33.7017 56.2441C32.394 54.9748 30.3163 52.8424 28.4316 50.5141H28.4297ZM142.241 76.5294C142.114 83.5345 141.895 90.4492 141.592 95.5436C141.503 97.0606 141.228 98.5075 140.823 99.9112C140.566 100.11 140.327 100.339 140.111 100.6C139.227 101.662 138.908 103.01 139.14 104.278C137.143 108.531 134.361 112.625 132.421 117.4C131.841 117.19 131.261 116.979 130.681 116.767C123.673 114.206 116.788 111.469 110.027 108.305C108.219 107.459 106.427 106.585 104.649 105.688C107.68 103.739 110.68 101.743 113.648 99.7019C121.99 93.9623 130.01 87.6659 137.536 80.8893C139.114 79.4674 140.688 78.0138 142.241 76.5294ZM128.671 135.846C126.23 147.059 120.228 162.574 103.994 167.178C99.2567 167.632 99.2932 165.144 102.055 147.113C103.053 140.603 103.734 133.295 103.716 126.618C110.287 129.625 116.954 132.281 123.569 134.364C125.144 134.86 126.861 135.368 128.67 135.846H128.671Z" fill="#09BBAF"/>
<path d="M136.264 123.538C119.915 117.746 105.001 112.234 83.9077 99.1396C63.0471 86.1905 43.1429 71.6697 30.574 59.4637C23.4518 52.5489 20.1596 47.0964 19.7055 43.4095C19.547 42.1239 19.7727 41.1408 20.3228 40.4802C21.4231 39.1581 25.0389 38.7107 26.7979 38.4361L27.6024 35.79C8.64874 32.7224 5.42466 43.5718 20.4611 61.5529C27.9865 70.553 41.746 83.7288 59.584 96.001C97.8371 122.318 149.357 146.05 159.749 126.572C163.611 118.291 149.562 107.328 143.566 103.468C155.814 116.477 165.447 131.49 136.265 123.536L136.264 123.538Z" fill="#00001B"/>
<path d="M34.4234 123.54C46.2232 119.359 57.2761 115.323 70.4441 108.478C71.9621 109.423 73.4877 110.357 75.021 111.278C76.8942 112.405 78.8001 113.53 80.7328 114.645C49.6316 131.494 18.7293 141.176 10.9389 126.575C7.07727 118.294 21.1257 107.33 27.1217 103.471C14.8734 116.48 5.24152 131.493 34.4234 123.539V123.54ZM89.6158 97.367C109.434 84.8778 128.115 71.1164 140.113 59.4654C147.236 52.5506 150.529 47.0981 150.983 43.4112C151.141 42.1256 150.916 41.1425 150.365 40.4819C149.265 39.1598 147.725 38.4714 145.965 38.1968L148.009 34.7788C162.907 32.4352 165.263 43.5735 150.226 61.5556C142.7 70.5557 128.941 83.7314 111.103 96.0037C107.52 98.4693 103.82 100.912 100.048 103.299C96.521 101.412 93.0463 99.4303 89.6139 97.367H89.6158Z" fill="#00001B"/>
<path fill-rule="evenodd" clip-rule="evenodd" d="M170.688 15.1958C160.314 15.1958 155.493 24.1864 155.493 30.3906C155.493 24.1864 150.671 15.1958 140.297 15.1958C150.67 15.1958 155.493 6.20429 155.493 0C155.493 6.20429 160.314 15.1958 170.688 15.1958Z" fill="#09BBAF"/>
<path fill-rule="evenodd" clip-rule="evenodd" d="M24.0226 19.1861C16.3752 19.1861 12.8208 25.8138 12.8208 30.3878C12.8208 25.8138 9.26649 19.1861 1.61914 19.1861C9.26649 19.1861 12.8208 12.5584 12.8208 7.98438C12.8208 12.5584 16.3752 19.1861 24.0226 19.1861Z" fill="#09BBAF"/>
<path fill-rule="evenodd" clip-rule="evenodd" d="M161.167 159.483C153.52 159.483 149.965 166.111 149.965 170.685C149.965 166.111 146.411 159.483 138.764 159.483C146.411 159.483 149.965 152.855 149.965 148.281C149.965 152.855 153.52 159.483 161.167 159.483Z" fill="#00001B"/>
<path fill-rule="evenodd" clip-rule="evenodd" d="M33.3086 151.989C27.86 151.989 25.3272 156.712 25.3272 159.971C25.3272 156.712 22.7944 151.989 17.3457 151.989C22.7944 151.989 25.3272 147.266 25.3272 144.008C25.3272 147.266 27.86 151.989 33.3086 151.989Z" fill="#09BBAF"/>
<path fill-rule="evenodd" clip-rule="evenodd" d="M82.9688 7.98147C77.5201 7.98147 74.9873 12.7043 74.9873 15.9629C74.9873 12.7043 72.4545 7.98147 67.0059 7.98147C72.4545 7.98147 74.9873 3.25864 74.9873 0C74.9873 3.25864 77.5201 7.98147 82.9688 7.98147Z" fill="#00001B"/>
</g>
<defs>
<clipPath id="clip0_47_4486">
<rect width="170.688" height="170.688" fill="white"/>
</clipPath>
</defs>
</svg>
